<?xml version="1.0" encoding="utf-8" standalone="no"?>
<!DOCTYPE svg PUBLIC "-//W3C//DTD SVG 1.1//EN"
  "http://www.w3.org/Graphics/SVG/1.1/DTD/svg11.dtd">
<svg xmlns:xlink="http://www.w3.org/1999/xlink" width="1149.4pt" height="408.90375pt" viewBox="0 0 1149.4 408.90375" xmlns="http://www.w3.org/2000/svg" version="1.1">
 <metadata>
  <rdf:RDF xmlns:dc="http://purl.org/dc/elements/1.1/" xmlns:cc="http://creativecommons.org/ns#" xmlns:rdf="http://www.w3.org/1999/02/22-rdf-syntax-ns#">
   <cc:Work>
    <dc:type rdf:resource="http://purl.org/dc/dcmitype/StillImage"/>
    <dc:date>2024-05-20T20:59:42.630269</dc:date>
    <dc:format>image/svg+xml</dc:format>
    <dc:creator>
     <cc:Agent>
      <dc:title>Matplotlib v3.6.2, https://matplotlib.org/</dc:title>
     </cc:Agent>
    </dc:creator>
   </cc:Work>
  </rdf:RDF>
 </metadata>
 <defs>
  <style type="text/css">*{stroke-linejoin: round; stroke-linecap: butt}</style>
 </defs>
 <g id="figure_1">
  <g id="patch_1">
   <path d="M 0 408.90375 
L 1149.4 408.90375 
L 1149.4 0 
L 0 0 
z
" style="fill: #ffffff"/>
  </g>
  <g id="axes_1">
   <g id="patch_2">
    <path d="M 26.2 339.84 
L 1142.2 339.84 
L 1142.2 7.2 
L 26.2 7.2 
z
" style="fill: #ffffff"/>
   </g>
   <g id="PolyCollection_1">
    <defs>
     <path id="mb07b6b5401" d="M 76.927273 -137.142342 
L 76.927273 -130.52104 
L 83.736303 -130.565584 
L 90.545333 -126.281584 
L 97.354362 -131.711972 
L 104.163392 -137.142342 
L 110.972422 -139.813018 
L 117.781452 -145.243406 
L 124.590482 -134.382648 
L 131.399512 -134.382648 
L 138.208542 -145.243406 
L 145.017572 -161.534535 
L 151.826602 -188.597428 
L 158.635631 -191.357122 
L 165.444661 -191.357122 
L 172.253691 -186.676477 
L 179.062721 -166.158519 
L 185.871751 -158.774847 
L 192.680781 -137.142342 
L 199.489811 -115.420831 
L 206.298841 -116.935545 
L 213.107871 -107.230749 
L 219.916901 -120.851195 
L 226.72593 -150.673776 
L 233.53496 -134.382648 
L 240.34399 -136.452018 
L 247.15302 -134.382648 
L 253.96205 -132.809916 
L 260.77108 -131.711972 
L 267.58011 -134.382648 
L 274.38914 -133.250163 
L 281.19817 -130.878308 
L 288.0072 -126.281584 
L 294.816229 -134.382648 
L 301.625259 -139.813018 
L 308.434289 -156.104171 
L 315.243319 -154.727648 
L 322.052349 -164.6094 
L 328.861379 -163.657065 
L 335.670409 -155.632464 
L 342.479439 -146.151758 
L 349.288469 -136.392614 
L 356.097498 -135.185685 
L 362.906528 -179.565008 
L 369.715558 -174.774827 
L 376.524588 -179.768979 
L 383.333618 -166.462315 
L 390.142648 -166.676236 
L 396.951678 -151.929405 
L 403.760708 -152.600377 
L 410.569738 -148.291465 
L 417.378768 -145.069768 
L 424.187797 -144.50237 
L 430.996827 -140.362648 
L 437.805857 -143.220257 
L 444.614887 -148.131308 
L 451.423917 -139.834799 
L 458.232947 -139.293251 
L 465.041977 -140.960798 
L 471.851007 -145.7981 
L 478.660037 -146.925559 
L 485.469067 -150.170323 
L 492.278096 -159.348389 
L 499.087126 -164.014071 
L 505.896156 -257.239202 
L 512.705186 -252.892822 
L 519.514216 -253.437302 
L 526.323246 -279.650415 
L 533.132276 -277.009137 
L 539.941306 -279.264969 
L 546.750336 -277.404344 
L 553.559365 -282.401978 
L 560.368395 -277.888849 
L 567.177425 -273.645152 
L 573.986455 -267.204615 
L 580.795485 -263.201521 
L 587.604515 -262.379533 
L 594.413545 -262.935046 
L 601.222575 -266.101335 
L 608.031605 -273.963685 
L 614.840635 -276.42609 
L 621.649664 -278.882653 
L 628.458694 -280.066297 
L 635.267724 -287.595428 
L 642.076754 -286.255242 
L 648.885784 -294.356306 
L 655.694814 -305.217065 
L 662.503844 -313.318135 
L 669.312874 -324.178869 
L 676.121904 -329.609282 
L 682.930933 -337.710352 
L 689.739963 -351.330799 
L 696.548993 -375.722973 
L 703.358023 -381.153386 
L 710.167053 -379.708849 
L 716.976083 -380.767132 
L 723.785113 -386.58375 
L 730.594143 -362.191539 
L 737.403173 -356.761163 
L 744.212203 -162.562004 
L 751.021232 -150.673776 
L 757.830262 -164.205235 
L 764.639292 -172.306281 
L 771.448322 -161.534535 
L 778.257352 -167.590514 
L 785.066382 -183.167039 
L 791.875412 -175.065994 
L 798.684442 -189.961893 
L 805.493472 -210.318946 
L 812.302502 -221.179705 
L 819.111531 -214.250395 
L 825.920561 -188.597428 
L 832.729591 -142.483694 
L 839.538621 -115.420831 
L 846.347651 -109.178721 
L 853.156681 -109.990443 
L 859.965711 -126.281584 
L 866.774741 -120.851195 
L 873.583771 -120.851195 
L 880.3928 -134.382648 
L 887.20183 -104.560067 
L 894.01086 -101.889385 
L 900.81989 -104.560067 
L 907.62892 -109.990443 
L 914.43795 -109.990443 
L 921.24698 -111.1875 
L 928.05601 -109.990443 
L 934.86504 -107.230749 
L 941.67407 -101.889385 
L 948.483099 -109.990443 
L 955.292129 -104.560067 
L 962.101159 -110.183875 
L 968.910189 -124.349522 
L 975.719219 -142.483694 
L 982.528249 -144.49748 
L 989.337279 -153.344452 
L 996.146309 -139.813018 
L 1002.955339 -139.813018 
L 1009.764369 -128.952259 
L 1016.573398 -126.281584 
L 1023.382428 -145.243406 
L 1030.191458 -140.984766 
L 1037.000488 -153.344452 
L 1043.809518 -139.813018 
L 1050.618548 -150.673776 
L 1057.427578 -161.534535 
L 1064.236608 -149.240875 
L 1071.045638 -150.673776 
L 1077.854667 -131.277596 
L 1084.663697 -109.990443 
L 1091.472727 -120.851195 
L 1091.472727 -120.851195 
L 1091.472727 -120.851195 
L 1084.663697 -109.990443 
L 1077.854667 -142.483694 
L 1071.045638 -150.673776 
L 1064.236608 -150.673776 
L 1057.427578 -161.534535 
L 1050.618548 -150.673776 
L 1043.809518 -139.813018 
L 1037.000488 -153.344452 
L 1030.191458 -145.243406 
L 1023.382428 -145.243406 
L 1016.573398 -126.281584 
L 1009.764369 -128.952259 
L 1002.955339 -139.813018 
L 996.146309 -139.813018 
L 989.337279 -153.344452 
L 982.528249 -145.243406 
L 975.719219 -142.483694 
L 968.910189 -120.851195 
L 962.101159 -112.661125 
L 955.292129 -104.560067 
L 948.483099 -109.990443 
L 941.67407 -101.889385 
L 934.86504 -107.230749 
L 928.05601 -109.990443 
L 921.24698 -112.661125 
L 914.43795 -109.990443 
L 907.62892 -109.990443 
L 900.81989 -104.560067 
L 894.01086 -101.889385 
L 887.20183 -104.560067 
L 880.3928 -134.382648 
L 873.583771 -120.851195 
L 866.774741 -120.851195 
L 859.965711 -126.281584 
L 853.156681 -109.990443 
L 846.347651 -115.420831 
L 839.538621 -115.420831 
L 832.729591 -142.483694 
L 825.920561 -188.597428 
L 819.111531 -202.217881 
L 812.302502 -221.179705 
L 805.493472 -210.318946 
L 798.684442 -172.306281 
L 791.875412 -175.065994 
L 785.066382 -183.167039 
L 778.257352 -147.914088 
L 771.448322 -161.534535 
L 764.639292 -172.306281 
L 757.830262 -164.205235 
L 751.021232 -150.673776 
L 744.212203 -153.344452 
L 737.403173 -356.761163 
L 730.594143 -362.191539 
L 723.785113 -386.58375 
L 716.976083 -370.292609 
L 710.167053 -375.722973 
L 703.358023 -381.153386 
L 696.548993 -375.722973 
L 689.739963 -351.330799 
L 682.930933 -337.710352 
L 676.121904 -329.609282 
L 669.312874 -324.178869 
L 662.503844 -313.318135 
L 655.694814 -305.217065 
L 648.885784 -294.356306 
L 642.076754 -286.255242 
L 635.267724 -283.495548 
L 628.458694 -280.824872 
L 621.649664 -288.925917 
L 614.840635 -288.925917 
L 608.031605 -291.68563 
L 601.222575 -294.356306 
L 594.413545 -283.495548 
L 587.604515 -291.68563 
L 580.795485 -294.356306 
L 573.986455 -297.116 
L 567.177425 -286.255242 
L 560.368395 -299.786701 
L 553.559365 -272.634789 
L 546.750336 -275.394483 
L 539.941306 -269.964113 
L 533.132276 -280.824872 
L 526.323246 -275.394483 
L 519.514216 -283.495548 
L 512.705186 -286.255242 
L 505.896156 -291.68563 
L 499.087126 -88.268914 
L 492.278096 -93.699302 
L 485.469067 -109.990443 
L 478.660037 -118.091501 
L 471.851007 -101.889385 
L 465.041977 -96.458996 
L 458.232947 -101.889385 
L 451.423917 -123.521889 
L 444.614887 -128.952259 
L 437.805857 -112.661125 
L 430.996827 -120.851195 
L 424.187797 -115.420831 
L 417.378768 -128.952259 
L 410.569738 -128.952259 
L 403.760708 -139.813018 
L 396.951678 -145.243406 
L 390.142648 -158.774847 
L 383.333618 -161.534535 
L 376.524588 -169.635605 
L 369.715558 -156.104171 
L 362.906528 -150.673776 
L 356.097498 -147.914088 
L 349.288469 -147.914088 
L 342.479439 -169.635605 
L 335.670409 -169.635605 
L 328.861379 -177.736669 
L 322.052349 -175.065994 
L 315.243319 -145.243406 
L 308.434289 -156.104171 
L 301.625259 -139.813018 
L 294.816229 -134.382648 
L 288.0072 -126.281584 
L 281.19817 -128.952259 
L 274.38914 -142.483694 
L 267.58011 -134.382648 
L 260.77108 -131.711972 
L 253.96205 -131.711972 
L 247.15302 -134.382648 
L 240.34399 -126.281584 
L 233.53496 -134.382648 
L 226.72593 -150.673776 
L 219.916901 -120.851195 
L 213.107871 -107.230749 
L 206.298841 -137.142342 
L 199.489811 -115.420831 
L 192.680781 -137.142342 
L 185.871751 -158.774847 
L 179.062721 -172.306281 
L 172.253691 -196.787511 
L 165.444661 -191.357122 
L 158.635631 -191.357122 
L 151.826602 -188.597428 
L 145.017572 -161.534535 
L 138.208542 -145.243406 
L 131.399512 -134.382648 
L 124.590482 -134.382648 
L 117.781452 -145.243406 
L 110.972422 -139.813018 
L 104.163392 -137.142342 
L 97.354362 -131.711972 
L 90.545333 -126.281584 
L 83.736303 -131.711972 
L 76.927273 -137.142342 
z
" style="stroke: #808080; stroke-opacity: 0.3"/>
    </defs>
    <g clip-path="url(#p6773617a5b)">
     <use xlink:href="#mb07b6b5401" x="0" y="408.90375" style="fill: #808080; fill-opacity: 0.3; stroke: #808080; stroke-opacity: 0.3"/>
    </g>
   </g>
   <g id="matplotlib.axis_1">
    <g id="xtick_1">
     <g id="line2d_1">
      <path d="M 76.927273 339.84 
L 76.927273 7.2 
" clip-path="url(#p6773617a5b)" style="fill: none; stroke-dasharray: 2.96,1.28; stroke-dashoffset: 0; stroke: #b0b0b0; stroke-width: 0.8"/>
     </g>
     <g id="line2d_2">
      <defs>
       <path id="m1ab26acdb0" d="M 0 0 
L 0 3.5 
" style="stroke: #000000; stroke-width: 0.8"/>
      </defs>
      <g>
       <use xlink:href="#m1ab26acdb0" x="76.927273" y="339.84" style="stroke: #000000; stroke-width: 0.8"/>
      </g>
     </g>
     <g id="text_1">
      <!-- 0 -->
      <g transform="translate(70.927273 363.505) scale(0.24 -0.24)">
       <defs>
        <path id="TimesNewRomanPSMT-30" d="M 231 2094 
Q 231 2819 450 3342 
Q 669 3866 1031 4122 
Q 1313 4325 1613 4325 
Q 2100 4325 2488 3828 
Q 2972 3213 2972 2159 
Q 2972 1422 2759 906 
Q 2547 391 2217 158 
Q 1888 -75 1581 -75 
Q 975 -75 572 641 
Q 231 1244 231 2094 
z
M 844 2016 
Q 844 1141 1059 588 
Q 1238 122 1591 122 
Q 1759 122 1940 273 
Q 2122 425 2216 781 
Q 2359 1319 2359 2297 
Q 2359 3022 2209 3506 
Q 2097 3866 1919 4016 
Q 1791 4119 1609 4119 
Q 1397 4119 1231 3928 
Q 1006 3669 925 3112 
Q 844 2556 844 2016 
z
" transform="scale(0.015625)"/>
       </defs>
       <use xlink:href="#TimesNewRomanPSMT-30"/>
      </g>
     </g>
    </g>
    <g id="xtick_2">
     <g id="line2d_3">
      <path d="M 213.107871 339.84 
L 213.107871 7.2 
" clip-path="url(#p6773617a5b)" style="fill: none; stroke-dasharray: 2.96,1.28; stroke-dashoffset: 0; stroke: #b0b0b0; stroke-width: 0.8"/>
     </g>
     <g id="line2d_4">
      <g>
       <use xlink:href="#m1ab26acdb0" x="213.107871" y="339.84" style="stroke: #000000; stroke-width: 0.8"/>
      </g>
     </g>
     <g id="text_2">
      <!-- 20 -->
      <g transform="translate(201.107871 363.505) scale(0.24 -0.24)">
       <defs>
        <path id="TimesNewRomanPSMT-32" d="M 2934 816 
L 2638 0 
L 138 0 
L 138 116 
Q 1241 1122 1691 1759 
Q 2141 2397 2141 2925 
Q 2141 3328 1894 3587 
Q 1647 3847 1303 3847 
Q 991 3847 742 3664 
Q 494 3481 375 3128 
L 259 3128 
Q 338 3706 661 4015 
Q 984 4325 1469 4325 
Q 1984 4325 2329 3994 
Q 2675 3663 2675 3213 
Q 2675 2891 2525 2569 
Q 2294 2063 1775 1497 
Q 997 647 803 472 
L 1909 472 
Q 2247 472 2383 497 
Q 2519 522 2628 598 
Q 2738 675 2819 816 
L 2934 816 
z
" transform="scale(0.015625)"/>
       </defs>
       <use xlink:href="#TimesNewRomanPSMT-32"/>
       <use xlink:href="#TimesNewRomanPSMT-30" x="50"/>
      </g>
     </g>
    </g>
    <g id="xtick_3">
     <g id="line2d_5">
      <path d="M 349.288469 339.84 
L 349.288469 7.2 
" clip-path="url(#p6773617a5b)" style="fill: none; stroke-dasharray: 2.96,1.28; stroke-dashoffset: 0; stroke: #b0b0b0; stroke-width: 0.8"/>
     </g>
     <g id="line2d_6">
      <g>
       <use xlink:href="#m1ab26acdb0" x="349.288469" y="339.84" style="stroke: #000000; stroke-width: 0.8"/>
      </g>
     </g>
     <g id="text_3">
      <!-- 40 -->
      <g transform="translate(337.288469 363.505) scale(0.24 -0.24)">
       <defs>
        <path id="TimesNewRomanPSMT-34" d="M 2978 1563 
L 2978 1119 
L 2409 1119 
L 2409 0 
L 1894 0 
L 1894 1119 
L 100 1119 
L 100 1519 
L 2066 4325 
L 2409 4325 
L 2409 1563 
L 2978 1563 
z
M 1894 1563 
L 1894 3666 
L 406 1563 
L 1894 1563 
z
" transform="scale(0.015625)"/>
       </defs>
       <use xlink:href="#TimesNewRomanPSMT-34"/>
       <use xlink:href="#TimesNewRomanPSMT-30" x="50"/>
      </g>
     </g>
    </g>
    <g id="xtick_4">
     <g id="line2d_7">
      <path d="M 485.469067 339.84 
L 485.469067 7.2 
" clip-path="url(#p6773617a5b)" style="fill: none; stroke-dasharray: 2.96,1.28; stroke-dashoffset: 0; stroke: #b0b0b0; stroke-width: 0.8"/>
     </g>
     <g id="line2d_8">
      <g>
       <use xlink:href="#m1ab26acdb0" x="485.469067" y="339.84" style="stroke: #000000; stroke-width: 0.8"/>
      </g>
     </g>
     <g id="text_4">
      <!-- 60 -->
      <g transform="translate(473.469067 363.505) scale(0.24 -0.24)">
       <defs>
        <path id="TimesNewRomanPSMT-36" d="M 2869 4325 
L 2869 4209 
Q 2456 4169 2195 4045 
Q 1934 3922 1679 3669 
Q 1425 3416 1258 3105 
Q 1091 2794 978 2366 
Q 1428 2675 1881 2675 
Q 2316 2675 2634 2325 
Q 2953 1975 2953 1425 
Q 2953 894 2631 456 
Q 2244 -75 1606 -75 
Q 1172 -75 869 213 
Q 275 772 275 1663 
Q 275 2231 503 2743 
Q 731 3256 1154 3653 
Q 1578 4050 1965 4187 
Q 2353 4325 2688 4325 
L 2869 4325 
z
M 925 2138 
Q 869 1716 869 1456 
Q 869 1156 980 804 
Q 1091 453 1309 247 
Q 1469 100 1697 100 
Q 1969 100 2183 356 
Q 2397 613 2397 1088 
Q 2397 1622 2184 2012 
Q 1972 2403 1581 2403 
Q 1463 2403 1327 2353 
Q 1191 2303 925 2138 
z
" transform="scale(0.015625)"/>
       </defs>
       <use xlink:href="#TimesNewRomanPSMT-36"/>
       <use xlink:href="#TimesNewRomanPSMT-30" x="50"/>
      </g>
     </g>
    </g>
    <g id="xtick_5">
     <g id="line2d_9">
      <path d="M 621.649664 339.84 
L 621.649664 7.2 
" clip-path="url(#p6773617a5b)" style="fill: none; stroke-dasharray: 2.96,1.28; stroke-dashoffset: 0; stroke: #b0b0b0; stroke-width: 0.8"/>
     </g>
     <g id="line2d_10">
      <g>
       <use xlink:href="#m1ab26acdb0" x="621.649664" y="339.84" style="stroke: #000000; stroke-width: 0.8"/>
      </g>
     </g>
     <g id="text_5">
      <!-- 80 -->
      <g transform="translate(609.649664 363.505) scale(0.24 -0.24)">
       <defs>
        <path id="TimesNewRomanPSMT-38" d="M 1228 2134 
Q 725 2547 579 2797 
Q 434 3047 434 3316 
Q 434 3728 753 4026 
Q 1072 4325 1600 4325 
Q 2113 4325 2425 4047 
Q 2738 3769 2738 3413 
Q 2738 3175 2569 2928 
Q 2400 2681 1866 2347 
Q 2416 1922 2594 1678 
Q 2831 1359 2831 1006 
Q 2831 559 2490 242 
Q 2150 -75 1597 -75 
Q 994 -75 656 303 
Q 388 606 388 966 
Q 388 1247 577 1523 
Q 766 1800 1228 2134 
z
M 1719 2469 
Q 2094 2806 2194 3001 
Q 2294 3197 2294 3444 
Q 2294 3772 2109 3958 
Q 1925 4144 1606 4144 
Q 1288 4144 1088 3959 
Q 888 3775 888 3528 
Q 888 3366 970 3203 
Q 1053 3041 1206 2894 
L 1719 2469 
z
M 1375 2016 
Q 1116 1797 991 1539 
Q 866 1281 866 981 
Q 866 578 1086 336 
Q 1306 94 1647 94 
Q 1984 94 2187 284 
Q 2391 475 2391 747 
Q 2391 972 2272 1150 
Q 2050 1481 1375 2016 
z
" transform="scale(0.015625)"/>
       </defs>
       <use xlink:href="#TimesNewRomanPSMT-38"/>
       <use xlink:href="#TimesNewRomanPSMT-30" x="50"/>
      </g>
     </g>
    </g>
    <g id="xtick_6">
     <g id="line2d_11">
      <path d="M 757.830262 339.84 
L 757.830262 7.2 
" clip-path="url(#p6773617a5b)" style="fill: none; stroke-dasharray: 2.96,1.28; stroke-dashoffset: 0; stroke: #b0b0b0; stroke-width: 0.8"/>
     </g>
     <g id="line2d_12">
      <g>
       <use xlink:href="#m1ab26acdb0" x="757.830262" y="339.84" style="stroke: #000000; stroke-width: 0.8"/>
      </g>
     </g>
     <g id="text_6">
      <!-- 100 -->
      <g transform="translate(739.830262 363.505) scale(0.24 -0.24)">
       <defs>
        <path id="TimesNewRomanPSMT-31" d="M 750 3822 
L 1781 4325 
L 1884 4325 
L 1884 747 
Q 1884 391 1914 303 
Q 1944 216 2037 169 
Q 2131 122 2419 116 
L 2419 0 
L 825 0 
L 825 116 
Q 1125 122 1212 167 
Q 1300 213 1334 289 
Q 1369 366 1369 747 
L 1369 3034 
Q 1369 3497 1338 3628 
Q 1316 3728 1258 3775 
Q 1200 3822 1119 3822 
Q 1003 3822 797 3725 
L 750 3822 
z
" transform="scale(0.015625)"/>
       </defs>
       <use xlink:href="#TimesNewRomanPSMT-31"/>
       <use xlink:href="#TimesNewRomanPSMT-30" x="50"/>
       <use xlink:href="#TimesNewRomanPSMT-30" x="100"/>
      </g>
     </g>
    </g>
    <g id="xtick_7">
     <g id="line2d_13">
      <path d="M 894.01086 339.84 
L 894.01086 7.2 
" clip-path="url(#p6773617a5b)" style="fill: none; stroke-dasharray: 2.96,1.28; stroke-dashoffset: 0; stroke: #b0b0b0; stroke-width: 0.8"/>
     </g>
     <g id="line2d_14">
      <g>
       <use xlink:href="#m1ab26acdb0" x="894.01086" y="339.84" style="stroke: #000000; stroke-width: 0.8"/>
      </g>
     </g>
     <g id="text_7">
      <!-- 120 -->
      <g transform="translate(876.01086 363.505) scale(0.24 -0.24)">
       <use xlink:href="#TimesNewRomanPSMT-31"/>
       <use xlink:href="#TimesNewRomanPSMT-32" x="50"/>
       <use xlink:href="#TimesNewRomanPSMT-30" x="100"/>
      </g>
     </g>
    </g>
    <g id="xtick_8">
     <g id="line2d_15">
      <path d="M 1030.191458 339.84 
L 1030.191458 7.2 
" clip-path="url(#p6773617a5b)" style="fill: none; stroke-dasharray: 2.96,1.28; stroke-dashoffset: 0; stroke: #b0b0b0; stroke-width: 0.8"/>
     </g>
     <g id="line2d_16">
      <g>
       <use xlink:href="#m1ab26acdb0" x="1030.191458" y="339.84" style="stroke: #000000; stroke-width: 0.8"/>
      </g>
     </g>
     <g id="text_8">
      <!-- 140 -->
      <g transform="translate(1012.191458 363.505) scale(0.24 -0.24)">
       <use xlink:href="#TimesNewRomanPSMT-31"/>
       <use xlink:href="#TimesNewRomanPSMT-34" x="50"/>
       <use xlink:href="#TimesNewRomanPSMT-30" x="100"/>
      </g>
     </g>
    </g>
    <g id="text_9">
     <!-- Time step -->
     <g transform="translate(521.22 394.85875) scale(0.32 -0.32)">
      <defs>
       <path id="TimesNewRomanPSMT-54" d="M 3703 4238 
L 3750 3244 
L 3631 3244 
Q 3597 3506 3538 3619 
Q 3441 3800 3280 3886 
Q 3119 3972 2856 3972 
L 2259 3972 
L 2259 734 
Q 2259 344 2344 247 
Q 2463 116 2709 116 
L 2856 116 
L 2856 0 
L 1059 0 
L 1059 116 
L 1209 116 
Q 1478 116 1591 278 
Q 1659 378 1659 734 
L 1659 3972 
L 1150 3972 
Q 853 3972 728 3928 
Q 566 3869 450 3700 
Q 334 3531 313 3244 
L 194 3244 
L 244 4238 
L 3703 4238 
z
" transform="scale(0.015625)"/>
       <path id="TimesNewRomanPSMT-69" d="M 928 4444 
Q 1059 4444 1151 4351 
Q 1244 4259 1244 4128 
Q 1244 3997 1151 3903 
Q 1059 3809 928 3809 
Q 797 3809 703 3903 
Q 609 3997 609 4128 
Q 609 4259 701 4351 
Q 794 4444 928 4444 
z
M 1188 2947 
L 1188 647 
Q 1188 378 1227 289 
Q 1266 200 1342 156 
Q 1419 113 1622 113 
L 1622 0 
L 231 0 
L 231 113 
Q 441 113 512 153 
Q 584 194 626 287 
Q 669 381 669 647 
L 669 1750 
Q 669 2216 641 2353 
Q 619 2453 572 2492 
Q 525 2531 444 2531 
Q 356 2531 231 2484 
L 188 2597 
L 1050 2947 
L 1188 2947 
z
" transform="scale(0.015625)"/>
       <path id="TimesNewRomanPSMT-6d" d="M 1050 2338 
Q 1363 2650 1419 2697 
Q 1559 2816 1721 2881 
Q 1884 2947 2044 2947 
Q 2313 2947 2506 2790 
Q 2700 2634 2766 2338 
Q 3088 2713 3309 2830 
Q 3531 2947 3766 2947 
Q 3994 2947 4170 2830 
Q 4347 2713 4450 2447 
Q 4519 2266 4519 1878 
L 4519 647 
Q 4519 378 4559 278 
Q 4591 209 4675 161 
Q 4759 113 4950 113 
L 4950 0 
L 3538 0 
L 3538 113 
L 3597 113 
Q 3781 113 3884 184 
Q 3956 234 3988 344 
Q 4000 397 4000 647 
L 4000 1878 
Q 4000 2228 3916 2372 
Q 3794 2572 3525 2572 
Q 3359 2572 3192 2489 
Q 3025 2406 2788 2181 
L 2781 2147 
L 2788 2013 
L 2788 647 
Q 2788 353 2820 281 
Q 2853 209 2943 161 
Q 3034 113 3253 113 
L 3253 0 
L 1806 0 
L 1806 113 
Q 2044 113 2133 169 
Q 2222 225 2256 338 
Q 2272 391 2272 647 
L 2272 1878 
Q 2272 2228 2169 2381 
Q 2031 2581 1784 2581 
Q 1616 2581 1450 2491 
Q 1191 2353 1050 2181 
L 1050 647 
Q 1050 366 1089 281 
Q 1128 197 1204 155 
Q 1281 113 1516 113 
L 1516 0 
L 100 0 
L 100 113 
Q 297 113 375 155 
Q 453 197 493 289 
Q 534 381 534 647 
L 534 1741 
Q 534 2213 506 2350 
Q 484 2453 437 2492 
Q 391 2531 309 2531 
Q 222 2531 100 2484 
L 53 2597 
L 916 2947 
L 1050 2947 
L 1050 2338 
z
" transform="scale(0.015625)"/>
       <path id="TimesNewRomanPSMT-65" d="M 681 1784 
Q 678 1147 991 784 
Q 1303 422 1725 422 
Q 2006 422 2214 576 
Q 2422 731 2563 1106 
L 2659 1044 
Q 2594 616 2278 264 
Q 1963 -88 1488 -88 
Q 972 -88 605 314 
Q 238 716 238 1394 
Q 238 2128 614 2539 
Q 991 2950 1559 2950 
Q 2041 2950 2350 2633 
Q 2659 2316 2659 1784 
L 681 1784 
z
M 681 1966 
L 2006 1966 
Q 1991 2241 1941 2353 
Q 1863 2528 1708 2628 
Q 1553 2728 1384 2728 
Q 1125 2728 920 2526 
Q 716 2325 681 1966 
z
" transform="scale(0.015625)"/>
       <path id="TimesNewRomanPSMT-20" transform="scale(0.015625)"/>
       <path id="TimesNewRomanPSMT-73" d="M 2050 2947 
L 2050 1972 
L 1947 1972 
Q 1828 2431 1642 2597 
Q 1456 2763 1169 2763 
Q 950 2763 815 2647 
Q 681 2531 681 2391 
Q 681 2216 781 2091 
Q 878 1963 1175 1819 
L 1631 1597 
Q 2266 1288 2266 781 
Q 2266 391 1970 151 
Q 1675 -88 1309 -88 
Q 1047 -88 709 6 
Q 606 38 541 38 
Q 469 38 428 -44 
L 325 -44 
L 325 978 
L 428 978 
Q 516 541 762 319 
Q 1009 97 1316 97 
Q 1531 97 1667 223 
Q 1803 350 1803 528 
Q 1803 744 1651 891 
Q 1500 1038 1047 1263 
Q 594 1488 453 1669 
Q 313 1847 313 2119 
Q 313 2472 555 2709 
Q 797 2947 1181 2947 
Q 1350 2947 1591 2875 
Q 1750 2828 1803 2828 
Q 1853 2828 1881 2850 
Q 1909 2872 1947 2947 
L 2050 2947 
z
" transform="scale(0.015625)"/>
       <path id="TimesNewRomanPSMT-74" d="M 1031 3803 
L 1031 2863 
L 1700 2863 
L 1700 2644 
L 1031 2644 
L 1031 788 
Q 1031 509 1111 412 
Q 1191 316 1316 316 
Q 1419 316 1516 380 
Q 1613 444 1666 569 
L 1788 569 
Q 1678 263 1478 108 
Q 1278 -47 1066 -47 
Q 922 -47 784 33 
Q 647 113 581 261 
Q 516 409 516 719 
L 516 2644 
L 63 2644 
L 63 2747 
Q 234 2816 414 2980 
Q 594 3144 734 3369 
Q 806 3488 934 3803 
L 1031 3803 
z
" transform="scale(0.015625)"/>
       <path id="TimesNewRomanPSMT-70" d="M -6 2578 
L 875 2934 
L 994 2934 
L 994 2266 
Q 1216 2644 1439 2795 
Q 1663 2947 1909 2947 
Q 2341 2947 2628 2609 
Q 2981 2197 2981 1534 
Q 2981 794 2556 309 
Q 2206 -88 1675 -88 
Q 1444 -88 1275 -22 
Q 1150 25 994 166 
L 994 -706 
Q 994 -1000 1030 -1079 
Q 1066 -1159 1155 -1206 
Q 1244 -1253 1478 -1253 
L 1478 -1369 
L -22 -1369 
L -22 -1253 
L 56 -1253 
Q 228 -1256 350 -1188 
Q 409 -1153 442 -1076 
Q 475 -1000 475 -688 
L 475 2019 
Q 475 2297 450 2372 
Q 425 2447 370 2484 
Q 316 2522 222 2522 
Q 147 2522 31 2478 
L -6 2578 
z
M 994 2081 
L 994 1013 
Q 994 666 1022 556 
Q 1066 375 1236 237 
Q 1406 100 1666 100 
Q 1978 100 2172 344 
Q 2425 663 2425 1241 
Q 2425 1897 2138 2250 
Q 1938 2494 1663 2494 
Q 1513 2494 1366 2419 
Q 1253 2363 994 2081 
z
" transform="scale(0.015625)"/>
      </defs>
      <use xlink:href="#TimesNewRomanPSMT-54"/>
      <use xlink:href="#TimesNewRomanPSMT-69" x="57.583984"/>
      <use xlink:href="#TimesNewRomanPSMT-6d" x="85.367188"/>
      <use xlink:href="#TimesNewRomanPSMT-65" x="163.150391"/>
      <use xlink:href="#TimesNewRomanPSMT-20" x="207.535156"/>
      <use xlink:href="#TimesNewRomanPSMT-73" x="232.535156"/>
      <use xlink:href="#TimesNewRomanPSMT-74" x="271.451172"/>
      <use xlink:href="#TimesNewRomanPSMT-65" x="299.234375"/>
      <use xlink:href="#TimesNewRomanPSMT-70" x="343.619141"/>
     </g>
    </g>
   </g>
   <g id="matplotlib.axis_2">
    <g id="ytick_1">
     <g id="line2d_17">
      <path d="M 26.2 291.702474 
L 1142.2 291.702474 
" clip-path="url(#p6773617a5b)" style="fill: none; stroke-dasharray: 2.96,1.28; stroke-dashoffset: 0; stroke: #b0b0b0; stroke-width: 0.8"/>
     </g>
     <g id="line2d_18">
      <defs>
       <path id="m447d78e368" d="M 0 0 
L -3.5 0 
" style="stroke: #000000; stroke-width: 0.8"/>
      </defs>
      <g>
       <use xlink:href="#m447d78e368" x="26.2" y="291.702474" style="stroke: #000000; stroke-width: 0.8"/>
      </g>
     </g>
     <g id="text_10">
      <!-- 2 -->
      <g transform="translate(7.2 300.034974) scale(0.24 -0.24)">
       <use xlink:href="#TimesNewRomanPSMT-32"/>
      </g>
     </g>
    </g>
    <g id="ytick_2">
     <g id="line2d_19">
      <path d="M 26.2 202.679845 
L 1142.2 202.679845 
" clip-path="url(#p6773617a5b)" style="fill: none; stroke-dasharray: 2.96,1.28; stroke-dashoffset: 0; stroke: #b0b0b0; stroke-width: 0.8"/>
     </g>
     <g id="line2d_20">
      <g>
       <use xlink:href="#m447d78e368" x="26.2" y="202.679845" style="stroke: #000000; stroke-width: 0.8"/>
      </g>
     </g>
     <g id="text_11">
      <!-- 3 -->
      <g transform="translate(7.2 211.012345) scale(0.24 -0.24)">
       <defs>
        <path id="TimesNewRomanPSMT-33" d="M 325 3431 
Q 506 3859 782 4092 
Q 1059 4325 1472 4325 
Q 1981 4325 2253 3994 
Q 2459 3747 2459 3466 
Q 2459 3003 1878 2509 
Q 2269 2356 2469 2072 
Q 2669 1788 2669 1403 
Q 2669 853 2319 450 
Q 1863 -75 997 -75 
Q 569 -75 414 31 
Q 259 138 259 259 
Q 259 350 332 419 
Q 406 488 509 488 
Q 588 488 669 463 
Q 722 447 909 348 
Q 1097 250 1169 231 
Q 1284 197 1416 197 
Q 1734 197 1970 444 
Q 2206 691 2206 1028 
Q 2206 1275 2097 1509 
Q 2016 1684 1919 1775 
Q 1784 1900 1550 2001 
Q 1316 2103 1072 2103 
L 972 2103 
L 972 2197 
Q 1219 2228 1467 2375 
Q 1716 2522 1828 2728 
Q 1941 2934 1941 3181 
Q 1941 3503 1739 3701 
Q 1538 3900 1238 3900 
Q 753 3900 428 3381 
L 325 3431 
z
" transform="scale(0.015625)"/>
       </defs>
       <use xlink:href="#TimesNewRomanPSMT-33"/>
      </g>
     </g>
    </g>
    <g id="ytick_3">
     <g id="line2d_21">
      <path d="M 26.2 113.657216 
L 1142.2 113.657216 
" clip-path="url(#p6773617a5b)" style="fill: none; stroke-dasharray: 2.96,1.28; stroke-dashoffset: 0; stroke: #b0b0b0; stroke-width: 0.8"/>
     </g>
     <g id="line2d_22">
      <g>
       <use xlink:href="#m447d78e368" x="26.2" y="113.657216" style="stroke: #000000; stroke-width: 0.8"/>
      </g>
     </g>
     <g id="text_12">
      <!-- 4 -->
      <g transform="translate(7.2 121.989716) scale(0.24 -0.24)">
       <use xlink:href="#TimesNewRomanPSMT-34"/>
      </g>
     </g>
    </g>
    <g id="ytick_4">
     <g id="line2d_23">
      <path d="M 26.2 24.634588 
L 1142.2 24.634588 
" clip-path="url(#p6773617a5b)" style="fill: none; stroke-dasharray: 2.96,1.28; stroke-dashoffset: 0; stroke: #b0b0b0; stroke-width: 0.8"/>
     </g>
     <g id="line2d_24">
      <g>
       <use xlink:href="#m447d78e368" x="26.2" y="24.634588" style="stroke: #000000; stroke-width: 0.8"/>
      </g>
     </g>
     <g id="text_13">
      <!-- 5 -->
      <g transform="translate(7.2 32.967088) scale(0.24 -0.24)">
       <defs>
        <path id="TimesNewRomanPSMT-35" d="M 2778 4238 
L 2534 3706 
L 1259 3706 
L 981 3138 
Q 1809 3016 2294 2522 
Q 2709 2097 2709 1522 
Q 2709 1188 2573 903 
Q 2438 619 2231 419 
Q 2025 219 1772 97 
Q 1413 -75 1034 -75 
Q 653 -75 479 54 
Q 306 184 306 341 
Q 306 428 378 495 
Q 450 563 559 563 
Q 641 563 702 538 
Q 763 513 909 409 
Q 1144 247 1384 247 
Q 1750 247 2026 523 
Q 2303 800 2303 1197 
Q 2303 1581 2056 1914 
Q 1809 2247 1375 2428 
Q 1034 2569 447 2591 
L 1259 4238 
L 2778 4238 
z
" transform="scale(0.015625)"/>
       </defs>
       <use xlink:href="#TimesNewRomanPSMT-35"/>
      </g>
     </g>
    </g>
   </g>
   <g id="line2d_25">
    <path d="M 76.927273 278.080802 
L 83.736303 278.876098 
L 90.545333 282.622166 
L 104.163392 271.761408 
L 110.972422 269.090732 
L 117.781452 263.660344 
L 124.590482 274.521102 
L 131.399512 274.521102 
L 138.208542 263.660344 
L 145.017572 247.369215 
L 151.826602 220.306322 
L 158.635631 217.546628 
L 165.444661 217.546628 
L 172.253691 221.706751 
L 179.062721 241.851684 
L 185.871751 250.128903 
L 199.489811 293.482919 
L 206.298841 292.746703 
L 213.107871 301.673001 
L 219.916901 288.052555 
L 226.72593 258.229974 
L 233.53496 274.521102 
L 240.34399 271.54307 
L 247.15302 274.521102 
L 253.96205 274.360336 
L 260.77108 277.191778 
L 267.58011 274.521102 
L 274.38914 275.999113 
L 281.19817 276.566933 
L 288.0072 282.622166 
L 294.816229 274.521102 
L 301.625259 269.090732 
L 308.434289 252.799579 
L 315.243319 249.795647 
L 322.052349 238.581784 
L 328.861379 240.209316 
L 335.670409 249.527616 
L 342.479439 262.316044 
L 349.288469 269.6311 
L 356.097498 275.933521 
L 362.906528 268.298927 
L 369.715558 270.926973 
L 376.524588 270.943591 
L 383.333618 275.430795 
L 390.142648 281.701632 
L 396.951678 298.523077 
L 403.760708 304.961551 
L 410.569738 305.017153 
L 417.378768 312.310017 
L 424.187797 310.30873 
L 430.996827 314.675679 
L 437.805857 312.797635 
L 444.614887 311.037528 
L 451.423917 318.83579 
L 458.232947 322.220211 
L 465.041977 324.72 
L 471.851007 312.90485 
L 478.660037 312.40267 
L 492.278096 297.450269 
L 499.087126 279.321912 
L 505.896156 131.454999 
L 512.705186 127.057112 
L 519.514216 125.35808 
L 526.323246 144.975291 
L 533.132276 147.49569 
L 539.941306 146.799007 
L 546.750336 140.072035 
L 553.559365 136.844618 
L 560.368395 138.874256 
L 567.177425 144.969104 
L 573.986455 143.512551 
L 580.795485 150.742554 
L 587.604515 148.823138 
L 594.413545 153.77055 
L 601.222575 143.680347 
L 608.031605 132.241201 
L 614.840635 130.128567 
L 621.649664 130.296173 
L 628.458694 125.367032 
L 635.267724 119.958419 
L 642.076754 122.648508 
L 648.885784 114.547444 
L 655.694814 103.686685 
L 662.503844 95.585615 
L 669.312874 84.724881 
L 676.121904 79.294468 
L 682.930933 71.193398 
L 689.739963 57.572951 
L 696.548993 33.180777 
L 703.358023 27.750364 
L 710.167053 24.626444 
L 723.785113 22.32 
L 730.594143 46.712211 
L 737.403173 52.142587 
L 744.212203 252.761503 
L 751.021232 258.229974 
L 757.830262 244.698515 
L 764.639292 236.597469 
L 771.448322 247.369215 
L 778.257352 240.309387 
L 785.066382 225.736711 
L 791.875412 233.837756 
L 798.684442 219.820814 
L 805.493472 198.584804 
L 812.302502 187.724045 
L 819.111531 191.998874 
L 825.920561 220.306322 
L 832.729591 266.420056 
L 839.538621 293.482919 
L 846.347651 299.144225 
L 853.156681 298.913307 
L 859.965711 282.622166 
L 866.774741 288.052555 
L 873.583771 288.052555 
L 880.3928 274.521102 
L 887.20183 304.343683 
L 894.01086 307.014365 
L 900.81989 304.343683 
L 907.62892 298.913307 
L 914.43795 298.913307 
L 921.24698 298.587599 
L 928.05601 298.913307 
L 934.86504 301.673001 
L 941.67407 307.014365 
L 948.483099 298.913307 
L 955.292129 304.343683 
L 962.101159 297.66609 
L 968.910189 281.469509 
L 975.719219 266.420056 
L 982.528249 263.802696 
L 989.337279 255.559298 
L 996.146309 269.090732 
L 1002.955339 269.090732 
L 1009.764369 279.951491 
L 1016.573398 282.622166 
L 1023.382428 263.660344 
L 1030.191458 270.152277 
L 1037.000488 255.559298 
L 1043.809518 269.090732 
L 1057.427578 247.369215 
L 1064.236608 256.739172 
L 1071.045638 258.229974 
L 1077.854667 276.355187 
L 1084.663697 298.913307 
L 1091.472727 288.052555 
L 1091.472727 288.052555 
" clip-path="url(#p6773617a5b)" style="fill: none; stroke-dasharray: 11.1,4.8; stroke-dashoffset: 0; stroke: #d65190; stroke-width: 3"/>
   </g>
   <g id="line2d_26">
    <path d="M 76.927273 279.38582 
L 83.736303 279.161158 
L 90.545333 282.622166 
L 104.163392 271.761408 
L 110.972422 269.090732 
L 117.781452 263.660344 
L 124.590482 274.521102 
L 131.399512 274.521102 
L 138.208542 263.660344 
L 145.017572 247.369215 
L 151.826602 220.306322 
L 158.635631 217.546628 
L 165.444661 217.546628 
L 172.253691 222.425721 
L 179.062721 239.701974 
L 185.871751 250.128903 
L 199.489811 293.482919 
L 206.298841 291.588796 
L 213.107871 301.673001 
L 219.916901 288.052555 
L 226.72593 258.229974 
L 233.53496 274.521102 
L 240.34399 272.114593 
L 247.15302 274.521102 
L 253.96205 276.584918 
L 260.77108 277.191778 
L 267.58011 274.521102 
L 274.38914 275.743525 
L 281.19817 278.328785 
L 288.0072 282.622166 
L 294.816229 274.521102 
L 301.625259 269.090732 
L 308.434289 252.799579 
L 315.243319 250.307767 
L 322.052349 245.785878 
L 328.861379 246.60728 
L 335.670409 252.185115 
L 342.479439 260.076067 
L 349.288469 267.610224 
L 356.097498 273.018335 
L 362.906528 275.284448 
L 369.715558 276.155039 
L 376.524588 275.578447 
L 383.333618 282.050954 
L 390.142648 283.006315 
L 396.951678 296.36936 
L 403.760708 299.043297 
L 410.569738 303.632914 
L 417.378768 307.628742 
L 424.187797 306.305844 
L 430.996827 312.01613 
L 437.805857 311.199972 
L 444.614887 306.615512 
L 451.423917 315.579918 
L 458.232947 320.404441 
L 465.041977 319.847877 
L 471.851007 310.709994 
L 478.660037 311.366653 
L 485.469067 307.863486 
L 492.278096 302.47282 
L 499.087126 299.139565 
L 505.896156 228.536814 
L 512.705186 246.817007 
L 519.514216 244.557268 
L 526.323246 143.601728 
L 533.132276 147.899138 
L 539.941306 142.419177 
L 546.750336 140.479132 
L 553.559365 138.774524 
L 560.368395 137.73805 
L 567.177425 140.042432 
L 573.986455 149.470534 
L 580.795485 155.78111 
L 587.604515 156.881846 
L 594.413545 154.253343 
L 601.222575 148.350067 
L 608.031605 140.031694 
L 614.840635 140.373942 
L 621.649664 133.041809 
L 628.458694 130.953572 
L 635.267724 122.130729 
L 642.076754 122.648508 
L 648.885784 114.547444 
L 655.694814 103.686685 
L 662.503844 95.585615 
L 669.312874 84.724881 
L 676.121904 79.294468 
L 682.930933 71.193398 
L 689.739963 57.572951 
L 696.548993 33.180777 
L 703.358023 27.750364 
L 710.167053 25.427344 
L 716.976083 28.371798 
L 723.785113 22.32 
L 730.594143 46.712211 
L 737.403173 52.142587 
L 744.212203 247.039792 
L 751.021232 258.229974 
L 757.830262 244.698515 
L 764.639292 236.597469 
L 771.448322 247.369215 
L 778.257352 239.04078 
L 785.066382 225.736711 
L 791.875412 233.837756 
L 798.684442 216.814736 
L 805.493472 198.584804 
L 812.302502 187.724045 
L 819.111531 193.782948 
L 825.920561 220.306322 
L 832.729591 266.420056 
L 839.538621 293.482919 
L 846.347651 299.399558 
L 853.156681 298.913307 
L 859.965711 282.622166 
L 866.774741 288.052555 
L 873.583771 288.052555 
L 880.3928 274.521102 
L 887.20183 304.343683 
L 894.01086 307.014365 
L 900.81989 304.343683 
L 907.62892 298.913307 
L 914.43795 298.913307 
L 921.24698 299.093755 
L 928.05601 298.913307 
L 934.86504 301.673001 
L 941.67407 307.014365 
L 948.483099 298.913307 
L 955.292129 304.343683 
L 962.101159 297.346172 
L 975.719219 266.420056 
L 982.528249 261.819158 
L 989.337279 255.559298 
L 996.146309 269.090732 
L 1002.955339 269.090732 
L 1009.764369 279.951491 
L 1016.573398 282.622166 
L 1023.382428 263.660344 
L 1030.191458 270.942628 
L 1037.000488 255.559298 
L 1043.809518 269.090732 
L 1057.427578 247.369215 
L 1064.236608 257.755427 
L 1071.045638 258.229974 
L 1077.854667 276.426606 
L 1084.663697 298.913307 
L 1091.472727 288.052555 
L 1091.472727 288.052555 
" clip-path="url(#p6773617a5b)" style="fill: none; stroke-dasharray: 11.1,4.8; stroke-dashoffset: 0; stroke: #ff8c00; stroke-width: 3"/>
   </g>
   <g id="line2d_27">
    <path d="M 76.927273 278.38271 
L 83.736303 278.338166 
L 90.545333 282.622166 
L 104.163392 271.761408 
L 110.972422 269.090732 
L 117.781452 263.660344 
L 124.590482 274.521102 
L 131.399512 274.521102 
L 138.208542 263.660344 
L 145.017572 247.369215 
L 151.826602 220.306322 
L 158.635631 217.546628 
L 165.444661 217.546628 
L 172.253691 222.227273 
L 179.062721 242.745231 
L 185.871751 250.128903 
L 199.489811 293.482919 
L 206.298841 291.968205 
L 213.107871 301.673001 
L 219.916901 288.052555 
L 226.72593 258.229974 
L 233.53496 274.521102 
L 240.34399 272.451732 
L 247.15302 274.521102 
L 253.96205 276.093834 
L 260.77108 277.191778 
L 267.58011 274.521102 
L 274.38914 275.653587 
L 281.19817 278.025442 
L 288.0072 282.622166 
L 294.816229 274.521102 
L 301.625259 269.090732 
L 308.434289 252.799579 
L 315.243319 254.176102 
L 322.052349 244.29435 
L 328.861379 245.246685 
L 335.670409 253.271286 
L 342.479439 262.751992 
L 349.288469 272.511136 
L 356.097498 273.718065 
L 362.906528 229.338742 
L 369.715558 234.128923 
L 376.524588 229.134771 
L 383.333618 242.441435 
L 390.142648 242.227514 
L 396.951678 256.974345 
L 403.760708 256.303373 
L 410.569738 260.612285 
L 417.378768 263.833982 
L 424.187797 264.40138 
L 430.996827 268.541102 
L 437.805857 265.683493 
L 444.614887 260.772442 
L 451.423917 269.068951 
L 458.232947 269.610499 
L 465.041977 267.942952 
L 471.851007 263.10565 
L 478.660037 261.978191 
L 485.469067 258.733427 
L 492.278096 249.555361 
L 499.087126 244.889679 
L 505.896156 151.664548 
L 512.705186 156.010928 
L 519.514216 155.466448 
L 526.323246 129.253335 
L 533.132276 131.894613 
L 539.941306 129.638781 
L 546.750336 131.499406 
L 553.559365 126.501772 
L 560.368395 131.014901 
L 567.177425 135.258598 
L 573.986455 141.699135 
L 580.795485 145.702229 
L 587.604515 146.524217 
L 594.413545 145.968704 
L 601.222575 142.802415 
L 608.031605 134.940065 
L 621.649664 130.021097 
L 628.458694 128.837453 
L 635.267724 121.308322 
L 642.076754 122.648508 
L 648.885784 114.547444 
L 655.694814 103.686685 
L 662.503844 95.585615 
L 669.312874 84.724881 
L 676.121904 79.294468 
L 682.930933 71.193398 
L 689.739963 57.572951 
L 696.548993 33.180777 
L 703.358023 27.750364 
L 710.167053 29.194901 
L 716.976083 28.136618 
L 723.785113 22.32 
L 730.594143 46.712211 
L 737.403173 52.142587 
L 744.212203 246.341746 
L 751.021232 258.229974 
L 757.830262 244.698515 
L 764.639292 236.597469 
L 771.448322 247.369215 
L 778.257352 241.313236 
L 785.066382 225.736711 
L 791.875412 233.837756 
L 798.684442 218.941857 
L 805.493472 198.584804 
L 812.302502 187.724045 
L 819.111531 194.653355 
L 825.920561 220.306322 
L 832.729591 266.420056 
L 839.538621 293.482919 
L 846.347651 299.725029 
L 853.156681 298.913307 
L 859.965711 282.622166 
L 866.774741 288.052555 
L 873.583771 288.052555 
L 880.3928 274.521102 
L 887.20183 304.343683 
L 894.01086 307.014365 
L 900.81989 304.343683 
L 907.62892 298.913307 
L 914.43795 298.913307 
L 921.24698 297.71625 
L 928.05601 298.913307 
L 934.86504 301.673001 
L 941.67407 307.014365 
L 948.483099 298.913307 
L 955.292129 304.343683 
L 962.101159 298.719875 
L 968.910189 284.554228 
L 975.719219 266.420056 
L 982.528249 264.40627 
L 989.337279 255.559298 
L 996.146309 269.090732 
L 1002.955339 269.090732 
L 1009.764369 279.951491 
L 1016.573398 282.622166 
L 1023.382428 263.660344 
L 1030.191458 267.918984 
L 1037.000488 255.559298 
L 1043.809518 269.090732 
L 1057.427578 247.369215 
L 1064.236608 259.662875 
L 1071.045638 258.229974 
L 1077.854667 277.626154 
L 1084.663697 298.913307 
L 1091.472727 288.052555 
L 1091.472727 288.052555 
" clip-path="url(#p6773617a5b)" style="fill: none; stroke-dasharray: 11.1,4.8; stroke-dashoffset: 0; stroke: #731a73; stroke-width: 3"/>
   </g>
   <g id="line2d_28">
    <path d="M 76.927273 277.545448 
L 83.736303 277.663311 
L 90.545333 282.622166 
L 104.163392 271.761408 
L 110.972422 269.090732 
L 117.781452 263.660344 
L 124.590482 274.521102 
L 131.399512 274.521102 
L 138.208542 263.660344 
L 145.017572 247.369215 
L 151.826602 220.306322 
L 158.635631 217.546628 
L 165.444661 217.546628 
L 172.253691 224.968305 
L 179.062721 242.739683 
L 185.871751 250.128903 
L 199.489811 293.482919 
L 206.298841 292.633449 
L 213.107871 301.673001 
L 219.916901 288.052555 
L 226.72593 258.229974 
L 233.53496 274.521102 
L 240.34399 270.370297 
L 247.15302 274.521102 
L 253.96205 273.9451 
L 260.77108 277.191778 
L 267.58011 274.521102 
L 274.38914 275.402994 
L 281.19817 277.413818 
L 288.0072 282.622166 
L 294.816229 274.521102 
L 301.625259 269.090732 
L 308.434289 252.799579 
L 315.243319 250.324553 
L 322.052349 242.877787 
L 328.861379 241.596084 
L 335.670409 247.02756 
L 342.479439 253.395337 
L 349.288469 259.335055 
L 356.097498 260.773002 
L 362.906528 225.078934 
L 369.715558 226.416735 
L 376.524588 225.326103 
L 383.333618 234.448691 
L 390.142648 241.922618 
L 396.951678 257.05448 
L 403.760708 264.914152 
L 410.569738 269.879512 
L 417.378768 274.155243 
L 424.187797 275.371745 
L 430.996827 279.660877 
L 437.805857 277.35552 
L 444.614887 276.066537 
L 451.423917 284.617229 
L 458.232947 289.190904 
L 465.041977 289.504131 
L 471.851007 278.586988 
L 478.660037 278.774903 
L 485.469067 270.608478 
L 492.278096 263.288303 
L 499.087126 258.613495 
L 505.896156 133.195238 
L 512.705186 142.160787 
L 519.514216 139.767809 
L 526.323246 117.780523 
L 533.132276 120.202103 
L 539.941306 118.184377 
L 546.750336 113.796908 
L 553.559365 109.872809 
L 560.368395 111.218836 
L 567.177425 116.787508 
L 573.986455 119.119281 
L 580.795485 123.461106 
L 587.604515 125.070859 
L 594.413545 128.634491 
L 601.222575 126.775028 
L 608.031605 122.055086 
L 614.840635 124.80353 
L 621.649664 123.570564 
L 628.458694 121.828579 
L 635.267724 117.478851 
L 642.076754 122.648508 
L 648.885784 114.547444 
L 655.694814 103.686685 
L 662.503844 95.585615 
L 669.312874 84.724881 
L 676.121904 79.294468 
L 682.930933 71.193398 
L 689.739963 57.572951 
L 696.548993 33.180777 
L 703.358023 27.750364 
L 710.167053 26.474669 
L 716.976083 26.030564 
L 723.785113 22.32 
L 730.594143 46.712211 
L 737.403173 52.142587 
L 744.212203 243.083836 
L 751.021232 258.229974 
L 757.830262 244.698515 
L 764.639292 236.597469 
L 771.448322 247.369215 
L 778.257352 238.728666 
L 785.066382 225.736711 
L 791.875412 233.837756 
L 798.684442 219.868364 
L 805.493472 198.584804 
L 812.302502 187.724045 
L 819.111531 197.793825 
L 825.920561 220.306322 
L 832.729591 266.420056 
L 839.538621 293.482919 
L 846.347651 297.049427 
L 853.156681 298.913307 
L 859.965711 282.622166 
L 866.774741 288.052555 
L 873.583771 288.052555 
L 880.3928 274.521102 
L 887.20183 304.343683 
L 894.01086 307.014365 
L 900.81989 304.343683 
L 907.62892 298.913307 
L 914.43795 298.913307 
L 921.24698 296.903682 
L 928.05601 298.913307 
L 934.86504 301.673001 
L 941.67407 307.014365 
L 948.483099 298.913307 
L 955.292129 304.343683 
L 962.101159 297.719592 
L 968.910189 283.602564 
L 975.719219 266.420056 
L 982.528249 267.116295 
L 989.337279 255.559298 
L 996.146309 269.090732 
L 1002.955339 269.090732 
L 1009.764369 279.951491 
L 1016.573398 282.622166 
L 1023.382428 263.660344 
L 1030.191458 269.953459 
L 1037.000488 255.559298 
L 1043.809518 269.090732 
L 1057.427578 247.369215 
L 1064.236608 258.724804 
L 1071.045638 258.229974 
L 1077.854667 278.031823 
L 1084.663697 298.913307 
L 1091.472727 288.052555 
L 1091.472727 288.052555 
" clip-path="url(#p6773617a5b)" style="fill: none; stroke-dasharray: 11.1,4.8; stroke-dashoffset: 0; stroke: #f24c3d; stroke-width: 3"/>
   </g>
   <g id="line2d_29">
    <path d="M 76.927273 271.761408 
L 90.545333 282.622166 
L 104.163392 271.761408 
L 110.972422 269.090732 
L 117.781452 263.660344 
L 124.590482 274.521102 
L 131.399512 274.521102 
L 138.208542 263.660344 
L 145.017572 247.369215 
L 151.826602 220.306322 
L 158.635631 217.546628 
L 165.444661 217.546628 
L 172.253691 212.116239 
L 179.062721 236.597469 
L 185.871751 250.128903 
L 199.489811 293.482919 
L 206.298841 271.761408 
L 213.107871 301.673001 
L 219.916901 288.052555 
L 226.72593 258.229974 
L 233.53496 274.521102 
L 240.34399 282.622166 
L 247.15302 274.521102 
L 253.96205 277.191778 
L 260.77108 277.191778 
L 267.58011 274.521102 
L 274.38914 266.420056 
L 281.19817 279.951491 
L 288.0072 282.622166 
L 294.816229 274.521102 
L 301.625259 269.090732 
L 308.434289 252.799579 
L 315.243319 263.660344 
L 322.052349 233.837756 
L 328.861379 231.167081 
L 335.670409 239.268145 
L 342.479439 239.268145 
L 349.288469 260.989662 
L 356.097498 260.989662 
L 362.906528 258.229974 
L 369.715558 252.799579 
L 376.524588 239.268145 
L 383.333618 247.369215 
L 390.142648 250.128903 
L 396.951678 263.660344 
L 403.760708 269.090732 
L 410.569738 279.951491 
L 417.378768 279.951491 
L 424.187797 293.482919 
L 430.996827 288.052555 
L 437.805857 296.242625 
L 444.614887 279.951491 
L 451.423917 285.381861 
L 458.232947 307.014365 
L 465.041977 312.444754 
L 471.851007 307.014365 
L 478.660037 290.812249 
L 485.469067 298.913307 
L 492.278096 315.204448 
L 499.087126 320.634836 
L 505.896156 117.21812 
L 512.705186 122.648508 
L 519.514216 125.408202 
L 526.323246 133.509267 
L 533.132276 128.078878 
L 539.941306 138.939637 
L 546.750336 133.509267 
L 553.559365 136.268961 
L 560.368395 109.117049 
L 567.177425 122.648508 
L 573.986455 111.78775 
L 587.604515 117.21812 
L 594.413545 125.408202 
L 601.222575 114.547444 
L 614.840635 119.977833 
L 621.649664 119.977833 
L 628.458694 128.078878 
L 642.076754 122.648508 
L 648.885784 114.547444 
L 655.694814 103.686685 
L 662.503844 95.585615 
L 669.312874 84.724881 
L 676.121904 79.294468 
L 682.930933 71.193398 
L 689.739963 57.572951 
L 696.548993 33.180777 
L 703.358023 27.750364 
L 716.976083 38.611141 
L 723.785113 22.32 
L 730.594143 46.712211 
L 737.403173 52.142587 
L 744.212203 255.559298 
L 751.021232 258.229974 
L 757.830262 244.698515 
L 764.639292 236.597469 
L 771.448322 247.369215 
L 778.257352 260.989662 
L 785.066382 225.736711 
L 791.875412 233.837756 
L 798.684442 236.597469 
L 805.493472 198.584804 
L 812.302502 187.724045 
L 819.111531 206.685869 
L 825.920561 220.306322 
L 832.729591 266.420056 
L 839.538621 293.482919 
L 846.347651 293.482919 
L 853.156681 298.913307 
L 859.965711 282.622166 
L 866.774741 288.052555 
L 873.583771 288.052555 
L 880.3928 274.521102 
L 887.20183 304.343683 
L 894.01086 307.014365 
L 900.81989 304.343683 
L 907.62892 298.913307 
L 914.43795 298.913307 
L 921.24698 296.242625 
L 934.86504 301.673001 
L 941.67407 307.014365 
L 948.483099 298.913307 
L 955.292129 304.343683 
L 968.910189 288.052555 
L 975.719219 266.420056 
L 982.528249 263.660344 
L 989.337279 255.559298 
L 996.146309 269.090732 
L 1002.955339 269.090732 
L 1009.764369 279.951491 
L 1016.573398 282.622166 
L 1023.382428 263.660344 
L 1030.191458 263.660344 
L 1037.000488 255.559298 
L 1043.809518 269.090732 
L 1057.427578 247.369215 
L 1064.236608 258.229974 
L 1071.045638 258.229974 
L 1077.854667 266.420056 
L 1084.663697 298.913307 
L 1091.472727 288.052555 
L 1091.472727 288.052555 
" clip-path="url(#p6773617a5b)" style="fill: none; stroke-dasharray: 11.1,4.8; stroke-dashoffset: 0; stroke: #068ff8; stroke-width: 3"/>
   </g>
   <g id="patch_3">
    <path d="M 26.2 339.84 
L 26.2 7.2 
" style="fill: none; stroke: #000000; stroke-width: 0.8; stroke-linejoin: miter; stroke-linecap: square"/>
   </g>
   <g id="patch_4">
    <path d="M 1142.2 339.84 
L 1142.2 7.2 
" style="fill: none; stroke: #000000; stroke-width: 0.8; stroke-linejoin: miter; stroke-linecap: square"/>
   </g>
   <g id="patch_5">
    <path d="M 26.2 339.84 
L 1142.2 339.84 
" style="fill: none; stroke: #000000; stroke-width: 0.8; stroke-linejoin: miter; stroke-linecap: square"/>
   </g>
   <g id="patch_6">
    <path d="M 26.2 7.2 
L 1142.2 7.2 
" style="fill: none; stroke: #000000; stroke-width: 0.8; stroke-linejoin: miter; stroke-linecap: square"/>
   </g>
   <g id="PathCollection_1">
    <defs>
     <path id="m7d144173de" d="M 0 3.535534 
C 0.937635 3.535534 1.836992 3.163008 2.5 2.5 
C 3.163008 1.836992 3.535534 0.937635 3.535534 0 
C 3.535534 -0.937635 3.163008 -1.836992 2.5 -2.5 
C 1.836992 -3.163008 0.937635 -3.535534 0 -3.535534 
C -0.937635 -3.535534 -1.836992 -3.163008 -2.5 -2.5 
C -3.163008 -1.836992 -3.535534 -0.937635 -3.535534 0 
C -3.535534 0.937635 -3.163008 1.836992 -2.5 2.5 
C -1.836992 3.163008 -0.937635 3.535534 0 3.535534 
z
" style="stroke: #22a699"/>
    </defs>
    <g clip-path="url(#p6773617a5b)">
     <use xlink:href="#m7d144173de" x="90.545333" y="282.622166" style="fill: #22a699; stroke: #22a699"/>
     <use xlink:href="#m7d144173de" x="97.354362" y="277.191778" style="fill: #22a699; stroke: #22a699"/>
     <use xlink:href="#m7d144173de" x="104.163392" y="271.761408" style="fill: #22a699; stroke: #22a699"/>
     <use xlink:href="#m7d144173de" x="110.972422" y="269.090732" style="fill: #22a699; stroke: #22a699"/>
     <use xlink:href="#m7d144173de" x="117.781452" y="263.660344" style="fill: #22a699; stroke: #22a699"/>
     <use xlink:href="#m7d144173de" x="124.590482" y="274.521102" style="fill: #22a699; stroke: #22a699"/>
     <use xlink:href="#m7d144173de" x="131.399512" y="274.521102" style="fill: #22a699; stroke: #22a699"/>
     <use xlink:href="#m7d144173de" x="138.208542" y="263.660344" style="fill: #22a699; stroke: #22a699"/>
     <use xlink:href="#m7d144173de" x="145.017572" y="247.369215" style="fill: #22a699; stroke: #22a699"/>
     <use xlink:href="#m7d144173de" x="151.826602" y="220.306322" style="fill: #22a699; stroke: #22a699"/>
     <use xlink:href="#m7d144173de" x="158.635631" y="217.546628" style="fill: #22a699; stroke: #22a699"/>
     <use xlink:href="#m7d144173de" x="165.444661" y="217.546628" style="fill: #22a699; stroke: #22a699"/>
     <use xlink:href="#m7d144173de" x="185.871751" y="250.128903" style="fill: #22a699; stroke: #22a699"/>
     <use xlink:href="#m7d144173de" x="192.680781" y="271.761408" style="fill: #22a699; stroke: #22a699"/>
     <use xlink:href="#m7d144173de" x="199.489811" y="293.482919" style="fill: #22a699; stroke: #22a699"/>
     <use xlink:href="#m7d144173de" x="213.107871" y="301.673001" style="fill: #22a699; stroke: #22a699"/>
     <use xlink:href="#m7d144173de" x="219.916901" y="288.052555" style="fill: #22a699; stroke: #22a699"/>
     <use xlink:href="#m7d144173de" x="226.72593" y="258.229974" style="fill: #22a699; stroke: #22a699"/>
     <use xlink:href="#m7d144173de" x="233.53496" y="274.521102" style="fill: #22a699; stroke: #22a699"/>
     <use xlink:href="#m7d144173de" x="247.15302" y="274.521102" style="fill: #22a699; stroke: #22a699"/>
     <use xlink:href="#m7d144173de" x="260.77108" y="277.191778" style="fill: #22a699; stroke: #22a699"/>
     <use xlink:href="#m7d144173de" x="267.58011" y="274.521102" style="fill: #22a699; stroke: #22a699"/>
     <use xlink:href="#m7d144173de" x="288.0072" y="282.622166" style="fill: #22a699; stroke: #22a699"/>
     <use xlink:href="#m7d144173de" x="294.816229" y="274.521102" style="fill: #22a699; stroke: #22a699"/>
     <use xlink:href="#m7d144173de" x="301.625259" y="269.090732" style="fill: #22a699; stroke: #22a699"/>
     <use xlink:href="#m7d144173de" x="308.434289" y="252.799579" style="fill: #22a699; stroke: #22a699"/>
     <use xlink:href="#m7d144173de" x="642.076754" y="122.648508" style="fill: #22a699; stroke: #22a699"/>
     <use xlink:href="#m7d144173de" x="648.885784" y="114.547444" style="fill: #22a699; stroke: #22a699"/>
     <use xlink:href="#m7d144173de" x="655.694814" y="103.686685" style="fill: #22a699; stroke: #22a699"/>
     <use xlink:href="#m7d144173de" x="662.503844" y="95.585615" style="fill: #22a699; stroke: #22a699"/>
     <use xlink:href="#m7d144173de" x="669.312874" y="84.724881" style="fill: #22a699; stroke: #22a699"/>
     <use xlink:href="#m7d144173de" x="676.121904" y="79.294468" style="fill: #22a699; stroke: #22a699"/>
     <use xlink:href="#m7d144173de" x="682.930933" y="71.193398" style="fill: #22a699; stroke: #22a699"/>
     <use xlink:href="#m7d144173de" x="689.739963" y="57.572951" style="fill: #22a699; stroke: #22a699"/>
     <use xlink:href="#m7d144173de" x="696.548993" y="33.180777" style="fill: #22a699; stroke: #22a699"/>
     <use xlink:href="#m7d144173de" x="703.358023" y="27.750364" style="fill: #22a699; stroke: #22a699"/>
     <use xlink:href="#m7d144173de" x="723.785113" y="22.32" style="fill: #22a699; stroke: #22a699"/>
     <use xlink:href="#m7d144173de" x="730.594143" y="46.712211" style="fill: #22a699; stroke: #22a699"/>
     <use xlink:href="#m7d144173de" x="737.403173" y="52.142587" style="fill: #22a699; stroke: #22a699"/>
     <use xlink:href="#m7d144173de" x="751.021232" y="258.229974" style="fill: #22a699; stroke: #22a699"/>
     <use xlink:href="#m7d144173de" x="757.830262" y="244.698515" style="fill: #22a699; stroke: #22a699"/>
     <use xlink:href="#m7d144173de" x="764.639292" y="236.597469" style="fill: #22a699; stroke: #22a699"/>
     <use xlink:href="#m7d144173de" x="771.448322" y="247.369215" style="fill: #22a699; stroke: #22a699"/>
     <use xlink:href="#m7d144173de" x="785.066382" y="225.736711" style="fill: #22a699; stroke: #22a699"/>
     <use xlink:href="#m7d144173de" x="791.875412" y="233.837756" style="fill: #22a699; stroke: #22a699"/>
     <use xlink:href="#m7d144173de" x="805.493472" y="198.584804" style="fill: #22a699; stroke: #22a699"/>
     <use xlink:href="#m7d144173de" x="812.302502" y="187.724045" style="fill: #22a699; stroke: #22a699"/>
     <use xlink:href="#m7d144173de" x="825.920561" y="220.306322" style="fill: #22a699; stroke: #22a699"/>
     <use xlink:href="#m7d144173de" x="832.729591" y="266.420056" style="fill: #22a699; stroke: #22a699"/>
     <use xlink:href="#m7d144173de" x="839.538621" y="293.482919" style="fill: #22a699; stroke: #22a699"/>
     <use xlink:href="#m7d144173de" x="853.156681" y="298.913307" style="fill: #22a699; stroke: #22a699"/>
     <use xlink:href="#m7d144173de" x="859.965711" y="282.622166" style="fill: #22a699; stroke: #22a699"/>
     <use xlink:href="#m7d144173de" x="866.774741" y="288.052555" style="fill: #22a699; stroke: #22a699"/>
     <use xlink:href="#m7d144173de" x="873.583771" y="288.052555" style="fill: #22a699; stroke: #22a699"/>
     <use xlink:href="#m7d144173de" x="880.3928" y="274.521102" style="fill: #22a699; stroke: #22a699"/>
     <use xlink:href="#m7d144173de" x="887.20183" y="304.343683" style="fill: #22a699; stroke: #22a699"/>
     <use xlink:href="#m7d144173de" x="894.01086" y="307.014365" style="fill: #22a699; stroke: #22a699"/>
     <use xlink:href="#m7d144173de" x="900.81989" y="304.343683" style="fill: #22a699; stroke: #22a699"/>
     <use xlink:href="#m7d144173de" x="907.62892" y="298.913307" style="fill: #22a699; stroke: #22a699"/>
     <use xlink:href="#m7d144173de" x="914.43795" y="298.913307" style="fill: #22a699; stroke: #22a699"/>
     <use xlink:href="#m7d144173de" x="928.05601" y="298.913307" style="fill: #22a699; stroke: #22a699"/>
     <use xlink:href="#m7d144173de" x="934.86504" y="301.673001" style="fill: #22a699; stroke: #22a699"/>
     <use xlink:href="#m7d144173de" x="941.67407" y="307.014365" style="fill: #22a699; stroke: #22a699"/>
     <use xlink:href="#m7d144173de" x="948.483099" y="298.913307" style="fill: #22a699; stroke: #22a699"/>
     <use xlink:href="#m7d144173de" x="955.292129" y="304.343683" style="fill: #22a699; stroke: #22a699"/>
     <use xlink:href="#m7d144173de" x="975.719219" y="266.420056" style="fill: #22a699; stroke: #22a699"/>
     <use xlink:href="#m7d144173de" x="989.337279" y="255.559298" style="fill: #22a699; stroke: #22a699"/>
     <use xlink:href="#m7d144173de" x="996.146309" y="269.090732" style="fill: #22a699; stroke: #22a699"/>
     <use xlink:href="#m7d144173de" x="1002.955339" y="269.090732" style="fill: #22a699; stroke: #22a699"/>
     <use xlink:href="#m7d144173de" x="1009.764369" y="279.951491" style="fill: #22a699; stroke: #22a699"/>
     <use xlink:href="#m7d144173de" x="1016.573398" y="282.622166" style="fill: #22a699; stroke: #22a699"/>
     <use xlink:href="#m7d144173de" x="1023.382428" y="263.660344" style="fill: #22a699; stroke: #22a699"/>
     <use xlink:href="#m7d144173de" x="1037.000488" y="255.559298" style="fill: #22a699; stroke: #22a699"/>
     <use xlink:href="#m7d144173de" x="1043.809518" y="269.090732" style="fill: #22a699; stroke: #22a699"/>
     <use xlink:href="#m7d144173de" x="1050.618548" y="258.229974" style="fill: #22a699; stroke: #22a699"/>
     <use xlink:href="#m7d144173de" x="1057.427578" y="247.369215" style="fill: #22a699; stroke: #22a699"/>
     <use xlink:href="#m7d144173de" x="1071.045638" y="258.229974" style="fill: #22a699; stroke: #22a699"/>
     <use xlink:href="#m7d144173de" x="1084.663697" y="298.913307" style="fill: #22a699; stroke: #22a699"/>
     <use xlink:href="#m7d144173de" x="1091.472727" y="288.052555" style="fill: #22a699; stroke: #22a699"/>
    </g>
   </g>
   <g id="legend_1">
    <g id="patch_7">
     <path d="M 848.545 323.84 
L 1119.8 323.84 
Q 1126.2 323.84 1126.2 317.44 
L 1126.2 49.17 
Q 1126.2 42.77 1119.8 42.77 
L 848.545 42.77 
Q 842.145 42.77 842.145 49.17 
L 842.145 317.44 
Q 842.145 323.84 848.545 323.84 
z
" style="fill: #ffffff; opacity: 0.8; stroke: #cccccc; stroke-linejoin: miter"/>
    </g>
    <g id="PathCollection_2">
     <g>
      <use xlink:href="#m7d144173de" x="886.945" y="69.57" style="fill: #22a699; stroke: #22a699"/>
     </g>
    </g>
    <g id="text_14">
     <!-- Observed -->
     <g transform="translate(944.545 77.97) scale(0.32 -0.32)">
      <defs>
       <path id="TimesNewRomanPSMT-4f" d="M 2341 4334 
Q 3166 4334 3770 3707 
Q 4375 3081 4375 2144 
Q 4375 1178 3765 540 
Q 3156 -97 2291 -97 
Q 1416 -97 820 525 
Q 225 1147 225 2134 
Q 225 3144 913 3781 
Q 1509 4334 2341 4334 
z
M 2281 4106 
Q 1713 4106 1369 3684 
Q 941 3159 941 2147 
Q 941 1109 1384 550 
Q 1725 125 2284 125 
Q 2881 125 3270 590 
Q 3659 1056 3659 2059 
Q 3659 3147 3231 3681 
Q 2888 4106 2281 4106 
z
" transform="scale(0.015625)"/>
       <path id="TimesNewRomanPSMT-62" d="M 984 2369 
Q 1400 2947 1881 2947 
Q 2322 2947 2650 2570 
Q 2978 2194 2978 1541 
Q 2978 778 2472 313 
Q 2038 -88 1503 -88 
Q 1253 -88 995 3 
Q 738 94 469 275 
L 469 3241 
Q 469 3728 445 3840 
Q 422 3953 372 3993 
Q 322 4034 247 4034 
Q 159 4034 28 3984 
L -16 4094 
L 844 4444 
L 984 4444 
L 984 2369 
z
M 984 2169 
L 984 456 
Q 1144 300 1314 220 
Q 1484 141 1663 141 
Q 1947 141 2192 453 
Q 2438 766 2438 1363 
Q 2438 1913 2192 2208 
Q 1947 2503 1634 2503 
Q 1469 2503 1303 2419 
Q 1178 2356 984 2169 
z
" transform="scale(0.015625)"/>
       <path id="TimesNewRomanPSMT-72" d="M 1038 2947 
L 1038 2303 
Q 1397 2947 1775 2947 
Q 1947 2947 2059 2842 
Q 2172 2738 2172 2600 
Q 2172 2478 2090 2393 
Q 2009 2309 1897 2309 
Q 1788 2309 1652 2417 
Q 1516 2525 1450 2525 
Q 1394 2525 1328 2463 
Q 1188 2334 1038 2041 
L 1038 669 
Q 1038 431 1097 309 
Q 1138 225 1241 169 
Q 1344 113 1538 113 
L 1538 0 
L 72 0 
L 72 113 
Q 291 113 397 181 
Q 475 231 506 341 
Q 522 394 522 644 
L 522 1753 
Q 522 2253 501 2348 
Q 481 2444 426 2487 
Q 372 2531 291 2531 
Q 194 2531 72 2484 
L 41 2597 
L 906 2947 
L 1038 2947 
z
" transform="scale(0.015625)"/>
       <path id="TimesNewRomanPSMT-76" d="M 53 2863 
L 1400 2863 
L 1400 2747 
L 1313 2747 
Q 1191 2747 1127 2687 
Q 1063 2628 1063 2528 
Q 1063 2419 1128 2269 
L 1794 688 
L 2463 2328 
Q 2534 2503 2534 2594 
Q 2534 2638 2509 2666 
Q 2475 2713 2422 2730 
Q 2369 2747 2206 2747 
L 2206 2863 
L 3141 2863 
L 3141 2747 
Q 2978 2734 2916 2681 
Q 2806 2588 2719 2369 
L 1703 -88 
L 1575 -88 
L 553 2328 
Q 484 2497 421 2570 
Q 359 2644 263 2694 
Q 209 2722 53 2747 
L 53 2863 
z
" transform="scale(0.015625)"/>
       <path id="TimesNewRomanPSMT-64" d="M 2222 322 
Q 2013 103 1813 7 
Q 1613 -88 1381 -88 
Q 913 -88 563 304 
Q 213 697 213 1313 
Q 213 1928 600 2439 
Q 988 2950 1597 2950 
Q 1975 2950 2222 2709 
L 2222 3238 
Q 2222 3728 2198 3840 
Q 2175 3953 2125 3993 
Q 2075 4034 2000 4034 
Q 1919 4034 1784 3984 
L 1744 4094 
L 2597 4444 
L 2738 4444 
L 2738 1134 
Q 2738 631 2761 520 
Q 2784 409 2836 365 
Q 2888 322 2956 322 
Q 3041 322 3181 375 
L 3216 266 
L 2366 -88 
L 2222 -88 
L 2222 322 
z
M 2222 541 
L 2222 2016 
Q 2203 2228 2109 2403 
Q 2016 2578 1861 2667 
Q 1706 2756 1559 2756 
Q 1284 2756 1069 2509 
Q 784 2184 784 1559 
Q 784 928 1059 592 
Q 1334 256 1672 256 
Q 1956 256 2222 541 
z
" transform="scale(0.015625)"/>
      </defs>
      <use xlink:href="#TimesNewRomanPSMT-4f"/>
      <use xlink:href="#TimesNewRomanPSMT-62" x="72.216797"/>
      <use xlink:href="#TimesNewRomanPSMT-73" x="122.216797"/>
      <use xlink:href="#TimesNewRomanPSMT-65" x="161.132812"/>
      <use xlink:href="#TimesNewRomanPSMT-72" x="205.517578"/>
      <use xlink:href="#TimesNewRomanPSMT-76" x="238.818359"/>
      <use xlink:href="#TimesNewRomanPSMT-65" x="288.818359"/>
      <use xlink:href="#TimesNewRomanPSMT-64" x="333.203125"/>
     </g>
    </g>
    <g id="line2d_30">
     <path d="M 854.945 112.015 
L 886.945 112.015 
L 918.945 112.015 
" style="fill: none; stroke-dasharray: 11.1,4.8; stroke-dashoffset: 0; stroke: #d65190; stroke-width: 3"/>
    </g>
    <g id="text_15">
     <!-- w/o cons -->
     <g transform="translate(944.545 123.215) scale(0.32 -0.32)">
      <defs>
       <path id="TimesNewRomanPSMT-77" d="M 41 2863 
L 1241 2863 
L 1241 2747 
Q 1075 2734 1023 2687 
Q 972 2641 972 2553 
Q 972 2456 1025 2319 
L 1638 672 
L 2253 2013 
L 2091 2434 
Q 2016 2622 1894 2694 
Q 1825 2738 1638 2747 
L 1638 2863 
L 3000 2863 
L 3000 2747 
Q 2775 2738 2681 2666 
Q 2619 2616 2619 2506 
Q 2619 2444 2644 2378 
L 3294 734 
L 3897 2319 
Q 3959 2488 3959 2588 
Q 3959 2647 3898 2694 
Q 3838 2741 3659 2747 
L 3659 2863 
L 4563 2863 
L 4563 2747 
Q 4291 2706 4163 2378 
L 3206 -88 
L 3078 -88 
L 2363 1741 
L 1528 -88 
L 1413 -88 
L 494 2319 
Q 403 2547 315 2626 
Q 228 2706 41 2747 
L 41 2863 
z
" transform="scale(0.015625)"/>
       <path id="TimesNewRomanPSMT-2f" d="M 1794 4444 
L 259 -88 
L 9 -88 
L 1544 4444 
L 1794 4444 
z
" transform="scale(0.015625)"/>
       <path id="TimesNewRomanPSMT-6f" d="M 1600 2947 
Q 2250 2947 2644 2453 
Q 2978 2031 2978 1484 
Q 2978 1100 2793 706 
Q 2609 313 2286 112 
Q 1963 -88 1566 -88 
Q 919 -88 538 428 
Q 216 863 216 1403 
Q 216 1797 411 2186 
Q 606 2575 925 2761 
Q 1244 2947 1600 2947 
z
M 1503 2744 
Q 1338 2744 1170 2645 
Q 1003 2547 900 2300 
Q 797 2053 797 1666 
Q 797 1041 1045 587 
Q 1294 134 1700 134 
Q 2003 134 2200 384 
Q 2397 634 2397 1244 
Q 2397 2006 2069 2444 
Q 1847 2744 1503 2744 
z
" transform="scale(0.015625)"/>
       <path id="TimesNewRomanPSMT-63" d="M 2631 1088 
Q 2516 522 2178 217 
Q 1841 -88 1431 -88 
Q 944 -88 581 321 
Q 219 731 219 1428 
Q 219 2103 620 2525 
Q 1022 2947 1584 2947 
Q 2006 2947 2278 2723 
Q 2550 2500 2550 2259 
Q 2550 2141 2473 2067 
Q 2397 1994 2259 1994 
Q 2075 1994 1981 2113 
Q 1928 2178 1911 2362 
Q 1894 2547 1784 2644 
Q 1675 2738 1481 2738 
Q 1169 2738 978 2506 
Q 725 2200 725 1697 
Q 725 1184 976 792 
Q 1228 400 1656 400 
Q 1963 400 2206 609 
Q 2378 753 2541 1131 
L 2631 1088 
z
" transform="scale(0.015625)"/>
       <path id="TimesNewRomanPSMT-6e" d="M 1034 2341 
Q 1538 2947 1994 2947 
Q 2228 2947 2397 2830 
Q 2566 2713 2666 2444 
Q 2734 2256 2734 1869 
L 2734 647 
Q 2734 375 2778 278 
Q 2813 200 2889 156 
Q 2966 113 3172 113 
L 3172 0 
L 1756 0 
L 1756 113 
L 1816 113 
Q 2016 113 2095 173 
Q 2175 234 2206 353 
Q 2219 400 2219 647 
L 2219 1819 
Q 2219 2209 2117 2386 
Q 2016 2563 1775 2563 
Q 1403 2563 1034 2156 
L 1034 647 
Q 1034 356 1069 288 
Q 1113 197 1189 155 
Q 1266 113 1500 113 
L 1500 0 
L 84 0 
L 84 113 
L 147 113 
Q 366 113 442 223 
Q 519 334 519 647 
L 519 1709 
Q 519 2225 495 2337 
Q 472 2450 423 2490 
Q 375 2531 294 2531 
Q 206 2531 84 2484 
L 38 2597 
L 900 2947 
L 1034 2947 
L 1034 2341 
z
" transform="scale(0.015625)"/>
      </defs>
      <use xlink:href="#TimesNewRomanPSMT-77"/>
      <use xlink:href="#TimesNewRomanPSMT-2f" x="72.216797"/>
      <use xlink:href="#TimesNewRomanPSMT-6f" x="100"/>
      <use xlink:href="#TimesNewRomanPSMT-20" x="150"/>
      <use xlink:href="#TimesNewRomanPSMT-63" x="175"/>
      <use xlink:href="#TimesNewRomanPSMT-6f" x="219.384766"/>
      <use xlink:href="#TimesNewRomanPSMT-6e" x="269.384766"/>
      <use xlink:href="#TimesNewRomanPSMT-73" x="319.384766"/>
     </g>
    </g>
    <g id="line2d_31">
     <path d="M 854.945 157.26 
L 886.945 157.26 
L 918.945 157.26 
" style="fill: none; stroke-dasharray: 11.1,4.8; stroke-dashoffset: 0; stroke: #ff8c00; stroke-width: 3"/>
    </g>
    <g id="text_16">
     <!-- w/o intra -->
     <g transform="translate(944.545 168.46) scale(0.32 -0.32)">
      <defs>
       <path id="TimesNewRomanPSMT-61" d="M 1822 413 
Q 1381 72 1269 19 
Q 1100 -59 909 -59 
Q 613 -59 420 144 
Q 228 347 228 678 
Q 228 888 322 1041 
Q 450 1253 767 1440 
Q 1084 1628 1822 1897 
L 1822 2009 
Q 1822 2438 1686 2597 
Q 1550 2756 1291 2756 
Q 1094 2756 978 2650 
Q 859 2544 859 2406 
L 866 2225 
Q 866 2081 792 2003 
Q 719 1925 600 1925 
Q 484 1925 411 2006 
Q 338 2088 338 2228 
Q 338 2497 613 2722 
Q 888 2947 1384 2947 
Q 1766 2947 2009 2819 
Q 2194 2722 2281 2516 
Q 2338 2381 2338 1966 
L 2338 994 
Q 2338 584 2353 492 
Q 2369 400 2405 369 
Q 2441 338 2488 338 
Q 2538 338 2575 359 
Q 2641 400 2828 588 
L 2828 413 
Q 2478 -56 2159 -56 
Q 2006 -56 1915 50 
Q 1825 156 1822 413 
z
M 1822 616 
L 1822 1706 
Q 1350 1519 1213 1441 
Q 966 1303 859 1153 
Q 753 1003 753 825 
Q 753 600 887 451 
Q 1022 303 1197 303 
Q 1434 303 1822 616 
z
" transform="scale(0.015625)"/>
      </defs>
      <use xlink:href="#TimesNewRomanPSMT-77"/>
      <use xlink:href="#TimesNewRomanPSMT-2f" x="72.216797"/>
      <use xlink:href="#TimesNewRomanPSMT-6f" x="100"/>
      <use xlink:href="#TimesNewRomanPSMT-20" x="150"/>
      <use xlink:href="#TimesNewRomanPSMT-69" x="175"/>
      <use xlink:href="#TimesNewRomanPSMT-6e" x="202.783203"/>
      <use xlink:href="#TimesNewRomanPSMT-74" x="252.783203"/>
      <use xlink:href="#TimesNewRomanPSMT-72" x="280.566406"/>
      <use xlink:href="#TimesNewRomanPSMT-61" x="313.867188"/>
     </g>
    </g>
    <g id="line2d_32">
     <path d="M 854.945 202.505 
L 886.945 202.505 
L 918.945 202.505 
" style="fill: none; stroke-dasharray: 11.1,4.8; stroke-dashoffset: 0; stroke: #731a73; stroke-width: 3"/>
    </g>
    <g id="text_17">
     <!-- w/o inter -->
     <g transform="translate(944.545 213.705) scale(0.32 -0.32)">
      <use xlink:href="#TimesNewRomanPSMT-77"/>
      <use xlink:href="#TimesNewRomanPSMT-2f" x="72.216797"/>
      <use xlink:href="#TimesNewRomanPSMT-6f" x="100"/>
      <use xlink:href="#TimesNewRomanPSMT-20" x="150"/>
      <use xlink:href="#TimesNewRomanPSMT-69" x="175"/>
      <use xlink:href="#TimesNewRomanPSMT-6e" x="202.783203"/>
      <use xlink:href="#TimesNewRomanPSMT-74" x="252.783203"/>
      <use xlink:href="#TimesNewRomanPSMT-65" x="280.566406"/>
      <use xlink:href="#TimesNewRomanPSMT-72" x="324.951172"/>
     </g>
    </g>
    <g id="line2d_33">
     <path d="M 854.945 247.75 
L 886.945 247.75 
L 918.945 247.75 
" style="fill: none; stroke-dasharray: 11.1,4.8; stroke-dashoffset: 0; stroke: #f24c3d; stroke-width: 3"/>
    </g>
    <g id="text_18">
     <!-- MTSCI -->
     <g transform="translate(944.545 258.95) scale(0.32 -0.32)">
      <defs>
       <path id="TimesNewRomanPSMT-4d" d="M 2619 0 
L 981 3566 
L 981 734 
Q 981 344 1066 247 
Q 1181 116 1431 116 
L 1581 116 
L 1581 0 
L 106 0 
L 106 116 
L 256 116 
Q 525 116 638 278 
Q 706 378 706 734 
L 706 3503 
Q 706 3784 644 3909 
Q 600 4000 483 4061 
Q 366 4122 106 4122 
L 106 4238 
L 1306 4238 
L 2844 922 
L 4356 4238 
L 5556 4238 
L 5556 4122 
L 5409 4122 
Q 5138 4122 5025 3959 
Q 4956 3859 4956 3503 
L 4956 734 
Q 4956 344 5044 247 
Q 5159 116 5409 116 
L 5556 116 
L 5556 0 
L 3756 0 
L 3756 116 
L 3906 116 
Q 4178 116 4288 278 
Q 4356 378 4356 734 
L 4356 3566 
L 2722 0 
L 2619 0 
z
" transform="scale(0.015625)"/>
       <path id="TimesNewRomanPSMT-53" d="M 2934 4334 
L 2934 2869 
L 2819 2869 
Q 2763 3291 2617 3541 
Q 2472 3791 2203 3937 
Q 1934 4084 1647 4084 
Q 1322 4084 1109 3886 
Q 897 3688 897 3434 
Q 897 3241 1031 3081 
Q 1225 2847 1953 2456 
Q 2547 2138 2764 1967 
Q 2981 1797 3098 1565 
Q 3216 1334 3216 1081 
Q 3216 600 2842 251 
Q 2469 -97 1881 -97 
Q 1697 -97 1534 -69 
Q 1438 -53 1133 45 
Q 828 144 747 144 
Q 669 144 623 97 
Q 578 50 556 -97 
L 441 -97 
L 441 1356 
L 556 1356 
Q 638 900 775 673 
Q 913 447 1195 297 
Q 1478 147 1816 147 
Q 2206 147 2432 353 
Q 2659 559 2659 841 
Q 2659 997 2573 1156 
Q 2488 1316 2306 1453 
Q 2184 1547 1640 1851 
Q 1097 2156 867 2337 
Q 638 2519 519 2737 
Q 400 2956 400 3219 
Q 400 3675 750 4004 
Q 1100 4334 1641 4334 
Q 1978 4334 2356 4169 
Q 2531 4091 2603 4091 
Q 2684 4091 2736 4139 
Q 2788 4188 2819 4334 
L 2934 4334 
z
" transform="scale(0.015625)"/>
       <path id="TimesNewRomanPSMT-43" d="M 3853 4334 
L 3950 2894 
L 3853 2894 
Q 3659 3541 3300 3825 
Q 2941 4109 2438 4109 
Q 2016 4109 1675 3895 
Q 1334 3681 1139 3212 
Q 944 2744 944 2047 
Q 944 1472 1128 1050 
Q 1313 628 1683 403 
Q 2053 178 2528 178 
Q 2941 178 3256 354 
Q 3572 531 3950 1056 
L 4047 994 
Q 3728 428 3303 165 
Q 2878 -97 2294 -97 
Q 1241 -97 663 684 
Q 231 1266 231 2053 
Q 231 2688 515 3219 
Q 800 3750 1298 4042 
Q 1797 4334 2388 4334 
Q 2847 4334 3294 4109 
Q 3425 4041 3481 4041 
Q 3566 4041 3628 4100 
Q 3709 4184 3744 4334 
L 3853 4334 
z
" transform="scale(0.015625)"/>
       <path id="TimesNewRomanPSMT-49" d="M 1975 116 
L 1975 0 
L 159 0 
L 159 116 
L 309 116 
Q 572 116 691 269 
Q 766 369 766 750 
L 766 3488 
Q 766 3809 725 3913 
Q 694 3991 597 4047 
Q 459 4122 309 4122 
L 159 4122 
L 159 4238 
L 1975 4238 
L 1975 4122 
L 1822 4122 
Q 1563 4122 1444 3969 
Q 1366 3869 1366 3488 
L 1366 750 
Q 1366 428 1406 325 
Q 1438 247 1538 191 
Q 1672 116 1822 116 
L 1975 116 
z
" transform="scale(0.015625)"/>
      </defs>
      <use xlink:href="#TimesNewRomanPSMT-4d"/>
      <use xlink:href="#TimesNewRomanPSMT-54" x="88.916016"/>
      <use xlink:href="#TimesNewRomanPSMT-53" x="150"/>
      <use xlink:href="#TimesNewRomanPSMT-43" x="205.615234"/>
      <use xlink:href="#TimesNewRomanPSMT-49" x="272.314453"/>
     </g>
    </g>
    <g id="line2d_34">
     <path d="M 854.945 292.995 
L 886.945 292.995 
L 918.945 292.995 
" style="fill: none; stroke-dasharray: 11.1,4.8; stroke-dashoffset: 0; stroke: #068ff8; stroke-width: 3"/>
    </g>
    <g id="text_19">
     <!-- Ground-truth -->
     <g transform="translate(944.545 304.195) scale(0.32 -0.32)">
      <defs>
       <path id="TimesNewRomanPSMT-47" d="M 3928 4334 
L 4038 2997 
L 3928 2997 
Q 3763 3497 3500 3750 
Q 3122 4116 2528 4116 
Q 1719 4116 1297 3475 
Q 944 2934 944 2188 
Q 944 1581 1178 1081 
Q 1413 581 1792 348 
Q 2172 116 2572 116 
Q 2806 116 3025 175 
Q 3244 234 3447 350 
L 3447 1575 
Q 3447 1894 3398 1992 
Q 3350 2091 3248 2142 
Q 3147 2194 2891 2194 
L 2891 2313 
L 4531 2313 
L 4531 2194 
L 4453 2194 
Q 4209 2194 4119 2031 
Q 4056 1916 4056 1575 
L 4056 278 
Q 3697 84 3347 -6 
Q 2997 -97 2569 -97 
Q 1341 -97 703 691 
Q 225 1281 225 2053 
Q 225 2613 494 3125 
Q 813 3734 1369 4063 
Q 1834 4334 2469 4334 
Q 2700 4334 2889 4296 
Q 3078 4259 3425 4131 
Q 3600 4066 3659 4066 
Q 3719 4066 3761 4120 
Q 3803 4175 3813 4334 
L 3928 4334 
z
" transform="scale(0.015625)"/>
       <path id="TimesNewRomanPSMT-75" d="M 2709 2863 
L 2709 1128 
Q 2709 631 2732 520 
Q 2756 409 2807 365 
Q 2859 322 2928 322 
Q 3025 322 3147 375 
L 3191 266 
L 2334 -88 
L 2194 -88 
L 2194 519 
Q 1825 119 1631 15 
Q 1438 -88 1222 -88 
Q 981 -88 804 51 
Q 628 191 559 409 
Q 491 628 491 1028 
L 491 2306 
Q 491 2509 447 2587 
Q 403 2666 317 2708 
Q 231 2750 6 2747 
L 6 2863 
L 1009 2863 
L 1009 947 
Q 1009 547 1148 422 
Q 1288 297 1484 297 
Q 1619 297 1789 381 
Q 1959 466 2194 703 
L 2194 2325 
Q 2194 2569 2105 2655 
Q 2016 2741 1734 2747 
L 1734 2863 
L 2709 2863 
z
" transform="scale(0.015625)"/>
       <path id="TimesNewRomanPSMT-2d" d="M 259 1672 
L 1875 1672 
L 1875 1200 
L 259 1200 
L 259 1672 
z
" transform="scale(0.015625)"/>
       <path id="TimesNewRomanPSMT-68" d="M 1041 4444 
L 1041 2350 
Q 1388 2731 1591 2839 
Q 1794 2947 1997 2947 
Q 2241 2947 2416 2812 
Q 2591 2678 2675 2391 
Q 2734 2191 2734 1659 
L 2734 647 
Q 2734 375 2778 275 
Q 2809 200 2884 156 
Q 2959 113 3159 113 
L 3159 0 
L 1753 0 
L 1753 113 
L 1819 113 
Q 2019 113 2097 173 
Q 2175 234 2206 353 
Q 2216 403 2216 647 
L 2216 1659 
Q 2216 2128 2167 2275 
Q 2119 2422 2012 2495 
Q 1906 2569 1756 2569 
Q 1603 2569 1437 2487 
Q 1272 2406 1041 2159 
L 1041 647 
Q 1041 353 1073 281 
Q 1106 209 1195 161 
Q 1284 113 1503 113 
L 1503 0 
L 84 0 
L 84 113 
Q 275 113 384 172 
Q 447 203 484 290 
Q 522 378 522 647 
L 522 3238 
Q 522 3728 498 3840 
Q 475 3953 426 3993 
Q 378 4034 297 4034 
Q 231 4034 84 3984 
L 41 4094 
L 897 4444 
L 1041 4444 
z
" transform="scale(0.015625)"/>
      </defs>
      <use xlink:href="#TimesNewRomanPSMT-47"/>
      <use xlink:href="#TimesNewRomanPSMT-72" x="72.216797"/>
      <use xlink:href="#TimesNewRomanPSMT-6f" x="105.517578"/>
      <use xlink:href="#TimesNewRomanPSMT-75" x="155.517578"/>
      <use xlink:href="#TimesNewRomanPSMT-6e" x="205.517578"/>
      <use xlink:href="#TimesNewRomanPSMT-64" x="255.517578"/>
      <use xlink:href="#TimesNewRomanPSMT-2d" x="305.517578"/>
      <use xlink:href="#TimesNewRomanPSMT-74" x="338.818359"/>
      <use xlink:href="#TimesNewRomanPSMT-72" x="366.601562"/>
      <use xlink:href="#TimesNewRomanPSMT-75" x="399.902344"/>
      <use xlink:href="#TimesNewRomanPSMT-74" x="449.902344"/>
      <use xlink:href="#TimesNewRomanPSMT-68" x="477.685547"/>
     </g>
    </g>
   </g>
  </g>
 </g>
 <defs>
  <clipPath id="p6773617a5b">
   <rect x="26.2" y="7.2" width="1116" height="332.64"/>
  </clipPath>
 </defs>
</svg>
