<?xml version="1.0" encoding="utf-8" standalone="no"?>
<!DOCTYPE svg PUBLIC "-//W3C//DTD SVG 1.1//EN"
  "http://www.w3.org/Graphics/SVG/1.1/DTD/svg11.dtd">
<svg xmlns:xlink="http://www.w3.org/1999/xlink" width="1161.4pt" height="408.90375pt" viewBox="0 0 1161.4 408.90375" xmlns="http://www.w3.org/2000/svg" version="1.1">
 <metadata>
  <rdf:RDF xmlns:dc="http://purl.org/dc/elements/1.1/" xmlns:cc="http://creativecommons.org/ns#" xmlns:rdf="http://www.w3.org/1999/02/22-rdf-syntax-ns#">
   <cc:Work>
    <dc:type rdf:resource="http://purl.org/dc/dcmitype/StillImage"/>
    <dc:date>2024-05-20T21:05:01.262542</dc:date>
    <dc:format>image/svg+xml</dc:format>
    <dc:creator>
     <cc:Agent>
      <dc:title>Matplotlib v3.6.2, https://matplotlib.org/</dc:title>
     </cc:Agent>
    </dc:creator>
   </cc:Work>
  </rdf:RDF>
 </metadata>
 <defs>
  <style type="text/css">*{stroke-linejoin: round; stroke-linecap: butt}</style>
 </defs>
 <g id="figure_1">
  <g id="patch_1">
   <path d="M 0 408.90375 
L 1161.4 408.90375 
L 1161.4 0 
L 0 0 
z
" style="fill: #ffffff"/>
  </g>
  <g id="axes_1">
   <g id="patch_2">
    <path d="M 38.2 339.84 
L 1154.2 339.84 
L 1154.2 7.2 
L 38.2 7.2 
z
" style="fill: #ffffff"/>
   </g>
   <g id="PolyCollection_1">
    <defs>
     <path id="m7bfd950143" d="M 88.927273 -364.440041 
L 88.927273 -364.440041 
L 95.736303 -386.58375 
L 102.545333 -384.046449 
L 109.354362 -385.891759 
L 116.163392 -364.978255 
L 122.972422 -371.129284 
L 129.781452 -368.591986 
L 136.590482 -353.368186 
L 143.399512 -368.986866 
L 150.208542 -361.672076 
L 157.017572 -375.435004 
L 163.826602 -362.364067 
L 170.635631 -362.364067 
L 177.444661 -345.910063 
L 184.253691 -351.18637 
L 191.062721 -335.630346 
L 197.871751 -286.7737 
L 204.680781 -217.697606 
L 211.489811 -152.580027 
L 218.298841 -142.922982 
L 225.107871 -134.990518 
L 231.916901 -134.083753 
L 238.72593 -135.101613 
L 245.53496 -134.879762 
L 252.34399 -113.519901 
L 259.15302 -111.019068 
L 265.96205 -113.931688 
L 272.77108 -116.493828 
L 279.58011 -113.798032 
L 286.38914 -109.612164 
L 293.19817 -112.175137 
L 300.0072 -106.300626 
L 306.816229 -110.052981 
L 313.625259 -108.179024 
L 320.434289 -114.475824 
L 327.243319 -114.57308 
L 334.052349 -119.633054 
L 340.861379 -124.103996 
L 347.670409 -124.833267 
L 354.479439 -117.706694 
L 361.288469 -118.832538 
L 368.097498 -125.24289 
L 374.906528 -136.165767 
L 381.715558 -139.087166 
L 388.524588 -135.678351 
L 395.333618 -147.852378 
L 402.142648 -198.699772 
L 408.951678 -251.681083 
L 415.760708 -184.929705 
L 422.569738 -156.637931 
L 429.378768 -152.603411 
L 436.187797 -146.951766 
L 442.996827 -135.157825 
L 449.805857 -142.177664 
L 456.614887 -133.53662 
L 463.423917 -135.223165 
L 470.232947 -150.018891 
L 477.041977 -188.064278 
L 483.851007 -245.470167 
L 490.660037 -264.016269 
L 497.469067 -320.907154 
L 504.278096 -326.242633 
L 511.087126 -341.604342 
L 517.896156 -341.604342 
L 524.705186 -355.44416 
L 531.514216 -359.69722 
L 538.323246 -367.466759 
L 545.132276 -379.663837 
L 551.941306 -362.987255 
L 558.750336 -367.208003 
L 565.559365 -351.292213 
L 572.368395 -372.74393 
L 579.177425 -369.899079 
L 585.986455 -371.359948 
L 592.795485 -381.04782 
L 599.604515 -360.057432 
L 606.413545 -357.619269 
L 613.222575 -360.672535 
L 620.031605 -359.596105 
L 626.840635 -358.212122 
L 633.649664 -351.292213 
L 640.458694 -359.596105 
L 647.267724 -352.676195 
L 654.076754 -352.744736 
L 660.885784 -345.756287 
L 667.694814 -358.904114 
L 674.503844 -374.127913 
L 681.312874 -356.981918 
L 688.121904 -354.060178 
L 694.930933 -352.676195 
L 701.739963 -356.136151 
L 708.548993 -360.584664 
L 715.358023 -351.027098 
L 722.167053 -352.676195 
L 728.976083 -350.830888 
L 735.785113 -356.366812 
L 742.594143 -324.593644 
L 749.403173 -324.337848 
L 756.212203 -324.593644 
L 763.021232 -324.377891 
L 769.830262 -324.43823 
L 776.639292 -324.593644 
L 783.448322 -324.593644 
L 790.257352 -324.593644 
L 797.066382 -324.608069 
L 803.875412 -348.52425 
L 810.684442 -359.150569 
L 817.493472 -356.366812 
L 824.302502 -360.980087 
L 831.111531 -355.048737 
L 837.920561 -359.596105 
L 844.729591 -369.283977 
L 851.538621 -363.056058 
L 858.347651 -354.521505 
L 865.156681 -353.65287 
L 871.965711 -358.827225 
L 878.774741 -349.908233 
L 885.583771 -350.865753 
L 892.3928 -313.924708 
L 899.20183 -352.676195 
L 906.01086 -366.516012 
L 912.81989 -352.676195 
L 919.62892 -356.981918 
L 926.43795 -354.060178 
L 933.24698 -350.600224 
L 940.05601 -357.268903 
L 946.86504 -368.591986 
L 953.67407 -351.4214 
L 960.483099 -351.094504 
L 967.292129 -355.44416 
L 974.101159 -376.203887 
L 980.910189 -360.057432 
L 987.719219 -368.591986 
L 994.528249 -351.44599 
L 1001.337279 -355.293825 
L 1008.146309 -349.908233 
L 1014.955339 -358.212122 
L 1021.764369 -351.984204 
L 1028.573398 -356.366812 
L 1035.382428 -374.127913 
L 1042.191458 -345.756287 
L 1049.000488 -357.59702 
L 1055.809518 -366.516012 
L 1062.618548 -375.511895 
L 1069.427578 -362.364067 
L 1076.236608 -366.208462 
L 1083.045638 -367.208003 
L 1089.854667 -352.061093 
L 1096.663697 -359.847085 
L 1103.472727 -360.288096 
L 1103.472727 -360.288096 
L 1103.472727 -360.288096 
L 1096.663697 -362.517845 
L 1089.854667 -352.061093 
L 1083.045638 -367.208003 
L 1076.236608 -366.208462 
L 1069.427578 -362.364067 
L 1062.618548 -375.511895 
L 1055.809518 -366.516012 
L 1049.000488 -357.59702 
L 1042.191458 -345.756287 
L 1035.382428 -374.127913 
L 1028.573398 -356.366812 
L 1021.764369 -351.984204 
L 1014.955339 -358.212122 
L 1008.146309 -349.908233 
L 1001.337279 -365.824023 
L 994.528249 -351.44599 
L 987.719219 -368.591986 
L 980.910189 -360.057432 
L 974.101159 -376.203887 
L 967.292129 -355.44416 
L 960.483099 -351.094504 
L 953.67407 -349.60068 
L 946.86504 -368.591986 
L 940.05601 -345.558575 
L 933.24698 -350.600224 
L 926.43795 -354.060178 
L 919.62892 -356.981918 
L 912.81989 -352.676195 
L 906.01086 -366.516012 
L 899.20183 -352.676195 
L 892.3928 -313.924708 
L 885.583771 -365.824023 
L 878.774741 -349.908233 
L 871.965711 -358.827225 
L 865.156681 -362.364067 
L 858.347651 -354.521505 
L 851.538621 -363.056058 
L 844.729591 -369.283977 
L 837.920561 -359.596105 
L 831.111531 -355.048737 
L 824.302502 -360.980087 
L 817.493472 -356.366812 
L 810.684442 -354.752169 
L 803.875412 -348.52425 
L 797.066382 -324.593644 
L 790.257352 -324.593644 
L 783.448322 -324.593644 
L 776.639292 -324.593644 
L 769.830262 -324.593644 
L 763.021232 -324.593644 
L 756.212203 -324.593644 
L 749.403173 -324.593644 
L 742.594143 -324.593644 
L 735.785113 -356.366812 
L 728.976083 -350.830888 
L 722.167053 -352.676195 
L 715.358023 -360.672535 
L 708.548993 -360.584664 
L 701.739963 -356.136151 
L 694.930933 -352.676195 
L 688.121904 -354.060178 
L 681.312874 -356.981918 
L 674.503844 -374.127913 
L 667.694814 -358.904114 
L 660.885784 -345.756287 
L 654.076754 -336.683519 
L 647.267724 -352.676195 
L 640.458694 -359.596105 
L 633.649664 -351.292213 
L 626.840635 -358.212122 
L 620.031605 -359.596105 
L 613.222575 -360.672535 
L 606.413545 -355.44416 
L 599.604515 -360.057432 
L 592.795485 -381.04782 
L 585.986455 -371.359948 
L 579.177425 -369.899079 
L 572.368395 -372.74393 
L 565.559365 -351.292213 
L 558.750336 -367.208003 
L 551.941306 -369.283977 
L 545.132276 -379.663837 
L 538.323246 -367.899994 
L 531.514216 -378.279855 
L 524.705186 -355.44416 
L 517.896156 -341.604342 
L 511.087126 -341.604342 
L 504.278096 -284.861091 
L 497.469067 -245.033171 
L 490.660037 -259.488095 
L 483.851007 -253.721501 
L 477.041977 -233.653766 
L 470.232947 -165.838662 
L 463.423917 -133.084421 
L 456.614887 -136.775052 
L 449.805857 -137.467043 
L 442.996827 -122.243247 
L 436.187797 -124.319221 
L 429.378768 -117.091741 
L 422.569738 -122.243247 
L 415.760708 -112.170922 
L 408.951678 -113.24736 
L 402.142648 -119.552162 
L 395.333618 -113.24736 
L 388.524588 -118.321963 
L 381.715558 -104.251474 
L 374.906528 -102.768636 
L 368.097498 -116.707317 
L 361.288469 -107.019439 
L 354.479439 -108.403422 
L 347.670409 -91.795631 
L 340.861379 -109.787404 
L 334.052349 -101.483509 
L 327.243319 -91.10364 
L 320.434289 -99.868863 
L 313.625259 -84.18375 
L 306.816229 -117.706852 
L 300.0072 -95.947579 
L 293.19817 -106.327448 
L 286.38914 -94.563596 
L 279.58011 -128.163601 
L 272.77108 -136.159941 
L 265.96205 -136.083061 
L 259.15302 -138.356746 
L 252.34399 -133.315084 
L 245.53496 -127.548513 
L 238.72593 -137.467043 
L 231.916901 -135.391058 
L 225.107871 -134.314642 
L 218.298841 -136.083061 
L 211.489811 -154.074822 
L 204.680781 -232.116012 
L 197.871751 -324.304571 
L 191.062721 -344.064755 
L 184.253691 -324.996561 
L 177.444661 -345.910063 
L 170.635631 -362.364067 
L 163.826602 -362.364067 
L 157.017572 -375.435004 
L 150.208542 -361.672076 
L 143.399512 -370.514182 
L 136.590482 -353.368186 
L 129.781452 -368.591986 
L 122.972422 -371.129284 
L 116.163392 -364.978255 
L 109.354362 -385.891759 
L 102.545333 -384.046449 
L 95.736303 -386.58375 
L 88.927273 -364.440041 
z
" style="stroke: #808080; stroke-opacity: 0.3"/>
    </defs>
    <g clip-path="url(#pc6f7b3db73)">
     <use xlink:href="#m7bfd950143" x="0" y="408.90375" style="fill: #808080; fill-opacity: 0.3; stroke: #808080; stroke-opacity: 0.3"/>
    </g>
   </g>
   <g id="matplotlib.axis_1">
    <g id="xtick_1">
     <g id="line2d_1">
      <path d="M 88.927273 339.84 
L 88.927273 7.2 
" clip-path="url(#pc6f7b3db73)" style="fill: none; stroke-dasharray: 2.96,1.28; stroke-dashoffset: 0; stroke: #b0b0b0; stroke-width: 0.8"/>
     </g>
     <g id="line2d_2">
      <defs>
       <path id="ma788e82522" d="M 0 0 
L 0 3.5 
" style="stroke: #000000; stroke-width: 0.8"/>
      </defs>
      <g>
       <use xlink:href="#ma788e82522" x="88.927273" y="339.84" style="stroke: #000000; stroke-width: 0.8"/>
      </g>
     </g>
     <g id="text_1">
      <!-- 0 -->
      <g transform="translate(82.927273 363.505) scale(0.24 -0.24)">
       <defs>
        <path id="TimesNewRomanPSMT-30" d="M 231 2094 
Q 231 2819 450 3342 
Q 669 3866 1031 4122 
Q 1313 4325 1613 4325 
Q 2100 4325 2488 3828 
Q 2972 3213 2972 2159 
Q 2972 1422 2759 906 
Q 2547 391 2217 158 
Q 1888 -75 1581 -75 
Q 975 -75 572 641 
Q 231 1244 231 2094 
z
M 844 2016 
Q 844 1141 1059 588 
Q 1238 122 1591 122 
Q 1759 122 1940 273 
Q 2122 425 2216 781 
Q 2359 1319 2359 2297 
Q 2359 3022 2209 3506 
Q 2097 3866 1919 4016 
Q 1791 4119 1609 4119 
Q 1397 4119 1231 3928 
Q 1006 3669 925 3112 
Q 844 2556 844 2016 
z
" transform="scale(0.015625)"/>
       </defs>
       <use xlink:href="#TimesNewRomanPSMT-30"/>
      </g>
     </g>
    </g>
    <g id="xtick_2">
     <g id="line2d_3">
      <path d="M 225.107871 339.84 
L 225.107871 7.2 
" clip-path="url(#pc6f7b3db73)" style="fill: none; stroke-dasharray: 2.96,1.28; stroke-dashoffset: 0; stroke: #b0b0b0; stroke-width: 0.8"/>
     </g>
     <g id="line2d_4">
      <g>
       <use xlink:href="#ma788e82522" x="225.107871" y="339.84" style="stroke: #000000; stroke-width: 0.8"/>
      </g>
     </g>
     <g id="text_2">
      <!-- 20 -->
      <g transform="translate(213.107871 363.505) scale(0.24 -0.24)">
       <defs>
        <path id="TimesNewRomanPSMT-32" d="M 2934 816 
L 2638 0 
L 138 0 
L 138 116 
Q 1241 1122 1691 1759 
Q 2141 2397 2141 2925 
Q 2141 3328 1894 3587 
Q 1647 3847 1303 3847 
Q 991 3847 742 3664 
Q 494 3481 375 3128 
L 259 3128 
Q 338 3706 661 4015 
Q 984 4325 1469 4325 
Q 1984 4325 2329 3994 
Q 2675 3663 2675 3213 
Q 2675 2891 2525 2569 
Q 2294 2063 1775 1497 
Q 997 647 803 472 
L 1909 472 
Q 2247 472 2383 497 
Q 2519 522 2628 598 
Q 2738 675 2819 816 
L 2934 816 
z
" transform="scale(0.015625)"/>
       </defs>
       <use xlink:href="#TimesNewRomanPSMT-32"/>
       <use xlink:href="#TimesNewRomanPSMT-30" x="50"/>
      </g>
     </g>
    </g>
    <g id="xtick_3">
     <g id="line2d_5">
      <path d="M 361.288469 339.84 
L 361.288469 7.2 
" clip-path="url(#pc6f7b3db73)" style="fill: none; stroke-dasharray: 2.96,1.28; stroke-dashoffset: 0; stroke: #b0b0b0; stroke-width: 0.8"/>
     </g>
     <g id="line2d_6">
      <g>
       <use xlink:href="#ma788e82522" x="361.288469" y="339.84" style="stroke: #000000; stroke-width: 0.8"/>
      </g>
     </g>
     <g id="text_3">
      <!-- 40 -->
      <g transform="translate(349.288469 363.505) scale(0.24 -0.24)">
       <defs>
        <path id="TimesNewRomanPSMT-34" d="M 2978 1563 
L 2978 1119 
L 2409 1119 
L 2409 0 
L 1894 0 
L 1894 1119 
L 100 1119 
L 100 1519 
L 2066 4325 
L 2409 4325 
L 2409 1563 
L 2978 1563 
z
M 1894 1563 
L 1894 3666 
L 406 1563 
L 1894 1563 
z
" transform="scale(0.015625)"/>
       </defs>
       <use xlink:href="#TimesNewRomanPSMT-34"/>
       <use xlink:href="#TimesNewRomanPSMT-30" x="50"/>
      </g>
     </g>
    </g>
    <g id="xtick_4">
     <g id="line2d_7">
      <path d="M 497.469067 339.84 
L 497.469067 7.2 
" clip-path="url(#pc6f7b3db73)" style="fill: none; stroke-dasharray: 2.96,1.28; stroke-dashoffset: 0; stroke: #b0b0b0; stroke-width: 0.8"/>
     </g>
     <g id="line2d_8">
      <g>
       <use xlink:href="#ma788e82522" x="497.469067" y="339.84" style="stroke: #000000; stroke-width: 0.8"/>
      </g>
     </g>
     <g id="text_4">
      <!-- 60 -->
      <g transform="translate(485.469067 363.505) scale(0.24 -0.24)">
       <defs>
        <path id="TimesNewRomanPSMT-36" d="M 2869 4325 
L 2869 4209 
Q 2456 4169 2195 4045 
Q 1934 3922 1679 3669 
Q 1425 3416 1258 3105 
Q 1091 2794 978 2366 
Q 1428 2675 1881 2675 
Q 2316 2675 2634 2325 
Q 2953 1975 2953 1425 
Q 2953 894 2631 456 
Q 2244 -75 1606 -75 
Q 1172 -75 869 213 
Q 275 772 275 1663 
Q 275 2231 503 2743 
Q 731 3256 1154 3653 
Q 1578 4050 1965 4187 
Q 2353 4325 2688 4325 
L 2869 4325 
z
M 925 2138 
Q 869 1716 869 1456 
Q 869 1156 980 804 
Q 1091 453 1309 247 
Q 1469 100 1697 100 
Q 1969 100 2183 356 
Q 2397 613 2397 1088 
Q 2397 1622 2184 2012 
Q 1972 2403 1581 2403 
Q 1463 2403 1327 2353 
Q 1191 2303 925 2138 
z
" transform="scale(0.015625)"/>
       </defs>
       <use xlink:href="#TimesNewRomanPSMT-36"/>
       <use xlink:href="#TimesNewRomanPSMT-30" x="50"/>
      </g>
     </g>
    </g>
    <g id="xtick_5">
     <g id="line2d_9">
      <path d="M 633.649664 339.84 
L 633.649664 7.2 
" clip-path="url(#pc6f7b3db73)" style="fill: none; stroke-dasharray: 2.96,1.28; stroke-dashoffset: 0; stroke: #b0b0b0; stroke-width: 0.8"/>
     </g>
     <g id="line2d_10">
      <g>
       <use xlink:href="#ma788e82522" x="633.649664" y="339.84" style="stroke: #000000; stroke-width: 0.8"/>
      </g>
     </g>
     <g id="text_5">
      <!-- 80 -->
      <g transform="translate(621.649664 363.505) scale(0.24 -0.24)">
       <defs>
        <path id="TimesNewRomanPSMT-38" d="M 1228 2134 
Q 725 2547 579 2797 
Q 434 3047 434 3316 
Q 434 3728 753 4026 
Q 1072 4325 1600 4325 
Q 2113 4325 2425 4047 
Q 2738 3769 2738 3413 
Q 2738 3175 2569 2928 
Q 2400 2681 1866 2347 
Q 2416 1922 2594 1678 
Q 2831 1359 2831 1006 
Q 2831 559 2490 242 
Q 2150 -75 1597 -75 
Q 994 -75 656 303 
Q 388 606 388 966 
Q 388 1247 577 1523 
Q 766 1800 1228 2134 
z
M 1719 2469 
Q 2094 2806 2194 3001 
Q 2294 3197 2294 3444 
Q 2294 3772 2109 3958 
Q 1925 4144 1606 4144 
Q 1288 4144 1088 3959 
Q 888 3775 888 3528 
Q 888 3366 970 3203 
Q 1053 3041 1206 2894 
L 1719 2469 
z
M 1375 2016 
Q 1116 1797 991 1539 
Q 866 1281 866 981 
Q 866 578 1086 336 
Q 1306 94 1647 94 
Q 1984 94 2187 284 
Q 2391 475 2391 747 
Q 2391 972 2272 1150 
Q 2050 1481 1375 2016 
z
" transform="scale(0.015625)"/>
       </defs>
       <use xlink:href="#TimesNewRomanPSMT-38"/>
       <use xlink:href="#TimesNewRomanPSMT-30" x="50"/>
      </g>
     </g>
    </g>
    <g id="xtick_6">
     <g id="line2d_11">
      <path d="M 769.830262 339.84 
L 769.830262 7.2 
" clip-path="url(#pc6f7b3db73)" style="fill: none; stroke-dasharray: 2.96,1.28; stroke-dashoffset: 0; stroke: #b0b0b0; stroke-width: 0.8"/>
     </g>
     <g id="line2d_12">
      <g>
       <use xlink:href="#ma788e82522" x="769.830262" y="339.84" style="stroke: #000000; stroke-width: 0.8"/>
      </g>
     </g>
     <g id="text_6">
      <!-- 100 -->
      <g transform="translate(751.830262 363.505) scale(0.24 -0.24)">
       <defs>
        <path id="TimesNewRomanPSMT-31" d="M 750 3822 
L 1781 4325 
L 1884 4325 
L 1884 747 
Q 1884 391 1914 303 
Q 1944 216 2037 169 
Q 2131 122 2419 116 
L 2419 0 
L 825 0 
L 825 116 
Q 1125 122 1212 167 
Q 1300 213 1334 289 
Q 1369 366 1369 747 
L 1369 3034 
Q 1369 3497 1338 3628 
Q 1316 3728 1258 3775 
Q 1200 3822 1119 3822 
Q 1003 3822 797 3725 
L 750 3822 
z
" transform="scale(0.015625)"/>
       </defs>
       <use xlink:href="#TimesNewRomanPSMT-31"/>
       <use xlink:href="#TimesNewRomanPSMT-30" x="50"/>
       <use xlink:href="#TimesNewRomanPSMT-30" x="100"/>
      </g>
     </g>
    </g>
    <g id="xtick_7">
     <g id="line2d_13">
      <path d="M 906.01086 339.84 
L 906.01086 7.2 
" clip-path="url(#pc6f7b3db73)" style="fill: none; stroke-dasharray: 2.96,1.28; stroke-dashoffset: 0; stroke: #b0b0b0; stroke-width: 0.8"/>
     </g>
     <g id="line2d_14">
      <g>
       <use xlink:href="#ma788e82522" x="906.01086" y="339.84" style="stroke: #000000; stroke-width: 0.8"/>
      </g>
     </g>
     <g id="text_7">
      <!-- 120 -->
      <g transform="translate(888.01086 363.505) scale(0.24 -0.24)">
       <use xlink:href="#TimesNewRomanPSMT-31"/>
       <use xlink:href="#TimesNewRomanPSMT-32" x="50"/>
       <use xlink:href="#TimesNewRomanPSMT-30" x="100"/>
      </g>
     </g>
    </g>
    <g id="xtick_8">
     <g id="line2d_15">
      <path d="M 1042.191458 339.84 
L 1042.191458 7.2 
" clip-path="url(#pc6f7b3db73)" style="fill: none; stroke-dasharray: 2.96,1.28; stroke-dashoffset: 0; stroke: #b0b0b0; stroke-width: 0.8"/>
     </g>
     <g id="line2d_16">
      <g>
       <use xlink:href="#ma788e82522" x="1042.191458" y="339.84" style="stroke: #000000; stroke-width: 0.8"/>
      </g>
     </g>
     <g id="text_8">
      <!-- 140 -->
      <g transform="translate(1024.191458 363.505) scale(0.24 -0.24)">
       <use xlink:href="#TimesNewRomanPSMT-31"/>
       <use xlink:href="#TimesNewRomanPSMT-34" x="50"/>
       <use xlink:href="#TimesNewRomanPSMT-30" x="100"/>
      </g>
     </g>
    </g>
    <g id="text_9">
     <!-- Time step -->
     <g transform="translate(533.22 394.85875) scale(0.32 -0.32)">
      <defs>
       <path id="TimesNewRomanPSMT-54" d="M 3703 4238 
L 3750 3244 
L 3631 3244 
Q 3597 3506 3538 3619 
Q 3441 3800 3280 3886 
Q 3119 3972 2856 3972 
L 2259 3972 
L 2259 734 
Q 2259 344 2344 247 
Q 2463 116 2709 116 
L 2856 116 
L 2856 0 
L 1059 0 
L 1059 116 
L 1209 116 
Q 1478 116 1591 278 
Q 1659 378 1659 734 
L 1659 3972 
L 1150 3972 
Q 853 3972 728 3928 
Q 566 3869 450 3700 
Q 334 3531 313 3244 
L 194 3244 
L 244 4238 
L 3703 4238 
z
" transform="scale(0.015625)"/>
       <path id="TimesNewRomanPSMT-69" d="M 928 4444 
Q 1059 4444 1151 4351 
Q 1244 4259 1244 4128 
Q 1244 3997 1151 3903 
Q 1059 3809 928 3809 
Q 797 3809 703 3903 
Q 609 3997 609 4128 
Q 609 4259 701 4351 
Q 794 4444 928 4444 
z
M 1188 2947 
L 1188 647 
Q 1188 378 1227 289 
Q 1266 200 1342 156 
Q 1419 113 1622 113 
L 1622 0 
L 231 0 
L 231 113 
Q 441 113 512 153 
Q 584 194 626 287 
Q 669 381 669 647 
L 669 1750 
Q 669 2216 641 2353 
Q 619 2453 572 2492 
Q 525 2531 444 2531 
Q 356 2531 231 2484 
L 188 2597 
L 1050 2947 
L 1188 2947 
z
" transform="scale(0.015625)"/>
       <path id="TimesNewRomanPSMT-6d" d="M 1050 2338 
Q 1363 2650 1419 2697 
Q 1559 2816 1721 2881 
Q 1884 2947 2044 2947 
Q 2313 2947 2506 2790 
Q 2700 2634 2766 2338 
Q 3088 2713 3309 2830 
Q 3531 2947 3766 2947 
Q 3994 2947 4170 2830 
Q 4347 2713 4450 2447 
Q 4519 2266 4519 1878 
L 4519 647 
Q 4519 378 4559 278 
Q 4591 209 4675 161 
Q 4759 113 4950 113 
L 4950 0 
L 3538 0 
L 3538 113 
L 3597 113 
Q 3781 113 3884 184 
Q 3956 234 3988 344 
Q 4000 397 4000 647 
L 4000 1878 
Q 4000 2228 3916 2372 
Q 3794 2572 3525 2572 
Q 3359 2572 3192 2489 
Q 3025 2406 2788 2181 
L 2781 2147 
L 2788 2013 
L 2788 647 
Q 2788 353 2820 281 
Q 2853 209 2943 161 
Q 3034 113 3253 113 
L 3253 0 
L 1806 0 
L 1806 113 
Q 2044 113 2133 169 
Q 2222 225 2256 338 
Q 2272 391 2272 647 
L 2272 1878 
Q 2272 2228 2169 2381 
Q 2031 2581 1784 2581 
Q 1616 2581 1450 2491 
Q 1191 2353 1050 2181 
L 1050 647 
Q 1050 366 1089 281 
Q 1128 197 1204 155 
Q 1281 113 1516 113 
L 1516 0 
L 100 0 
L 100 113 
Q 297 113 375 155 
Q 453 197 493 289 
Q 534 381 534 647 
L 534 1741 
Q 534 2213 506 2350 
Q 484 2453 437 2492 
Q 391 2531 309 2531 
Q 222 2531 100 2484 
L 53 2597 
L 916 2947 
L 1050 2947 
L 1050 2338 
z
" transform="scale(0.015625)"/>
       <path id="TimesNewRomanPSMT-65" d="M 681 1784 
Q 678 1147 991 784 
Q 1303 422 1725 422 
Q 2006 422 2214 576 
Q 2422 731 2563 1106 
L 2659 1044 
Q 2594 616 2278 264 
Q 1963 -88 1488 -88 
Q 972 -88 605 314 
Q 238 716 238 1394 
Q 238 2128 614 2539 
Q 991 2950 1559 2950 
Q 2041 2950 2350 2633 
Q 2659 2316 2659 1784 
L 681 1784 
z
M 681 1966 
L 2006 1966 
Q 1991 2241 1941 2353 
Q 1863 2528 1708 2628 
Q 1553 2728 1384 2728 
Q 1125 2728 920 2526 
Q 716 2325 681 1966 
z
" transform="scale(0.015625)"/>
       <path id="TimesNewRomanPSMT-20" transform="scale(0.015625)"/>
       <path id="TimesNewRomanPSMT-73" d="M 2050 2947 
L 2050 1972 
L 1947 1972 
Q 1828 2431 1642 2597 
Q 1456 2763 1169 2763 
Q 950 2763 815 2647 
Q 681 2531 681 2391 
Q 681 2216 781 2091 
Q 878 1963 1175 1819 
L 1631 1597 
Q 2266 1288 2266 781 
Q 2266 391 1970 151 
Q 1675 -88 1309 -88 
Q 1047 -88 709 6 
Q 606 38 541 38 
Q 469 38 428 -44 
L 325 -44 
L 325 978 
L 428 978 
Q 516 541 762 319 
Q 1009 97 1316 97 
Q 1531 97 1667 223 
Q 1803 350 1803 528 
Q 1803 744 1651 891 
Q 1500 1038 1047 1263 
Q 594 1488 453 1669 
Q 313 1847 313 2119 
Q 313 2472 555 2709 
Q 797 2947 1181 2947 
Q 1350 2947 1591 2875 
Q 1750 2828 1803 2828 
Q 1853 2828 1881 2850 
Q 1909 2872 1947 2947 
L 2050 2947 
z
" transform="scale(0.015625)"/>
       <path id="TimesNewRomanPSMT-74" d="M 1031 3803 
L 1031 2863 
L 1700 2863 
L 1700 2644 
L 1031 2644 
L 1031 788 
Q 1031 509 1111 412 
Q 1191 316 1316 316 
Q 1419 316 1516 380 
Q 1613 444 1666 569 
L 1788 569 
Q 1678 263 1478 108 
Q 1278 -47 1066 -47 
Q 922 -47 784 33 
Q 647 113 581 261 
Q 516 409 516 719 
L 516 2644 
L 63 2644 
L 63 2747 
Q 234 2816 414 2980 
Q 594 3144 734 3369 
Q 806 3488 934 3803 
L 1031 3803 
z
" transform="scale(0.015625)"/>
       <path id="TimesNewRomanPSMT-70" d="M -6 2578 
L 875 2934 
L 994 2934 
L 994 2266 
Q 1216 2644 1439 2795 
Q 1663 2947 1909 2947 
Q 2341 2947 2628 2609 
Q 2981 2197 2981 1534 
Q 2981 794 2556 309 
Q 2206 -88 1675 -88 
Q 1444 -88 1275 -22 
Q 1150 25 994 166 
L 994 -706 
Q 994 -1000 1030 -1079 
Q 1066 -1159 1155 -1206 
Q 1244 -1253 1478 -1253 
L 1478 -1369 
L -22 -1369 
L -22 -1253 
L 56 -1253 
Q 228 -1256 350 -1188 
Q 409 -1153 442 -1076 
Q 475 -1000 475 -688 
L 475 2019 
Q 475 2297 450 2372 
Q 425 2447 370 2484 
Q 316 2522 222 2522 
Q 147 2522 31 2478 
L -6 2578 
z
M 994 2081 
L 994 1013 
Q 994 666 1022 556 
Q 1066 375 1236 237 
Q 1406 100 1666 100 
Q 1978 100 2172 344 
Q 2425 663 2425 1241 
Q 2425 1897 2138 2250 
Q 1938 2494 1663 2494 
Q 1513 2494 1366 2419 
Q 1253 2363 994 2081 
z
" transform="scale(0.015625)"/>
      </defs>
      <use xlink:href="#TimesNewRomanPSMT-54"/>
      <use xlink:href="#TimesNewRomanPSMT-69" x="57.583984"/>
      <use xlink:href="#TimesNewRomanPSMT-6d" x="85.367188"/>
      <use xlink:href="#TimesNewRomanPSMT-65" x="163.150391"/>
      <use xlink:href="#TimesNewRomanPSMT-20" x="207.535156"/>
      <use xlink:href="#TimesNewRomanPSMT-73" x="232.535156"/>
      <use xlink:href="#TimesNewRomanPSMT-74" x="271.451172"/>
      <use xlink:href="#TimesNewRomanPSMT-65" x="299.234375"/>
      <use xlink:href="#TimesNewRomanPSMT-70" x="343.619141"/>
     </g>
    </g>
   </g>
   <g id="matplotlib.axis_2">
    <g id="ytick_1">
     <g id="line2d_17">
      <path d="M 38.2 261.056849 
L 1154.2 261.056849 
" clip-path="url(#pc6f7b3db73)" style="fill: none; stroke-dasharray: 2.96,1.28; stroke-dashoffset: 0; stroke: #b0b0b0; stroke-width: 0.8"/>
     </g>
     <g id="line2d_18">
      <defs>
       <path id="mbdb26f6a7e" d="M 0 0 
L -3.5 0 
" style="stroke: #000000; stroke-width: 0.8"/>
      </defs>
      <g>
       <use xlink:href="#mbdb26f6a7e" x="38.2" y="261.056849" style="stroke: #000000; stroke-width: 0.8"/>
      </g>
     </g>
     <g id="text_10">
      <!-- 20 -->
      <g transform="translate(7.2 269.389349) scale(0.24 -0.24)">
       <use xlink:href="#TimesNewRomanPSMT-32"/>
       <use xlink:href="#TimesNewRomanPSMT-30" x="50"/>
      </g>
     </g>
    </g>
    <g id="ytick_2">
     <g id="line2d_19">
      <path d="M 38.2 150.338311 
L 1154.2 150.338311 
" clip-path="url(#pc6f7b3db73)" style="fill: none; stroke-dasharray: 2.96,1.28; stroke-dashoffset: 0; stroke: #b0b0b0; stroke-width: 0.8"/>
     </g>
     <g id="line2d_20">
      <g>
       <use xlink:href="#mbdb26f6a7e" x="38.2" y="150.338311" style="stroke: #000000; stroke-width: 0.8"/>
      </g>
     </g>
     <g id="text_11">
      <!-- 40 -->
      <g transform="translate(7.2 158.670811) scale(0.24 -0.24)">
       <use xlink:href="#TimesNewRomanPSMT-34"/>
       <use xlink:href="#TimesNewRomanPSMT-30" x="50"/>
      </g>
     </g>
    </g>
    <g id="ytick_3">
     <g id="line2d_21">
      <path d="M 38.2 39.619774 
L 1154.2 39.619774 
" clip-path="url(#pc6f7b3db73)" style="fill: none; stroke-dasharray: 2.96,1.28; stroke-dashoffset: 0; stroke: #b0b0b0; stroke-width: 0.8"/>
     </g>
     <g id="line2d_22">
      <g>
       <use xlink:href="#mbdb26f6a7e" x="38.2" y="39.619774" style="stroke: #000000; stroke-width: 0.8"/>
      </g>
     </g>
     <g id="text_12">
      <!-- 60 -->
      <g transform="translate(7.2 47.952274) scale(0.24 -0.24)">
       <use xlink:href="#TimesNewRomanPSMT-36"/>
       <use xlink:href="#TimesNewRomanPSMT-30" x="50"/>
      </g>
     </g>
    </g>
   </g>
   <g id="line2d_23">
    <path d="M 88.927273 44.463709 
L 95.736303 22.32 
L 102.545333 24.857301 
L 109.354362 23.011991 
L 116.163392 43.925495 
L 122.972422 37.774466 
L 129.781452 40.311764 
L 136.590482 55.535564 
L 143.399512 40.115106 
L 150.208542 47.231674 
L 157.017572 33.468746 
L 163.826602 46.539683 
L 170.635631 46.539683 
L 177.444661 62.993687 
L 184.253691 55.881244 
L 191.062721 90.559052 
L 197.871751 126.958237 
L 204.680781 207.874317 
L 211.489811 257.148728 
L 218.298841 251.482568 
L 225.107871 271.198808 
L 231.916901 279.443076 
L 238.72593 282.263016 
L 245.53496 294.437437 
L 252.34399 288.131058 
L 259.15302 285.148747 
L 265.96205 290.918812 
L 272.77108 285.663966 
L 279.58011 285.122061 
L 286.38914 279.479387 
L 293.19817 264.464301 
L 300.0072 263.105314 
L 306.816229 266.821246 
L 313.625259 276.641483 
L 320.434289 273.154694 
L 327.243319 273.69235 
L 334.052349 261.439876 
L 340.861379 262.565179 
L 347.670409 271.420411 
L 354.479439 270.837937 
L 361.288469 275.47978 
L 368.097498 275.514512 
L 374.906528 270.357226 
L 381.715558 237.801056 
L 388.524588 243.638896 
L 395.333618 228.563519 
L 402.142648 218.342572 
L 408.951678 178.091781 
L 415.760708 68.50266 
L 422.569738 70.616632 
L 429.378768 65.874204 
L 436.187797 70.188873 
L 442.996827 71.153307 
L 449.805857 84.092209 
L 463.423917 88.029407 
L 470.232947 86.555793 
L 477.041977 81.454995 
L 483.851007 79.783303 
L 497.469067 62.746953 
L 511.087126 67.299408 
L 517.896156 67.299408 
L 524.705186 53.45959 
L 531.514216 50.348139 
L 538.323246 43.223584 
L 545.132276 29.239913 
L 551.941306 46.974803 
L 558.750336 41.695747 
L 565.559365 57.611537 
L 572.368395 36.15982 
L 579.177425 39.004671 
L 585.986455 37.543802 
L 592.795485 27.85593 
L 599.604515 48.846318 
L 606.413545 52.181521 
L 613.222575 48.231215 
L 620.031605 49.307645 
L 626.840635 50.691628 
L 633.649664 57.611537 
L 640.458694 49.307645 
L 647.267724 56.227555 
L 654.076754 55.81874 
L 660.885784 63.147463 
L 667.694814 49.999636 
L 674.503844 34.775837 
L 681.312874 51.921832 
L 688.121904 54.843572 
L 694.930933 56.227555 
L 701.739963 52.767599 
L 708.548993 48.319086 
L 715.358023 56.300381 
L 722.167053 56.227555 
L 728.976083 58.072862 
L 735.785113 52.536938 
L 742.594143 84.310106 
L 763.021232 84.338358 
L 797.066382 84.122842 
L 803.875412 60.3795 
L 810.684442 49.956804 
L 817.493472 52.536938 
L 824.302502 47.923663 
L 831.111531 53.855013 
L 837.920561 49.307645 
L 844.729591 39.619773 
L 851.538621 45.847692 
L 858.347651 54.382245 
L 865.156681 54.354116 
L 871.965711 50.076525 
L 878.774741 58.995517 
L 885.583771 53.833365 
L 892.3928 94.979042 
L 899.20183 56.227555 
L 906.01086 42.387738 
L 912.81989 56.227555 
L 919.62892 51.921832 
L 926.43795 54.843572 
L 933.24698 58.303526 
L 940.05601 52.957901 
L 946.86504 40.311764 
L 953.67407 54.7657 
L 960.483099 57.809246 
L 967.292129 53.45959 
L 974.101159 32.699863 
L 980.910189 48.846318 
L 987.719219 40.311764 
L 994.528249 57.45776 
L 1001.337279 52.542158 
L 1008.146309 58.995517 
L 1014.955339 50.691628 
L 1021.764369 56.919546 
L 1028.573398 52.536938 
L 1035.382428 34.775837 
L 1042.191458 63.147463 
L 1049.000488 51.30673 
L 1062.618548 33.391855 
L 1069.427578 46.539683 
L 1076.236608 42.695288 
L 1083.045638 41.695747 
L 1089.854667 56.842657 
L 1096.663697 50.372341 
L 1103.472727 48.615654 
L 1103.472727 48.615654 
" clip-path="url(#pc6f7b3db73)" style="fill: none; stroke-dasharray: 11.1,4.8; stroke-dashoffset: 0; stroke: #d65190; stroke-width: 3"/>
   </g>
   <g id="line2d_24">
    <path d="M 88.927273 44.463709 
L 95.736303 22.32 
L 102.545333 24.857301 
L 109.354362 23.011991 
L 116.163392 43.925495 
L 122.972422 37.774466 
L 129.781452 40.311764 
L 136.590482 55.535564 
L 143.399512 39.161285 
L 150.208542 47.231674 
L 157.017572 33.468746 
L 163.826602 46.539683 
L 170.635631 46.539683 
L 177.444661 62.993687 
L 184.253691 57.626698 
L 191.062721 80.158907 
L 197.871751 107.278764 
L 204.680781 190.500179 
L 211.489811 255.402556 
L 218.298841 268.702156 
L 225.107871 277.705525 
L 231.916901 283.133584 
L 238.72593 279.556019 
L 245.53496 283.204739 
L 252.34399 296.165365 
L 259.15302 294.869036 
L 265.96205 293.798909 
L 272.77108 291.992794 
L 279.58011 294.898292 
L 286.38914 298.996529 
L 293.19817 297.713949 
L 300.0072 298.956342 
L 306.816229 300.052074 
L 313.625259 298.515953 
L 320.434289 292.689676 
L 327.243319 292.535442 
L 334.052349 284.681515 
L 340.861379 287.712825 
L 347.670409 283.941583 
L 354.479439 284.601975 
L 361.288469 284.075081 
L 368.097498 276.592889 
L 374.906528 262.393038 
L 381.715558 250.767835 
L 388.524588 232.161132 
L 395.333618 221.863293 
L 402.142648 200.173958 
L 408.951678 165.393695 
L 415.760708 258.594851 
L 422.569738 264.889082 
L 429.378768 282.511779 
L 436.187797 279.818553 
L 442.996827 291.268008 
L 449.805857 290.616993 
L 456.614887 289.785846 
L 463.423917 277.957533 
L 470.232947 255.477656 
L 477.041977 227.533319 
L 483.851007 189.433184 
L 490.660037 125.158701 
L 497.469067 84.414643 
L 504.278096 76.925072 
L 511.087126 67.299408 
L 517.896156 67.299408 
L 524.705186 53.45959 
L 531.514216 49.549322 
L 538.323246 43.766925 
L 545.132276 29.239913 
L 551.941306 44.536986 
L 558.750336 41.695747 
L 565.559365 57.611537 
L 572.368395 36.15982 
L 579.177425 39.004671 
L 585.986455 37.543802 
L 592.795485 27.85593 
L 599.604515 48.846318 
L 606.413545 51.559578 
L 613.222575 48.231215 
L 620.031605 49.307645 
L 626.840635 50.691628 
L 633.649664 57.611537 
L 640.458694 49.307645 
L 647.267724 56.227555 
L 654.076754 57.034044 
L 660.885784 63.147463 
L 667.694814 49.999636 
L 674.503844 34.775837 
L 681.312874 51.921832 
L 688.121904 54.843572 
L 694.930933 56.227555 
L 701.739963 52.767599 
L 708.548993 48.319086 
L 715.358023 57.118678 
L 722.167053 56.227555 
L 728.976083 58.072862 
L 735.785113 52.536938 
L 742.594143 84.310106 
L 756.212203 84.310106 
L 763.021232 84.428876 
L 776.639292 84.310106 
L 797.066382 84.256838 
L 803.875412 60.3795 
L 810.684442 49.289946 
L 817.493472 52.536938 
L 824.302502 47.923663 
L 831.111531 53.855013 
L 837.920561 49.307645 
L 844.729591 39.619773 
L 851.538621 45.847692 
L 858.347651 54.382245 
L 865.156681 54.361574 
L 871.965711 50.076525 
L 878.774741 58.995517 
L 885.583771 56.73835 
L 892.3928 94.979042 
L 899.20183 56.227555 
L 906.01086 42.387738 
L 912.81989 56.227555 
L 919.62892 51.921832 
L 926.43795 54.843572 
L 933.24698 58.303526 
L 940.05601 53.832567 
L 946.86504 40.311764 
L 953.67407 57.166706 
L 960.483099 57.809246 
L 967.292129 53.45959 
L 974.101159 32.699863 
L 980.910189 48.846318 
L 987.719219 40.311764 
L 994.528249 57.45776 
L 1001.337279 50.732702 
L 1008.146309 58.995517 
L 1014.955339 50.691628 
L 1021.764369 56.919546 
L 1028.573398 52.536938 
L 1035.382428 34.775837 
L 1042.191458 63.147463 
L 1049.000488 51.30673 
L 1062.618548 33.391855 
L 1069.427578 46.539683 
L 1076.236608 42.695288 
L 1083.045638 41.695747 
L 1089.854667 56.842657 
L 1096.663697 48.756325 
L 1103.472727 48.615654 
L 1103.472727 48.615654 
" clip-path="url(#pc6f7b3db73)" style="fill: none; stroke-dasharray: 11.1,4.8; stroke-dashoffset: 0; stroke: #ff8c00; stroke-width: 3"/>
   </g>
   <g id="line2d_25">
    <path d="M 88.927273 44.463709 
L 95.736303 22.32 
L 102.545333 24.857301 
L 109.354362 23.011991 
L 116.163392 43.925495 
L 122.972422 37.774466 
L 129.781452 40.311764 
L 136.590482 55.535564 
L 143.399512 42.100101 
L 150.208542 47.231674 
L 157.017572 33.468746 
L 163.826602 46.539683 
L 170.635631 46.539683 
L 177.444661 62.993687 
L 184.253691 55.053078 
L 191.062721 77.351662 
L 197.871751 149.80492 
L 204.680781 189.317785 
L 211.489811 231.820771 
L 218.298841 240.527437 
L 225.107871 260.919925 
L 231.916901 256.433105 
L 238.72593 262.350259 
L 245.53496 259.474591 
L 252.34399 280.717925 
L 259.15302 271.732328 
L 265.96205 270.174795 
L 272.77108 271.251042 
L 279.58011 263.937926 
L 286.38914 242.239193 
L 293.19817 231.922489 
L 300.0072 239.300664 
L 306.816229 247.15227 
L 313.625259 267.750437 
L 320.434289 258.195235 
L 327.243319 236.426416 
L 334.052349 198.871544 
L 340.861379 214.168773 
L 347.670409 221.828369 
L 354.479439 225.144347 
L 361.288469 246.271808 
L 368.097498 226.229688 
L 374.906528 172.755602 
L 381.715558 145.04713 
L 388.524588 111.945025 
L 395.333618 71.772168 
L 402.142648 75.691048 
L 408.951678 77.935143 
L 415.760708 74.689466 
L 422.569738 72.328879 
L 429.378768 69.711342 
L 436.187797 70.372117 
L 442.996827 78.221819 
L 449.805857 83.133229 
L 456.614887 89.394451 
L 463.423917 98.638538 
L 470.232947 92.690558 
L 477.041977 91.005733 
L 483.851007 87.498862 
L 490.660037 82.543284 
L 497.469067 78.992144 
L 504.278096 67.39882 
L 517.896156 67.299408 
L 524.705186 53.45959 
L 531.514216 45.67373 
L 538.323246 39.798358 
L 545.132276 29.239913 
L 551.941306 43.765829 
L 558.750336 41.695747 
L 565.559365 57.611537 
L 572.368395 36.15982 
L 579.177425 39.004671 
L 585.986455 37.543802 
L 592.795485 27.85593 
L 599.604515 48.846318 
L 606.413545 50.012385 
L 613.222575 48.231215 
L 620.031605 49.307645 
L 626.840635 50.691628 
L 633.649664 57.611537 
L 640.458694 49.307645 
L 647.267724 56.227555 
L 654.076754 57.037771 
L 660.885784 63.147463 
L 667.694814 49.999636 
L 674.503844 34.775837 
L 681.312874 51.921832 
L 688.121904 54.843572 
L 694.930933 56.227555 
L 701.739963 52.767599 
L 708.548993 48.319086 
L 715.358023 55.747796 
L 722.167053 56.227555 
L 728.976083 58.072862 
L 735.785113 52.536938 
L 742.594143 84.310106 
L 769.830262 84.417406 
L 783.448322 84.310106 
L 797.066382 84.286762 
L 803.875412 60.3795 
L 810.684442 51.368616 
L 817.493472 52.536938 
L 824.302502 47.923663 
L 831.111531 53.855013 
L 837.920561 49.307645 
L 844.729591 39.619773 
L 851.538621 45.847692 
L 858.347651 54.382245 
L 865.156681 51.085902 
L 871.965711 50.076525 
L 878.774741 58.995517 
L 885.583771 57.64325 
L 892.3928 94.979042 
L 899.20183 56.227555 
L 906.01086 42.387738 
L 912.81989 56.227555 
L 919.62892 51.921832 
L 926.43795 54.843572 
L 933.24698 58.303526 
L 940.05601 52.299684 
L 946.86504 40.311764 
L 953.67407 54.335586 
L 960.483099 57.809246 
L 967.292129 53.45959 
L 974.101159 32.699863 
L 980.910189 48.846318 
L 987.719219 40.311764 
L 994.528249 57.45776 
L 1001.337279 47.634817 
L 1008.146309 58.995517 
L 1014.955339 50.691628 
L 1021.764369 56.919546 
L 1028.573398 52.536938 
L 1035.382428 34.775837 
L 1042.191458 63.147463 
L 1049.000488 51.30673 
L 1062.618548 33.391855 
L 1069.427578 46.539683 
L 1076.236608 42.695288 
L 1083.045638 41.695747 
L 1089.854667 56.842657 
L 1096.663697 48.492385 
L 1103.472727 48.615654 
L 1103.472727 48.615654 
" clip-path="url(#pc6f7b3db73)" style="fill: none; stroke-dasharray: 11.1,4.8; stroke-dashoffset: 0; stroke: #731a73; stroke-width: 3"/>
   </g>
   <g id="line2d_26">
    <path d="M 88.927273 44.463709 
L 95.736303 22.32 
L 102.545333 24.857301 
L 109.354362 23.011991 
L 116.163392 43.925495 
L 122.972422 37.774466 
L 129.781452 40.311764 
L 136.590482 55.535564 
L 143.399512 39.916884 
L 150.208542 47.231674 
L 157.017572 33.468746 
L 163.826602 46.539683 
L 170.635631 46.539683 
L 177.444661 62.993687 
L 184.253691 57.71738 
L 191.062721 73.273404 
L 197.871751 122.13005 
L 204.680781 191.206144 
L 211.489811 256.323723 
L 218.298841 265.980768 
L 225.107871 273.913232 
L 231.916901 274.819997 
L 238.72593 273.802137 
L 245.53496 274.023988 
L 252.34399 295.383849 
L 259.15302 297.884682 
L 265.96205 294.972062 
L 272.77108 292.409922 
L 279.58011 295.105718 
L 286.38914 299.291586 
L 293.19817 296.728613 
L 300.0072 302.603124 
L 306.816229 298.850769 
L 313.625259 300.724726 
L 320.434289 294.427926 
L 327.243319 294.33067 
L 334.052349 289.270696 
L 340.861379 284.799754 
L 347.670409 284.070483 
L 354.479439 291.197056 
L 361.288469 290.071212 
L 368.097498 283.66086 
L 374.906528 272.737983 
L 381.715558 269.816584 
L 388.524588 273.225399 
L 395.333618 261.051372 
L 402.142648 210.203978 
L 408.951678 157.222667 
L 415.760708 223.974045 
L 422.569738 252.265819 
L 429.378768 256.300339 
L 436.187797 261.951984 
L 442.996827 273.745925 
L 449.805857 266.726086 
L 456.614887 275.36713 
L 463.423917 273.680585 
L 470.232947 258.884859 
L 477.041977 220.839472 
L 483.851007 163.433583 
L 490.660037 144.887481 
L 497.469067 87.996596 
L 504.278096 82.661117 
L 511.087126 67.299408 
L 517.896156 67.299408 
L 524.705186 53.45959 
L 531.514216 49.20653 
L 538.323246 41.436991 
L 545.132276 29.239913 
L 551.941306 45.916495 
L 558.750336 41.695747 
L 565.559365 57.611537 
L 572.368395 36.15982 
L 579.177425 39.004671 
L 585.986455 37.543802 
L 592.795485 27.85593 
L 599.604515 48.846318 
L 606.413545 51.284481 
L 613.222575 48.231215 
L 620.031605 49.307645 
L 626.840635 50.691628 
L 633.649664 57.611537 
L 640.458694 49.307645 
L 647.267724 56.227555 
L 654.076754 56.159014 
L 660.885784 63.147463 
L 667.694814 49.999636 
L 674.503844 34.775837 
L 681.312874 51.921832 
L 688.121904 54.843572 
L 694.930933 56.227555 
L 701.739963 52.767599 
L 708.548993 48.319086 
L 715.358023 57.876652 
L 722.167053 56.227555 
L 728.976083 58.072862 
L 735.785113 52.536938 
L 742.594143 84.310106 
L 749.403173 84.565902 
L 756.212203 84.310106 
L 763.021232 84.525859 
L 797.066382 84.295681 
L 803.875412 60.3795 
L 810.684442 49.753181 
L 817.493472 52.536938 
L 824.302502 47.923663 
L 831.111531 53.855013 
L 837.920561 49.307645 
L 844.729591 39.619773 
L 851.538621 45.847692 
L 858.347651 54.382245 
L 865.156681 55.25088 
L 871.965711 50.076525 
L 878.774741 58.995517 
L 885.583771 58.037997 
L 892.3928 94.979042 
L 899.20183 56.227555 
L 906.01086 42.387738 
L 912.81989 56.227555 
L 919.62892 51.921832 
L 926.43795 54.843572 
L 933.24698 58.303526 
L 940.05601 51.634847 
L 946.86504 40.311764 
L 953.67407 57.48235 
L 960.483099 57.809246 
L 967.292129 53.45959 
L 974.101159 32.699863 
L 980.910189 48.846318 
L 987.719219 40.311764 
L 994.528249 57.45776 
L 1001.337279 53.609925 
L 1008.146309 58.995517 
L 1014.955339 50.691628 
L 1021.764369 56.919546 
L 1028.573398 52.536938 
L 1035.382428 34.775837 
L 1042.191458 63.147463 
L 1049.000488 51.30673 
L 1062.618548 33.391855 
L 1069.427578 46.539683 
L 1076.236608 42.695288 
L 1083.045638 41.695747 
L 1089.854667 56.842657 
L 1096.663697 49.056665 
L 1103.472727 48.615654 
L 1103.472727 48.615654 
" clip-path="url(#pc6f7b3db73)" style="fill: none; stroke-dasharray: 11.1,4.8; stroke-dashoffset: 0; stroke: #f24c3d; stroke-width: 3"/>
   </g>
   <g id="line2d_27">
    <path d="M 88.927273 44.463709 
L 95.736303 22.32 
L 102.545333 24.857301 
L 109.354362 23.011991 
L 116.163392 43.925495 
L 122.972422 37.774466 
L 129.781452 40.311764 
L 136.590482 55.535564 
L 143.399512 38.389568 
L 150.208542 47.231674 
L 157.017572 33.468746 
L 163.826602 46.539683 
L 170.635631 46.539683 
L 177.444661 62.993687 
L 184.253691 83.907189 
L 191.062721 64.838995 
L 197.871751 84.599179 
L 204.680781 176.787738 
L 211.489811 254.828928 
L 218.298841 272.820689 
L 225.107871 274.589108 
L 231.916901 273.512692 
L 238.72593 271.436707 
L 245.53496 281.355237 
L 252.34399 275.588666 
L 259.15302 270.547004 
L 265.96205 272.820689 
L 272.77108 272.743809 
L 279.58011 280.740149 
L 286.38914 314.340154 
L 293.19817 302.576302 
L 300.0072 312.956171 
L 306.816229 291.196898 
L 313.625259 324.72 
L 320.434289 309.034887 
L 327.243319 317.80011 
L 334.052349 307.420241 
L 340.861379 299.116346 
L 347.670409 317.108119 
L 354.479439 300.500328 
L 361.288469 301.884311 
L 368.097498 292.196433 
L 374.906528 306.135114 
L 381.715558 304.652276 
L 388.524588 290.581787 
L 395.333618 295.65639 
L 402.142648 289.351588 
L 408.951678 295.65639 
L 415.760708 296.732828 
L 422.569738 286.660503 
L 429.378768 291.812009 
L 436.187797 284.584529 
L 442.996827 286.660503 
L 449.805857 271.436707 
L 456.614887 272.128698 
L 463.423917 275.819329 
L 470.232947 243.065088 
L 477.041977 175.249984 
L 483.851007 155.182249 
L 490.660037 149.415655 
L 497.469067 163.870579 
L 504.278096 124.042659 
L 511.087126 67.299408 
L 517.896156 67.299408 
L 524.705186 53.45959 
L 531.514216 30.623895 
L 538.323246 41.003756 
L 545.132276 29.239913 
L 551.941306 39.619773 
L 558.750336 41.695747 
L 565.559365 57.611537 
L 572.368395 36.15982 
L 579.177425 39.004671 
L 585.986455 37.543802 
L 592.795485 27.85593 
L 599.604515 48.846318 
L 606.413545 53.45959 
L 613.222575 48.231215 
L 620.031605 49.307645 
L 626.840635 50.691628 
L 633.649664 57.611537 
L 640.458694 49.307645 
L 647.267724 56.227555 
L 654.076754 72.220231 
L 660.885784 63.147463 
L 667.694814 49.999636 
L 674.503844 34.775837 
L 681.312874 51.921832 
L 688.121904 54.843572 
L 694.930933 56.227555 
L 701.739963 52.767599 
L 708.548993 48.319086 
L 715.358023 48.231215 
L 722.167053 56.227555 
L 728.976083 58.072862 
L 735.785113 52.536938 
L 742.594143 84.310106 
L 797.066382 84.310106 
L 803.875412 60.3795 
L 810.684442 54.151581 
L 817.493472 52.536938 
L 824.302502 47.923663 
L 831.111531 53.855013 
L 837.920561 49.307645 
L 844.729591 39.619773 
L 851.538621 45.847692 
L 858.347651 54.382245 
L 865.156681 46.539683 
L 871.965711 50.076525 
L 878.774741 58.995517 
L 885.583771 43.079727 
L 892.3928 94.979042 
L 899.20183 56.227555 
L 906.01086 42.387738 
L 912.81989 56.227555 
L 919.62892 51.921832 
L 926.43795 54.843572 
L 933.24698 58.303526 
L 940.05601 63.345175 
L 946.86504 40.311764 
L 953.67407 59.30307 
L 960.483099 57.809246 
L 967.292129 53.45959 
L 974.101159 32.699863 
L 980.910189 48.846318 
L 987.719219 40.311764 
L 994.528249 57.45776 
L 1001.337279 43.079727 
L 1008.146309 58.995517 
L 1014.955339 50.691628 
L 1021.764369 56.919546 
L 1028.573398 52.536938 
L 1035.382428 34.775837 
L 1042.191458 63.147463 
L 1049.000488 51.30673 
L 1062.618548 33.391855 
L 1069.427578 46.539683 
L 1076.236608 42.695288 
L 1083.045638 41.695747 
L 1089.854667 56.842657 
L 1096.663697 46.385905 
L 1103.472727 48.615654 
L 1103.472727 48.615654 
" clip-path="url(#pc6f7b3db73)" style="fill: none; stroke-dasharray: 11.1,4.8; stroke-dashoffset: 0; stroke: #068ff8; stroke-width: 3"/>
   </g>
   <g id="patch_3">
    <path d="M 38.2 339.84 
L 38.2 7.2 
" style="fill: none; stroke: #000000; stroke-width: 0.8; stroke-linejoin: miter; stroke-linecap: square"/>
   </g>
   <g id="patch_4">
    <path d="M 1154.2 339.84 
L 1154.2 7.2 
" style="fill: none; stroke: #000000; stroke-width: 0.8; stroke-linejoin: miter; stroke-linecap: square"/>
   </g>
   <g id="patch_5">
    <path d="M 38.2 339.84 
L 1154.2 339.84 
" style="fill: none; stroke: #000000; stroke-width: 0.8; stroke-linejoin: miter; stroke-linecap: square"/>
   </g>
   <g id="patch_6">
    <path d="M 38.2 7.2 
L 1154.2 7.2 
" style="fill: none; stroke: #000000; stroke-width: 0.8; stroke-linejoin: miter; stroke-linecap: square"/>
   </g>
   <g id="PathCollection_1">
    <defs>
     <path id="m591f3c38bb" d="M 0 3.535534 
C 0.937635 3.535534 1.836992 3.163008 2.5 2.5 
C 3.163008 1.836992 3.535534 0.937635 3.535534 0 
C 3.535534 -0.937635 3.163008 -1.836992 2.5 -2.5 
C 1.836992 -3.163008 0.937635 -3.535534 0 -3.535534 
C -0.937635 -3.535534 -1.836992 -3.163008 -2.5 -2.5 
C -3.163008 -1.836992 -3.535534 -0.937635 -3.535534 0 
C -3.535534 0.937635 -3.163008 1.836992 -2.5 2.5 
C -1.836992 3.163008 -0.937635 3.535534 0 3.535534 
z
" style="stroke: #22a699"/>
    </defs>
    <g clip-path="url(#pc6f7b3db73)">
     <use xlink:href="#m591f3c38bb" x="88.927273" y="44.463709" style="fill: #22a699; stroke: #22a699"/>
     <use xlink:href="#m591f3c38bb" x="95.736303" y="22.32" style="fill: #22a699; stroke: #22a699"/>
     <use xlink:href="#m591f3c38bb" x="102.545333" y="24.857301" style="fill: #22a699; stroke: #22a699"/>
     <use xlink:href="#m591f3c38bb" x="109.354362" y="23.011991" style="fill: #22a699; stroke: #22a699"/>
     <use xlink:href="#m591f3c38bb" x="116.163392" y="43.925495" style="fill: #22a699; stroke: #22a699"/>
     <use xlink:href="#m591f3c38bb" x="122.972422" y="37.774466" style="fill: #22a699; stroke: #22a699"/>
     <use xlink:href="#m591f3c38bb" x="129.781452" y="40.311764" style="fill: #22a699; stroke: #22a699"/>
     <use xlink:href="#m591f3c38bb" x="136.590482" y="55.535564" style="fill: #22a699; stroke: #22a699"/>
     <use xlink:href="#m591f3c38bb" x="150.208542" y="47.231674" style="fill: #22a699; stroke: #22a699"/>
     <use xlink:href="#m591f3c38bb" x="157.017572" y="33.468746" style="fill: #22a699; stroke: #22a699"/>
     <use xlink:href="#m591f3c38bb" x="163.826602" y="46.539683" style="fill: #22a699; stroke: #22a699"/>
     <use xlink:href="#m591f3c38bb" x="170.635631" y="46.539683" style="fill: #22a699; stroke: #22a699"/>
     <use xlink:href="#m591f3c38bb" x="177.444661" y="62.993687" style="fill: #22a699; stroke: #22a699"/>
     <use xlink:href="#m591f3c38bb" x="511.087126" y="67.299408" style="fill: #22a699; stroke: #22a699"/>
     <use xlink:href="#m591f3c38bb" x="517.896156" y="67.299408" style="fill: #22a699; stroke: #22a699"/>
     <use xlink:href="#m591f3c38bb" x="524.705186" y="53.45959" style="fill: #22a699; stroke: #22a699"/>
     <use xlink:href="#m591f3c38bb" x="545.132276" y="29.239913" style="fill: #22a699; stroke: #22a699"/>
     <use xlink:href="#m591f3c38bb" x="558.750336" y="41.695747" style="fill: #22a699; stroke: #22a699"/>
     <use xlink:href="#m591f3c38bb" x="565.559365" y="57.611537" style="fill: #22a699; stroke: #22a699"/>
     <use xlink:href="#m591f3c38bb" x="572.368395" y="36.15982" style="fill: #22a699; stroke: #22a699"/>
     <use xlink:href="#m591f3c38bb" x="579.177425" y="39.004671" style="fill: #22a699; stroke: #22a699"/>
     <use xlink:href="#m591f3c38bb" x="585.986455" y="37.543802" style="fill: #22a699; stroke: #22a699"/>
     <use xlink:href="#m591f3c38bb" x="592.795485" y="27.85593" style="fill: #22a699; stroke: #22a699"/>
     <use xlink:href="#m591f3c38bb" x="599.604515" y="48.846318" style="fill: #22a699; stroke: #22a699"/>
     <use xlink:href="#m591f3c38bb" x="613.222575" y="48.231215" style="fill: #22a699; stroke: #22a699"/>
     <use xlink:href="#m591f3c38bb" x="620.031605" y="49.307645" style="fill: #22a699; stroke: #22a699"/>
     <use xlink:href="#m591f3c38bb" x="626.840635" y="50.691628" style="fill: #22a699; stroke: #22a699"/>
     <use xlink:href="#m591f3c38bb" x="633.649664" y="57.611537" style="fill: #22a699; stroke: #22a699"/>
     <use xlink:href="#m591f3c38bb" x="640.458694" y="49.307645" style="fill: #22a699; stroke: #22a699"/>
     <use xlink:href="#m591f3c38bb" x="647.267724" y="56.227555" style="fill: #22a699; stroke: #22a699"/>
     <use xlink:href="#m591f3c38bb" x="660.885784" y="63.147463" style="fill: #22a699; stroke: #22a699"/>
     <use xlink:href="#m591f3c38bb" x="667.694814" y="49.999636" style="fill: #22a699; stroke: #22a699"/>
     <use xlink:href="#m591f3c38bb" x="674.503844" y="34.775837" style="fill: #22a699; stroke: #22a699"/>
     <use xlink:href="#m591f3c38bb" x="681.312874" y="51.921832" style="fill: #22a699; stroke: #22a699"/>
     <use xlink:href="#m591f3c38bb" x="688.121904" y="54.843572" style="fill: #22a699; stroke: #22a699"/>
     <use xlink:href="#m591f3c38bb" x="694.930933" y="56.227555" style="fill: #22a699; stroke: #22a699"/>
     <use xlink:href="#m591f3c38bb" x="701.739963" y="52.767599" style="fill: #22a699; stroke: #22a699"/>
     <use xlink:href="#m591f3c38bb" x="708.548993" y="48.319086" style="fill: #22a699; stroke: #22a699"/>
     <use xlink:href="#m591f3c38bb" x="722.167053" y="56.227555" style="fill: #22a699; stroke: #22a699"/>
     <use xlink:href="#m591f3c38bb" x="728.976083" y="58.072862" style="fill: #22a699; stroke: #22a699"/>
     <use xlink:href="#m591f3c38bb" x="735.785113" y="52.536938" style="fill: #22a699; stroke: #22a699"/>
     <use xlink:href="#m591f3c38bb" x="742.594143" y="84.310106" style="fill: #22a699; stroke: #22a699"/>
     <use xlink:href="#m591f3c38bb" x="756.212203" y="84.310106" style="fill: #22a699; stroke: #22a699"/>
     <use xlink:href="#m591f3c38bb" x="776.639292" y="84.310106" style="fill: #22a699; stroke: #22a699"/>
     <use xlink:href="#m591f3c38bb" x="783.448322" y="84.310106" style="fill: #22a699; stroke: #22a699"/>
     <use xlink:href="#m591f3c38bb" x="790.257352" y="84.310106" style="fill: #22a699; stroke: #22a699"/>
     <use xlink:href="#m591f3c38bb" x="803.875412" y="60.3795" style="fill: #22a699; stroke: #22a699"/>
     <use xlink:href="#m591f3c38bb" x="817.493472" y="52.536938" style="fill: #22a699; stroke: #22a699"/>
     <use xlink:href="#m591f3c38bb" x="824.302502" y="47.923663" style="fill: #22a699; stroke: #22a699"/>
     <use xlink:href="#m591f3c38bb" x="831.111531" y="53.855013" style="fill: #22a699; stroke: #22a699"/>
     <use xlink:href="#m591f3c38bb" x="837.920561" y="49.307645" style="fill: #22a699; stroke: #22a699"/>
     <use xlink:href="#m591f3c38bb" x="844.729591" y="39.619773" style="fill: #22a699; stroke: #22a699"/>
     <use xlink:href="#m591f3c38bb" x="851.538621" y="45.847692" style="fill: #22a699; stroke: #22a699"/>
     <use xlink:href="#m591f3c38bb" x="858.347651" y="54.382245" style="fill: #22a699; stroke: #22a699"/>
     <use xlink:href="#m591f3c38bb" x="871.965711" y="50.076525" style="fill: #22a699; stroke: #22a699"/>
     <use xlink:href="#m591f3c38bb" x="878.774741" y="58.995517" style="fill: #22a699; stroke: #22a699"/>
     <use xlink:href="#m591f3c38bb" x="892.3928" y="94.979042" style="fill: #22a699; stroke: #22a699"/>
     <use xlink:href="#m591f3c38bb" x="899.20183" y="56.227555" style="fill: #22a699; stroke: #22a699"/>
     <use xlink:href="#m591f3c38bb" x="906.01086" y="42.387738" style="fill: #22a699; stroke: #22a699"/>
     <use xlink:href="#m591f3c38bb" x="912.81989" y="56.227555" style="fill: #22a699; stroke: #22a699"/>
     <use xlink:href="#m591f3c38bb" x="919.62892" y="51.921832" style="fill: #22a699; stroke: #22a699"/>
     <use xlink:href="#m591f3c38bb" x="926.43795" y="54.843572" style="fill: #22a699; stroke: #22a699"/>
     <use xlink:href="#m591f3c38bb" x="933.24698" y="58.303526" style="fill: #22a699; stroke: #22a699"/>
     <use xlink:href="#m591f3c38bb" x="946.86504" y="40.311764" style="fill: #22a699; stroke: #22a699"/>
     <use xlink:href="#m591f3c38bb" x="960.483099" y="57.809246" style="fill: #22a699; stroke: #22a699"/>
     <use xlink:href="#m591f3c38bb" x="967.292129" y="53.45959" style="fill: #22a699; stroke: #22a699"/>
     <use xlink:href="#m591f3c38bb" x="974.101159" y="32.699863" style="fill: #22a699; stroke: #22a699"/>
     <use xlink:href="#m591f3c38bb" x="980.910189" y="48.846318" style="fill: #22a699; stroke: #22a699"/>
     <use xlink:href="#m591f3c38bb" x="987.719219" y="40.311764" style="fill: #22a699; stroke: #22a699"/>
     <use xlink:href="#m591f3c38bb" x="994.528249" y="57.45776" style="fill: #22a699; stroke: #22a699"/>
     <use xlink:href="#m591f3c38bb" x="1008.146309" y="58.995517" style="fill: #22a699; stroke: #22a699"/>
     <use xlink:href="#m591f3c38bb" x="1014.955339" y="50.691628" style="fill: #22a699; stroke: #22a699"/>
     <use xlink:href="#m591f3c38bb" x="1021.764369" y="56.919546" style="fill: #22a699; stroke: #22a699"/>
     <use xlink:href="#m591f3c38bb" x="1028.573398" y="52.536938" style="fill: #22a699; stroke: #22a699"/>
     <use xlink:href="#m591f3c38bb" x="1035.382428" y="34.775837" style="fill: #22a699; stroke: #22a699"/>
     <use xlink:href="#m591f3c38bb" x="1042.191458" y="63.147463" style="fill: #22a699; stroke: #22a699"/>
     <use xlink:href="#m591f3c38bb" x="1049.000488" y="51.30673" style="fill: #22a699; stroke: #22a699"/>
     <use xlink:href="#m591f3c38bb" x="1055.809518" y="42.387738" style="fill: #22a699; stroke: #22a699"/>
     <use xlink:href="#m591f3c38bb" x="1062.618548" y="33.391855" style="fill: #22a699; stroke: #22a699"/>
     <use xlink:href="#m591f3c38bb" x="1069.427578" y="46.539683" style="fill: #22a699; stroke: #22a699"/>
     <use xlink:href="#m591f3c38bb" x="1076.236608" y="42.695288" style="fill: #22a699; stroke: #22a699"/>
     <use xlink:href="#m591f3c38bb" x="1083.045638" y="41.695747" style="fill: #22a699; stroke: #22a699"/>
     <use xlink:href="#m591f3c38bb" x="1089.854667" y="56.842657" style="fill: #22a699; stroke: #22a699"/>
     <use xlink:href="#m591f3c38bb" x="1103.472727" y="48.615654" style="fill: #22a699; stroke: #22a699"/>
    </g>
   </g>
   <g id="legend_1">
    <g id="patch_7">
     <path d="M 860.545 323.84 
L 1131.8 323.84 
Q 1138.2 323.84 1138.2 317.44 
L 1138.2 49.17 
Q 1138.2 42.77 1131.8 42.77 
L 860.545 42.77 
Q 854.145 42.77 854.145 49.17 
L 854.145 317.44 
Q 854.145 323.84 860.545 323.84 
z
" style="fill: #ffffff; opacity: 0.8; stroke: #cccccc; stroke-linejoin: miter"/>
    </g>
    <g id="PathCollection_2">
     <g>
      <use xlink:href="#m591f3c38bb" x="898.945" y="69.57" style="fill: #22a699; stroke: #22a699"/>
     </g>
    </g>
    <g id="text_13">
     <!-- Observed -->
     <g transform="translate(956.545 77.97) scale(0.32 -0.32)">
      <defs>
       <path id="TimesNewRomanPSMT-4f" d="M 2341 4334 
Q 3166 4334 3770 3707 
Q 4375 3081 4375 2144 
Q 4375 1178 3765 540 
Q 3156 -97 2291 -97 
Q 1416 -97 820 525 
Q 225 1147 225 2134 
Q 225 3144 913 3781 
Q 1509 4334 2341 4334 
z
M 2281 4106 
Q 1713 4106 1369 3684 
Q 941 3159 941 2147 
Q 941 1109 1384 550 
Q 1725 125 2284 125 
Q 2881 125 3270 590 
Q 3659 1056 3659 2059 
Q 3659 3147 3231 3681 
Q 2888 4106 2281 4106 
z
" transform="scale(0.015625)"/>
       <path id="TimesNewRomanPSMT-62" d="M 984 2369 
Q 1400 2947 1881 2947 
Q 2322 2947 2650 2570 
Q 2978 2194 2978 1541 
Q 2978 778 2472 313 
Q 2038 -88 1503 -88 
Q 1253 -88 995 3 
Q 738 94 469 275 
L 469 3241 
Q 469 3728 445 3840 
Q 422 3953 372 3993 
Q 322 4034 247 4034 
Q 159 4034 28 3984 
L -16 4094 
L 844 4444 
L 984 4444 
L 984 2369 
z
M 984 2169 
L 984 456 
Q 1144 300 1314 220 
Q 1484 141 1663 141 
Q 1947 141 2192 453 
Q 2438 766 2438 1363 
Q 2438 1913 2192 2208 
Q 1947 2503 1634 2503 
Q 1469 2503 1303 2419 
Q 1178 2356 984 2169 
z
" transform="scale(0.015625)"/>
       <path id="TimesNewRomanPSMT-72" d="M 1038 2947 
L 1038 2303 
Q 1397 2947 1775 2947 
Q 1947 2947 2059 2842 
Q 2172 2738 2172 2600 
Q 2172 2478 2090 2393 
Q 2009 2309 1897 2309 
Q 1788 2309 1652 2417 
Q 1516 2525 1450 2525 
Q 1394 2525 1328 2463 
Q 1188 2334 1038 2041 
L 1038 669 
Q 1038 431 1097 309 
Q 1138 225 1241 169 
Q 1344 113 1538 113 
L 1538 0 
L 72 0 
L 72 113 
Q 291 113 397 181 
Q 475 231 506 341 
Q 522 394 522 644 
L 522 1753 
Q 522 2253 501 2348 
Q 481 2444 426 2487 
Q 372 2531 291 2531 
Q 194 2531 72 2484 
L 41 2597 
L 906 2947 
L 1038 2947 
z
" transform="scale(0.015625)"/>
       <path id="TimesNewRomanPSMT-76" d="M 53 2863 
L 1400 2863 
L 1400 2747 
L 1313 2747 
Q 1191 2747 1127 2687 
Q 1063 2628 1063 2528 
Q 1063 2419 1128 2269 
L 1794 688 
L 2463 2328 
Q 2534 2503 2534 2594 
Q 2534 2638 2509 2666 
Q 2475 2713 2422 2730 
Q 2369 2747 2206 2747 
L 2206 2863 
L 3141 2863 
L 3141 2747 
Q 2978 2734 2916 2681 
Q 2806 2588 2719 2369 
L 1703 -88 
L 1575 -88 
L 553 2328 
Q 484 2497 421 2570 
Q 359 2644 263 2694 
Q 209 2722 53 2747 
L 53 2863 
z
" transform="scale(0.015625)"/>
       <path id="TimesNewRomanPSMT-64" d="M 2222 322 
Q 2013 103 1813 7 
Q 1613 -88 1381 -88 
Q 913 -88 563 304 
Q 213 697 213 1313 
Q 213 1928 600 2439 
Q 988 2950 1597 2950 
Q 1975 2950 2222 2709 
L 2222 3238 
Q 2222 3728 2198 3840 
Q 2175 3953 2125 3993 
Q 2075 4034 2000 4034 
Q 1919 4034 1784 3984 
L 1744 4094 
L 2597 4444 
L 2738 4444 
L 2738 1134 
Q 2738 631 2761 520 
Q 2784 409 2836 365 
Q 2888 322 2956 322 
Q 3041 322 3181 375 
L 3216 266 
L 2366 -88 
L 2222 -88 
L 2222 322 
z
M 2222 541 
L 2222 2016 
Q 2203 2228 2109 2403 
Q 2016 2578 1861 2667 
Q 1706 2756 1559 2756 
Q 1284 2756 1069 2509 
Q 784 2184 784 1559 
Q 784 928 1059 592 
Q 1334 256 1672 256 
Q 1956 256 2222 541 
z
" transform="scale(0.015625)"/>
      </defs>
      <use xlink:href="#TimesNewRomanPSMT-4f"/>
      <use xlink:href="#TimesNewRomanPSMT-62" x="72.216797"/>
      <use xlink:href="#TimesNewRomanPSMT-73" x="122.216797"/>
      <use xlink:href="#TimesNewRomanPSMT-65" x="161.132812"/>
      <use xlink:href="#TimesNewRomanPSMT-72" x="205.517578"/>
      <use xlink:href="#TimesNewRomanPSMT-76" x="238.818359"/>
      <use xlink:href="#TimesNewRomanPSMT-65" x="288.818359"/>
      <use xlink:href="#TimesNewRomanPSMT-64" x="333.203125"/>
     </g>
    </g>
    <g id="line2d_28">
     <path d="M 866.945 112.015 
L 898.945 112.015 
L 930.945 112.015 
" style="fill: none; stroke-dasharray: 11.1,4.8; stroke-dashoffset: 0; stroke: #d65190; stroke-width: 3"/>
    </g>
    <g id="text_14">
     <!-- w/o cons -->
     <g transform="translate(956.545 123.215) scale(0.32 -0.32)">
      <defs>
       <path id="TimesNewRomanPSMT-77" d="M 41 2863 
L 1241 2863 
L 1241 2747 
Q 1075 2734 1023 2687 
Q 972 2641 972 2553 
Q 972 2456 1025 2319 
L 1638 672 
L 2253 2013 
L 2091 2434 
Q 2016 2622 1894 2694 
Q 1825 2738 1638 2747 
L 1638 2863 
L 3000 2863 
L 3000 2747 
Q 2775 2738 2681 2666 
Q 2619 2616 2619 2506 
Q 2619 2444 2644 2378 
L 3294 734 
L 3897 2319 
Q 3959 2488 3959 2588 
Q 3959 2647 3898 2694 
Q 3838 2741 3659 2747 
L 3659 2863 
L 4563 2863 
L 4563 2747 
Q 4291 2706 4163 2378 
L 3206 -88 
L 3078 -88 
L 2363 1741 
L 1528 -88 
L 1413 -88 
L 494 2319 
Q 403 2547 315 2626 
Q 228 2706 41 2747 
L 41 2863 
z
" transform="scale(0.015625)"/>
       <path id="TimesNewRomanPSMT-2f" d="M 1794 4444 
L 259 -88 
L 9 -88 
L 1544 4444 
L 1794 4444 
z
" transform="scale(0.015625)"/>
       <path id="TimesNewRomanPSMT-6f" d="M 1600 2947 
Q 2250 2947 2644 2453 
Q 2978 2031 2978 1484 
Q 2978 1100 2793 706 
Q 2609 313 2286 112 
Q 1963 -88 1566 -88 
Q 919 -88 538 428 
Q 216 863 216 1403 
Q 216 1797 411 2186 
Q 606 2575 925 2761 
Q 1244 2947 1600 2947 
z
M 1503 2744 
Q 1338 2744 1170 2645 
Q 1003 2547 900 2300 
Q 797 2053 797 1666 
Q 797 1041 1045 587 
Q 1294 134 1700 134 
Q 2003 134 2200 384 
Q 2397 634 2397 1244 
Q 2397 2006 2069 2444 
Q 1847 2744 1503 2744 
z
" transform="scale(0.015625)"/>
       <path id="TimesNewRomanPSMT-63" d="M 2631 1088 
Q 2516 522 2178 217 
Q 1841 -88 1431 -88 
Q 944 -88 581 321 
Q 219 731 219 1428 
Q 219 2103 620 2525 
Q 1022 2947 1584 2947 
Q 2006 2947 2278 2723 
Q 2550 2500 2550 2259 
Q 2550 2141 2473 2067 
Q 2397 1994 2259 1994 
Q 2075 1994 1981 2113 
Q 1928 2178 1911 2362 
Q 1894 2547 1784 2644 
Q 1675 2738 1481 2738 
Q 1169 2738 978 2506 
Q 725 2200 725 1697 
Q 725 1184 976 792 
Q 1228 400 1656 400 
Q 1963 400 2206 609 
Q 2378 753 2541 1131 
L 2631 1088 
z
" transform="scale(0.015625)"/>
       <path id="TimesNewRomanPSMT-6e" d="M 1034 2341 
Q 1538 2947 1994 2947 
Q 2228 2947 2397 2830 
Q 2566 2713 2666 2444 
Q 2734 2256 2734 1869 
L 2734 647 
Q 2734 375 2778 278 
Q 2813 200 2889 156 
Q 2966 113 3172 113 
L 3172 0 
L 1756 0 
L 1756 113 
L 1816 113 
Q 2016 113 2095 173 
Q 2175 234 2206 353 
Q 2219 400 2219 647 
L 2219 1819 
Q 2219 2209 2117 2386 
Q 2016 2563 1775 2563 
Q 1403 2563 1034 2156 
L 1034 647 
Q 1034 356 1069 288 
Q 1113 197 1189 155 
Q 1266 113 1500 113 
L 1500 0 
L 84 0 
L 84 113 
L 147 113 
Q 366 113 442 223 
Q 519 334 519 647 
L 519 1709 
Q 519 2225 495 2337 
Q 472 2450 423 2490 
Q 375 2531 294 2531 
Q 206 2531 84 2484 
L 38 2597 
L 900 2947 
L 1034 2947 
L 1034 2341 
z
" transform="scale(0.015625)"/>
      </defs>
      <use xlink:href="#TimesNewRomanPSMT-77"/>
      <use xlink:href="#TimesNewRomanPSMT-2f" x="72.216797"/>
      <use xlink:href="#TimesNewRomanPSMT-6f" x="100"/>
      <use xlink:href="#TimesNewRomanPSMT-20" x="150"/>
      <use xlink:href="#TimesNewRomanPSMT-63" x="175"/>
      <use xlink:href="#TimesNewRomanPSMT-6f" x="219.384766"/>
      <use xlink:href="#TimesNewRomanPSMT-6e" x="269.384766"/>
      <use xlink:href="#TimesNewRomanPSMT-73" x="319.384766"/>
     </g>
    </g>
    <g id="line2d_29">
     <path d="M 866.945 157.26 
L 898.945 157.26 
L 930.945 157.26 
" style="fill: none; stroke-dasharray: 11.1,4.8; stroke-dashoffset: 0; stroke: #ff8c00; stroke-width: 3"/>
    </g>
    <g id="text_15">
     <!-- w/o intra -->
     <g transform="translate(956.545 168.46) scale(0.32 -0.32)">
      <defs>
       <path id="TimesNewRomanPSMT-61" d="M 1822 413 
Q 1381 72 1269 19 
Q 1100 -59 909 -59 
Q 613 -59 420 144 
Q 228 347 228 678 
Q 228 888 322 1041 
Q 450 1253 767 1440 
Q 1084 1628 1822 1897 
L 1822 2009 
Q 1822 2438 1686 2597 
Q 1550 2756 1291 2756 
Q 1094 2756 978 2650 
Q 859 2544 859 2406 
L 866 2225 
Q 866 2081 792 2003 
Q 719 1925 600 1925 
Q 484 1925 411 2006 
Q 338 2088 338 2228 
Q 338 2497 613 2722 
Q 888 2947 1384 2947 
Q 1766 2947 2009 2819 
Q 2194 2722 2281 2516 
Q 2338 2381 2338 1966 
L 2338 994 
Q 2338 584 2353 492 
Q 2369 400 2405 369 
Q 2441 338 2488 338 
Q 2538 338 2575 359 
Q 2641 400 2828 588 
L 2828 413 
Q 2478 -56 2159 -56 
Q 2006 -56 1915 50 
Q 1825 156 1822 413 
z
M 1822 616 
L 1822 1706 
Q 1350 1519 1213 1441 
Q 966 1303 859 1153 
Q 753 1003 753 825 
Q 753 600 887 451 
Q 1022 303 1197 303 
Q 1434 303 1822 616 
z
" transform="scale(0.015625)"/>
      </defs>
      <use xlink:href="#TimesNewRomanPSMT-77"/>
      <use xlink:href="#TimesNewRomanPSMT-2f" x="72.216797"/>
      <use xlink:href="#TimesNewRomanPSMT-6f" x="100"/>
      <use xlink:href="#TimesNewRomanPSMT-20" x="150"/>
      <use xlink:href="#TimesNewRomanPSMT-69" x="175"/>
      <use xlink:href="#TimesNewRomanPSMT-6e" x="202.783203"/>
      <use xlink:href="#TimesNewRomanPSMT-74" x="252.783203"/>
      <use xlink:href="#TimesNewRomanPSMT-72" x="280.566406"/>
      <use xlink:href="#TimesNewRomanPSMT-61" x="313.867188"/>
     </g>
    </g>
    <g id="line2d_30">
     <path d="M 866.945 202.505 
L 898.945 202.505 
L 930.945 202.505 
" style="fill: none; stroke-dasharray: 11.1,4.8; stroke-dashoffset: 0; stroke: #731a73; stroke-width: 3"/>
    </g>
    <g id="text_16">
     <!-- w/o inter -->
     <g transform="translate(956.545 213.705) scale(0.32 -0.32)">
      <use xlink:href="#TimesNewRomanPSMT-77"/>
      <use xlink:href="#TimesNewRomanPSMT-2f" x="72.216797"/>
      <use xlink:href="#TimesNewRomanPSMT-6f" x="100"/>
      <use xlink:href="#TimesNewRomanPSMT-20" x="150"/>
      <use xlink:href="#TimesNewRomanPSMT-69" x="175"/>
      <use xlink:href="#TimesNewRomanPSMT-6e" x="202.783203"/>
      <use xlink:href="#TimesNewRomanPSMT-74" x="252.783203"/>
      <use xlink:href="#TimesNewRomanPSMT-65" x="280.566406"/>
      <use xlink:href="#TimesNewRomanPSMT-72" x="324.951172"/>
     </g>
    </g>
    <g id="line2d_31">
     <path d="M 866.945 247.75 
L 898.945 247.75 
L 930.945 247.75 
" style="fill: none; stroke-dasharray: 11.1,4.8; stroke-dashoffset: 0; stroke: #f24c3d; stroke-width: 3"/>
    </g>
    <g id="text_17">
     <!-- MTSCI -->
     <g transform="translate(956.545 258.95) scale(0.32 -0.32)">
      <defs>
       <path id="TimesNewRomanPSMT-4d" d="M 2619 0 
L 981 3566 
L 981 734 
Q 981 344 1066 247 
Q 1181 116 1431 116 
L 1581 116 
L 1581 0 
L 106 0 
L 106 116 
L 256 116 
Q 525 116 638 278 
Q 706 378 706 734 
L 706 3503 
Q 706 3784 644 3909 
Q 600 4000 483 4061 
Q 366 4122 106 4122 
L 106 4238 
L 1306 4238 
L 2844 922 
L 4356 4238 
L 5556 4238 
L 5556 4122 
L 5409 4122 
Q 5138 4122 5025 3959 
Q 4956 3859 4956 3503 
L 4956 734 
Q 4956 344 5044 247 
Q 5159 116 5409 116 
L 5556 116 
L 5556 0 
L 3756 0 
L 3756 116 
L 3906 116 
Q 4178 116 4288 278 
Q 4356 378 4356 734 
L 4356 3566 
L 2722 0 
L 2619 0 
z
" transform="scale(0.015625)"/>
       <path id="TimesNewRomanPSMT-53" d="M 2934 4334 
L 2934 2869 
L 2819 2869 
Q 2763 3291 2617 3541 
Q 2472 3791 2203 3937 
Q 1934 4084 1647 4084 
Q 1322 4084 1109 3886 
Q 897 3688 897 3434 
Q 897 3241 1031 3081 
Q 1225 2847 1953 2456 
Q 2547 2138 2764 1967 
Q 2981 1797 3098 1565 
Q 3216 1334 3216 1081 
Q 3216 600 2842 251 
Q 2469 -97 1881 -97 
Q 1697 -97 1534 -69 
Q 1438 -53 1133 45 
Q 828 144 747 144 
Q 669 144 623 97 
Q 578 50 556 -97 
L 441 -97 
L 441 1356 
L 556 1356 
Q 638 900 775 673 
Q 913 447 1195 297 
Q 1478 147 1816 147 
Q 2206 147 2432 353 
Q 2659 559 2659 841 
Q 2659 997 2573 1156 
Q 2488 1316 2306 1453 
Q 2184 1547 1640 1851 
Q 1097 2156 867 2337 
Q 638 2519 519 2737 
Q 400 2956 400 3219 
Q 400 3675 750 4004 
Q 1100 4334 1641 4334 
Q 1978 4334 2356 4169 
Q 2531 4091 2603 4091 
Q 2684 4091 2736 4139 
Q 2788 4188 2819 4334 
L 2934 4334 
z
" transform="scale(0.015625)"/>
       <path id="TimesNewRomanPSMT-43" d="M 3853 4334 
L 3950 2894 
L 3853 2894 
Q 3659 3541 3300 3825 
Q 2941 4109 2438 4109 
Q 2016 4109 1675 3895 
Q 1334 3681 1139 3212 
Q 944 2744 944 2047 
Q 944 1472 1128 1050 
Q 1313 628 1683 403 
Q 2053 178 2528 178 
Q 2941 178 3256 354 
Q 3572 531 3950 1056 
L 4047 994 
Q 3728 428 3303 165 
Q 2878 -97 2294 -97 
Q 1241 -97 663 684 
Q 231 1266 231 2053 
Q 231 2688 515 3219 
Q 800 3750 1298 4042 
Q 1797 4334 2388 4334 
Q 2847 4334 3294 4109 
Q 3425 4041 3481 4041 
Q 3566 4041 3628 4100 
Q 3709 4184 3744 4334 
L 3853 4334 
z
" transform="scale(0.015625)"/>
       <path id="TimesNewRomanPSMT-49" d="M 1975 116 
L 1975 0 
L 159 0 
L 159 116 
L 309 116 
Q 572 116 691 269 
Q 766 369 766 750 
L 766 3488 
Q 766 3809 725 3913 
Q 694 3991 597 4047 
Q 459 4122 309 4122 
L 159 4122 
L 159 4238 
L 1975 4238 
L 1975 4122 
L 1822 4122 
Q 1563 4122 1444 3969 
Q 1366 3869 1366 3488 
L 1366 750 
Q 1366 428 1406 325 
Q 1438 247 1538 191 
Q 1672 116 1822 116 
L 1975 116 
z
" transform="scale(0.015625)"/>
      </defs>
      <use xlink:href="#TimesNewRomanPSMT-4d"/>
      <use xlink:href="#TimesNewRomanPSMT-54" x="88.916016"/>
      <use xlink:href="#TimesNewRomanPSMT-53" x="150"/>
      <use xlink:href="#TimesNewRomanPSMT-43" x="205.615234"/>
      <use xlink:href="#TimesNewRomanPSMT-49" x="272.314453"/>
     </g>
    </g>
    <g id="line2d_32">
     <path d="M 866.945 292.995 
L 898.945 292.995 
L 930.945 292.995 
" style="fill: none; stroke-dasharray: 11.1,4.8; stroke-dashoffset: 0; stroke: #068ff8; stroke-width: 3"/>
    </g>
    <g id="text_18">
     <!-- Ground-truth -->
     <g transform="translate(956.545 304.195) scale(0.32 -0.32)">
      <defs>
       <path id="TimesNewRomanPSMT-47" d="M 3928 4334 
L 4038 2997 
L 3928 2997 
Q 3763 3497 3500 3750 
Q 3122 4116 2528 4116 
Q 1719 4116 1297 3475 
Q 944 2934 944 2188 
Q 944 1581 1178 1081 
Q 1413 581 1792 348 
Q 2172 116 2572 116 
Q 2806 116 3025 175 
Q 3244 234 3447 350 
L 3447 1575 
Q 3447 1894 3398 1992 
Q 3350 2091 3248 2142 
Q 3147 2194 2891 2194 
L 2891 2313 
L 4531 2313 
L 4531 2194 
L 4453 2194 
Q 4209 2194 4119 2031 
Q 4056 1916 4056 1575 
L 4056 278 
Q 3697 84 3347 -6 
Q 2997 -97 2569 -97 
Q 1341 -97 703 691 
Q 225 1281 225 2053 
Q 225 2613 494 3125 
Q 813 3734 1369 4063 
Q 1834 4334 2469 4334 
Q 2700 4334 2889 4296 
Q 3078 4259 3425 4131 
Q 3600 4066 3659 4066 
Q 3719 4066 3761 4120 
Q 3803 4175 3813 4334 
L 3928 4334 
z
" transform="scale(0.015625)"/>
       <path id="TimesNewRomanPSMT-75" d="M 2709 2863 
L 2709 1128 
Q 2709 631 2732 520 
Q 2756 409 2807 365 
Q 2859 322 2928 322 
Q 3025 322 3147 375 
L 3191 266 
L 2334 -88 
L 2194 -88 
L 2194 519 
Q 1825 119 1631 15 
Q 1438 -88 1222 -88 
Q 981 -88 804 51 
Q 628 191 559 409 
Q 491 628 491 1028 
L 491 2306 
Q 491 2509 447 2587 
Q 403 2666 317 2708 
Q 231 2750 6 2747 
L 6 2863 
L 1009 2863 
L 1009 947 
Q 1009 547 1148 422 
Q 1288 297 1484 297 
Q 1619 297 1789 381 
Q 1959 466 2194 703 
L 2194 2325 
Q 2194 2569 2105 2655 
Q 2016 2741 1734 2747 
L 1734 2863 
L 2709 2863 
z
" transform="scale(0.015625)"/>
       <path id="TimesNewRomanPSMT-2d" d="M 259 1672 
L 1875 1672 
L 1875 1200 
L 259 1200 
L 259 1672 
z
" transform="scale(0.015625)"/>
       <path id="TimesNewRomanPSMT-68" d="M 1041 4444 
L 1041 2350 
Q 1388 2731 1591 2839 
Q 1794 2947 1997 2947 
Q 2241 2947 2416 2812 
Q 2591 2678 2675 2391 
Q 2734 2191 2734 1659 
L 2734 647 
Q 2734 375 2778 275 
Q 2809 200 2884 156 
Q 2959 113 3159 113 
L 3159 0 
L 1753 0 
L 1753 113 
L 1819 113 
Q 2019 113 2097 173 
Q 2175 234 2206 353 
Q 2216 403 2216 647 
L 2216 1659 
Q 2216 2128 2167 2275 
Q 2119 2422 2012 2495 
Q 1906 2569 1756 2569 
Q 1603 2569 1437 2487 
Q 1272 2406 1041 2159 
L 1041 647 
Q 1041 353 1073 281 
Q 1106 209 1195 161 
Q 1284 113 1503 113 
L 1503 0 
L 84 0 
L 84 113 
Q 275 113 384 172 
Q 447 203 484 290 
Q 522 378 522 647 
L 522 3238 
Q 522 3728 498 3840 
Q 475 3953 426 3993 
Q 378 4034 297 4034 
Q 231 4034 84 3984 
L 41 4094 
L 897 4444 
L 1041 4444 
z
" transform="scale(0.015625)"/>
      </defs>
      <use xlink:href="#TimesNewRomanPSMT-47"/>
      <use xlink:href="#TimesNewRomanPSMT-72" x="72.216797"/>
      <use xlink:href="#TimesNewRomanPSMT-6f" x="105.517578"/>
      <use xlink:href="#TimesNewRomanPSMT-75" x="155.517578"/>
      <use xlink:href="#TimesNewRomanPSMT-6e" x="205.517578"/>
      <use xlink:href="#TimesNewRomanPSMT-64" x="255.517578"/>
      <use xlink:href="#TimesNewRomanPSMT-2d" x="305.517578"/>
      <use xlink:href="#TimesNewRomanPSMT-74" x="338.818359"/>
      <use xlink:href="#TimesNewRomanPSMT-72" x="366.601562"/>
      <use xlink:href="#TimesNewRomanPSMT-75" x="399.902344"/>
      <use xlink:href="#TimesNewRomanPSMT-74" x="449.902344"/>
      <use xlink:href="#TimesNewRomanPSMT-68" x="477.685547"/>
     </g>
    </g>
   </g>
  </g>
 </g>
 <defs>
  <clipPath id="pc6f7b3db73">
   <rect x="38.2" y="7.2" width="1116" height="332.64"/>
  </clipPath>
 </defs>
</svg>
