<?xml version="1.0" encoding="utf-8" standalone="no"?>
<!DOCTYPE svg PUBLIC "-//W3C//DTD SVG 1.1//EN"
  "http://www.w3.org/Graphics/SVG/1.1/DTD/svg11.dtd">
<svg xmlns:xlink="http://www.w3.org/1999/xlink" width="1173.4pt" height="408.90375pt" viewBox="0 0 1173.4 408.90375" xmlns="http://www.w3.org/2000/svg" version="1.1">
 <metadata>
  <rdf:RDF xmlns:dc="http://purl.org/dc/elements/1.1/" xmlns:cc="http://creativecommons.org/ns#" xmlns:rdf="http://www.w3.org/1999/02/22-rdf-syntax-ns#">
   <cc:Work>
    <dc:type rdf:resource="http://purl.org/dc/dcmitype/StillImage"/>
    <dc:date>2024-05-20T21:11:27.177412</dc:date>
    <dc:format>image/svg+xml</dc:format>
    <dc:creator>
     <cc:Agent>
      <dc:title>Matplotlib v3.6.2, https://matplotlib.org/</dc:title>
     </cc:Agent>
    </dc:creator>
   </cc:Work>
  </rdf:RDF>
 </metadata>
 <defs>
  <style type="text/css">*{stroke-linejoin: round; stroke-linecap: butt}</style>
 </defs>
 <g id="figure_1">
  <g id="patch_1">
   <path d="M 0 408.90375 
L 1173.4 408.90375 
L 1173.4 0 
L 0 0 
z
" style="fill: #ffffff"/>
  </g>
  <g id="axes_1">
   <g id="patch_2">
    <path d="M 50.2 339.84 
L 1166.2 339.84 
L 1166.2 7.2 
L 50.2 7.2 
z
" style="fill: #ffffff"/>
   </g>
   <g id="PolyCollection_1">
    <defs>
     <path id="m47e47dc151" d="M 100.927273 -250.918854 
L 100.927273 -250.918854 
L 107.736303 -249.808477 
L 114.545333 -248.591764 
L 121.354362 -252.12002 
L 128.163392 -255.573132 
L 134.972422 -250.164143 
L 141.781452 -246.696588 
L 148.590482 -257.585776 
L 155.399512 -272.743489 
L 162.208542 -283.435698 
L 169.017572 -285.951466 
L 175.826602 -314.08582 
L 182.635631 -329.349148 
L 189.444661 -314.883286 
L 196.253691 -323.688573 
L 203.062721 -326.833332 
L 209.871751 -339.919475 
L 216.680781 -348.846644 
L 223.489811 -340.769341 
L 230.298841 -345.701885 
L 237.107871 -343.186116 
L 243.916901 -351.36246 
L 250.72593 -357.023036 
L 257.53496 -348.257337 
L 264.34399 -344.571449 
L 271.15302 -348.007526 
L 277.96205 -346.330875 
L 284.77108 -343.186116 
L 291.58011 -349.475634 
L 298.38914 -357.558359 
L 305.19817 -372.74683 
L 312.0072 -373.21411 
L 318.816229 -375.262647 
L 325.625259 -377.778464 
L 332.434289 -365.199428 
L 339.243319 -363.941496 
L 346.052349 -365.395688 
L 352.861379 -374.930493 
L 359.670409 -373.375772 
L 366.479439 -367.715197 
L 373.288469 -382.810049 
L 380.097498 -386.58375 
L 386.906528 -384.067981 
L 393.715558 -384.696923 
L 400.524588 -377.149473 
L 407.333618 -375.486402 
L 414.142648 -372.74683 
L 420.951678 -386.58375 
L 427.760708 -379.036348 
L 434.569738 -349.475634 
L 441.378768 -345.072943 
L 448.187797 -361.425679 
L 454.996827 -360.871882 
L 461.805857 -354.165373 
L 468.614887 -350.104576 
L 475.423917 -343.186116 
L 482.232947 -341.928184 
L 489.041977 -331.864965 
L 495.851007 -322.430688 
L 502.660037 -318.028045 
L 509.469067 -318.656987 
L 516.278096 -321.801746 
L 523.087126 -318.028045 
L 529.896156 -305.44901 
L 536.705186 -290.354158 
L 543.514216 -285.418255 
L 550.323246 -283.88244 
L 557.132276 -291.022927 
L 563.941306 -297.576172 
L 570.750336 -287.750768 
L 577.559365 -287.594288 
L 584.368395 -293.409232 
L 591.177425 -283.547311 
L 597.986455 -279.309017 
L 604.795485 -283.204505 
L 611.604515 -282.81688 
L 618.413545 -283.112037 
L 625.222575 -285.768211 
L 632.031605 -290.639478 
L 638.840635 -301.076789 
L 645.649664 -294.250557 
L 652.458694 -293.828191 
L 659.267724 -279.911088 
L 666.076754 -263.065639 
L 672.885784 -260.09214 
L 679.694814 -252.371799 
L 686.503844 -241.847682 
L 693.312874 -239.001439 
L 700.121904 -241.394414 
L 706.930933 -243.903656 
L 713.739963 -239.091507 
L 720.548993 -230.020383 
L 727.358023 -223.794637 
L 734.167053 -218.827448 
L 740.976083 -206.923805 
L 747.785113 -205.477003 
L 754.594143 -217.457422 
L 761.403173 -216.211918 
L 768.212203 -209.720767 
L 775.021232 -209.089521 
L 781.830262 -204.294503 
L 788.639292 -185.166062 
L 795.448322 -177.929076 
L 802.257352 -172.520903 
L 809.066382 -154.664502 
L 815.875412 -123.461877 
L 822.684442 -105.006045 
L 829.493472 -104.584327 
L 836.302502 -104.451048 
L 843.111531 -102.558847 
L 849.920561 -90.815954 
L 856.729591 -87.486596 
L 863.538621 -89.266824 
L 870.347651 -85.145854 
L 877.156681 -86.259302 
L 883.965711 -89.592739 
L 890.774741 -91.919854 
L 897.583771 -93.867214 
L 904.3928 -96.888579 
L 911.20183 -104.623267 
L 918.01086 -107.517879 
L 924.81989 -113.492902 
L 931.62892 -119.467948 
L 938.43795 -124.499558 
L 945.24698 -133.996743 
L 952.05601 -144.899943 
L 958.86504 -145.192077 
L 965.67407 -147.644985 
L 972.483099 -151.04133 
L 979.292129 -156.875348 
L 986.101159 -166.815653 
L 992.910189 -174.941517 
L 999.719219 -179.555439 
L 1006.528249 -182.111563 
L 1013.337279 -180.79077 
L 1020.146309 -194.187426 
L 1026.955339 -198.702882 
L 1033.764369 -193.81722 
L 1040.573398 -211.333982 
L 1047.382428 -221.081793 
L 1054.191458 -231.735854 
L 1061.000488 -252.493873 
L 1067.809518 -267.082913 
L 1074.618548 -257.648637 
L 1081.427578 -259.912867 
L 1088.236608 -252.959857 
L 1095.045638 -258.020762 
L 1101.854667 -249.099543 
L 1108.663697 -250.630223 
L 1115.472727 -260.961056 
L 1115.472727 -275.259305 
L 1115.472727 -275.259305 
L 1108.663697 -260.478948 
L 1101.854667 -256.013396 
L 1095.045638 -264.567144 
L 1088.236608 -257.459959 
L 1081.427578 -259.912867 
L 1074.618548 -257.648637 
L 1067.809518 -267.082913 
L 1061.000488 -252.176787 
L 1054.191458 -231.735854 
L 1047.382428 -221.043645 
L 1040.573398 -211.043335 
L 1033.764369 -194.501921 
L 1026.955339 -198.024035 
L 1020.146309 -194.187426 
L 1013.337279 -180.79077 
L 1006.528249 -182.111563 
L 999.719219 -179.155482 
L 992.910189 -174.941517 
L 986.101159 -167.14248 
L 979.292129 -157.205055 
L 972.483099 -151.04133 
L 965.67407 -147.644985 
L 958.86504 -145.192077 
L 952.05601 -144.311548 
L 945.24698 -133.996743 
L 938.43795 -124.499558 
L 931.62892 -119.467948 
L 924.81989 -113.492902 
L 918.01086 -107.517879 
L 911.20183 -104.436005 
L 904.3928 -96.888579 
L 897.583771 -93.051969 
L 890.774741 -91.919854 
L 883.965711 -89.592739 
L 877.156681 -86.259302 
L 870.347651 -84.18375 
L 863.538621 -88.586417 
L 856.729591 -86.573773 
L 849.920561 -88.900888 
L 843.111531 -100.913866 
L 836.302502 -103.30389 
L 829.493472 -102.674947 
L 822.684442 -101.920188 
L 815.875412 -121.543501 
L 809.066382 -150.412388 
L 802.257352 -167.645653 
L 795.448322 -171.733849 
L 788.639292 -181.231034 
L 781.830262 -200.414035 
L 775.021232 -203.684611 
L 768.212203 -205.194082 
L 761.403173 -213.118887 
L 754.594143 -213.810738 
L 747.785113 -222.301578 
L 740.976083 -226.389774 
L 734.167053 -239.597751 
L 727.358023 -243.811717 
L 720.548993 -250.604407 
L 713.739963 -261.044982 
L 706.930933 -265.825029 
L 700.121904 -261.422386 
L 693.312874 -258.151809 
L 686.503844 -259.850006 
L 679.694814 -270.856662 
L 672.885784 -276.51719 
L 666.076754 -278.404064 
L 659.267724 -296.014733 
L 652.458694 -307.335836 
L 645.649664 -306.706894 
L 638.840635 -313.625354 
L 632.031605 -303.562135 
L 625.222575 -296.643675 
L 618.413545 -294.127859 
L 611.604515 -293.498916 
L 604.795485 -294.756801 
L 597.986455 -289.096225 
L 591.177425 -294.127859 
L 584.368395 -294.756801 
L 577.559365 -289.096225 
L 570.750336 -289.096225 
L 563.941306 -299.159492 
L 557.132276 -292.240984 
L 550.323246 -284.06464 
L 543.514216 -285.322524 
L 536.705186 -290.354158 
L 529.896156 -305.44901 
L 523.087126 -318.028045 
L 516.278096 -321.801746 
L 509.469067 -318.656987 
L 502.660037 -318.028045 
L 495.851007 -322.430688 
L 489.041977 -331.864965 
L 482.232947 -341.928184 
L 475.423917 -343.186116 
L 468.614887 -350.104576 
L 461.805857 -355.136161 
L 454.996827 -362.683611 
L 448.187797 -361.425679 
L 441.378768 -345.072943 
L 434.569738 -349.475634 
L 427.760708 -379.036348 
L 420.951678 -386.58375 
L 414.142648 -372.74683 
L 407.333618 -374.633705 
L 400.524588 -377.149473 
L 393.715558 -384.696923 
L 386.906528 -384.067981 
L 380.097498 -386.58375 
L 373.288469 -382.810049 
L 366.479439 -367.715197 
L 359.670409 -373.375772 
L 352.861379 -376.520531 
L 346.052349 -365.82837 
L 339.243319 -363.941496 
L 332.434289 -365.199428 
L 325.625259 -377.778464 
L 318.816229 -375.262647 
L 312.0072 -374.004715 
L 305.19817 -372.74683 
L 298.38914 -357.651978 
L 291.58011 -349.475634 
L 284.77108 -343.186116 
L 277.96205 -346.330875 
L 271.15302 -350.733518 
L 264.34399 -345.701885 
L 257.53496 -348.217701 
L 250.72593 -357.023036 
L 243.916901 -351.36246 
L 237.107871 -343.186116 
L 230.298841 -345.701885 
L 223.489811 -340.041357 
L 216.680781 -348.846644 
L 209.871751 -341.299242 
L 203.062721 -326.833332 
L 196.253691 -323.688573 
L 189.444661 -314.883286 
L 182.635631 -329.349148 
L 175.826602 -314.254296 
L 169.017572 -285.951466 
L 162.208542 -283.435698 
L 155.399512 -272.743489 
L 148.590482 -257.585776 
L 141.781452 -244.251981 
L 134.972422 -250.164143 
L 128.163392 -255.573132 
L 121.354362 -252.617051 
L 114.545333 -248.591764 
L 107.736303 -250.541499 
L 100.927273 -250.918854 
z
" style="stroke: #808080; stroke-opacity: 0.3"/>
    </defs>
    <g clip-path="url(#pb53e6dace5)">
     <use xlink:href="#m47e47dc151" x="0" y="408.90375" style="fill: #808080; fill-opacity: 0.3; stroke: #808080; stroke-opacity: 0.3"/>
    </g>
   </g>
   <g id="matplotlib.axis_1">
    <g id="xtick_1">
     <g id="line2d_1">
      <path d="M 100.927273 339.84 
L 100.927273 7.2 
" clip-path="url(#pb53e6dace5)" style="fill: none; stroke-dasharray: 2.96,1.28; stroke-dashoffset: 0; stroke: #b0b0b0; stroke-width: 0.8"/>
     </g>
     <g id="line2d_2">
      <defs>
       <path id="m23a75897a7" d="M 0 0 
L 0 3.5 
" style="stroke: #000000; stroke-width: 0.8"/>
      </defs>
      <g>
       <use xlink:href="#m23a75897a7" x="100.927273" y="339.84" style="stroke: #000000; stroke-width: 0.8"/>
      </g>
     </g>
     <g id="text_1">
      <!-- 0 -->
      <g transform="translate(94.927273 363.505) scale(0.24 -0.24)">
       <defs>
        <path id="TimesNewRomanPSMT-30" d="M 231 2094 
Q 231 2819 450 3342 
Q 669 3866 1031 4122 
Q 1313 4325 1613 4325 
Q 2100 4325 2488 3828 
Q 2972 3213 2972 2159 
Q 2972 1422 2759 906 
Q 2547 391 2217 158 
Q 1888 -75 1581 -75 
Q 975 -75 572 641 
Q 231 1244 231 2094 
z
M 844 2016 
Q 844 1141 1059 588 
Q 1238 122 1591 122 
Q 1759 122 1940 273 
Q 2122 425 2216 781 
Q 2359 1319 2359 2297 
Q 2359 3022 2209 3506 
Q 2097 3866 1919 4016 
Q 1791 4119 1609 4119 
Q 1397 4119 1231 3928 
Q 1006 3669 925 3112 
Q 844 2556 844 2016 
z
" transform="scale(0.015625)"/>
       </defs>
       <use xlink:href="#TimesNewRomanPSMT-30"/>
      </g>
     </g>
    </g>
    <g id="xtick_2">
     <g id="line2d_3">
      <path d="M 237.107871 339.84 
L 237.107871 7.2 
" clip-path="url(#pb53e6dace5)" style="fill: none; stroke-dasharray: 2.96,1.28; stroke-dashoffset: 0; stroke: #b0b0b0; stroke-width: 0.8"/>
     </g>
     <g id="line2d_4">
      <g>
       <use xlink:href="#m23a75897a7" x="237.107871" y="339.84" style="stroke: #000000; stroke-width: 0.8"/>
      </g>
     </g>
     <g id="text_2">
      <!-- 20 -->
      <g transform="translate(225.107871 363.505) scale(0.24 -0.24)">
       <defs>
        <path id="TimesNewRomanPSMT-32" d="M 2934 816 
L 2638 0 
L 138 0 
L 138 116 
Q 1241 1122 1691 1759 
Q 2141 2397 2141 2925 
Q 2141 3328 1894 3587 
Q 1647 3847 1303 3847 
Q 991 3847 742 3664 
Q 494 3481 375 3128 
L 259 3128 
Q 338 3706 661 4015 
Q 984 4325 1469 4325 
Q 1984 4325 2329 3994 
Q 2675 3663 2675 3213 
Q 2675 2891 2525 2569 
Q 2294 2063 1775 1497 
Q 997 647 803 472 
L 1909 472 
Q 2247 472 2383 497 
Q 2519 522 2628 598 
Q 2738 675 2819 816 
L 2934 816 
z
" transform="scale(0.015625)"/>
       </defs>
       <use xlink:href="#TimesNewRomanPSMT-32"/>
       <use xlink:href="#TimesNewRomanPSMT-30" x="50"/>
      </g>
     </g>
    </g>
    <g id="xtick_3">
     <g id="line2d_5">
      <path d="M 373.288469 339.84 
L 373.288469 7.2 
" clip-path="url(#pb53e6dace5)" style="fill: none; stroke-dasharray: 2.96,1.28; stroke-dashoffset: 0; stroke: #b0b0b0; stroke-width: 0.8"/>
     </g>
     <g id="line2d_6">
      <g>
       <use xlink:href="#m23a75897a7" x="373.288469" y="339.84" style="stroke: #000000; stroke-width: 0.8"/>
      </g>
     </g>
     <g id="text_3">
      <!-- 40 -->
      <g transform="translate(361.288469 363.505) scale(0.24 -0.24)">
       <defs>
        <path id="TimesNewRomanPSMT-34" d="M 2978 1563 
L 2978 1119 
L 2409 1119 
L 2409 0 
L 1894 0 
L 1894 1119 
L 100 1119 
L 100 1519 
L 2066 4325 
L 2409 4325 
L 2409 1563 
L 2978 1563 
z
M 1894 1563 
L 1894 3666 
L 406 1563 
L 1894 1563 
z
" transform="scale(0.015625)"/>
       </defs>
       <use xlink:href="#TimesNewRomanPSMT-34"/>
       <use xlink:href="#TimesNewRomanPSMT-30" x="50"/>
      </g>
     </g>
    </g>
    <g id="xtick_4">
     <g id="line2d_7">
      <path d="M 509.469067 339.84 
L 509.469067 7.2 
" clip-path="url(#pb53e6dace5)" style="fill: none; stroke-dasharray: 2.96,1.28; stroke-dashoffset: 0; stroke: #b0b0b0; stroke-width: 0.8"/>
     </g>
     <g id="line2d_8">
      <g>
       <use xlink:href="#m23a75897a7" x="509.469067" y="339.84" style="stroke: #000000; stroke-width: 0.8"/>
      </g>
     </g>
     <g id="text_4">
      <!-- 60 -->
      <g transform="translate(497.469067 363.505) scale(0.24 -0.24)">
       <defs>
        <path id="TimesNewRomanPSMT-36" d="M 2869 4325 
L 2869 4209 
Q 2456 4169 2195 4045 
Q 1934 3922 1679 3669 
Q 1425 3416 1258 3105 
Q 1091 2794 978 2366 
Q 1428 2675 1881 2675 
Q 2316 2675 2634 2325 
Q 2953 1975 2953 1425 
Q 2953 894 2631 456 
Q 2244 -75 1606 -75 
Q 1172 -75 869 213 
Q 275 772 275 1663 
Q 275 2231 503 2743 
Q 731 3256 1154 3653 
Q 1578 4050 1965 4187 
Q 2353 4325 2688 4325 
L 2869 4325 
z
M 925 2138 
Q 869 1716 869 1456 
Q 869 1156 980 804 
Q 1091 453 1309 247 
Q 1469 100 1697 100 
Q 1969 100 2183 356 
Q 2397 613 2397 1088 
Q 2397 1622 2184 2012 
Q 1972 2403 1581 2403 
Q 1463 2403 1327 2353 
Q 1191 2303 925 2138 
z
" transform="scale(0.015625)"/>
       </defs>
       <use xlink:href="#TimesNewRomanPSMT-36"/>
       <use xlink:href="#TimesNewRomanPSMT-30" x="50"/>
      </g>
     </g>
    </g>
    <g id="xtick_5">
     <g id="line2d_9">
      <path d="M 645.649664 339.84 
L 645.649664 7.2 
" clip-path="url(#pb53e6dace5)" style="fill: none; stroke-dasharray: 2.96,1.28; stroke-dashoffset: 0; stroke: #b0b0b0; stroke-width: 0.8"/>
     </g>
     <g id="line2d_10">
      <g>
       <use xlink:href="#m23a75897a7" x="645.649664" y="339.84" style="stroke: #000000; stroke-width: 0.8"/>
      </g>
     </g>
     <g id="text_5">
      <!-- 80 -->
      <g transform="translate(633.649664 363.505) scale(0.24 -0.24)">
       <defs>
        <path id="TimesNewRomanPSMT-38" d="M 1228 2134 
Q 725 2547 579 2797 
Q 434 3047 434 3316 
Q 434 3728 753 4026 
Q 1072 4325 1600 4325 
Q 2113 4325 2425 4047 
Q 2738 3769 2738 3413 
Q 2738 3175 2569 2928 
Q 2400 2681 1866 2347 
Q 2416 1922 2594 1678 
Q 2831 1359 2831 1006 
Q 2831 559 2490 242 
Q 2150 -75 1597 -75 
Q 994 -75 656 303 
Q 388 606 388 966 
Q 388 1247 577 1523 
Q 766 1800 1228 2134 
z
M 1719 2469 
Q 2094 2806 2194 3001 
Q 2294 3197 2294 3444 
Q 2294 3772 2109 3958 
Q 1925 4144 1606 4144 
Q 1288 4144 1088 3959 
Q 888 3775 888 3528 
Q 888 3366 970 3203 
Q 1053 3041 1206 2894 
L 1719 2469 
z
M 1375 2016 
Q 1116 1797 991 1539 
Q 866 1281 866 981 
Q 866 578 1086 336 
Q 1306 94 1647 94 
Q 1984 94 2187 284 
Q 2391 475 2391 747 
Q 2391 972 2272 1150 
Q 2050 1481 1375 2016 
z
" transform="scale(0.015625)"/>
       </defs>
       <use xlink:href="#TimesNewRomanPSMT-38"/>
       <use xlink:href="#TimesNewRomanPSMT-30" x="50"/>
      </g>
     </g>
    </g>
    <g id="xtick_6">
     <g id="line2d_11">
      <path d="M 781.830262 339.84 
L 781.830262 7.2 
" clip-path="url(#pb53e6dace5)" style="fill: none; stroke-dasharray: 2.96,1.28; stroke-dashoffset: 0; stroke: #b0b0b0; stroke-width: 0.8"/>
     </g>
     <g id="line2d_12">
      <g>
       <use xlink:href="#m23a75897a7" x="781.830262" y="339.84" style="stroke: #000000; stroke-width: 0.8"/>
      </g>
     </g>
     <g id="text_6">
      <!-- 100 -->
      <g transform="translate(763.830262 363.505) scale(0.24 -0.24)">
       <defs>
        <path id="TimesNewRomanPSMT-31" d="M 750 3822 
L 1781 4325 
L 1884 4325 
L 1884 747 
Q 1884 391 1914 303 
Q 1944 216 2037 169 
Q 2131 122 2419 116 
L 2419 0 
L 825 0 
L 825 116 
Q 1125 122 1212 167 
Q 1300 213 1334 289 
Q 1369 366 1369 747 
L 1369 3034 
Q 1369 3497 1338 3628 
Q 1316 3728 1258 3775 
Q 1200 3822 1119 3822 
Q 1003 3822 797 3725 
L 750 3822 
z
" transform="scale(0.015625)"/>
       </defs>
       <use xlink:href="#TimesNewRomanPSMT-31"/>
       <use xlink:href="#TimesNewRomanPSMT-30" x="50"/>
       <use xlink:href="#TimesNewRomanPSMT-30" x="100"/>
      </g>
     </g>
    </g>
    <g id="xtick_7">
     <g id="line2d_13">
      <path d="M 918.01086 339.84 
L 918.01086 7.2 
" clip-path="url(#pb53e6dace5)" style="fill: none; stroke-dasharray: 2.96,1.28; stroke-dashoffset: 0; stroke: #b0b0b0; stroke-width: 0.8"/>
     </g>
     <g id="line2d_14">
      <g>
       <use xlink:href="#m23a75897a7" x="918.01086" y="339.84" style="stroke: #000000; stroke-width: 0.8"/>
      </g>
     </g>
     <g id="text_7">
      <!-- 120 -->
      <g transform="translate(900.01086 363.505) scale(0.24 -0.24)">
       <use xlink:href="#TimesNewRomanPSMT-31"/>
       <use xlink:href="#TimesNewRomanPSMT-32" x="50"/>
       <use xlink:href="#TimesNewRomanPSMT-30" x="100"/>
      </g>
     </g>
    </g>
    <g id="xtick_8">
     <g id="line2d_15">
      <path d="M 1054.191458 339.84 
L 1054.191458 7.2 
" clip-path="url(#pb53e6dace5)" style="fill: none; stroke-dasharray: 2.96,1.28; stroke-dashoffset: 0; stroke: #b0b0b0; stroke-width: 0.8"/>
     </g>
     <g id="line2d_16">
      <g>
       <use xlink:href="#m23a75897a7" x="1054.191458" y="339.84" style="stroke: #000000; stroke-width: 0.8"/>
      </g>
     </g>
     <g id="text_8">
      <!-- 140 -->
      <g transform="translate(1036.191458 363.505) scale(0.24 -0.24)">
       <use xlink:href="#TimesNewRomanPSMT-31"/>
       <use xlink:href="#TimesNewRomanPSMT-34" x="50"/>
       <use xlink:href="#TimesNewRomanPSMT-30" x="100"/>
      </g>
     </g>
    </g>
    <g id="text_9">
     <!-- Time step -->
     <g transform="translate(545.22 394.85875) scale(0.32 -0.32)">
      <defs>
       <path id="TimesNewRomanPSMT-54" d="M 3703 4238 
L 3750 3244 
L 3631 3244 
Q 3597 3506 3538 3619 
Q 3441 3800 3280 3886 
Q 3119 3972 2856 3972 
L 2259 3972 
L 2259 734 
Q 2259 344 2344 247 
Q 2463 116 2709 116 
L 2856 116 
L 2856 0 
L 1059 0 
L 1059 116 
L 1209 116 
Q 1478 116 1591 278 
Q 1659 378 1659 734 
L 1659 3972 
L 1150 3972 
Q 853 3972 728 3928 
Q 566 3869 450 3700 
Q 334 3531 313 3244 
L 194 3244 
L 244 4238 
L 3703 4238 
z
" transform="scale(0.015625)"/>
       <path id="TimesNewRomanPSMT-69" d="M 928 4444 
Q 1059 4444 1151 4351 
Q 1244 4259 1244 4128 
Q 1244 3997 1151 3903 
Q 1059 3809 928 3809 
Q 797 3809 703 3903 
Q 609 3997 609 4128 
Q 609 4259 701 4351 
Q 794 4444 928 4444 
z
M 1188 2947 
L 1188 647 
Q 1188 378 1227 289 
Q 1266 200 1342 156 
Q 1419 113 1622 113 
L 1622 0 
L 231 0 
L 231 113 
Q 441 113 512 153 
Q 584 194 626 287 
Q 669 381 669 647 
L 669 1750 
Q 669 2216 641 2353 
Q 619 2453 572 2492 
Q 525 2531 444 2531 
Q 356 2531 231 2484 
L 188 2597 
L 1050 2947 
L 1188 2947 
z
" transform="scale(0.015625)"/>
       <path id="TimesNewRomanPSMT-6d" d="M 1050 2338 
Q 1363 2650 1419 2697 
Q 1559 2816 1721 2881 
Q 1884 2947 2044 2947 
Q 2313 2947 2506 2790 
Q 2700 2634 2766 2338 
Q 3088 2713 3309 2830 
Q 3531 2947 3766 2947 
Q 3994 2947 4170 2830 
Q 4347 2713 4450 2447 
Q 4519 2266 4519 1878 
L 4519 647 
Q 4519 378 4559 278 
Q 4591 209 4675 161 
Q 4759 113 4950 113 
L 4950 0 
L 3538 0 
L 3538 113 
L 3597 113 
Q 3781 113 3884 184 
Q 3956 234 3988 344 
Q 4000 397 4000 647 
L 4000 1878 
Q 4000 2228 3916 2372 
Q 3794 2572 3525 2572 
Q 3359 2572 3192 2489 
Q 3025 2406 2788 2181 
L 2781 2147 
L 2788 2013 
L 2788 647 
Q 2788 353 2820 281 
Q 2853 209 2943 161 
Q 3034 113 3253 113 
L 3253 0 
L 1806 0 
L 1806 113 
Q 2044 113 2133 169 
Q 2222 225 2256 338 
Q 2272 391 2272 647 
L 2272 1878 
Q 2272 2228 2169 2381 
Q 2031 2581 1784 2581 
Q 1616 2581 1450 2491 
Q 1191 2353 1050 2181 
L 1050 647 
Q 1050 366 1089 281 
Q 1128 197 1204 155 
Q 1281 113 1516 113 
L 1516 0 
L 100 0 
L 100 113 
Q 297 113 375 155 
Q 453 197 493 289 
Q 534 381 534 647 
L 534 1741 
Q 534 2213 506 2350 
Q 484 2453 437 2492 
Q 391 2531 309 2531 
Q 222 2531 100 2484 
L 53 2597 
L 916 2947 
L 1050 2947 
L 1050 2338 
z
" transform="scale(0.015625)"/>
       <path id="TimesNewRomanPSMT-65" d="M 681 1784 
Q 678 1147 991 784 
Q 1303 422 1725 422 
Q 2006 422 2214 576 
Q 2422 731 2563 1106 
L 2659 1044 
Q 2594 616 2278 264 
Q 1963 -88 1488 -88 
Q 972 -88 605 314 
Q 238 716 238 1394 
Q 238 2128 614 2539 
Q 991 2950 1559 2950 
Q 2041 2950 2350 2633 
Q 2659 2316 2659 1784 
L 681 1784 
z
M 681 1966 
L 2006 1966 
Q 1991 2241 1941 2353 
Q 1863 2528 1708 2628 
Q 1553 2728 1384 2728 
Q 1125 2728 920 2526 
Q 716 2325 681 1966 
z
" transform="scale(0.015625)"/>
       <path id="TimesNewRomanPSMT-20" transform="scale(0.015625)"/>
       <path id="TimesNewRomanPSMT-73" d="M 2050 2947 
L 2050 1972 
L 1947 1972 
Q 1828 2431 1642 2597 
Q 1456 2763 1169 2763 
Q 950 2763 815 2647 
Q 681 2531 681 2391 
Q 681 2216 781 2091 
Q 878 1963 1175 1819 
L 1631 1597 
Q 2266 1288 2266 781 
Q 2266 391 1970 151 
Q 1675 -88 1309 -88 
Q 1047 -88 709 6 
Q 606 38 541 38 
Q 469 38 428 -44 
L 325 -44 
L 325 978 
L 428 978 
Q 516 541 762 319 
Q 1009 97 1316 97 
Q 1531 97 1667 223 
Q 1803 350 1803 528 
Q 1803 744 1651 891 
Q 1500 1038 1047 1263 
Q 594 1488 453 1669 
Q 313 1847 313 2119 
Q 313 2472 555 2709 
Q 797 2947 1181 2947 
Q 1350 2947 1591 2875 
Q 1750 2828 1803 2828 
Q 1853 2828 1881 2850 
Q 1909 2872 1947 2947 
L 2050 2947 
z
" transform="scale(0.015625)"/>
       <path id="TimesNewRomanPSMT-74" d="M 1031 3803 
L 1031 2863 
L 1700 2863 
L 1700 2644 
L 1031 2644 
L 1031 788 
Q 1031 509 1111 412 
Q 1191 316 1316 316 
Q 1419 316 1516 380 
Q 1613 444 1666 569 
L 1788 569 
Q 1678 263 1478 108 
Q 1278 -47 1066 -47 
Q 922 -47 784 33 
Q 647 113 581 261 
Q 516 409 516 719 
L 516 2644 
L 63 2644 
L 63 2747 
Q 234 2816 414 2980 
Q 594 3144 734 3369 
Q 806 3488 934 3803 
L 1031 3803 
z
" transform="scale(0.015625)"/>
       <path id="TimesNewRomanPSMT-70" d="M -6 2578 
L 875 2934 
L 994 2934 
L 994 2266 
Q 1216 2644 1439 2795 
Q 1663 2947 1909 2947 
Q 2341 2947 2628 2609 
Q 2981 2197 2981 1534 
Q 2981 794 2556 309 
Q 2206 -88 1675 -88 
Q 1444 -88 1275 -22 
Q 1150 25 994 166 
L 994 -706 
Q 994 -1000 1030 -1079 
Q 1066 -1159 1155 -1206 
Q 1244 -1253 1478 -1253 
L 1478 -1369 
L -22 -1369 
L -22 -1253 
L 56 -1253 
Q 228 -1256 350 -1188 
Q 409 -1153 442 -1076 
Q 475 -1000 475 -688 
L 475 2019 
Q 475 2297 450 2372 
Q 425 2447 370 2484 
Q 316 2522 222 2522 
Q 147 2522 31 2478 
L -6 2578 
z
M 994 2081 
L 994 1013 
Q 994 666 1022 556 
Q 1066 375 1236 237 
Q 1406 100 1666 100 
Q 1978 100 2172 344 
Q 2425 663 2425 1241 
Q 2425 1897 2138 2250 
Q 1938 2494 1663 2494 
Q 1513 2494 1366 2419 
Q 1253 2363 994 2081 
z
" transform="scale(0.015625)"/>
      </defs>
      <use xlink:href="#TimesNewRomanPSMT-54"/>
      <use xlink:href="#TimesNewRomanPSMT-69" x="57.583984"/>
      <use xlink:href="#TimesNewRomanPSMT-6d" x="85.367188"/>
      <use xlink:href="#TimesNewRomanPSMT-65" x="163.150391"/>
      <use xlink:href="#TimesNewRomanPSMT-20" x="207.535156"/>
      <use xlink:href="#TimesNewRomanPSMT-73" x="232.535156"/>
      <use xlink:href="#TimesNewRomanPSMT-74" x="271.451172"/>
      <use xlink:href="#TimesNewRomanPSMT-65" x="299.234375"/>
      <use xlink:href="#TimesNewRomanPSMT-70" x="343.619141"/>
     </g>
    </g>
   </g>
   <g id="matplotlib.axis_2">
    <g id="ytick_1">
     <g id="line2d_17">
      <path d="M 50.2 334.909012 
L 1166.2 334.909012 
" clip-path="url(#pb53e6dace5)" style="fill: none; stroke-dasharray: 2.96,1.28; stroke-dashoffset: 0; stroke: #b0b0b0; stroke-width: 0.8"/>
     </g>
     <g id="line2d_18">
      <defs>
       <path id="m540370790c" d="M 0 0 
L -3.5 0 
" style="stroke: #000000; stroke-width: 0.8"/>
      </defs>
      <g>
       <use xlink:href="#m540370790c" x="50.2" y="334.909012" style="stroke: #000000; stroke-width: 0.8"/>
      </g>
     </g>
     <g id="text_10">
      <!-- 50 -->
      <g transform="translate(19.2 343.241512) scale(0.24 -0.24)">
       <defs>
        <path id="TimesNewRomanPSMT-35" d="M 2778 4238 
L 2534 3706 
L 1259 3706 
L 981 3138 
Q 1809 3016 2294 2522 
Q 2709 2097 2709 1522 
Q 2709 1188 2573 903 
Q 2438 619 2231 419 
Q 2025 219 1772 97 
Q 1413 -75 1034 -75 
Q 653 -75 479 54 
Q 306 184 306 341 
Q 306 428 378 495 
Q 450 563 559 563 
Q 641 563 702 538 
Q 763 513 909 409 
Q 1144 247 1384 247 
Q 1750 247 2026 523 
Q 2303 800 2303 1197 
Q 2303 1581 2056 1914 
Q 1809 2247 1375 2428 
Q 1034 2569 447 2591 
L 1259 4238 
L 2778 4238 
z
" transform="scale(0.015625)"/>
       </defs>
       <use xlink:href="#TimesNewRomanPSMT-35"/>
       <use xlink:href="#TimesNewRomanPSMT-30" x="50"/>
      </g>
     </g>
    </g>
    <g id="ytick_2">
     <g id="line2d_19">
      <path d="M 50.2 272.013835 
L 1166.2 272.013835 
" clip-path="url(#pb53e6dace5)" style="fill: none; stroke-dasharray: 2.96,1.28; stroke-dashoffset: 0; stroke: #b0b0b0; stroke-width: 0.8"/>
     </g>
     <g id="line2d_20">
      <g>
       <use xlink:href="#m540370790c" x="50.2" y="272.013835" style="stroke: #000000; stroke-width: 0.8"/>
      </g>
     </g>
     <g id="text_11">
      <!-- 60 -->
      <g transform="translate(19.2 280.346335) scale(0.24 -0.24)">
       <use xlink:href="#TimesNewRomanPSMT-36"/>
       <use xlink:href="#TimesNewRomanPSMT-30" x="50"/>
      </g>
     </g>
    </g>
    <g id="ytick_3">
     <g id="line2d_21">
      <path d="M 50.2 209.118657 
L 1166.2 209.118657 
" clip-path="url(#pb53e6dace5)" style="fill: none; stroke-dasharray: 2.96,1.28; stroke-dashoffset: 0; stroke: #b0b0b0; stroke-width: 0.8"/>
     </g>
     <g id="line2d_22">
      <g>
       <use xlink:href="#m540370790c" x="50.2" y="209.118657" style="stroke: #000000; stroke-width: 0.8"/>
      </g>
     </g>
     <g id="text_12">
      <!-- 70 -->
      <g transform="translate(19.2 217.451157) scale(0.24 -0.24)">
       <defs>
        <path id="TimesNewRomanPSMT-37" d="M 644 4238 
L 2916 4238 
L 2916 4119 
L 1503 -88 
L 1153 -88 
L 2419 3728 
L 1253 3728 
Q 900 3728 750 3644 
Q 488 3500 328 3200 
L 238 3234 
L 644 4238 
z
" transform="scale(0.015625)"/>
       </defs>
       <use xlink:href="#TimesNewRomanPSMT-37"/>
       <use xlink:href="#TimesNewRomanPSMT-30" x="50"/>
      </g>
     </g>
    </g>
    <g id="ytick_4">
     <g id="line2d_23">
      <path d="M 50.2 146.22348 
L 1166.2 146.22348 
" clip-path="url(#pb53e6dace5)" style="fill: none; stroke-dasharray: 2.96,1.28; stroke-dashoffset: 0; stroke: #b0b0b0; stroke-width: 0.8"/>
     </g>
     <g id="line2d_24">
      <g>
       <use xlink:href="#m540370790c" x="50.2" y="146.22348" style="stroke: #000000; stroke-width: 0.8"/>
      </g>
     </g>
     <g id="text_13">
      <!-- 80 -->
      <g transform="translate(19.2 154.55598) scale(0.24 -0.24)">
       <use xlink:href="#TimesNewRomanPSMT-38"/>
       <use xlink:href="#TimesNewRomanPSMT-30" x="50"/>
      </g>
     </g>
    </g>
    <g id="ytick_5">
     <g id="line2d_25">
      <path d="M 50.2 83.328303 
L 1166.2 83.328303 
" clip-path="url(#pb53e6dace5)" style="fill: none; stroke-dasharray: 2.96,1.28; stroke-dashoffset: 0; stroke: #b0b0b0; stroke-width: 0.8"/>
     </g>
     <g id="line2d_26">
      <g>
       <use xlink:href="#m540370790c" x="50.2" y="83.328303" style="stroke: #000000; stroke-width: 0.8"/>
      </g>
     </g>
     <g id="text_14">
      <!-- 90 -->
      <g transform="translate(19.2 91.660803) scale(0.24 -0.24)">
       <defs>
        <path id="TimesNewRomanPSMT-39" d="M 338 -88 
L 338 28 
Q 744 34 1094 217 
Q 1444 400 1770 856 
Q 2097 1313 2225 1859 
Q 1734 1544 1338 1544 
Q 891 1544 572 1889 
Q 253 2234 253 2806 
Q 253 3363 572 3797 
Q 956 4325 1575 4325 
Q 2097 4325 2469 3894 
Q 2925 3359 2925 2575 
Q 2925 1869 2578 1258 
Q 2231 647 1613 244 
Q 1109 -88 516 -88 
L 338 -88 
z
M 2275 2091 
Q 2331 2497 2331 2741 
Q 2331 3044 2228 3395 
Q 2125 3747 1936 3934 
Q 1747 4122 1506 4122 
Q 1228 4122 1018 3872 
Q 809 3622 809 3128 
Q 809 2469 1088 2097 
Q 1291 1828 1588 1828 
Q 1731 1828 1928 1897 
Q 2125 1966 2275 2091 
z
" transform="scale(0.015625)"/>
       </defs>
       <use xlink:href="#TimesNewRomanPSMT-39"/>
       <use xlink:href="#TimesNewRomanPSMT-30" x="50"/>
      </g>
     </g>
    </g>
    <g id="ytick_6">
     <g id="line2d_27">
      <path d="M 50.2 20.433125 
L 1166.2 20.433125 
" clip-path="url(#pb53e6dace5)" style="fill: none; stroke-dasharray: 2.96,1.28; stroke-dashoffset: 0; stroke: #b0b0b0; stroke-width: 0.8"/>
     </g>
     <g id="line2d_28">
      <g>
       <use xlink:href="#m540370790c" x="50.2" y="20.433125" style="stroke: #000000; stroke-width: 0.8"/>
      </g>
     </g>
     <g id="text_15">
      <!-- 100 -->
      <g transform="translate(7.2 28.765625) scale(0.24 -0.24)">
       <use xlink:href="#TimesNewRomanPSMT-31"/>
       <use xlink:href="#TimesNewRomanPSMT-30" x="50"/>
       <use xlink:href="#TimesNewRomanPSMT-30" x="100"/>
      </g>
     </g>
    </g>
   </g>
   <g id="line2d_29">
    <path d="M 100.927273 157.984896 
L 107.736303 158.488596 
L 114.545333 160.311986 
L 121.354362 156.383725 
L 128.163392 153.330618 
L 134.972422 158.739607 
L 141.781452 161.393525 
L 148.590482 151.317974 
L 155.399512 136.160261 
L 162.208542 125.468052 
L 169.017572 122.952284 
L 175.826602 94.257655 
L 182.635631 79.554602 
L 189.444661 94.020464 
L 196.253691 85.215177 
L 203.062721 82.070418 
L 209.871751 69.627325 
L 216.680781 60.057106 
L 223.489811 67.862381 
L 230.298841 63.201865 
L 237.107871 65.717634 
L 243.916901 57.54129 
L 250.72593 51.880714 
L 257.53496 60.105284 
L 264.34399 64.43974 
L 271.15302 60.18777 
L 277.96205 62.572875 
L 284.77108 65.717634 
L 291.58011 59.428116 
L 298.38914 52.027693 
L 305.19817 36.15692 
L 318.816229 33.641103 
L 325.625259 31.125286 
L 332.434289 43.704322 
L 339.243319 44.962254 
L 346.052349 41.597963 
L 352.861379 33.369651 
L 359.670409 35.527978 
L 366.479439 41.188553 
L 373.288469 26.093701 
L 380.097498 22.32 
L 386.906528 24.835769 
L 393.715558 24.206827 
L 400.524588 31.754277 
L 407.333618 33.430976 
L 414.142648 36.15692 
L 420.951678 22.32 
L 427.760708 29.867402 
L 434.569738 59.428116 
L 441.378768 63.830807 
L 448.187797 47.478071 
L 454.996827 47.690693 
L 461.805857 54.469324 
L 468.614887 58.799174 
L 475.423917 65.717634 
L 482.232947 66.975566 
L 489.041977 77.038785 
L 495.851007 86.473062 
L 502.660037 90.875705 
L 509.469067 90.246763 
L 516.278096 87.102004 
L 523.087126 90.875705 
L 529.896156 103.45474 
L 536.705186 118.549592 
L 543.514216 122.694411 
L 550.323246 124.485747 
L 557.132276 118.306116 
L 563.941306 111.970004 
L 570.750336 121.006339 
L 577.559365 121.033403 
L 584.368395 115.640393 
L 591.177425 146.576699 
L 597.986455 150.522619 
L 604.795485 146.214699 
L 611.604515 146.998873 
L 618.413545 145.505045 
L 625.222575 142.465326 
L 632.031605 134.493639 
L 638.840635 125.443292 
L 645.649664 132.363719 
L 652.458694 132.642225 
L 659.267724 144.93978 
L 666.076754 159.99442 
L 672.885784 162.317288 
L 679.694814 166.66806 
L 686.503844 174.584708 
L 693.312874 176.843324 
L 700.121904 174.595361 
L 706.930933 171.429056 
L 713.739963 174.322613 
L 720.548993 183.358468 
L 727.358023 189.242127 
L 734.167053 195.468016 
L 740.976083 205.366838 
L 747.785113 208.945335 
L 754.594143 185.003545 
L 761.403173 187.033895 
L 768.212203 194.901791 
L 775.021232 197.281569 
L 781.830262 201.328018 
L 788.639292 221.453688 
L 795.448322 229.401575 
L 802.257352 234.069336 
L 809.066382 251.607691 
L 815.875412 285.787942 
L 822.684442 305.902719 
L 829.493472 304.62161 
L 836.302502 304.449295 
L 843.111531 306.124363 
L 849.920561 318.201449 
L 856.729591 320.78207 
L 863.538621 318.73063 
L 870.347651 323.315017 
L 877.156681 322.644448 
L 883.965711 319.311011 
L 890.774741 316.983896 
L 897.583771 314.828976 
L 904.3928 312.015171 
L 911.20183 303.188963 
L 918.01086 301.385871 
L 931.62892 289.435802 
L 938.43795 284.404192 
L 945.24698 274.907007 
L 952.05601 264.113861 
L 958.86504 263.711673 
L 965.67407 261.258765 
L 972.483099 257.86242 
L 979.292129 251.950474 
L 986.101159 241.39591 
L 992.910189 233.962233 
L 999.719219 229.181515 
L 1006.528249 226.792187 
L 1013.337279 228.11298 
L 1020.146309 214.716324 
L 1026.955339 209.960174 
L 1033.764369 214.302884 
L 1040.573398 197.676392 
L 1047.382428 187.257938 
L 1054.191458 177.167896 
L 1061.000488 156.12614 
L 1067.809518 141.820837 
L 1074.618548 151.255113 
L 1081.427578 148.990883 
L 1088.236608 155.791587 
L 1095.045638 150.785914 
L 1101.854667 159.795234 
L 1108.663697 156.592797 
L 1115.472727 145.38561 
L 1115.472727 145.38561 
" clip-path="url(#pb53e6dace5)" style="fill: none; stroke-dasharray: 11.1,4.8; stroke-dashoffset: 0; stroke: #d65190; stroke-width: 3"/>
   </g>
   <g id="line2d_30">
    <path d="M 100.927273 157.984896 
L 107.736303 158.835913 
L 114.545333 160.311986 
L 121.354362 156.688287 
L 128.163392 153.330618 
L 134.972422 158.739607 
L 141.781452 162.741766 
L 148.590482 151.317974 
L 155.399512 136.160261 
L 162.208542 125.468052 
L 169.017572 122.952284 
L 175.826602 94.590576 
L 182.635631 79.554602 
L 189.444661 94.020464 
L 196.253691 85.215177 
L 203.062721 82.070418 
L 209.871751 68.839504 
L 216.680781 60.057106 
L 223.489811 67.958831 
L 230.298841 63.201865 
L 237.107871 65.717634 
L 243.916901 57.54129 
L 250.72593 51.880714 
L 257.53496 60.424577 
L 264.34399 64.434797 
L 271.15302 60.174478 
L 277.96205 62.572875 
L 284.77108 65.717634 
L 291.58011 59.428116 
L 298.38914 51.63407 
L 305.19817 36.15692 
L 312.0072 35.356335 
L 318.816229 33.641103 
L 325.625259 31.125286 
L 332.434289 43.704322 
L 339.243319 44.962254 
L 346.052349 42.325851 
L 352.861379 33.333566 
L 359.670409 35.527978 
L 366.479439 41.188553 
L 373.288469 26.093701 
L 380.097498 22.32 
L 386.906528 24.835769 
L 393.715558 24.206827 
L 400.524588 31.754277 
L 407.333618 33.349593 
L 414.142648 36.15692 
L 420.951678 22.32 
L 427.760708 29.867402 
L 434.569738 59.428116 
L 441.378768 63.830807 
L 448.187797 47.478071 
L 454.996827 47.536469 
L 461.805857 54.249552 
L 468.614887 58.799174 
L 475.423917 65.717634 
L 482.232947 66.975566 
L 489.041977 77.038785 
L 495.851007 86.473062 
L 502.660037 90.875705 
L 509.469067 90.246763 
L 516.278096 87.102004 
L 523.087126 90.875705 
L 529.896156 103.45474 
L 536.705186 118.549592 
L 543.514216 123.044703 
L 550.323246 125.077357 
L 557.132276 116.801155 
L 563.941306 110.257748 
L 570.750336 119.778446 
L 577.559365 120.19918 
L 584.368395 115.459537 
L 591.177425 127.638711 
L 597.986455 132.752591 
L 604.795485 127.117352 
L 611.604515 128.071826 
L 618.413545 126.677328 
L 625.222575 123.676141 
L 632.031605 116.692709 
L 638.840635 107.60834 
L 645.649664 116.008008 
L 652.458694 115.98104 
L 659.267724 128.027008 
L 666.076754 143.747251 
L 672.885784 145.8348 
L 679.694814 151.242061 
L 686.503844 161.602885 
L 693.312874 163.099687 
L 700.121904 159.787556 
L 706.930933 156.618037 
L 713.739963 160.770965 
L 720.548993 169.933933 
L 727.358023 176.545384 
L 734.167053 181.507534 
L 740.976083 192.017544 
L 747.785113 195.48673 
L 754.594143 196.20838 
L 761.403173 196.739288 
L 768.212203 204.062887 
L 775.021232 205.176576 
L 781.830262 208.688326 
L 788.639292 225.575234 
L 795.448322 234.686618 
L 802.257352 238.963636 
L 809.066382 256.223989 
L 815.875412 288.646997 
L 822.684442 309.799838 
L 836.302502 305.236348 
L 843.111531 306.98181 
L 849.920561 319.271255 
L 856.729591 321.82546 
L 863.538621 319.498489 
L 870.347651 324.016585 
L 877.156681 322.644448 
L 883.965711 319.311011 
L 890.774741 316.983896 
L 897.583771 315.319313 
L 904.3928 312.015171 
L 911.20183 303.484312 
L 918.01086 301.385871 
L 931.62892 289.435802 
L 938.43795 284.404192 
L 945.24698 274.907007 
L 952.05601 264.685461 
L 958.86504 263.711673 
L 965.67407 261.258765 
L 972.483099 257.86242 
L 979.292129 251.706517 
L 986.101159 242.051724 
L 992.910189 233.962233 
L 999.719219 230.003453 
L 1006.528249 226.792187 
L 1013.337279 228.11298 
L 1020.146309 214.716324 
L 1026.955339 211.105821 
L 1033.764369 214.62021 
L 1040.573398 198.831924 
L 1054.191458 177.167896 
L 1061.000488 155.150841 
L 1067.809518 141.820837 
L 1074.618548 151.255113 
L 1081.427578 148.990883 
L 1088.236608 153.439688 
L 1095.045638 147.287168 
L 1101.854667 157.091891 
L 1108.663697 153.592617 
L 1115.472727 141.100963 
L 1115.472727 141.100963 
" clip-path="url(#pb53e6dace5)" style="fill: none; stroke-dasharray: 11.1,4.8; stroke-dashoffset: 0; stroke: #ff8c00; stroke-width: 3"/>
   </g>
   <g id="line2d_31">
    <path d="M 100.927273 157.984896 
L 107.736303 159.536785 
L 114.545333 160.311986 
L 121.354362 156.438092 
L 128.163392 153.330618 
L 134.972422 158.739607 
L 141.781452 161.906967 
L 148.590482 151.317974 
L 155.399512 136.160261 
L 162.208542 125.468052 
L 169.017572 122.952284 
L 175.826602 93.883274 
L 182.635631 79.554602 
L 189.444661 94.020464 
L 196.253691 85.215177 
L 203.062721 82.070418 
L 209.871751 68.401639 
L 216.680781 60.057106 
L 223.489811 67.567704 
L 230.298841 63.201865 
L 237.107871 65.717634 
L 243.916901 57.54129 
L 250.72593 51.880714 
L 257.53496 58.897976 
L 264.34399 64.940609 
L 271.15302 60.722757 
L 277.96205 62.572875 
L 284.77108 65.717634 
L 291.58011 59.428116 
L 298.38914 52.191562 
L 305.19817 36.15692 
L 312.0072 35.232053 
L 318.816229 33.641103 
L 325.625259 31.125286 
L 332.434289 43.704322 
L 339.243319 44.962254 
L 346.052349 42.172826 
L 352.861379 33.01408 
L 359.670409 35.527978 
L 366.479439 41.188553 
L 373.288469 26.093701 
L 380.097498 22.32 
L 386.906528 24.835769 
L 393.715558 24.206827 
L 400.524588 31.754277 
L 407.333618 32.624536 
L 414.142648 36.15692 
L 420.951678 22.32 
L 427.760708 29.867402 
L 434.569738 59.428116 
L 441.378768 63.830807 
L 448.187797 47.478071 
L 454.996827 47.622602 
L 461.805857 54.785259 
L 468.614887 58.799174 
L 475.423917 65.717634 
L 482.232947 66.975566 
L 489.041977 77.038785 
L 495.851007 86.473062 
L 502.660037 90.875705 
L 509.469067 90.246763 
L 516.278096 87.102004 
L 523.087126 90.875705 
L 529.896156 103.45474 
L 536.705186 118.549592 
L 543.514216 123.969282 
L 550.323246 125.333934 
L 557.132276 117.481969 
L 563.941306 110.855116 
L 570.750336 120.423943 
L 577.559365 119.815394 
L 584.368395 113.254472 
L 591.177425 129.159267 
L 597.986455 134.26902 
L 604.795485 130.175498 
L 611.604515 131.079347 
L 618.413545 130.456403 
L 625.222575 128.133823 
L 632.031605 121.617431 
L 638.840635 111.947691 
L 645.649664 119.558674 
L 652.458694 118.736783 
L 659.267724 130.126361 
L 666.076754 144.838627 
L 672.885784 147.004295 
L 679.694814 153.51205 
L 686.503844 163.065762 
L 693.312874 164.443705 
L 700.121904 161.787484 
L 706.930933 158.68951 
L 713.739963 163.49235 
L 720.548993 174.385233 
L 727.358023 179.739135 
L 734.167053 185.625673 
L 740.976083 196.617694 
L 747.785113 199.742779 
L 754.594143 198.900302 
L 761.403173 200.786649 
L 768.212203 206.779906 
L 775.021232 209.599901 
L 781.830262 212.173492 
L 788.639292 230.267612 
L 795.448322 238.191602 
L 802.257352 243.727752 
L 809.066382 262.543329 
L 815.875412 294.683249 
L 822.684442 313.351511 
L 829.493472 311.921216 
L 836.302502 309.685921 
L 843.111531 311.20067 
L 849.920561 322.052358 
L 856.729591 323.803842 
L 863.538621 321.358516 
L 870.347651 324.597374 
L 877.156681 322.644448 
L 883.965711 319.311011 
L 890.774741 316.983896 
L 897.583771 315.86001 
L 904.3928 312.015171 
L 911.20183 304.021555 
L 918.01086 301.385871 
L 931.62892 289.435802 
L 938.43795 284.404192 
L 945.24698 274.907007 
L 952.05601 264.267486 
L 958.86504 263.711673 
L 965.67407 261.258765 
L 972.483099 257.86242 
L 979.292129 251.443486 
L 986.101159 241.617362 
L 992.910189 233.962233 
L 999.719219 229.516739 
L 1006.528249 226.792187 
L 1013.337279 228.11298 
L 1020.146309 214.716324 
L 1026.955339 210.654088 
L 1033.764369 214.041892 
L 1040.573398 198.011376 
L 1047.382428 187.900604 
L 1054.191458 177.167896 
L 1061.000488 155.48333 
L 1067.809518 141.820837 
L 1074.618548 151.255113 
L 1081.427578 148.990883 
L 1088.236608 155.805647 
L 1095.045638 149.735902 
L 1101.854667 159.430786 
L 1108.663697 155.747345 
L 1115.472727 144.305799 
L 1115.472727 144.305799 
" clip-path="url(#pb53e6dace5)" style="fill: none; stroke-dasharray: 11.1,4.8; stroke-dashoffset: 0; stroke: #731a73; stroke-width: 3"/>
   </g>
   <g id="line2d_32">
    <path d="M 100.927273 157.984896 
L 114.545333 160.311986 
L 128.163392 153.330618 
L 134.972422 158.739607 
L 141.781452 162.207162 
L 148.590482 151.317974 
L 155.399512 136.160261 
L 162.208542 125.468052 
L 169.017572 122.952284 
L 175.826602 94.81793 
L 182.635631 79.554602 
L 189.444661 94.020464 
L 196.253691 85.215177 
L 203.062721 82.070418 
L 209.871751 68.984275 
L 216.680781 60.057106 
L 223.489811 68.134409 
L 230.298841 63.201865 
L 237.107871 65.717634 
L 243.916901 57.54129 
L 250.72593 51.880714 
L 257.53496 60.646413 
L 264.34399 64.332301 
L 271.15302 60.896224 
L 277.96205 62.572875 
L 284.77108 65.717634 
L 291.58011 59.428116 
L 298.38914 51.345391 
L 305.19817 36.15692 
L 312.0072 35.68964 
L 318.816229 33.641103 
L 325.625259 31.125286 
L 332.434289 43.704322 
L 339.243319 44.962254 
L 346.052349 43.508062 
L 352.861379 33.973257 
L 359.670409 35.527978 
L 366.479439 41.188553 
L 373.288469 26.093701 
L 380.097498 22.32 
L 386.906528 24.835769 
L 393.715558 24.206827 
L 400.524588 31.754277 
L 407.333618 33.417348 
L 414.142648 36.15692 
L 420.951678 22.32 
L 427.760708 29.867402 
L 434.569738 59.428116 
L 441.378768 63.830807 
L 448.187797 47.478071 
L 454.996827 48.031868 
L 461.805857 54.738377 
L 468.614887 58.799174 
L 475.423917 65.717634 
L 482.232947 66.975566 
L 489.041977 77.038785 
L 495.851007 86.473062 
L 502.660037 90.875705 
L 509.469067 90.246763 
L 516.278096 87.102004 
L 523.087126 90.875705 
L 529.896156 103.45474 
L 536.705186 118.549592 
L 543.514216 123.485495 
L 550.323246 125.02131 
L 557.132276 117.880823 
L 563.941306 111.327578 
L 570.750336 121.152982 
L 577.559365 121.309462 
L 584.368395 115.494518 
L 591.177425 125.356439 
L 597.986455 129.594733 
L 604.795485 125.699245 
L 611.604515 126.08687 
L 618.413545 125.791713 
L 625.222575 123.135539 
L 632.031605 118.264272 
L 638.840635 107.826961 
L 645.649664 114.653193 
L 652.458694 115.075559 
L 659.267724 128.992662 
L 666.076754 145.838111 
L 672.885784 148.81161 
L 679.694814 156.531951 
L 686.503844 167.056068 
L 693.312874 169.902311 
L 706.930933 165.000094 
L 713.739963 169.812243 
L 720.548993 178.883367 
L 727.358023 185.109113 
L 734.167053 190.076302 
L 740.976083 201.979945 
L 747.785113 203.426747 
L 754.594143 191.446328 
L 761.403173 192.691832 
L 768.212203 199.182983 
L 775.021232 199.814229 
L 781.830262 204.609247 
L 788.639292 223.737688 
L 795.448322 230.974674 
L 802.257352 236.382847 
L 809.066382 254.239248 
L 815.875412 285.441873 
L 822.684442 303.897705 
L 829.493472 304.319423 
L 836.302502 304.452702 
L 843.111531 306.344903 
L 849.920561 318.087796 
L 856.729591 321.417154 
L 863.538621 319.636926 
L 870.347651 323.757896 
L 877.156681 322.644448 
L 883.965711 319.311011 
L 890.774741 316.983896 
L 897.583771 315.036536 
L 904.3928 312.015171 
L 911.20183 304.280483 
L 918.01086 301.385871 
L 931.62892 289.435802 
L 938.43795 284.404192 
L 945.24698 274.907007 
L 952.05601 264.003807 
L 958.86504 263.711673 
L 965.67407 261.258765 
L 972.483099 257.86242 
L 979.292129 252.028402 
L 986.101159 242.088097 
L 992.910189 233.962233 
L 999.719219 229.348311 
L 1006.528249 226.792187 
L 1013.337279 228.11298 
L 1020.146309 214.716324 
L 1026.955339 210.200868 
L 1033.764369 215.08653 
L 1040.573398 197.569768 
L 1047.382428 187.821957 
L 1054.191458 177.167896 
L 1061.000488 156.409877 
L 1067.809518 141.820837 
L 1074.618548 151.255113 
L 1081.427578 148.990883 
L 1088.236608 155.943893 
L 1095.045638 150.882988 
L 1101.854667 159.804207 
L 1108.663697 158.273527 
L 1115.472727 147.942694 
L 1115.472727 147.942694 
" clip-path="url(#pb53e6dace5)" style="fill: none; stroke-dasharray: 11.1,4.8; stroke-dashoffset: 0; stroke: #f24c3d; stroke-width: 3"/>
   </g>
   <g id="line2d_33">
    <path d="M 100.927273 157.984896 
L 107.736303 158.362251 
L 114.545333 160.311986 
L 121.354362 156.286699 
L 128.163392 153.330618 
L 134.972422 158.739607 
L 141.781452 164.651769 
L 148.590482 151.317974 
L 155.399512 136.160261 
L 162.208542 125.468052 
L 169.017572 122.952284 
L 175.826602 94.649454 
L 182.635631 79.554602 
L 189.444661 94.020464 
L 196.253691 85.215177 
L 203.062721 82.070418 
L 209.871751 67.604508 
L 216.680781 60.057106 
L 223.489811 68.862393 
L 230.298841 63.201865 
L 237.107871 65.717634 
L 243.916901 57.54129 
L 250.72593 51.880714 
L 257.53496 60.686049 
L 264.34399 63.201865 
L 271.15302 58.170232 
L 277.96205 62.572875 
L 284.77108 65.717634 
L 291.58011 59.428116 
L 298.38914 51.251772 
L 305.19817 36.15692 
L 318.816229 33.641103 
L 325.625259 31.125286 
L 332.434289 43.704322 
L 339.243319 44.962254 
L 346.052349 43.07538 
L 352.861379 32.383219 
L 359.670409 35.527978 
L 366.479439 41.188553 
L 373.288469 26.093701 
L 380.097498 22.32 
L 386.906528 24.835769 
L 393.715558 24.206827 
L 400.524588 31.754277 
L 407.333618 34.270045 
L 414.142648 36.15692 
L 420.951678 22.32 
L 427.760708 29.867402 
L 434.569738 59.428116 
L 441.378768 63.830807 
L 448.187797 47.478071 
L 454.996827 46.220139 
L 461.805857 53.767589 
L 468.614887 58.799174 
L 475.423917 65.717634 
L 482.232947 66.975566 
L 489.041977 77.038785 
L 495.851007 86.473062 
L 502.660037 90.875705 
L 509.469067 90.246763 
L 516.278096 87.102004 
L 523.087126 90.875705 
L 529.896156 103.45474 
L 536.705186 118.549592 
L 543.514216 123.581226 
L 550.323246 124.83911 
L 557.132276 116.662766 
L 563.941306 109.744258 
L 570.750336 119.807525 
L 577.559365 119.807525 
L 584.368395 114.146949 
L 591.177425 114.775891 
L 597.986455 119.807525 
L 604.795485 114.146949 
L 611.604515 115.404834 
L 618.413545 114.775891 
L 625.222575 112.260075 
L 632.031605 105.341615 
L 638.840635 95.278396 
L 645.649664 102.196856 
L 652.458694 101.567914 
L 659.267724 112.889017 
L 666.076754 130.499686 
L 672.885784 132.38656 
L 679.694814 138.047088 
L 686.503844 149.053744 
L 693.312874 150.751941 
L 700.121904 147.481364 
L 706.930933 143.078721 
L 713.739963 147.858768 
L 720.548993 158.299343 
L 727.358023 165.092033 
L 734.167053 169.305999 
L 740.976083 182.513976 
L 747.785113 186.602172 
L 754.594143 195.093012 
L 761.403173 195.784863 
L 768.212203 203.709668 
L 775.021232 205.219139 
L 781.830262 208.489715 
L 788.639292 227.672716 
L 795.448322 237.169901 
L 802.257352 241.258097 
L 809.066382 258.491362 
L 815.875412 287.360249 
L 822.684442 306.983562 
L 829.493472 306.228803 
L 836.302502 305.59986 
L 843.111531 307.989884 
L 849.920561 320.002862 
L 856.729591 322.329977 
L 863.538621 320.317333 
L 870.347651 324.72 
L 877.156681 322.644448 
L 883.965711 319.311011 
L 890.774741 316.983896 
L 897.583771 315.851781 
L 904.3928 312.015171 
L 911.20183 304.467745 
L 918.01086 301.385871 
L 931.62892 289.435802 
L 938.43795 284.404192 
L 945.24698 274.907007 
L 952.05601 264.592202 
L 958.86504 263.711673 
L 965.67407 261.258765 
L 972.483099 257.86242 
L 979.292129 251.698695 
L 986.101159 241.76127 
L 992.910189 233.962233 
L 999.719219 229.748268 
L 1006.528249 226.792187 
L 1013.337279 228.11298 
L 1020.146309 214.716324 
L 1026.955339 210.879715 
L 1033.764369 214.401829 
L 1040.573398 197.860415 
L 1047.382428 187.860105 
L 1054.191458 177.167896 
L 1061.000488 156.726963 
L 1067.809518 141.820837 
L 1074.618548 151.255113 
L 1081.427578 148.990883 
L 1088.236608 151.443791 
L 1095.045638 144.336606 
L 1101.854667 152.890354 
L 1108.663697 148.424802 
L 1115.472727 133.644445 
L 1115.472727 133.644445 
" clip-path="url(#pb53e6dace5)" style="fill: none; stroke-dasharray: 11.1,4.8; stroke-dashoffset: 0; stroke: #068ff8; stroke-width: 3"/>
   </g>
   <g id="patch_3">
    <path d="M 50.2 339.84 
L 50.2 7.2 
" style="fill: none; stroke: #000000; stroke-width: 0.8; stroke-linejoin: miter; stroke-linecap: square"/>
   </g>
   <g id="patch_4">
    <path d="M 1166.2 339.84 
L 1166.2 7.2 
" style="fill: none; stroke: #000000; stroke-width: 0.8; stroke-linejoin: miter; stroke-linecap: square"/>
   </g>
   <g id="patch_5">
    <path d="M 50.2 339.84 
L 1166.2 339.84 
" style="fill: none; stroke: #000000; stroke-width: 0.8; stroke-linejoin: miter; stroke-linecap: square"/>
   </g>
   <g id="patch_6">
    <path d="M 50.2 7.2 
L 1166.2 7.2 
" style="fill: none; stroke: #000000; stroke-width: 0.8; stroke-linejoin: miter; stroke-linecap: square"/>
   </g>
   <g id="PathCollection_1">
    <defs>
     <path id="meb5c69d512" d="M 0 3.535534 
C 0.937635 3.535534 1.836992 3.163008 2.5 2.5 
C 3.163008 1.836992 3.535534 0.937635 3.535534 0 
C 3.535534 -0.937635 3.163008 -1.836992 2.5 -2.5 
C 1.836992 -3.163008 0.937635 -3.535534 0 -3.535534 
C -0.937635 -3.535534 -1.836992 -3.163008 -2.5 -2.5 
C -3.163008 -1.836992 -3.535534 -0.937635 -3.535534 0 
C -3.535534 0.937635 -3.163008 1.836992 -2.5 2.5 
C -1.836992 3.163008 -0.937635 3.535534 0 3.535534 
z
" style="stroke: #22a699"/>
    </defs>
    <g clip-path="url(#pb53e6dace5)">
     <use xlink:href="#meb5c69d512" x="100.927273" y="157.984896" style="fill: #22a699; stroke: #22a699"/>
     <use xlink:href="#meb5c69d512" x="114.545333" y="160.311986" style="fill: #22a699; stroke: #22a699"/>
     <use xlink:href="#meb5c69d512" x="128.163392" y="153.330618" style="fill: #22a699; stroke: #22a699"/>
     <use xlink:href="#meb5c69d512" x="134.972422" y="158.739607" style="fill: #22a699; stroke: #22a699"/>
     <use xlink:href="#meb5c69d512" x="148.590482" y="151.317974" style="fill: #22a699; stroke: #22a699"/>
     <use xlink:href="#meb5c69d512" x="155.399512" y="136.160261" style="fill: #22a699; stroke: #22a699"/>
     <use xlink:href="#meb5c69d512" x="162.208542" y="125.468052" style="fill: #22a699; stroke: #22a699"/>
     <use xlink:href="#meb5c69d512" x="169.017572" y="122.952284" style="fill: #22a699; stroke: #22a699"/>
     <use xlink:href="#meb5c69d512" x="182.635631" y="79.554602" style="fill: #22a699; stroke: #22a699"/>
     <use xlink:href="#meb5c69d512" x="189.444661" y="94.020464" style="fill: #22a699; stroke: #22a699"/>
     <use xlink:href="#meb5c69d512" x="196.253691" y="85.215177" style="fill: #22a699; stroke: #22a699"/>
     <use xlink:href="#meb5c69d512" x="203.062721" y="82.070418" style="fill: #22a699; stroke: #22a699"/>
     <use xlink:href="#meb5c69d512" x="216.680781" y="60.057106" style="fill: #22a699; stroke: #22a699"/>
     <use xlink:href="#meb5c69d512" x="230.298841" y="63.201865" style="fill: #22a699; stroke: #22a699"/>
     <use xlink:href="#meb5c69d512" x="237.107871" y="65.717634" style="fill: #22a699; stroke: #22a699"/>
     <use xlink:href="#meb5c69d512" x="243.916901" y="57.54129" style="fill: #22a699; stroke: #22a699"/>
     <use xlink:href="#meb5c69d512" x="250.72593" y="51.880714" style="fill: #22a699; stroke: #22a699"/>
     <use xlink:href="#meb5c69d512" x="277.96205" y="62.572875" style="fill: #22a699; stroke: #22a699"/>
     <use xlink:href="#meb5c69d512" x="284.77108" y="65.717634" style="fill: #22a699; stroke: #22a699"/>
     <use xlink:href="#meb5c69d512" x="291.58011" y="59.428116" style="fill: #22a699; stroke: #22a699"/>
     <use xlink:href="#meb5c69d512" x="305.19817" y="36.15692" style="fill: #22a699; stroke: #22a699"/>
     <use xlink:href="#meb5c69d512" x="318.816229" y="33.641103" style="fill: #22a699; stroke: #22a699"/>
     <use xlink:href="#meb5c69d512" x="325.625259" y="31.125286" style="fill: #22a699; stroke: #22a699"/>
     <use xlink:href="#meb5c69d512" x="332.434289" y="43.704322" style="fill: #22a699; stroke: #22a699"/>
     <use xlink:href="#meb5c69d512" x="339.243319" y="44.962254" style="fill: #22a699; stroke: #22a699"/>
     <use xlink:href="#meb5c69d512" x="359.670409" y="35.527978" style="fill: #22a699; stroke: #22a699"/>
     <use xlink:href="#meb5c69d512" x="366.479439" y="41.188553" style="fill: #22a699; stroke: #22a699"/>
     <use xlink:href="#meb5c69d512" x="373.288469" y="26.093701" style="fill: #22a699; stroke: #22a699"/>
     <use xlink:href="#meb5c69d512" x="380.097498" y="22.32" style="fill: #22a699; stroke: #22a699"/>
     <use xlink:href="#meb5c69d512" x="386.906528" y="24.835769" style="fill: #22a699; stroke: #22a699"/>
     <use xlink:href="#meb5c69d512" x="393.715558" y="24.206827" style="fill: #22a699; stroke: #22a699"/>
     <use xlink:href="#meb5c69d512" x="400.524588" y="31.754277" style="fill: #22a699; stroke: #22a699"/>
     <use xlink:href="#meb5c69d512" x="414.142648" y="36.15692" style="fill: #22a699; stroke: #22a699"/>
     <use xlink:href="#meb5c69d512" x="420.951678" y="22.32" style="fill: #22a699; stroke: #22a699"/>
     <use xlink:href="#meb5c69d512" x="427.760708" y="29.867402" style="fill: #22a699; stroke: #22a699"/>
     <use xlink:href="#meb5c69d512" x="434.569738" y="59.428116" style="fill: #22a699; stroke: #22a699"/>
     <use xlink:href="#meb5c69d512" x="441.378768" y="63.830807" style="fill: #22a699; stroke: #22a699"/>
     <use xlink:href="#meb5c69d512" x="448.187797" y="47.478071" style="fill: #22a699; stroke: #22a699"/>
     <use xlink:href="#meb5c69d512" x="468.614887" y="58.799174" style="fill: #22a699; stroke: #22a699"/>
     <use xlink:href="#meb5c69d512" x="475.423917" y="65.717634" style="fill: #22a699; stroke: #22a699"/>
     <use xlink:href="#meb5c69d512" x="482.232947" y="66.975566" style="fill: #22a699; stroke: #22a699"/>
     <use xlink:href="#meb5c69d512" x="489.041977" y="77.038785" style="fill: #22a699; stroke: #22a699"/>
     <use xlink:href="#meb5c69d512" x="495.851007" y="86.473062" style="fill: #22a699; stroke: #22a699"/>
     <use xlink:href="#meb5c69d512" x="502.660037" y="90.875705" style="fill: #22a699; stroke: #22a699"/>
     <use xlink:href="#meb5c69d512" x="509.469067" y="90.246763" style="fill: #22a699; stroke: #22a699"/>
     <use xlink:href="#meb5c69d512" x="516.278096" y="87.102004" style="fill: #22a699; stroke: #22a699"/>
     <use xlink:href="#meb5c69d512" x="523.087126" y="90.875705" style="fill: #22a699; stroke: #22a699"/>
     <use xlink:href="#meb5c69d512" x="529.896156" y="103.45474" style="fill: #22a699; stroke: #22a699"/>
     <use xlink:href="#meb5c69d512" x="536.705186" y="118.549592" style="fill: #22a699; stroke: #22a699"/>
     <use xlink:href="#meb5c69d512" x="877.156681" y="322.644448" style="fill: #22a699; stroke: #22a699"/>
     <use xlink:href="#meb5c69d512" x="883.965711" y="319.311011" style="fill: #22a699; stroke: #22a699"/>
     <use xlink:href="#meb5c69d512" x="890.774741" y="316.983896" style="fill: #22a699; stroke: #22a699"/>
     <use xlink:href="#meb5c69d512" x="904.3928" y="312.015171" style="fill: #22a699; stroke: #22a699"/>
     <use xlink:href="#meb5c69d512" x="918.01086" y="301.385871" style="fill: #22a699; stroke: #22a699"/>
     <use xlink:href="#meb5c69d512" x="924.81989" y="295.410848" style="fill: #22a699; stroke: #22a699"/>
     <use xlink:href="#meb5c69d512" x="931.62892" y="289.435802" style="fill: #22a699; stroke: #22a699"/>
     <use xlink:href="#meb5c69d512" x="938.43795" y="284.404192" style="fill: #22a699; stroke: #22a699"/>
     <use xlink:href="#meb5c69d512" x="945.24698" y="274.907007" style="fill: #22a699; stroke: #22a699"/>
     <use xlink:href="#meb5c69d512" x="958.86504" y="263.711673" style="fill: #22a699; stroke: #22a699"/>
     <use xlink:href="#meb5c69d512" x="965.67407" y="261.258765" style="fill: #22a699; stroke: #22a699"/>
     <use xlink:href="#meb5c69d512" x="972.483099" y="257.86242" style="fill: #22a699; stroke: #22a699"/>
     <use xlink:href="#meb5c69d512" x="992.910189" y="233.962233" style="fill: #22a699; stroke: #22a699"/>
     <use xlink:href="#meb5c69d512" x="1006.528249" y="226.792187" style="fill: #22a699; stroke: #22a699"/>
     <use xlink:href="#meb5c69d512" x="1013.337279" y="228.11298" style="fill: #22a699; stroke: #22a699"/>
     <use xlink:href="#meb5c69d512" x="1020.146309" y="214.716324" style="fill: #22a699; stroke: #22a699"/>
     <use xlink:href="#meb5c69d512" x="1054.191458" y="177.167896" style="fill: #22a699; stroke: #22a699"/>
     <use xlink:href="#meb5c69d512" x="1067.809518" y="141.820837" style="fill: #22a699; stroke: #22a699"/>
     <use xlink:href="#meb5c69d512" x="1074.618548" y="151.255113" style="fill: #22a699; stroke: #22a699"/>
     <use xlink:href="#meb5c69d512" x="1081.427578" y="148.990883" style="fill: #22a699; stroke: #22a699"/>
    </g>
   </g>
   <g id="legend_1">
    <g id="patch_7">
     <path d="M 872.545 323.84 
L 1143.8 323.84 
Q 1150.2 323.84 1150.2 317.44 
L 1150.2 49.17 
Q 1150.2 42.77 1143.8 42.77 
L 872.545 42.77 
Q 866.145 42.77 866.145 49.17 
L 866.145 317.44 
Q 866.145 323.84 872.545 323.84 
z
" style="fill: #ffffff; opacity: 0.8; stroke: #cccccc; stroke-linejoin: miter"/>
    </g>
    <g id="PathCollection_2">
     <g>
      <use xlink:href="#meb5c69d512" x="910.945" y="69.57" style="fill: #22a699; stroke: #22a699"/>
     </g>
    </g>
    <g id="text_16">
     <!-- Observed -->
     <g transform="translate(968.545 77.97) scale(0.32 -0.32)">
      <defs>
       <path id="TimesNewRomanPSMT-4f" d="M 2341 4334 
Q 3166 4334 3770 3707 
Q 4375 3081 4375 2144 
Q 4375 1178 3765 540 
Q 3156 -97 2291 -97 
Q 1416 -97 820 525 
Q 225 1147 225 2134 
Q 225 3144 913 3781 
Q 1509 4334 2341 4334 
z
M 2281 4106 
Q 1713 4106 1369 3684 
Q 941 3159 941 2147 
Q 941 1109 1384 550 
Q 1725 125 2284 125 
Q 2881 125 3270 590 
Q 3659 1056 3659 2059 
Q 3659 3147 3231 3681 
Q 2888 4106 2281 4106 
z
" transform="scale(0.015625)"/>
       <path id="TimesNewRomanPSMT-62" d="M 984 2369 
Q 1400 2947 1881 2947 
Q 2322 2947 2650 2570 
Q 2978 2194 2978 1541 
Q 2978 778 2472 313 
Q 2038 -88 1503 -88 
Q 1253 -88 995 3 
Q 738 94 469 275 
L 469 3241 
Q 469 3728 445 3840 
Q 422 3953 372 3993 
Q 322 4034 247 4034 
Q 159 4034 28 3984 
L -16 4094 
L 844 4444 
L 984 4444 
L 984 2369 
z
M 984 2169 
L 984 456 
Q 1144 300 1314 220 
Q 1484 141 1663 141 
Q 1947 141 2192 453 
Q 2438 766 2438 1363 
Q 2438 1913 2192 2208 
Q 1947 2503 1634 2503 
Q 1469 2503 1303 2419 
Q 1178 2356 984 2169 
z
" transform="scale(0.015625)"/>
       <path id="TimesNewRomanPSMT-72" d="M 1038 2947 
L 1038 2303 
Q 1397 2947 1775 2947 
Q 1947 2947 2059 2842 
Q 2172 2738 2172 2600 
Q 2172 2478 2090 2393 
Q 2009 2309 1897 2309 
Q 1788 2309 1652 2417 
Q 1516 2525 1450 2525 
Q 1394 2525 1328 2463 
Q 1188 2334 1038 2041 
L 1038 669 
Q 1038 431 1097 309 
Q 1138 225 1241 169 
Q 1344 113 1538 113 
L 1538 0 
L 72 0 
L 72 113 
Q 291 113 397 181 
Q 475 231 506 341 
Q 522 394 522 644 
L 522 1753 
Q 522 2253 501 2348 
Q 481 2444 426 2487 
Q 372 2531 291 2531 
Q 194 2531 72 2484 
L 41 2597 
L 906 2947 
L 1038 2947 
z
" transform="scale(0.015625)"/>
       <path id="TimesNewRomanPSMT-76" d="M 53 2863 
L 1400 2863 
L 1400 2747 
L 1313 2747 
Q 1191 2747 1127 2687 
Q 1063 2628 1063 2528 
Q 1063 2419 1128 2269 
L 1794 688 
L 2463 2328 
Q 2534 2503 2534 2594 
Q 2534 2638 2509 2666 
Q 2475 2713 2422 2730 
Q 2369 2747 2206 2747 
L 2206 2863 
L 3141 2863 
L 3141 2747 
Q 2978 2734 2916 2681 
Q 2806 2588 2719 2369 
L 1703 -88 
L 1575 -88 
L 553 2328 
Q 484 2497 421 2570 
Q 359 2644 263 2694 
Q 209 2722 53 2747 
L 53 2863 
z
" transform="scale(0.015625)"/>
       <path id="TimesNewRomanPSMT-64" d="M 2222 322 
Q 2013 103 1813 7 
Q 1613 -88 1381 -88 
Q 913 -88 563 304 
Q 213 697 213 1313 
Q 213 1928 600 2439 
Q 988 2950 1597 2950 
Q 1975 2950 2222 2709 
L 2222 3238 
Q 2222 3728 2198 3840 
Q 2175 3953 2125 3993 
Q 2075 4034 2000 4034 
Q 1919 4034 1784 3984 
L 1744 4094 
L 2597 4444 
L 2738 4444 
L 2738 1134 
Q 2738 631 2761 520 
Q 2784 409 2836 365 
Q 2888 322 2956 322 
Q 3041 322 3181 375 
L 3216 266 
L 2366 -88 
L 2222 -88 
L 2222 322 
z
M 2222 541 
L 2222 2016 
Q 2203 2228 2109 2403 
Q 2016 2578 1861 2667 
Q 1706 2756 1559 2756 
Q 1284 2756 1069 2509 
Q 784 2184 784 1559 
Q 784 928 1059 592 
Q 1334 256 1672 256 
Q 1956 256 2222 541 
z
" transform="scale(0.015625)"/>
      </defs>
      <use xlink:href="#TimesNewRomanPSMT-4f"/>
      <use xlink:href="#TimesNewRomanPSMT-62" x="72.216797"/>
      <use xlink:href="#TimesNewRomanPSMT-73" x="122.216797"/>
      <use xlink:href="#TimesNewRomanPSMT-65" x="161.132812"/>
      <use xlink:href="#TimesNewRomanPSMT-72" x="205.517578"/>
      <use xlink:href="#TimesNewRomanPSMT-76" x="238.818359"/>
      <use xlink:href="#TimesNewRomanPSMT-65" x="288.818359"/>
      <use xlink:href="#TimesNewRomanPSMT-64" x="333.203125"/>
     </g>
    </g>
    <g id="line2d_34">
     <path d="M 878.945 112.015 
L 910.945 112.015 
L 942.945 112.015 
" style="fill: none; stroke-dasharray: 11.1,4.8; stroke-dashoffset: 0; stroke: #d65190; stroke-width: 3"/>
    </g>
    <g id="text_17">
     <!-- w/o cons -->
     <g transform="translate(968.545 123.215) scale(0.32 -0.32)">
      <defs>
       <path id="TimesNewRomanPSMT-77" d="M 41 2863 
L 1241 2863 
L 1241 2747 
Q 1075 2734 1023 2687 
Q 972 2641 972 2553 
Q 972 2456 1025 2319 
L 1638 672 
L 2253 2013 
L 2091 2434 
Q 2016 2622 1894 2694 
Q 1825 2738 1638 2747 
L 1638 2863 
L 3000 2863 
L 3000 2747 
Q 2775 2738 2681 2666 
Q 2619 2616 2619 2506 
Q 2619 2444 2644 2378 
L 3294 734 
L 3897 2319 
Q 3959 2488 3959 2588 
Q 3959 2647 3898 2694 
Q 3838 2741 3659 2747 
L 3659 2863 
L 4563 2863 
L 4563 2747 
Q 4291 2706 4163 2378 
L 3206 -88 
L 3078 -88 
L 2363 1741 
L 1528 -88 
L 1413 -88 
L 494 2319 
Q 403 2547 315 2626 
Q 228 2706 41 2747 
L 41 2863 
z
" transform="scale(0.015625)"/>
       <path id="TimesNewRomanPSMT-2f" d="M 1794 4444 
L 259 -88 
L 9 -88 
L 1544 4444 
L 1794 4444 
z
" transform="scale(0.015625)"/>
       <path id="TimesNewRomanPSMT-6f" d="M 1600 2947 
Q 2250 2947 2644 2453 
Q 2978 2031 2978 1484 
Q 2978 1100 2793 706 
Q 2609 313 2286 112 
Q 1963 -88 1566 -88 
Q 919 -88 538 428 
Q 216 863 216 1403 
Q 216 1797 411 2186 
Q 606 2575 925 2761 
Q 1244 2947 1600 2947 
z
M 1503 2744 
Q 1338 2744 1170 2645 
Q 1003 2547 900 2300 
Q 797 2053 797 1666 
Q 797 1041 1045 587 
Q 1294 134 1700 134 
Q 2003 134 2200 384 
Q 2397 634 2397 1244 
Q 2397 2006 2069 2444 
Q 1847 2744 1503 2744 
z
" transform="scale(0.015625)"/>
       <path id="TimesNewRomanPSMT-63" d="M 2631 1088 
Q 2516 522 2178 217 
Q 1841 -88 1431 -88 
Q 944 -88 581 321 
Q 219 731 219 1428 
Q 219 2103 620 2525 
Q 1022 2947 1584 2947 
Q 2006 2947 2278 2723 
Q 2550 2500 2550 2259 
Q 2550 2141 2473 2067 
Q 2397 1994 2259 1994 
Q 2075 1994 1981 2113 
Q 1928 2178 1911 2362 
Q 1894 2547 1784 2644 
Q 1675 2738 1481 2738 
Q 1169 2738 978 2506 
Q 725 2200 725 1697 
Q 725 1184 976 792 
Q 1228 400 1656 400 
Q 1963 400 2206 609 
Q 2378 753 2541 1131 
L 2631 1088 
z
" transform="scale(0.015625)"/>
       <path id="TimesNewRomanPSMT-6e" d="M 1034 2341 
Q 1538 2947 1994 2947 
Q 2228 2947 2397 2830 
Q 2566 2713 2666 2444 
Q 2734 2256 2734 1869 
L 2734 647 
Q 2734 375 2778 278 
Q 2813 200 2889 156 
Q 2966 113 3172 113 
L 3172 0 
L 1756 0 
L 1756 113 
L 1816 113 
Q 2016 113 2095 173 
Q 2175 234 2206 353 
Q 2219 400 2219 647 
L 2219 1819 
Q 2219 2209 2117 2386 
Q 2016 2563 1775 2563 
Q 1403 2563 1034 2156 
L 1034 647 
Q 1034 356 1069 288 
Q 1113 197 1189 155 
Q 1266 113 1500 113 
L 1500 0 
L 84 0 
L 84 113 
L 147 113 
Q 366 113 442 223 
Q 519 334 519 647 
L 519 1709 
Q 519 2225 495 2337 
Q 472 2450 423 2490 
Q 375 2531 294 2531 
Q 206 2531 84 2484 
L 38 2597 
L 900 2947 
L 1034 2947 
L 1034 2341 
z
" transform="scale(0.015625)"/>
      </defs>
      <use xlink:href="#TimesNewRomanPSMT-77"/>
      <use xlink:href="#TimesNewRomanPSMT-2f" x="72.216797"/>
      <use xlink:href="#TimesNewRomanPSMT-6f" x="100"/>
      <use xlink:href="#TimesNewRomanPSMT-20" x="150"/>
      <use xlink:href="#TimesNewRomanPSMT-63" x="175"/>
      <use xlink:href="#TimesNewRomanPSMT-6f" x="219.384766"/>
      <use xlink:href="#TimesNewRomanPSMT-6e" x="269.384766"/>
      <use xlink:href="#TimesNewRomanPSMT-73" x="319.384766"/>
     </g>
    </g>
    <g id="line2d_35">
     <path d="M 878.945 157.26 
L 910.945 157.26 
L 942.945 157.26 
" style="fill: none; stroke-dasharray: 11.1,4.8; stroke-dashoffset: 0; stroke: #ff8c00; stroke-width: 3"/>
    </g>
    <g id="text_18">
     <!-- w/o intra -->
     <g transform="translate(968.545 168.46) scale(0.32 -0.32)">
      <defs>
       <path id="TimesNewRomanPSMT-61" d="M 1822 413 
Q 1381 72 1269 19 
Q 1100 -59 909 -59 
Q 613 -59 420 144 
Q 228 347 228 678 
Q 228 888 322 1041 
Q 450 1253 767 1440 
Q 1084 1628 1822 1897 
L 1822 2009 
Q 1822 2438 1686 2597 
Q 1550 2756 1291 2756 
Q 1094 2756 978 2650 
Q 859 2544 859 2406 
L 866 2225 
Q 866 2081 792 2003 
Q 719 1925 600 1925 
Q 484 1925 411 2006 
Q 338 2088 338 2228 
Q 338 2497 613 2722 
Q 888 2947 1384 2947 
Q 1766 2947 2009 2819 
Q 2194 2722 2281 2516 
Q 2338 2381 2338 1966 
L 2338 994 
Q 2338 584 2353 492 
Q 2369 400 2405 369 
Q 2441 338 2488 338 
Q 2538 338 2575 359 
Q 2641 400 2828 588 
L 2828 413 
Q 2478 -56 2159 -56 
Q 2006 -56 1915 50 
Q 1825 156 1822 413 
z
M 1822 616 
L 1822 1706 
Q 1350 1519 1213 1441 
Q 966 1303 859 1153 
Q 753 1003 753 825 
Q 753 600 887 451 
Q 1022 303 1197 303 
Q 1434 303 1822 616 
z
" transform="scale(0.015625)"/>
      </defs>
      <use xlink:href="#TimesNewRomanPSMT-77"/>
      <use xlink:href="#TimesNewRomanPSMT-2f" x="72.216797"/>
      <use xlink:href="#TimesNewRomanPSMT-6f" x="100"/>
      <use xlink:href="#TimesNewRomanPSMT-20" x="150"/>
      <use xlink:href="#TimesNewRomanPSMT-69" x="175"/>
      <use xlink:href="#TimesNewRomanPSMT-6e" x="202.783203"/>
      <use xlink:href="#TimesNewRomanPSMT-74" x="252.783203"/>
      <use xlink:href="#TimesNewRomanPSMT-72" x="280.566406"/>
      <use xlink:href="#TimesNewRomanPSMT-61" x="313.867188"/>
     </g>
    </g>
    <g id="line2d_36">
     <path d="M 878.945 202.505 
L 910.945 202.505 
L 942.945 202.505 
" style="fill: none; stroke-dasharray: 11.1,4.8; stroke-dashoffset: 0; stroke: #731a73; stroke-width: 3"/>
    </g>
    <g id="text_19">
     <!-- w/o inter -->
     <g transform="translate(968.545 213.705) scale(0.32 -0.32)">
      <use xlink:href="#TimesNewRomanPSMT-77"/>
      <use xlink:href="#TimesNewRomanPSMT-2f" x="72.216797"/>
      <use xlink:href="#TimesNewRomanPSMT-6f" x="100"/>
      <use xlink:href="#TimesNewRomanPSMT-20" x="150"/>
      <use xlink:href="#TimesNewRomanPSMT-69" x="175"/>
      <use xlink:href="#TimesNewRomanPSMT-6e" x="202.783203"/>
      <use xlink:href="#TimesNewRomanPSMT-74" x="252.783203"/>
      <use xlink:href="#TimesNewRomanPSMT-65" x="280.566406"/>
      <use xlink:href="#TimesNewRomanPSMT-72" x="324.951172"/>
     </g>
    </g>
    <g id="line2d_37">
     <path d="M 878.945 247.75 
L 910.945 247.75 
L 942.945 247.75 
" style="fill: none; stroke-dasharray: 11.1,4.8; stroke-dashoffset: 0; stroke: #f24c3d; stroke-width: 3"/>
    </g>
    <g id="text_20">
     <!-- MTSCI -->
     <g transform="translate(968.545 258.95) scale(0.32 -0.32)">
      <defs>
       <path id="TimesNewRomanPSMT-4d" d="M 2619 0 
L 981 3566 
L 981 734 
Q 981 344 1066 247 
Q 1181 116 1431 116 
L 1581 116 
L 1581 0 
L 106 0 
L 106 116 
L 256 116 
Q 525 116 638 278 
Q 706 378 706 734 
L 706 3503 
Q 706 3784 644 3909 
Q 600 4000 483 4061 
Q 366 4122 106 4122 
L 106 4238 
L 1306 4238 
L 2844 922 
L 4356 4238 
L 5556 4238 
L 5556 4122 
L 5409 4122 
Q 5138 4122 5025 3959 
Q 4956 3859 4956 3503 
L 4956 734 
Q 4956 344 5044 247 
Q 5159 116 5409 116 
L 5556 116 
L 5556 0 
L 3756 0 
L 3756 116 
L 3906 116 
Q 4178 116 4288 278 
Q 4356 378 4356 734 
L 4356 3566 
L 2722 0 
L 2619 0 
z
" transform="scale(0.015625)"/>
       <path id="TimesNewRomanPSMT-53" d="M 2934 4334 
L 2934 2869 
L 2819 2869 
Q 2763 3291 2617 3541 
Q 2472 3791 2203 3937 
Q 1934 4084 1647 4084 
Q 1322 4084 1109 3886 
Q 897 3688 897 3434 
Q 897 3241 1031 3081 
Q 1225 2847 1953 2456 
Q 2547 2138 2764 1967 
Q 2981 1797 3098 1565 
Q 3216 1334 3216 1081 
Q 3216 600 2842 251 
Q 2469 -97 1881 -97 
Q 1697 -97 1534 -69 
Q 1438 -53 1133 45 
Q 828 144 747 144 
Q 669 144 623 97 
Q 578 50 556 -97 
L 441 -97 
L 441 1356 
L 556 1356 
Q 638 900 775 673 
Q 913 447 1195 297 
Q 1478 147 1816 147 
Q 2206 147 2432 353 
Q 2659 559 2659 841 
Q 2659 997 2573 1156 
Q 2488 1316 2306 1453 
Q 2184 1547 1640 1851 
Q 1097 2156 867 2337 
Q 638 2519 519 2737 
Q 400 2956 400 3219 
Q 400 3675 750 4004 
Q 1100 4334 1641 4334 
Q 1978 4334 2356 4169 
Q 2531 4091 2603 4091 
Q 2684 4091 2736 4139 
Q 2788 4188 2819 4334 
L 2934 4334 
z
" transform="scale(0.015625)"/>
       <path id="TimesNewRomanPSMT-43" d="M 3853 4334 
L 3950 2894 
L 3853 2894 
Q 3659 3541 3300 3825 
Q 2941 4109 2438 4109 
Q 2016 4109 1675 3895 
Q 1334 3681 1139 3212 
Q 944 2744 944 2047 
Q 944 1472 1128 1050 
Q 1313 628 1683 403 
Q 2053 178 2528 178 
Q 2941 178 3256 354 
Q 3572 531 3950 1056 
L 4047 994 
Q 3728 428 3303 165 
Q 2878 -97 2294 -97 
Q 1241 -97 663 684 
Q 231 1266 231 2053 
Q 231 2688 515 3219 
Q 800 3750 1298 4042 
Q 1797 4334 2388 4334 
Q 2847 4334 3294 4109 
Q 3425 4041 3481 4041 
Q 3566 4041 3628 4100 
Q 3709 4184 3744 4334 
L 3853 4334 
z
" transform="scale(0.015625)"/>
       <path id="TimesNewRomanPSMT-49" d="M 1975 116 
L 1975 0 
L 159 0 
L 159 116 
L 309 116 
Q 572 116 691 269 
Q 766 369 766 750 
L 766 3488 
Q 766 3809 725 3913 
Q 694 3991 597 4047 
Q 459 4122 309 4122 
L 159 4122 
L 159 4238 
L 1975 4238 
L 1975 4122 
L 1822 4122 
Q 1563 4122 1444 3969 
Q 1366 3869 1366 3488 
L 1366 750 
Q 1366 428 1406 325 
Q 1438 247 1538 191 
Q 1672 116 1822 116 
L 1975 116 
z
" transform="scale(0.015625)"/>
      </defs>
      <use xlink:href="#TimesNewRomanPSMT-4d"/>
      <use xlink:href="#TimesNewRomanPSMT-54" x="88.916016"/>
      <use xlink:href="#TimesNewRomanPSMT-53" x="150"/>
      <use xlink:href="#TimesNewRomanPSMT-43" x="205.615234"/>
      <use xlink:href="#TimesNewRomanPSMT-49" x="272.314453"/>
     </g>
    </g>
    <g id="line2d_38">
     <path d="M 878.945 292.995 
L 910.945 292.995 
L 942.945 292.995 
" style="fill: none; stroke-dasharray: 11.1,4.8; stroke-dashoffset: 0; stroke: #068ff8; stroke-width: 3"/>
    </g>
    <g id="text_21">
     <!-- Ground-truth -->
     <g transform="translate(968.545 304.195) scale(0.32 -0.32)">
      <defs>
       <path id="TimesNewRomanPSMT-47" d="M 3928 4334 
L 4038 2997 
L 3928 2997 
Q 3763 3497 3500 3750 
Q 3122 4116 2528 4116 
Q 1719 4116 1297 3475 
Q 944 2934 944 2188 
Q 944 1581 1178 1081 
Q 1413 581 1792 348 
Q 2172 116 2572 116 
Q 2806 116 3025 175 
Q 3244 234 3447 350 
L 3447 1575 
Q 3447 1894 3398 1992 
Q 3350 2091 3248 2142 
Q 3147 2194 2891 2194 
L 2891 2313 
L 4531 2313 
L 4531 2194 
L 4453 2194 
Q 4209 2194 4119 2031 
Q 4056 1916 4056 1575 
L 4056 278 
Q 3697 84 3347 -6 
Q 2997 -97 2569 -97 
Q 1341 -97 703 691 
Q 225 1281 225 2053 
Q 225 2613 494 3125 
Q 813 3734 1369 4063 
Q 1834 4334 2469 4334 
Q 2700 4334 2889 4296 
Q 3078 4259 3425 4131 
Q 3600 4066 3659 4066 
Q 3719 4066 3761 4120 
Q 3803 4175 3813 4334 
L 3928 4334 
z
" transform="scale(0.015625)"/>
       <path id="TimesNewRomanPSMT-75" d="M 2709 2863 
L 2709 1128 
Q 2709 631 2732 520 
Q 2756 409 2807 365 
Q 2859 322 2928 322 
Q 3025 322 3147 375 
L 3191 266 
L 2334 -88 
L 2194 -88 
L 2194 519 
Q 1825 119 1631 15 
Q 1438 -88 1222 -88 
Q 981 -88 804 51 
Q 628 191 559 409 
Q 491 628 491 1028 
L 491 2306 
Q 491 2509 447 2587 
Q 403 2666 317 2708 
Q 231 2750 6 2747 
L 6 2863 
L 1009 2863 
L 1009 947 
Q 1009 547 1148 422 
Q 1288 297 1484 297 
Q 1619 297 1789 381 
Q 1959 466 2194 703 
L 2194 2325 
Q 2194 2569 2105 2655 
Q 2016 2741 1734 2747 
L 1734 2863 
L 2709 2863 
z
" transform="scale(0.015625)"/>
       <path id="TimesNewRomanPSMT-2d" d="M 259 1672 
L 1875 1672 
L 1875 1200 
L 259 1200 
L 259 1672 
z
" transform="scale(0.015625)"/>
       <path id="TimesNewRomanPSMT-68" d="M 1041 4444 
L 1041 2350 
Q 1388 2731 1591 2839 
Q 1794 2947 1997 2947 
Q 2241 2947 2416 2812 
Q 2591 2678 2675 2391 
Q 2734 2191 2734 1659 
L 2734 647 
Q 2734 375 2778 275 
Q 2809 200 2884 156 
Q 2959 113 3159 113 
L 3159 0 
L 1753 0 
L 1753 113 
L 1819 113 
Q 2019 113 2097 173 
Q 2175 234 2206 353 
Q 2216 403 2216 647 
L 2216 1659 
Q 2216 2128 2167 2275 
Q 2119 2422 2012 2495 
Q 1906 2569 1756 2569 
Q 1603 2569 1437 2487 
Q 1272 2406 1041 2159 
L 1041 647 
Q 1041 353 1073 281 
Q 1106 209 1195 161 
Q 1284 113 1503 113 
L 1503 0 
L 84 0 
L 84 113 
Q 275 113 384 172 
Q 447 203 484 290 
Q 522 378 522 647 
L 522 3238 
Q 522 3728 498 3840 
Q 475 3953 426 3993 
Q 378 4034 297 4034 
Q 231 4034 84 3984 
L 41 4094 
L 897 4444 
L 1041 4444 
z
" transform="scale(0.015625)"/>
      </defs>
      <use xlink:href="#TimesNewRomanPSMT-47"/>
      <use xlink:href="#TimesNewRomanPSMT-72" x="72.216797"/>
      <use xlink:href="#TimesNewRomanPSMT-6f" x="105.517578"/>
      <use xlink:href="#TimesNewRomanPSMT-75" x="155.517578"/>
      <use xlink:href="#TimesNewRomanPSMT-6e" x="205.517578"/>
      <use xlink:href="#TimesNewRomanPSMT-64" x="255.517578"/>
      <use xlink:href="#TimesNewRomanPSMT-2d" x="305.517578"/>
      <use xlink:href="#TimesNewRomanPSMT-74" x="338.818359"/>
      <use xlink:href="#TimesNewRomanPSMT-72" x="366.601562"/>
      <use xlink:href="#TimesNewRomanPSMT-75" x="399.902344"/>
      <use xlink:href="#TimesNewRomanPSMT-74" x="449.902344"/>
      <use xlink:href="#TimesNewRomanPSMT-68" x="477.685547"/>
     </g>
    </g>
   </g>
  </g>
 </g>
 <defs>
  <clipPath id="pb53e6dace5">
   <rect x="50.2" y="7.2" width="1116" height="332.64"/>
  </clipPath>
 </defs>
</svg>
