<?xml version="1.0" encoding="utf-8" standalone="no"?>
<!DOCTYPE svg PUBLIC "-//W3C//DTD SVG 1.1//EN"
  "http://www.w3.org/Graphics/SVG/1.1/DTD/svg11.dtd">
<svg xmlns:xlink="http://www.w3.org/1999/xlink" width="1149.4pt" height="408.90375pt" viewBox="0 0 1149.4 408.90375" xmlns="http://www.w3.org/2000/svg" version="1.1">
 <metadata>
  <rdf:RDF xmlns:dc="http://purl.org/dc/elements/1.1/" xmlns:cc="http://creativecommons.org/ns#" xmlns:rdf="http://www.w3.org/1999/02/22-rdf-syntax-ns#">
   <cc:Work>
    <dc:type rdf:resource="http://purl.org/dc/dcmitype/StillImage"/>
    <dc:date>2024-05-20T20:57:42.082575</dc:date>
    <dc:format>image/svg+xml</dc:format>
    <dc:creator>
     <cc:Agent>
      <dc:title>Matplotlib v3.6.2, https://matplotlib.org/</dc:title>
     </cc:Agent>
    </dc:creator>
   </cc:Work>
  </rdf:RDF>
 </metadata>
 <defs>
  <style type="text/css">*{stroke-linejoin: round; stroke-linecap: butt}</style>
 </defs>
 <g id="figure_1">
  <g id="patch_1">
   <path d="M 0 408.90375 
L 1149.4 408.90375 
L 1149.4 0 
L 0 0 
z
" style="fill: #ffffff"/>
  </g>
  <g id="axes_1">
   <g id="patch_2">
    <path d="M 26.2 339.84 
L 1142.2 339.84 
L 1142.2 7.2 
L 26.2 7.2 
z
" style="fill: #ffffff"/>
   </g>
   <g id="PolyCollection_1">
    <defs>
     <path id="mdd58cb86b3" d="M 76.927273 -133.726458 
L 76.927273 -127.863211 
L 83.736303 -127.743733 
L 90.545333 -122.716971 
L 97.354362 -128.221724 
L 104.163392 -133.726458 
L 110.972422 -136.433706 
L 117.781452 -141.938459 
L 124.590482 -130.928972 
L 131.399512 -130.928972 
L 138.208542 -141.938459 
L 145.017572 -158.452681 
L 151.826602 -185.886177 
L 158.635631 -188.683662 
L 165.444661 -188.683662 
L 172.253691 -181.160352 
L 179.062721 -163.14561 
L 185.871751 -155.655201 
L 192.680781 -133.726458 
L 199.489811 -111.70749 
L 206.298841 -112.568592 
L 213.107871 -103.405251 
L 219.916901 -117.212218 
L 226.72593 -147.443193 
L 233.53496 -130.928972 
L 240.34399 -135.136618 
L 247.15302 -130.928972 
L 253.96205 -131.512862 
L 260.77108 -128.221724 
L 267.58011 -130.928972 
L 274.38914 -130.035003 
L 281.19817 -127.996643 
L 288.0072 -122.716971 
L 294.816229 -130.928972 
L 301.625259 -136.433706 
L 308.434289 -152.947953 
L 315.243319 -155.456872 
L 322.052349 -163.005615 
L 328.861379 -164.30487 
L 335.670409 -158.799014 
L 342.479439 -152.344036 
L 349.288469 -146.322979 
L 356.097498 -144.865341 
L 362.906528 -181.048208 
L 369.715558 -179.692087 
L 376.524588 -180.797654 
L 383.333618 -171.55014 
L 390.142648 -163.973864 
L 396.951678 -148.634785 
L 403.760708 -140.667481 
L 410.569738 -135.634125 
L 417.378768 -131.299841 
L 424.187797 -130.06668 
L 430.996827 -125.718812 
L 437.805857 -128.055739 
L 444.614887 -129.362374 
L 451.423917 -120.694588 
L 458.232947 -116.05828 
L 465.041977 -115.740763 
L 471.851007 -126.807407 
L 478.660037 -126.616919 
L 485.469067 -134.895177 
L 492.278096 -142.315594 
L 499.087126 -147.05442 
L 505.896156 -274.190171 
L 512.705186 -265.101847 
L 519.514216 -267.527594 
L 526.323246 -289.815978 
L 533.132276 -287.361236 
L 539.941306 -289.406593 
L 546.750336 -293.854145 
L 553.559365 -297.831981 
L 560.368395 -296.467521 
L 567.177425 -290.822591 
L 573.986455 -288.458887 
L 580.795485 -284.057604 
L 587.604515 -282.425807 
L 594.413545 -278.813374 
L 601.222575 -280.698301 
L 608.031605 -285.482878 
L 614.840635 -282.696797 
L 621.649664 -283.946647 
L 628.458694 -285.712487 
L 635.267724 -290.121781 
L 642.076754 -284.88133 
L 648.885784 -293.093331 
L 655.694814 -304.102818 
L 662.503844 -312.314826 
L 669.312874 -323.324288 
L 676.121904 -328.829066 
L 682.930933 -337.041074 
L 689.739963 -350.84804 
L 696.548993 -375.574244 
L 703.358023 -381.079022 
L 710.167053 -382.372187 
L 716.976083 -382.822373 
L 723.785113 -386.58375 
L 730.594143 -361.857509 
L 737.403173 -356.352768 
L 744.212203 -162.796744 
L 751.021232 -147.443193 
L 757.830262 -161.159954 
L 764.639292 -169.371936 
L 771.448322 -158.452681 
L 778.257352 -167.211555 
L 785.066382 -180.381424 
L 791.875412 -172.169441 
L 798.684442 -186.330132 
L 805.493472 -207.905152 
L 812.302502 -218.91464 
L 819.111531 -208.706963 
L 825.920561 -185.886177 
L 832.729591 -139.140954 
L 839.538621 -111.70749 
L 846.347651 -108.092141 
L 853.156681 -106.202737 
L 859.965711 -122.716971 
L 866.774741 -117.212218 
L 873.583771 -117.212218 
L 880.3928 -130.928972 
L 887.20183 -100.697996 
L 894.01086 -97.990742 
L 900.81989 -100.697996 
L 907.62892 -106.202737 
L 914.43795 -106.202737 
L 921.24698 -108.239882 
L 928.05601 -106.202737 
L 934.86504 -103.405251 
L 941.67407 -97.990742 
L 948.483099 -106.202737 
L 955.292129 -100.697996 
L 962.101159 -107.412799 
L 968.910189 -121.723148 
L 975.719219 -139.140954 
L 982.528249 -138.435182 
L 989.337279 -150.150442 
L 996.146309 -136.433706 
L 1002.955339 -136.433706 
L 1009.764369 -125.424219 
L 1016.573398 -122.716971 
L 1023.382428 -141.938459 
L 1030.191458 -135.559165 
L 1037.000488 -150.150442 
L 1043.809518 -136.433706 
L 1050.618548 -147.443193 
L 1057.427578 -158.452681 
L 1064.236608 -146.941587 
L 1071.045638 -147.443193 
L 1077.854667 -127.370175 
L 1084.663697 -106.202737 
L 1091.472727 -117.212218 
L 1091.472727 -117.212218 
L 1091.472727 -117.212218 
L 1084.663697 -106.202737 
L 1077.854667 -139.140954 
L 1071.045638 -147.443193 
L 1064.236608 -147.443193 
L 1057.427578 -158.452681 
L 1050.618548 -147.443193 
L 1043.809518 -136.433706 
L 1037.000488 -150.150442 
L 1030.191458 -141.938459 
L 1023.382428 -141.938459 
L 1016.573398 -122.716971 
L 1009.764369 -125.424219 
L 1002.955339 -136.433706 
L 996.146309 -136.433706 
L 989.337279 -150.150442 
L 982.528249 -141.938459 
L 975.719219 -139.140954 
L 968.910189 -117.212218 
L 962.101159 -108.909991 
L 955.292129 -100.697996 
L 948.483099 -106.202737 
L 941.67407 -97.990742 
L 934.86504 -103.405251 
L 928.05601 -106.202737 
L 921.24698 -108.909991 
L 914.43795 -106.202737 
L 907.62892 -106.202737 
L 900.81989 -100.697996 
L 894.01086 -97.990742 
L 887.20183 -100.697996 
L 880.3928 -130.928972 
L 873.583771 -117.212218 
L 866.774741 -117.212218 
L 859.965711 -122.716971 
L 853.156681 -106.202737 
L 846.347651 -111.70749 
L 839.538621 -111.70749 
L 832.729591 -139.140954 
L 825.920561 -185.886177 
L 819.111531 -199.69315 
L 812.302502 -218.91464 
L 805.493472 -207.905152 
L 798.684442 -169.371936 
L 791.875412 -172.169441 
L 785.066382 -180.381424 
L 778.257352 -144.645714 
L 771.448322 -158.452681 
L 764.639292 -169.371936 
L 757.830262 -161.159954 
L 751.021232 -147.443193 
L 744.212203 -150.150442 
L 737.403173 -356.352768 
L 730.594143 -361.857509 
L 723.785113 -386.58375 
L 716.976083 -370.069516 
L 710.167053 -375.574244 
L 703.358023 -381.079022 
L 696.548993 -375.574244 
L 689.739963 -350.84804 
L 682.930933 -337.041074 
L 676.121904 -328.829066 
L 669.312874 -323.324288 
L 662.503844 -312.314826 
L 655.694814 -304.102818 
L 648.885784 -293.093331 
L 642.076754 -284.88133 
L 635.267724 -282.083844 
L 628.458694 -279.376596 
L 621.649664 -287.588578 
L 614.840635 -287.588578 
L 608.031605 -290.386083 
L 601.222575 -293.093331 
L 594.413545 -282.083844 
L 587.604515 -290.386083 
L 580.795485 -293.093331 
L 573.986455 -295.890817 
L 567.177425 -284.88133 
L 560.368395 -298.59809 
L 553.559365 -271.074357 
L 546.750336 -273.871843 
L 539.941306 -268.367108 
L 533.132276 -279.376596 
L 526.323246 -273.871843 
L 519.514216 -282.083844 
L 512.705186 -284.88133 
L 505.896156 -290.386083 
L 499.087126 -84.18375 
L 492.278096 -89.688503 
L 485.469067 -106.202737 
L 478.660037 -114.414732 
L 471.851007 -97.990742 
L 465.041977 -92.485989 
L 458.232947 -97.990742 
L 451.423917 -119.919485 
L 444.614887 -125.424219 
L 437.805857 -108.909991 
L 430.996827 -117.212218 
L 424.187797 -111.70749 
L 417.378768 -125.424219 
L 410.569738 -125.424219 
L 403.760708 -136.433706 
L 396.951678 -141.938459 
L 390.142648 -155.655201 
L 383.333618 -158.452681 
L 376.524588 -166.664688 
L 369.715558 -152.947953 
L 362.906528 -147.443193 
L 356.097498 -144.645714 
L 349.288469 -144.645714 
L 342.479439 -166.664688 
L 335.670409 -166.664688 
L 328.861379 -174.876689 
L 322.052349 -172.169441 
L 315.243319 -141.938459 
L 308.434289 -152.947953 
L 301.625259 -136.433706 
L 294.816229 -130.928972 
L 288.0072 -122.716971 
L 281.19817 -125.424219 
L 274.38914 -139.140954 
L 267.58011 -130.928972 
L 260.77108 -128.221724 
L 253.96205 -128.221724 
L 247.15302 -130.928972 
L 240.34399 -122.716971 
L 233.53496 -130.928972 
L 226.72593 -147.443193 
L 219.916901 -117.212218 
L 213.107871 -103.405251 
L 206.298841 -133.726458 
L 199.489811 -111.70749 
L 192.680781 -133.726458 
L 185.871751 -155.655201 
L 179.062721 -169.371936 
L 172.253691 -194.188415 
L 165.444661 -188.683662 
L 158.635631 -188.683662 
L 151.826602 -185.886177 
L 145.017572 -158.452681 
L 138.208542 -141.938459 
L 131.399512 -130.928972 
L 124.590482 -130.928972 
L 117.781452 -141.938459 
L 110.972422 -136.433706 
L 104.163392 -133.726458 
L 97.354362 -128.221724 
L 90.545333 -122.716971 
L 83.736303 -128.221724 
L 76.927273 -133.726458 
z
" style="stroke: #808080; stroke-opacity: 0.3"/>
    </defs>
    <g clip-path="url(#p7242141f53)">
     <use xlink:href="#mdd58cb86b3" x="0" y="408.90375" style="fill: #808080; fill-opacity: 0.3; stroke: #808080; stroke-opacity: 0.3"/>
    </g>
   </g>
   <g id="matplotlib.axis_1">
    <g id="xtick_1">
     <g id="line2d_1">
      <path d="M 76.927273 339.84 
L 76.927273 7.2 
" clip-path="url(#p7242141f53)" style="fill: none; stroke-dasharray: 2.96,1.28; stroke-dashoffset: 0; stroke: #b0b0b0; stroke-width: 0.8"/>
     </g>
     <g id="line2d_2">
      <defs>
       <path id="m0056e7f3c3" d="M 0 0 
L 0 3.5 
" style="stroke: #000000; stroke-width: 0.8"/>
      </defs>
      <g>
       <use xlink:href="#m0056e7f3c3" x="76.927273" y="339.84" style="stroke: #000000; stroke-width: 0.8"/>
      </g>
     </g>
     <g id="text_1">
      <!-- 0 -->
      <g transform="translate(70.927273 363.505) scale(0.24 -0.24)">
       <defs>
        <path id="TimesNewRomanPSMT-30" d="M 231 2094 
Q 231 2819 450 3342 
Q 669 3866 1031 4122 
Q 1313 4325 1613 4325 
Q 2100 4325 2488 3828 
Q 2972 3213 2972 2159 
Q 2972 1422 2759 906 
Q 2547 391 2217 158 
Q 1888 -75 1581 -75 
Q 975 -75 572 641 
Q 231 1244 231 2094 
z
M 844 2016 
Q 844 1141 1059 588 
Q 1238 122 1591 122 
Q 1759 122 1940 273 
Q 2122 425 2216 781 
Q 2359 1319 2359 2297 
Q 2359 3022 2209 3506 
Q 2097 3866 1919 4016 
Q 1791 4119 1609 4119 
Q 1397 4119 1231 3928 
Q 1006 3669 925 3112 
Q 844 2556 844 2016 
z
" transform="scale(0.015625)"/>
       </defs>
       <use xlink:href="#TimesNewRomanPSMT-30"/>
      </g>
     </g>
    </g>
    <g id="xtick_2">
     <g id="line2d_3">
      <path d="M 213.107871 339.84 
L 213.107871 7.2 
" clip-path="url(#p7242141f53)" style="fill: none; stroke-dasharray: 2.96,1.28; stroke-dashoffset: 0; stroke: #b0b0b0; stroke-width: 0.8"/>
     </g>
     <g id="line2d_4">
      <g>
       <use xlink:href="#m0056e7f3c3" x="213.107871" y="339.84" style="stroke: #000000; stroke-width: 0.8"/>
      </g>
     </g>
     <g id="text_2">
      <!-- 20 -->
      <g transform="translate(201.107871 363.505) scale(0.24 -0.24)">
       <defs>
        <path id="TimesNewRomanPSMT-32" d="M 2934 816 
L 2638 0 
L 138 0 
L 138 116 
Q 1241 1122 1691 1759 
Q 2141 2397 2141 2925 
Q 2141 3328 1894 3587 
Q 1647 3847 1303 3847 
Q 991 3847 742 3664 
Q 494 3481 375 3128 
L 259 3128 
Q 338 3706 661 4015 
Q 984 4325 1469 4325 
Q 1984 4325 2329 3994 
Q 2675 3663 2675 3213 
Q 2675 2891 2525 2569 
Q 2294 2063 1775 1497 
Q 997 647 803 472 
L 1909 472 
Q 2247 472 2383 497 
Q 2519 522 2628 598 
Q 2738 675 2819 816 
L 2934 816 
z
" transform="scale(0.015625)"/>
       </defs>
       <use xlink:href="#TimesNewRomanPSMT-32"/>
       <use xlink:href="#TimesNewRomanPSMT-30" x="50"/>
      </g>
     </g>
    </g>
    <g id="xtick_3">
     <g id="line2d_5">
      <path d="M 349.288469 339.84 
L 349.288469 7.2 
" clip-path="url(#p7242141f53)" style="fill: none; stroke-dasharray: 2.96,1.28; stroke-dashoffset: 0; stroke: #b0b0b0; stroke-width: 0.8"/>
     </g>
     <g id="line2d_6">
      <g>
       <use xlink:href="#m0056e7f3c3" x="349.288469" y="339.84" style="stroke: #000000; stroke-width: 0.8"/>
      </g>
     </g>
     <g id="text_3">
      <!-- 40 -->
      <g transform="translate(337.288469 363.505) scale(0.24 -0.24)">
       <defs>
        <path id="TimesNewRomanPSMT-34" d="M 2978 1563 
L 2978 1119 
L 2409 1119 
L 2409 0 
L 1894 0 
L 1894 1119 
L 100 1119 
L 100 1519 
L 2066 4325 
L 2409 4325 
L 2409 1563 
L 2978 1563 
z
M 1894 1563 
L 1894 3666 
L 406 1563 
L 1894 1563 
z
" transform="scale(0.015625)"/>
       </defs>
       <use xlink:href="#TimesNewRomanPSMT-34"/>
       <use xlink:href="#TimesNewRomanPSMT-30" x="50"/>
      </g>
     </g>
    </g>
    <g id="xtick_4">
     <g id="line2d_7">
      <path d="M 485.469067 339.84 
L 485.469067 7.2 
" clip-path="url(#p7242141f53)" style="fill: none; stroke-dasharray: 2.96,1.28; stroke-dashoffset: 0; stroke: #b0b0b0; stroke-width: 0.8"/>
     </g>
     <g id="line2d_8">
      <g>
       <use xlink:href="#m0056e7f3c3" x="485.469067" y="339.84" style="stroke: #000000; stroke-width: 0.8"/>
      </g>
     </g>
     <g id="text_4">
      <!-- 60 -->
      <g transform="translate(473.469067 363.505) scale(0.24 -0.24)">
       <defs>
        <path id="TimesNewRomanPSMT-36" d="M 2869 4325 
L 2869 4209 
Q 2456 4169 2195 4045 
Q 1934 3922 1679 3669 
Q 1425 3416 1258 3105 
Q 1091 2794 978 2366 
Q 1428 2675 1881 2675 
Q 2316 2675 2634 2325 
Q 2953 1975 2953 1425 
Q 2953 894 2631 456 
Q 2244 -75 1606 -75 
Q 1172 -75 869 213 
Q 275 772 275 1663 
Q 275 2231 503 2743 
Q 731 3256 1154 3653 
Q 1578 4050 1965 4187 
Q 2353 4325 2688 4325 
L 2869 4325 
z
M 925 2138 
Q 869 1716 869 1456 
Q 869 1156 980 804 
Q 1091 453 1309 247 
Q 1469 100 1697 100 
Q 1969 100 2183 356 
Q 2397 613 2397 1088 
Q 2397 1622 2184 2012 
Q 1972 2403 1581 2403 
Q 1463 2403 1327 2353 
Q 1191 2303 925 2138 
z
" transform="scale(0.015625)"/>
       </defs>
       <use xlink:href="#TimesNewRomanPSMT-36"/>
       <use xlink:href="#TimesNewRomanPSMT-30" x="50"/>
      </g>
     </g>
    </g>
    <g id="xtick_5">
     <g id="line2d_9">
      <path d="M 621.649664 339.84 
L 621.649664 7.2 
" clip-path="url(#p7242141f53)" style="fill: none; stroke-dasharray: 2.96,1.28; stroke-dashoffset: 0; stroke: #b0b0b0; stroke-width: 0.8"/>
     </g>
     <g id="line2d_10">
      <g>
       <use xlink:href="#m0056e7f3c3" x="621.649664" y="339.84" style="stroke: #000000; stroke-width: 0.8"/>
      </g>
     </g>
     <g id="text_5">
      <!-- 80 -->
      <g transform="translate(609.649664 363.505) scale(0.24 -0.24)">
       <defs>
        <path id="TimesNewRomanPSMT-38" d="M 1228 2134 
Q 725 2547 579 2797 
Q 434 3047 434 3316 
Q 434 3728 753 4026 
Q 1072 4325 1600 4325 
Q 2113 4325 2425 4047 
Q 2738 3769 2738 3413 
Q 2738 3175 2569 2928 
Q 2400 2681 1866 2347 
Q 2416 1922 2594 1678 
Q 2831 1359 2831 1006 
Q 2831 559 2490 242 
Q 2150 -75 1597 -75 
Q 994 -75 656 303 
Q 388 606 388 966 
Q 388 1247 577 1523 
Q 766 1800 1228 2134 
z
M 1719 2469 
Q 2094 2806 2194 3001 
Q 2294 3197 2294 3444 
Q 2294 3772 2109 3958 
Q 1925 4144 1606 4144 
Q 1288 4144 1088 3959 
Q 888 3775 888 3528 
Q 888 3366 970 3203 
Q 1053 3041 1206 2894 
L 1719 2469 
z
M 1375 2016 
Q 1116 1797 991 1539 
Q 866 1281 866 981 
Q 866 578 1086 336 
Q 1306 94 1647 94 
Q 1984 94 2187 284 
Q 2391 475 2391 747 
Q 2391 972 2272 1150 
Q 2050 1481 1375 2016 
z
" transform="scale(0.015625)"/>
       </defs>
       <use xlink:href="#TimesNewRomanPSMT-38"/>
       <use xlink:href="#TimesNewRomanPSMT-30" x="50"/>
      </g>
     </g>
    </g>
    <g id="xtick_6">
     <g id="line2d_11">
      <path d="M 757.830262 339.84 
L 757.830262 7.2 
" clip-path="url(#p7242141f53)" style="fill: none; stroke-dasharray: 2.96,1.28; stroke-dashoffset: 0; stroke: #b0b0b0; stroke-width: 0.8"/>
     </g>
     <g id="line2d_12">
      <g>
       <use xlink:href="#m0056e7f3c3" x="757.830262" y="339.84" style="stroke: #000000; stroke-width: 0.8"/>
      </g>
     </g>
     <g id="text_6">
      <!-- 100 -->
      <g transform="translate(739.830262 363.505) scale(0.24 -0.24)">
       <defs>
        <path id="TimesNewRomanPSMT-31" d="M 750 3822 
L 1781 4325 
L 1884 4325 
L 1884 747 
Q 1884 391 1914 303 
Q 1944 216 2037 169 
Q 2131 122 2419 116 
L 2419 0 
L 825 0 
L 825 116 
Q 1125 122 1212 167 
Q 1300 213 1334 289 
Q 1369 366 1369 747 
L 1369 3034 
Q 1369 3497 1338 3628 
Q 1316 3728 1258 3775 
Q 1200 3822 1119 3822 
Q 1003 3822 797 3725 
L 750 3822 
z
" transform="scale(0.015625)"/>
       </defs>
       <use xlink:href="#TimesNewRomanPSMT-31"/>
       <use xlink:href="#TimesNewRomanPSMT-30" x="50"/>
       <use xlink:href="#TimesNewRomanPSMT-30" x="100"/>
      </g>
     </g>
    </g>
    <g id="xtick_7">
     <g id="line2d_13">
      <path d="M 894.01086 339.84 
L 894.01086 7.2 
" clip-path="url(#p7242141f53)" style="fill: none; stroke-dasharray: 2.96,1.28; stroke-dashoffset: 0; stroke: #b0b0b0; stroke-width: 0.8"/>
     </g>
     <g id="line2d_14">
      <g>
       <use xlink:href="#m0056e7f3c3" x="894.01086" y="339.84" style="stroke: #000000; stroke-width: 0.8"/>
      </g>
     </g>
     <g id="text_7">
      <!-- 120 -->
      <g transform="translate(876.01086 363.505) scale(0.24 -0.24)">
       <use xlink:href="#TimesNewRomanPSMT-31"/>
       <use xlink:href="#TimesNewRomanPSMT-32" x="50"/>
       <use xlink:href="#TimesNewRomanPSMT-30" x="100"/>
      </g>
     </g>
    </g>
    <g id="xtick_8">
     <g id="line2d_15">
      <path d="M 1030.191458 339.84 
L 1030.191458 7.2 
" clip-path="url(#p7242141f53)" style="fill: none; stroke-dasharray: 2.96,1.28; stroke-dashoffset: 0; stroke: #b0b0b0; stroke-width: 0.8"/>
     </g>
     <g id="line2d_16">
      <g>
       <use xlink:href="#m0056e7f3c3" x="1030.191458" y="339.84" style="stroke: #000000; stroke-width: 0.8"/>
      </g>
     </g>
     <g id="text_8">
      <!-- 140 -->
      <g transform="translate(1012.191458 363.505) scale(0.24 -0.24)">
       <use xlink:href="#TimesNewRomanPSMT-31"/>
       <use xlink:href="#TimesNewRomanPSMT-34" x="50"/>
       <use xlink:href="#TimesNewRomanPSMT-30" x="100"/>
      </g>
     </g>
    </g>
    <g id="text_9">
     <!-- Time step -->
     <g transform="translate(521.22 394.85875) scale(0.32 -0.32)">
      <defs>
       <path id="TimesNewRomanPSMT-54" d="M 3703 4238 
L 3750 3244 
L 3631 3244 
Q 3597 3506 3538 3619 
Q 3441 3800 3280 3886 
Q 3119 3972 2856 3972 
L 2259 3972 
L 2259 734 
Q 2259 344 2344 247 
Q 2463 116 2709 116 
L 2856 116 
L 2856 0 
L 1059 0 
L 1059 116 
L 1209 116 
Q 1478 116 1591 278 
Q 1659 378 1659 734 
L 1659 3972 
L 1150 3972 
Q 853 3972 728 3928 
Q 566 3869 450 3700 
Q 334 3531 313 3244 
L 194 3244 
L 244 4238 
L 3703 4238 
z
" transform="scale(0.015625)"/>
       <path id="TimesNewRomanPSMT-69" d="M 928 4444 
Q 1059 4444 1151 4351 
Q 1244 4259 1244 4128 
Q 1244 3997 1151 3903 
Q 1059 3809 928 3809 
Q 797 3809 703 3903 
Q 609 3997 609 4128 
Q 609 4259 701 4351 
Q 794 4444 928 4444 
z
M 1188 2947 
L 1188 647 
Q 1188 378 1227 289 
Q 1266 200 1342 156 
Q 1419 113 1622 113 
L 1622 0 
L 231 0 
L 231 113 
Q 441 113 512 153 
Q 584 194 626 287 
Q 669 381 669 647 
L 669 1750 
Q 669 2216 641 2353 
Q 619 2453 572 2492 
Q 525 2531 444 2531 
Q 356 2531 231 2484 
L 188 2597 
L 1050 2947 
L 1188 2947 
z
" transform="scale(0.015625)"/>
       <path id="TimesNewRomanPSMT-6d" d="M 1050 2338 
Q 1363 2650 1419 2697 
Q 1559 2816 1721 2881 
Q 1884 2947 2044 2947 
Q 2313 2947 2506 2790 
Q 2700 2634 2766 2338 
Q 3088 2713 3309 2830 
Q 3531 2947 3766 2947 
Q 3994 2947 4170 2830 
Q 4347 2713 4450 2447 
Q 4519 2266 4519 1878 
L 4519 647 
Q 4519 378 4559 278 
Q 4591 209 4675 161 
Q 4759 113 4950 113 
L 4950 0 
L 3538 0 
L 3538 113 
L 3597 113 
Q 3781 113 3884 184 
Q 3956 234 3988 344 
Q 4000 397 4000 647 
L 4000 1878 
Q 4000 2228 3916 2372 
Q 3794 2572 3525 2572 
Q 3359 2572 3192 2489 
Q 3025 2406 2788 2181 
L 2781 2147 
L 2788 2013 
L 2788 647 
Q 2788 353 2820 281 
Q 2853 209 2943 161 
Q 3034 113 3253 113 
L 3253 0 
L 1806 0 
L 1806 113 
Q 2044 113 2133 169 
Q 2222 225 2256 338 
Q 2272 391 2272 647 
L 2272 1878 
Q 2272 2228 2169 2381 
Q 2031 2581 1784 2581 
Q 1616 2581 1450 2491 
Q 1191 2353 1050 2181 
L 1050 647 
Q 1050 366 1089 281 
Q 1128 197 1204 155 
Q 1281 113 1516 113 
L 1516 0 
L 100 0 
L 100 113 
Q 297 113 375 155 
Q 453 197 493 289 
Q 534 381 534 647 
L 534 1741 
Q 534 2213 506 2350 
Q 484 2453 437 2492 
Q 391 2531 309 2531 
Q 222 2531 100 2484 
L 53 2597 
L 916 2947 
L 1050 2947 
L 1050 2338 
z
" transform="scale(0.015625)"/>
       <path id="TimesNewRomanPSMT-65" d="M 681 1784 
Q 678 1147 991 784 
Q 1303 422 1725 422 
Q 2006 422 2214 576 
Q 2422 731 2563 1106 
L 2659 1044 
Q 2594 616 2278 264 
Q 1963 -88 1488 -88 
Q 972 -88 605 314 
Q 238 716 238 1394 
Q 238 2128 614 2539 
Q 991 2950 1559 2950 
Q 2041 2950 2350 2633 
Q 2659 2316 2659 1784 
L 681 1784 
z
M 681 1966 
L 2006 1966 
Q 1991 2241 1941 2353 
Q 1863 2528 1708 2628 
Q 1553 2728 1384 2728 
Q 1125 2728 920 2526 
Q 716 2325 681 1966 
z
" transform="scale(0.015625)"/>
       <path id="TimesNewRomanPSMT-20" transform="scale(0.015625)"/>
       <path id="TimesNewRomanPSMT-73" d="M 2050 2947 
L 2050 1972 
L 1947 1972 
Q 1828 2431 1642 2597 
Q 1456 2763 1169 2763 
Q 950 2763 815 2647 
Q 681 2531 681 2391 
Q 681 2216 781 2091 
Q 878 1963 1175 1819 
L 1631 1597 
Q 2266 1288 2266 781 
Q 2266 391 1970 151 
Q 1675 -88 1309 -88 
Q 1047 -88 709 6 
Q 606 38 541 38 
Q 469 38 428 -44 
L 325 -44 
L 325 978 
L 428 978 
Q 516 541 762 319 
Q 1009 97 1316 97 
Q 1531 97 1667 223 
Q 1803 350 1803 528 
Q 1803 744 1651 891 
Q 1500 1038 1047 1263 
Q 594 1488 453 1669 
Q 313 1847 313 2119 
Q 313 2472 555 2709 
Q 797 2947 1181 2947 
Q 1350 2947 1591 2875 
Q 1750 2828 1803 2828 
Q 1853 2828 1881 2850 
Q 1909 2872 1947 2947 
L 2050 2947 
z
" transform="scale(0.015625)"/>
       <path id="TimesNewRomanPSMT-74" d="M 1031 3803 
L 1031 2863 
L 1700 2863 
L 1700 2644 
L 1031 2644 
L 1031 788 
Q 1031 509 1111 412 
Q 1191 316 1316 316 
Q 1419 316 1516 380 
Q 1613 444 1666 569 
L 1788 569 
Q 1678 263 1478 108 
Q 1278 -47 1066 -47 
Q 922 -47 784 33 
Q 647 113 581 261 
Q 516 409 516 719 
L 516 2644 
L 63 2644 
L 63 2747 
Q 234 2816 414 2980 
Q 594 3144 734 3369 
Q 806 3488 934 3803 
L 1031 3803 
z
" transform="scale(0.015625)"/>
       <path id="TimesNewRomanPSMT-70" d="M -6 2578 
L 875 2934 
L 994 2934 
L 994 2266 
Q 1216 2644 1439 2795 
Q 1663 2947 1909 2947 
Q 2341 2947 2628 2609 
Q 2981 2197 2981 1534 
Q 2981 794 2556 309 
Q 2206 -88 1675 -88 
Q 1444 -88 1275 -22 
Q 1150 25 994 166 
L 994 -706 
Q 994 -1000 1030 -1079 
Q 1066 -1159 1155 -1206 
Q 1244 -1253 1478 -1253 
L 1478 -1369 
L -22 -1369 
L -22 -1253 
L 56 -1253 
Q 228 -1256 350 -1188 
Q 409 -1153 442 -1076 
Q 475 -1000 475 -688 
L 475 2019 
Q 475 2297 450 2372 
Q 425 2447 370 2484 
Q 316 2522 222 2522 
Q 147 2522 31 2478 
L -6 2578 
z
M 994 2081 
L 994 1013 
Q 994 666 1022 556 
Q 1066 375 1236 237 
Q 1406 100 1666 100 
Q 1978 100 2172 344 
Q 2425 663 2425 1241 
Q 2425 1897 2138 2250 
Q 1938 2494 1663 2494 
Q 1513 2494 1366 2419 
Q 1253 2363 994 2081 
z
" transform="scale(0.015625)"/>
      </defs>
      <use xlink:href="#TimesNewRomanPSMT-54"/>
      <use xlink:href="#TimesNewRomanPSMT-69" x="57.583984"/>
      <use xlink:href="#TimesNewRomanPSMT-6d" x="85.367188"/>
      <use xlink:href="#TimesNewRomanPSMT-65" x="163.150391"/>
      <use xlink:href="#TimesNewRomanPSMT-20" x="207.535156"/>
      <use xlink:href="#TimesNewRomanPSMT-73" x="232.535156"/>
      <use xlink:href="#TimesNewRomanPSMT-74" x="271.451172"/>
      <use xlink:href="#TimesNewRomanPSMT-65" x="299.234375"/>
      <use xlink:href="#TimesNewRomanPSMT-70" x="343.619141"/>
     </g>
    </g>
   </g>
   <g id="matplotlib.axis_2">
    <g id="ytick_1">
     <g id="line2d_17">
      <path d="M 26.2 295.391433 
L 1142.2 295.391433 
" clip-path="url(#p7242141f53)" style="fill: none; stroke-dasharray: 2.96,1.28; stroke-dashoffset: 0; stroke: #b0b0b0; stroke-width: 0.8"/>
     </g>
     <g id="line2d_18">
      <defs>
       <path id="md2bde4c6d4" d="M 0 0 
L -3.5 0 
" style="stroke: #000000; stroke-width: 0.8"/>
      </defs>
      <g>
       <use xlink:href="#md2bde4c6d4" x="26.2" y="295.391433" style="stroke: #000000; stroke-width: 0.8"/>
      </g>
     </g>
     <g id="text_10">
      <!-- 2 -->
      <g transform="translate(7.2 303.723933) scale(0.24 -0.24)">
       <use xlink:href="#TimesNewRomanPSMT-32"/>
      </g>
     </g>
    </g>
    <g id="ytick_2">
     <g id="line2d_19">
      <path d="M 26.2 205.149717 
L 1142.2 205.149717 
" clip-path="url(#p7242141f53)" style="fill: none; stroke-dasharray: 2.96,1.28; stroke-dashoffset: 0; stroke: #b0b0b0; stroke-width: 0.8"/>
     </g>
     <g id="line2d_20">
      <g>
       <use xlink:href="#md2bde4c6d4" x="26.2" y="205.149717" style="stroke: #000000; stroke-width: 0.8"/>
      </g>
     </g>
     <g id="text_11">
      <!-- 3 -->
      <g transform="translate(7.2 213.482217) scale(0.24 -0.24)">
       <defs>
        <path id="TimesNewRomanPSMT-33" d="M 325 3431 
Q 506 3859 782 4092 
Q 1059 4325 1472 4325 
Q 1981 4325 2253 3994 
Q 2459 3747 2459 3466 
Q 2459 3003 1878 2509 
Q 2269 2356 2469 2072 
Q 2669 1788 2669 1403 
Q 2669 853 2319 450 
Q 1863 -75 997 -75 
Q 569 -75 414 31 
Q 259 138 259 259 
Q 259 350 332 419 
Q 406 488 509 488 
Q 588 488 669 463 
Q 722 447 909 348 
Q 1097 250 1169 231 
Q 1284 197 1416 197 
Q 1734 197 1970 444 
Q 2206 691 2206 1028 
Q 2206 1275 2097 1509 
Q 2016 1684 1919 1775 
Q 1784 1900 1550 2001 
Q 1316 2103 1072 2103 
L 972 2103 
L 972 2197 
Q 1219 2228 1467 2375 
Q 1716 2522 1828 2728 
Q 1941 2934 1941 3181 
Q 1941 3503 1739 3701 
Q 1538 3900 1238 3900 
Q 753 3900 428 3381 
L 325 3431 
z
" transform="scale(0.015625)"/>
       </defs>
       <use xlink:href="#TimesNewRomanPSMT-33"/>
      </g>
     </g>
    </g>
    <g id="ytick_3">
     <g id="line2d_21">
      <path d="M 26.2 114.908001 
L 1142.2 114.908001 
" clip-path="url(#p7242141f53)" style="fill: none; stroke-dasharray: 2.96,1.28; stroke-dashoffset: 0; stroke: #b0b0b0; stroke-width: 0.8"/>
     </g>
     <g id="line2d_22">
      <g>
       <use xlink:href="#md2bde4c6d4" x="26.2" y="114.908001" style="stroke: #000000; stroke-width: 0.8"/>
      </g>
     </g>
     <g id="text_12">
      <!-- 4 -->
      <g transform="translate(7.2 123.240501) scale(0.24 -0.24)">
       <use xlink:href="#TimesNewRomanPSMT-34"/>
      </g>
     </g>
    </g>
    <g id="ytick_4">
     <g id="line2d_23">
      <path d="M 26.2 24.666284 
L 1142.2 24.666284 
" clip-path="url(#p7242141f53)" style="fill: none; stroke-dasharray: 2.96,1.28; stroke-dashoffset: 0; stroke: #b0b0b0; stroke-width: 0.8"/>
     </g>
     <g id="line2d_24">
      <g>
       <use xlink:href="#md2bde4c6d4" x="26.2" y="24.666284" style="stroke: #000000; stroke-width: 0.8"/>
      </g>
     </g>
     <g id="text_13">
      <!-- 5 -->
      <g transform="translate(7.2 32.998784) scale(0.24 -0.24)">
       <defs>
        <path id="TimesNewRomanPSMT-35" d="M 2778 4238 
L 2534 3706 
L 1259 3706 
L 981 3138 
Q 1809 3016 2294 2522 
Q 2709 2097 2709 1522 
Q 2709 1188 2573 903 
Q 2438 619 2231 419 
Q 2025 219 1772 97 
Q 1413 -75 1034 -75 
Q 653 -75 479 54 
Q 306 184 306 341 
Q 306 428 378 495 
Q 450 563 559 563 
Q 641 563 702 538 
Q 763 513 909 409 
Q 1144 247 1384 247 
Q 1750 247 2026 523 
Q 2303 800 2303 1197 
Q 2303 1581 2056 1914 
Q 1809 2247 1375 2428 
Q 1034 2569 447 2591 
L 1259 4238 
L 2778 4238 
z
" transform="scale(0.015625)"/>
       </defs>
       <use xlink:href="#TimesNewRomanPSMT-35"/>
      </g>
     </g>
    </g>
   </g>
   <g id="line2d_25">
    <path d="M 76.927273 275.177292 
L 90.545333 286.186779 
L 104.163392 275.177292 
L 110.972422 272.470044 
L 117.781452 266.965291 
L 124.590482 277.974778 
L 131.399512 277.974778 
L 138.208542 266.965291 
L 145.017572 250.451069 
L 151.826602 223.017573 
L 158.635631 220.220088 
L 165.444661 220.220088 
L 172.253691 214.715335 
L 179.062721 239.531814 
L 185.871751 253.248549 
L 199.489811 297.19626 
L 206.298841 275.177292 
L 213.107871 305.498499 
L 219.916901 291.691532 
L 226.72593 261.460557 
L 233.53496 277.974778 
L 240.34399 286.186779 
L 247.15302 277.974778 
L 253.96205 280.682026 
L 260.77108 280.682026 
L 267.58011 277.974778 
L 274.38914 269.762796 
L 281.19817 283.479531 
L 288.0072 286.186779 
L 294.816229 277.974778 
L 301.625259 272.470044 
L 308.434289 255.955797 
L 315.243319 261.261831 
L 322.052349 252.388832 
L 328.861379 254.739129 
L 335.670409 260.370866 
L 342.479439 265.380556 
L 349.288469 276.709568 
L 356.097498 285.045442 
L 362.906528 204.856264 
L 369.715558 210.892089 
L 376.524588 212.195763 
L 383.333618 211.600606 
L 390.142648 207.912292 
L 396.951678 219.859332 
L 403.760708 227.130974 
L 410.569738 226.295682 
L 417.378768 234.153078 
L 424.187797 240.941288 
L 430.996827 240.339947 
L 437.805857 241.648925 
L 444.614887 234.212067 
L 451.423917 247.450009 
L 458.232947 252.115846 
L 465.041977 256.364685 
L 471.851007 247.224046 
L 478.660037 240.76933 
L 485.469067 239.57504 
L 492.278096 234.707114 
L 499.087126 212.93007 
L 505.896156 86.931238 
L 512.705186 85.680072 
L 519.514216 81.949982 
L 526.323246 101.56285 
L 533.132276 108.688436 
L 539.941306 101.091894 
L 546.750336 103.357571 
L 553.559365 99.317143 
L 560.368395 104.214202 
L 567.177425 107.198082 
L 573.986455 117.540407 
L 580.795485 120.080927 
L 587.604515 121.551368 
L 594.413545 122.280291 
L 601.222575 126.447198 
L 608.031605 126.749903 
L 614.840635 125.48082 
L 621.649664 127.470286 
L 628.458694 124.719049 
L 635.267724 120.964379 
L 642.076754 124.02242 
L 648.885784 115.810419 
L 655.694814 104.800932 
L 662.503844 96.588924 
L 669.312874 85.579462 
L 676.121904 80.074684 
L 682.930933 71.862676 
L 689.739963 58.05571 
L 696.548993 33.329506 
L 703.358023 27.824728 
L 716.976083 38.834234 
L 723.785113 22.32 
L 730.594143 47.046241 
L 737.403173 52.550982 
L 744.212203 237.472253 
L 751.021232 261.460557 
L 757.830262 247.743796 
L 764.639292 239.531814 
L 771.448322 250.451069 
L 778.257352 264.258036 
L 785.066382 228.522326 
L 791.875412 236.734309 
L 798.684442 239.531814 
L 805.493472 200.998598 
L 812.302502 189.98911 
L 819.111531 202.62258 
L 825.920561 223.017573 
L 832.729591 269.762796 
L 839.538621 297.19626 
L 846.347651 297.19626 
L 853.156681 302.701013 
L 859.965711 286.186779 
L 866.774741 291.691532 
L 873.583771 291.691532 
L 880.3928 277.974778 
L 887.20183 308.205754 
L 894.01086 310.913008 
L 900.81989 308.205754 
L 907.62892 302.701013 
L 914.43795 302.701013 
L 921.24698 299.993759 
L 934.86504 305.498499 
L 941.67407 310.913008 
L 948.483099 302.701013 
L 955.292129 308.205754 
L 962.101159 302.782201 
L 968.910189 291.691532 
L 975.719219 269.762796 
L 982.528249 266.965291 
L 989.337279 258.753308 
L 996.146309 272.470044 
L 1002.955339 272.470044 
L 1009.764369 283.479531 
L 1016.573398 286.186779 
L 1023.382428 266.965291 
L 1030.191458 266.965291 
L 1037.000488 258.753308 
L 1043.809518 272.470044 
L 1057.427578 250.451069 
L 1064.236608 262.761473 
L 1071.045638 261.460557 
L 1077.854667 269.762796 
L 1084.663697 302.701013 
L 1091.472727 291.691532 
L 1091.472727 291.691532 
" clip-path="url(#p7242141f53)" style="fill: none; stroke-dasharray: 11.1,4.8; stroke-dashoffset: 0; stroke: #f47721; stroke-width: 3"/>
   </g>
   <g id="line2d_26">
    <path d="M 76.927273 281.040539 
L 83.736303 281.160017 
L 90.545333 286.186779 
L 104.163392 275.177292 
L 110.972422 272.470044 
L 117.781452 266.965291 
L 124.590482 277.974778 
L 131.399512 277.974778 
L 138.208542 266.965291 
L 145.017572 250.451069 
L 151.826602 223.017573 
L 158.635631 220.220088 
L 165.444661 220.220088 
L 172.253691 227.743398 
L 179.062721 245.75814 
L 185.871751 253.248549 
L 199.489811 297.19626 
L 206.298841 296.335158 
L 213.107871 305.498499 
L 219.916901 291.691532 
L 226.72593 261.460557 
L 233.53496 277.974778 
L 240.34399 273.767132 
L 247.15302 277.974778 
L 253.96205 277.390888 
L 260.77108 280.682026 
L 267.58011 277.974778 
L 274.38914 278.868747 
L 281.19817 280.907107 
L 288.0072 286.186779 
L 294.816229 277.974778 
L 301.625259 272.470044 
L 308.434289 255.955797 
L 315.243319 253.446878 
L 322.052349 245.898135 
L 328.861379 244.59888 
L 335.670409 250.104736 
L 342.479439 256.559714 
L 349.288469 262.580771 
L 356.097498 264.038409 
L 362.906528 227.855542 
L 369.715558 229.211663 
L 376.524588 228.106096 
L 383.333618 237.35361 
L 390.142648 244.929886 
L 396.951678 260.268965 
L 403.760708 268.236269 
L 410.569738 273.269625 
L 417.378768 277.603909 
L 424.187797 278.83707 
L 430.996827 283.184938 
L 437.805857 280.848011 
L 444.614887 279.541376 
L 451.423917 288.209162 
L 458.232947 292.84547 
L 465.041977 293.162987 
L 471.851007 282.096343 
L 478.660037 282.286831 
L 485.469067 274.008573 
L 492.278096 266.588156 
L 499.087126 261.84933 
L 505.896156 134.713579 
L 512.705186 143.801903 
L 519.514216 141.376156 
L 526.323246 119.087772 
L 533.132276 121.542514 
L 539.941306 119.497157 
L 546.750336 115.049605 
L 553.559365 111.071769 
L 560.368395 112.436229 
L 567.177425 118.081159 
L 573.986455 120.444863 
L 580.795485 124.846146 
L 587.604515 126.477943 
L 594.413545 130.090376 
L 601.222575 128.205449 
L 608.031605 123.420872 
L 614.840635 126.206953 
L 621.649664 124.957103 
L 628.458694 123.191263 
L 635.267724 118.781969 
L 642.076754 124.02242 
L 648.885784 115.810419 
L 655.694814 104.800932 
L 662.503844 96.588924 
L 669.312874 85.579462 
L 676.121904 80.074684 
L 682.930933 71.862676 
L 689.739963 58.05571 
L 696.548993 33.329506 
L 703.358023 27.824728 
L 710.167053 26.531563 
L 716.976083 26.081377 
L 723.785113 22.32 
L 730.594143 47.046241 
L 737.403173 52.550982 
L 744.212203 246.107006 
L 751.021232 261.460557 
L 757.830262 247.743796 
L 764.639292 239.531814 
L 771.448322 250.451069 
L 778.257352 241.692195 
L 785.066382 228.522326 
L 791.875412 236.734309 
L 798.684442 222.573618 
L 805.493472 200.998598 
L 812.302502 189.98911 
L 819.111531 200.196787 
L 825.920561 223.017573 
L 832.729591 269.762796 
L 839.538621 297.19626 
L 846.347651 300.811609 
L 853.156681 302.701013 
L 859.965711 286.186779 
L 866.774741 291.691532 
L 873.583771 291.691532 
L 880.3928 277.974778 
L 887.20183 308.205754 
L 894.01086 310.913008 
L 900.81989 308.205754 
L 907.62892 302.701013 
L 914.43795 302.701013 
L 921.24698 300.663868 
L 928.05601 302.701013 
L 934.86504 305.498499 
L 941.67407 310.913008 
L 948.483099 302.701013 
L 955.292129 308.205754 
L 962.101159 301.490951 
L 968.910189 287.180602 
L 975.719219 269.762796 
L 982.528249 270.468568 
L 989.337279 258.753308 
L 996.146309 272.470044 
L 1002.955339 272.470044 
L 1009.764369 283.479531 
L 1016.573398 286.186779 
L 1023.382428 266.965291 
L 1030.191458 273.344585 
L 1037.000488 258.753308 
L 1043.809518 272.470044 
L 1057.427578 250.451069 
L 1064.236608 261.962163 
L 1071.045638 261.460557 
L 1077.854667 281.533575 
L 1084.663697 302.701013 
L 1091.472727 291.691532 
L 1091.472727 291.691532 
" clip-path="url(#p7242141f53)" style="fill: none; stroke-dasharray: 11.1,4.8; stroke-dashoffset: 0; stroke: #f24c3d; stroke-width: 3"/>
   </g>
   <g id="line2d_27">
    <path d="M 76.927273 275.177292 
L 90.545333 286.186779 
L 104.163392 275.177292 
L 110.972422 272.470044 
L 117.781452 266.965291 
L 124.590482 277.974778 
L 131.399512 277.974778 
L 138.208542 266.965291 
L 145.017572 250.451069 
L 151.826602 223.017573 
L 158.635631 220.220088 
L 165.444661 220.220088 
L 172.253691 214.715335 
L 179.062721 239.531814 
L 185.871751 253.248549 
L 199.489811 297.19626 
L 206.298841 275.177292 
L 213.107871 305.498499 
L 219.916901 291.691532 
L 226.72593 261.460557 
L 233.53496 277.974778 
L 240.34399 286.186779 
L 247.15302 277.974778 
L 253.96205 280.682026 
L 260.77108 280.682026 
L 267.58011 277.974778 
L 274.38914 269.762796 
L 281.19817 283.479531 
L 288.0072 286.186779 
L 294.816229 277.974778 
L 301.625259 272.470044 
L 308.434289 255.955797 
L 315.243319 266.965291 
L 322.052349 236.734309 
L 328.861379 234.027061 
L 335.670409 242.239062 
L 342.479439 242.239062 
L 349.288469 264.258036 
L 356.097498 264.258036 
L 362.906528 261.460557 
L 369.715558 255.955797 
L 376.524588 242.239062 
L 383.333618 250.451069 
L 390.142648 253.248549 
L 396.951678 266.965291 
L 403.760708 272.470044 
L 410.569738 283.479531 
L 417.378768 283.479531 
L 424.187797 297.19626 
L 430.996827 291.691532 
L 437.805857 299.993759 
L 444.614887 283.479531 
L 451.423917 288.984265 
L 458.232947 310.913008 
L 465.041977 316.417761 
L 471.851007 310.913008 
L 478.660037 294.489018 
L 485.469067 302.701013 
L 492.278096 319.215247 
L 499.087126 324.72 
L 505.896156 118.517667 
L 512.705186 124.02242 
L 519.514216 126.819906 
L 526.323246 135.031907 
L 533.132276 129.527154 
L 539.941306 140.536642 
L 546.750336 135.031907 
L 553.559365 137.829393 
L 560.368395 110.30566 
L 567.177425 124.02242 
L 573.986455 113.012933 
L 587.604515 118.517667 
L 594.413545 126.819906 
L 601.222575 115.810419 
L 614.840635 121.315172 
L 621.649664 121.315172 
L 628.458694 129.527154 
L 642.076754 124.02242 
L 648.885784 115.810419 
L 655.694814 104.800932 
L 662.503844 96.588924 
L 669.312874 85.579462 
L 676.121904 80.074684 
L 682.930933 71.862676 
L 689.739963 58.05571 
L 696.548993 33.329506 
L 703.358023 27.824728 
L 716.976083 38.834234 
L 723.785113 22.32 
L 730.594143 47.046241 
L 737.403173 52.550982 
L 744.212203 258.753308 
L 751.021232 261.460557 
L 757.830262 247.743796 
L 764.639292 239.531814 
L 771.448322 250.451069 
L 778.257352 264.258036 
L 785.066382 228.522326 
L 791.875412 236.734309 
L 798.684442 239.531814 
L 805.493472 200.998598 
L 812.302502 189.98911 
L 819.111531 209.2106 
L 825.920561 223.017573 
L 832.729591 269.762796 
L 839.538621 297.19626 
L 846.347651 297.19626 
L 853.156681 302.701013 
L 859.965711 286.186779 
L 866.774741 291.691532 
L 873.583771 291.691532 
L 880.3928 277.974778 
L 887.20183 308.205754 
L 894.01086 310.913008 
L 900.81989 308.205754 
L 907.62892 302.701013 
L 914.43795 302.701013 
L 921.24698 299.993759 
L 934.86504 305.498499 
L 941.67407 310.913008 
L 948.483099 302.701013 
L 955.292129 308.205754 
L 968.910189 291.691532 
L 975.719219 269.762796 
L 982.528249 266.965291 
L 989.337279 258.753308 
L 996.146309 272.470044 
L 1002.955339 272.470044 
L 1009.764369 283.479531 
L 1016.573398 286.186779 
L 1023.382428 266.965291 
L 1030.191458 266.965291 
L 1037.000488 258.753308 
L 1043.809518 272.470044 
L 1057.427578 250.451069 
L 1064.236608 261.460557 
L 1071.045638 261.460557 
L 1077.854667 269.762796 
L 1084.663697 302.701013 
L 1091.472727 291.691532 
L 1091.472727 291.691532 
" clip-path="url(#p7242141f53)" style="fill: none; stroke-dasharray: 11.1,4.8; stroke-dashoffset: 0; stroke: #068ff8; stroke-width: 3"/>
   </g>
   <g id="patch_3">
    <path d="M 26.2 339.84 
L 26.2 7.2 
" style="fill: none; stroke: #000000; stroke-width: 0.8; stroke-linejoin: miter; stroke-linecap: square"/>
   </g>
   <g id="patch_4">
    <path d="M 1142.2 339.84 
L 1142.2 7.2 
" style="fill: none; stroke: #000000; stroke-width: 0.8; stroke-linejoin: miter; stroke-linecap: square"/>
   </g>
   <g id="patch_5">
    <path d="M 26.2 339.84 
L 1142.2 339.84 
" style="fill: none; stroke: #000000; stroke-width: 0.8; stroke-linejoin: miter; stroke-linecap: square"/>
   </g>
   <g id="patch_6">
    <path d="M 26.2 7.2 
L 1142.2 7.2 
" style="fill: none; stroke: #000000; stroke-width: 0.8; stroke-linejoin: miter; stroke-linecap: square"/>
   </g>
   <g id="PathCollection_1">
    <defs>
     <path id="m1f603f20a4" d="M 0 3.535534 
C 0.937635 3.535534 1.836992 3.163008 2.5 2.5 
C 3.163008 1.836992 3.535534 0.937635 3.535534 0 
C 3.535534 -0.937635 3.163008 -1.836992 2.5 -2.5 
C 1.836992 -3.163008 0.937635 -3.535534 0 -3.535534 
C -0.937635 -3.535534 -1.836992 -3.163008 -2.5 -2.5 
C -3.163008 -1.836992 -3.535534 -0.937635 -3.535534 0 
C -3.535534 0.937635 -3.163008 1.836992 -2.5 2.5 
C -1.836992 3.163008 -0.937635 3.535534 0 3.535534 
z
" style="stroke: #22a699"/>
    </defs>
    <g clip-path="url(#p7242141f53)">
     <use xlink:href="#m1f603f20a4" x="90.545333" y="286.186779" style="fill: #22a699; stroke: #22a699"/>
     <use xlink:href="#m1f603f20a4" x="97.354362" y="280.682026" style="fill: #22a699; stroke: #22a699"/>
     <use xlink:href="#m1f603f20a4" x="104.163392" y="275.177292" style="fill: #22a699; stroke: #22a699"/>
     <use xlink:href="#m1f603f20a4" x="110.972422" y="272.470044" style="fill: #22a699; stroke: #22a699"/>
     <use xlink:href="#m1f603f20a4" x="117.781452" y="266.965291" style="fill: #22a699; stroke: #22a699"/>
     <use xlink:href="#m1f603f20a4" x="124.590482" y="277.974778" style="fill: #22a699; stroke: #22a699"/>
     <use xlink:href="#m1f603f20a4" x="131.399512" y="277.974778" style="fill: #22a699; stroke: #22a699"/>
     <use xlink:href="#m1f603f20a4" x="138.208542" y="266.965291" style="fill: #22a699; stroke: #22a699"/>
     <use xlink:href="#m1f603f20a4" x="145.017572" y="250.451069" style="fill: #22a699; stroke: #22a699"/>
     <use xlink:href="#m1f603f20a4" x="151.826602" y="223.017573" style="fill: #22a699; stroke: #22a699"/>
     <use xlink:href="#m1f603f20a4" x="158.635631" y="220.220088" style="fill: #22a699; stroke: #22a699"/>
     <use xlink:href="#m1f603f20a4" x="165.444661" y="220.220088" style="fill: #22a699; stroke: #22a699"/>
     <use xlink:href="#m1f603f20a4" x="185.871751" y="253.248549" style="fill: #22a699; stroke: #22a699"/>
     <use xlink:href="#m1f603f20a4" x="192.680781" y="275.177292" style="fill: #22a699; stroke: #22a699"/>
     <use xlink:href="#m1f603f20a4" x="199.489811" y="297.19626" style="fill: #22a699; stroke: #22a699"/>
     <use xlink:href="#m1f603f20a4" x="213.107871" y="305.498499" style="fill: #22a699; stroke: #22a699"/>
     <use xlink:href="#m1f603f20a4" x="219.916901" y="291.691532" style="fill: #22a699; stroke: #22a699"/>
     <use xlink:href="#m1f603f20a4" x="226.72593" y="261.460557" style="fill: #22a699; stroke: #22a699"/>
     <use xlink:href="#m1f603f20a4" x="233.53496" y="277.974778" style="fill: #22a699; stroke: #22a699"/>
     <use xlink:href="#m1f603f20a4" x="247.15302" y="277.974778" style="fill: #22a699; stroke: #22a699"/>
     <use xlink:href="#m1f603f20a4" x="260.77108" y="280.682026" style="fill: #22a699; stroke: #22a699"/>
     <use xlink:href="#m1f603f20a4" x="267.58011" y="277.974778" style="fill: #22a699; stroke: #22a699"/>
     <use xlink:href="#m1f603f20a4" x="288.0072" y="286.186779" style="fill: #22a699; stroke: #22a699"/>
     <use xlink:href="#m1f603f20a4" x="294.816229" y="277.974778" style="fill: #22a699; stroke: #22a699"/>
     <use xlink:href="#m1f603f20a4" x="301.625259" y="272.470044" style="fill: #22a699; stroke: #22a699"/>
     <use xlink:href="#m1f603f20a4" x="308.434289" y="255.955797" style="fill: #22a699; stroke: #22a699"/>
     <use xlink:href="#m1f603f20a4" x="642.076754" y="124.02242" style="fill: #22a699; stroke: #22a699"/>
     <use xlink:href="#m1f603f20a4" x="648.885784" y="115.810419" style="fill: #22a699; stroke: #22a699"/>
     <use xlink:href="#m1f603f20a4" x="655.694814" y="104.800932" style="fill: #22a699; stroke: #22a699"/>
     <use xlink:href="#m1f603f20a4" x="662.503844" y="96.588924" style="fill: #22a699; stroke: #22a699"/>
     <use xlink:href="#m1f603f20a4" x="669.312874" y="85.579462" style="fill: #22a699; stroke: #22a699"/>
     <use xlink:href="#m1f603f20a4" x="676.121904" y="80.074684" style="fill: #22a699; stroke: #22a699"/>
     <use xlink:href="#m1f603f20a4" x="682.930933" y="71.862676" style="fill: #22a699; stroke: #22a699"/>
     <use xlink:href="#m1f603f20a4" x="689.739963" y="58.05571" style="fill: #22a699; stroke: #22a699"/>
     <use xlink:href="#m1f603f20a4" x="696.548993" y="33.329506" style="fill: #22a699; stroke: #22a699"/>
     <use xlink:href="#m1f603f20a4" x="703.358023" y="27.824728" style="fill: #22a699; stroke: #22a699"/>
     <use xlink:href="#m1f603f20a4" x="723.785113" y="22.32" style="fill: #22a699; stroke: #22a699"/>
     <use xlink:href="#m1f603f20a4" x="730.594143" y="47.046241" style="fill: #22a699; stroke: #22a699"/>
     <use xlink:href="#m1f603f20a4" x="737.403173" y="52.550982" style="fill: #22a699; stroke: #22a699"/>
     <use xlink:href="#m1f603f20a4" x="751.021232" y="261.460557" style="fill: #22a699; stroke: #22a699"/>
     <use xlink:href="#m1f603f20a4" x="757.830262" y="247.743796" style="fill: #22a699; stroke: #22a699"/>
     <use xlink:href="#m1f603f20a4" x="764.639292" y="239.531814" style="fill: #22a699; stroke: #22a699"/>
     <use xlink:href="#m1f603f20a4" x="771.448322" y="250.451069" style="fill: #22a699; stroke: #22a699"/>
     <use xlink:href="#m1f603f20a4" x="785.066382" y="228.522326" style="fill: #22a699; stroke: #22a699"/>
     <use xlink:href="#m1f603f20a4" x="791.875412" y="236.734309" style="fill: #22a699; stroke: #22a699"/>
     <use xlink:href="#m1f603f20a4" x="805.493472" y="200.998598" style="fill: #22a699; stroke: #22a699"/>
     <use xlink:href="#m1f603f20a4" x="812.302502" y="189.98911" style="fill: #22a699; stroke: #22a699"/>
     <use xlink:href="#m1f603f20a4" x="825.920561" y="223.017573" style="fill: #22a699; stroke: #22a699"/>
     <use xlink:href="#m1f603f20a4" x="832.729591" y="269.762796" style="fill: #22a699; stroke: #22a699"/>
     <use xlink:href="#m1f603f20a4" x="839.538621" y="297.19626" style="fill: #22a699; stroke: #22a699"/>
     <use xlink:href="#m1f603f20a4" x="853.156681" y="302.701013" style="fill: #22a699; stroke: #22a699"/>
     <use xlink:href="#m1f603f20a4" x="859.965711" y="286.186779" style="fill: #22a699; stroke: #22a699"/>
     <use xlink:href="#m1f603f20a4" x="866.774741" y="291.691532" style="fill: #22a699; stroke: #22a699"/>
     <use xlink:href="#m1f603f20a4" x="873.583771" y="291.691532" style="fill: #22a699; stroke: #22a699"/>
     <use xlink:href="#m1f603f20a4" x="880.3928" y="277.974778" style="fill: #22a699; stroke: #22a699"/>
     <use xlink:href="#m1f603f20a4" x="887.20183" y="308.205754" style="fill: #22a699; stroke: #22a699"/>
     <use xlink:href="#m1f603f20a4" x="894.01086" y="310.913008" style="fill: #22a699; stroke: #22a699"/>
     <use xlink:href="#m1f603f20a4" x="900.81989" y="308.205754" style="fill: #22a699; stroke: #22a699"/>
     <use xlink:href="#m1f603f20a4" x="907.62892" y="302.701013" style="fill: #22a699; stroke: #22a699"/>
     <use xlink:href="#m1f603f20a4" x="914.43795" y="302.701013" style="fill: #22a699; stroke: #22a699"/>
     <use xlink:href="#m1f603f20a4" x="928.05601" y="302.701013" style="fill: #22a699; stroke: #22a699"/>
     <use xlink:href="#m1f603f20a4" x="934.86504" y="305.498499" style="fill: #22a699; stroke: #22a699"/>
     <use xlink:href="#m1f603f20a4" x="941.67407" y="310.913008" style="fill: #22a699; stroke: #22a699"/>
     <use xlink:href="#m1f603f20a4" x="948.483099" y="302.701013" style="fill: #22a699; stroke: #22a699"/>
     <use xlink:href="#m1f603f20a4" x="955.292129" y="308.205754" style="fill: #22a699; stroke: #22a699"/>
     <use xlink:href="#m1f603f20a4" x="975.719219" y="269.762796" style="fill: #22a699; stroke: #22a699"/>
     <use xlink:href="#m1f603f20a4" x="989.337279" y="258.753308" style="fill: #22a699; stroke: #22a699"/>
     <use xlink:href="#m1f603f20a4" x="996.146309" y="272.470044" style="fill: #22a699; stroke: #22a699"/>
     <use xlink:href="#m1f603f20a4" x="1002.955339" y="272.470044" style="fill: #22a699; stroke: #22a699"/>
     <use xlink:href="#m1f603f20a4" x="1009.764369" y="283.479531" style="fill: #22a699; stroke: #22a699"/>
     <use xlink:href="#m1f603f20a4" x="1016.573398" y="286.186779" style="fill: #22a699; stroke: #22a699"/>
     <use xlink:href="#m1f603f20a4" x="1023.382428" y="266.965291" style="fill: #22a699; stroke: #22a699"/>
     <use xlink:href="#m1f603f20a4" x="1037.000488" y="258.753308" style="fill: #22a699; stroke: #22a699"/>
     <use xlink:href="#m1f603f20a4" x="1043.809518" y="272.470044" style="fill: #22a699; stroke: #22a699"/>
     <use xlink:href="#m1f603f20a4" x="1050.618548" y="261.460557" style="fill: #22a699; stroke: #22a699"/>
     <use xlink:href="#m1f603f20a4" x="1057.427578" y="250.451069" style="fill: #22a699; stroke: #22a699"/>
     <use xlink:href="#m1f603f20a4" x="1071.045638" y="261.460557" style="fill: #22a699; stroke: #22a699"/>
     <use xlink:href="#m1f603f20a4" x="1084.663697" y="302.701013" style="fill: #22a699; stroke: #22a699"/>
     <use xlink:href="#m1f603f20a4" x="1091.472727" y="291.691532" style="fill: #22a699; stroke: #22a699"/>
    </g>
   </g>
   <g id="legend_1">
    <g id="patch_7">
     <path d="M 848.545 323.84 
L 1119.8 323.84 
Q 1126.2 323.84 1126.2 317.44 
L 1126.2 139.66 
Q 1126.2 133.26 1119.8 133.26 
L 848.545 133.26 
Q 842.145 133.26 842.145 139.66 
L 842.145 317.44 
Q 842.145 323.84 848.545 323.84 
z
" style="fill: #ffffff; opacity: 0.8; stroke: #cccccc; stroke-linejoin: miter"/>
    </g>
    <g id="PathCollection_2">
     <g>
      <use xlink:href="#m1f603f20a4" x="886.945" y="160.06" style="fill: #22a699; stroke: #22a699"/>
     </g>
    </g>
    <g id="text_14">
     <!-- Observed -->
     <g transform="translate(944.545 168.46) scale(0.32 -0.32)">
      <defs>
       <path id="TimesNewRomanPSMT-4f" d="M 2341 4334 
Q 3166 4334 3770 3707 
Q 4375 3081 4375 2144 
Q 4375 1178 3765 540 
Q 3156 -97 2291 -97 
Q 1416 -97 820 525 
Q 225 1147 225 2134 
Q 225 3144 913 3781 
Q 1509 4334 2341 4334 
z
M 2281 4106 
Q 1713 4106 1369 3684 
Q 941 3159 941 2147 
Q 941 1109 1384 550 
Q 1725 125 2284 125 
Q 2881 125 3270 590 
Q 3659 1056 3659 2059 
Q 3659 3147 3231 3681 
Q 2888 4106 2281 4106 
z
" transform="scale(0.015625)"/>
       <path id="TimesNewRomanPSMT-62" d="M 984 2369 
Q 1400 2947 1881 2947 
Q 2322 2947 2650 2570 
Q 2978 2194 2978 1541 
Q 2978 778 2472 313 
Q 2038 -88 1503 -88 
Q 1253 -88 995 3 
Q 738 94 469 275 
L 469 3241 
Q 469 3728 445 3840 
Q 422 3953 372 3993 
Q 322 4034 247 4034 
Q 159 4034 28 3984 
L -16 4094 
L 844 4444 
L 984 4444 
L 984 2369 
z
M 984 2169 
L 984 456 
Q 1144 300 1314 220 
Q 1484 141 1663 141 
Q 1947 141 2192 453 
Q 2438 766 2438 1363 
Q 2438 1913 2192 2208 
Q 1947 2503 1634 2503 
Q 1469 2503 1303 2419 
Q 1178 2356 984 2169 
z
" transform="scale(0.015625)"/>
       <path id="TimesNewRomanPSMT-72" d="M 1038 2947 
L 1038 2303 
Q 1397 2947 1775 2947 
Q 1947 2947 2059 2842 
Q 2172 2738 2172 2600 
Q 2172 2478 2090 2393 
Q 2009 2309 1897 2309 
Q 1788 2309 1652 2417 
Q 1516 2525 1450 2525 
Q 1394 2525 1328 2463 
Q 1188 2334 1038 2041 
L 1038 669 
Q 1038 431 1097 309 
Q 1138 225 1241 169 
Q 1344 113 1538 113 
L 1538 0 
L 72 0 
L 72 113 
Q 291 113 397 181 
Q 475 231 506 341 
Q 522 394 522 644 
L 522 1753 
Q 522 2253 501 2348 
Q 481 2444 426 2487 
Q 372 2531 291 2531 
Q 194 2531 72 2484 
L 41 2597 
L 906 2947 
L 1038 2947 
z
" transform="scale(0.015625)"/>
       <path id="TimesNewRomanPSMT-76" d="M 53 2863 
L 1400 2863 
L 1400 2747 
L 1313 2747 
Q 1191 2747 1127 2687 
Q 1063 2628 1063 2528 
Q 1063 2419 1128 2269 
L 1794 688 
L 2463 2328 
Q 2534 2503 2534 2594 
Q 2534 2638 2509 2666 
Q 2475 2713 2422 2730 
Q 2369 2747 2206 2747 
L 2206 2863 
L 3141 2863 
L 3141 2747 
Q 2978 2734 2916 2681 
Q 2806 2588 2719 2369 
L 1703 -88 
L 1575 -88 
L 553 2328 
Q 484 2497 421 2570 
Q 359 2644 263 2694 
Q 209 2722 53 2747 
L 53 2863 
z
" transform="scale(0.015625)"/>
       <path id="TimesNewRomanPSMT-64" d="M 2222 322 
Q 2013 103 1813 7 
Q 1613 -88 1381 -88 
Q 913 -88 563 304 
Q 213 697 213 1313 
Q 213 1928 600 2439 
Q 988 2950 1597 2950 
Q 1975 2950 2222 2709 
L 2222 3238 
Q 2222 3728 2198 3840 
Q 2175 3953 2125 3993 
Q 2075 4034 2000 4034 
Q 1919 4034 1784 3984 
L 1744 4094 
L 2597 4444 
L 2738 4444 
L 2738 1134 
Q 2738 631 2761 520 
Q 2784 409 2836 365 
Q 2888 322 2956 322 
Q 3041 322 3181 375 
L 3216 266 
L 2366 -88 
L 2222 -88 
L 2222 322 
z
M 2222 541 
L 2222 2016 
Q 2203 2228 2109 2403 
Q 2016 2578 1861 2667 
Q 1706 2756 1559 2756 
Q 1284 2756 1069 2509 
Q 784 2184 784 1559 
Q 784 928 1059 592 
Q 1334 256 1672 256 
Q 1956 256 2222 541 
z
" transform="scale(0.015625)"/>
      </defs>
      <use xlink:href="#TimesNewRomanPSMT-4f"/>
      <use xlink:href="#TimesNewRomanPSMT-62" x="72.216797"/>
      <use xlink:href="#TimesNewRomanPSMT-73" x="122.216797"/>
      <use xlink:href="#TimesNewRomanPSMT-65" x="161.132812"/>
      <use xlink:href="#TimesNewRomanPSMT-72" x="205.517578"/>
      <use xlink:href="#TimesNewRomanPSMT-76" x="238.818359"/>
      <use xlink:href="#TimesNewRomanPSMT-65" x="288.818359"/>
      <use xlink:href="#TimesNewRomanPSMT-64" x="333.203125"/>
     </g>
    </g>
    <g id="line2d_28">
     <path d="M 854.945 202.505 
L 886.945 202.505 
L 918.945 202.505 
" style="fill: none; stroke-dasharray: 11.1,4.8; stroke-dashoffset: 0; stroke: #f47721; stroke-width: 3"/>
    </g>
    <g id="text_15">
     <!-- CSDI -->
     <g transform="translate(944.545 213.705) scale(0.32 -0.32)">
      <defs>
       <path id="TimesNewRomanPSMT-43" d="M 3853 4334 
L 3950 2894 
L 3853 2894 
Q 3659 3541 3300 3825 
Q 2941 4109 2438 4109 
Q 2016 4109 1675 3895 
Q 1334 3681 1139 3212 
Q 944 2744 944 2047 
Q 944 1472 1128 1050 
Q 1313 628 1683 403 
Q 2053 178 2528 178 
Q 2941 178 3256 354 
Q 3572 531 3950 1056 
L 4047 994 
Q 3728 428 3303 165 
Q 2878 -97 2294 -97 
Q 1241 -97 663 684 
Q 231 1266 231 2053 
Q 231 2688 515 3219 
Q 800 3750 1298 4042 
Q 1797 4334 2388 4334 
Q 2847 4334 3294 4109 
Q 3425 4041 3481 4041 
Q 3566 4041 3628 4100 
Q 3709 4184 3744 4334 
L 3853 4334 
z
" transform="scale(0.015625)"/>
       <path id="TimesNewRomanPSMT-53" d="M 2934 4334 
L 2934 2869 
L 2819 2869 
Q 2763 3291 2617 3541 
Q 2472 3791 2203 3937 
Q 1934 4084 1647 4084 
Q 1322 4084 1109 3886 
Q 897 3688 897 3434 
Q 897 3241 1031 3081 
Q 1225 2847 1953 2456 
Q 2547 2138 2764 1967 
Q 2981 1797 3098 1565 
Q 3216 1334 3216 1081 
Q 3216 600 2842 251 
Q 2469 -97 1881 -97 
Q 1697 -97 1534 -69 
Q 1438 -53 1133 45 
Q 828 144 747 144 
Q 669 144 623 97 
Q 578 50 556 -97 
L 441 -97 
L 441 1356 
L 556 1356 
Q 638 900 775 673 
Q 913 447 1195 297 
Q 1478 147 1816 147 
Q 2206 147 2432 353 
Q 2659 559 2659 841 
Q 2659 997 2573 1156 
Q 2488 1316 2306 1453 
Q 2184 1547 1640 1851 
Q 1097 2156 867 2337 
Q 638 2519 519 2737 
Q 400 2956 400 3219 
Q 400 3675 750 4004 
Q 1100 4334 1641 4334 
Q 1978 4334 2356 4169 
Q 2531 4091 2603 4091 
Q 2684 4091 2736 4139 
Q 2788 4188 2819 4334 
L 2934 4334 
z
" transform="scale(0.015625)"/>
       <path id="TimesNewRomanPSMT-44" d="M 109 0 
L 109 116 
L 269 116 
Q 538 116 650 288 
Q 719 391 719 750 
L 719 3488 
Q 719 3884 631 3984 
Q 509 4122 269 4122 
L 109 4122 
L 109 4238 
L 1834 4238 
Q 2784 4238 3279 4022 
Q 3775 3806 4076 3303 
Q 4378 2800 4378 2141 
Q 4378 1256 3841 663 
Q 3238 0 2003 0 
L 109 0 
z
M 1319 306 
Q 1716 219 1984 219 
Q 2709 219 3187 728 
Q 3666 1238 3666 2109 
Q 3666 2988 3187 3494 
Q 2709 4000 1959 4000 
Q 1678 4000 1319 3909 
L 1319 306 
z
" transform="scale(0.015625)"/>
       <path id="TimesNewRomanPSMT-49" d="M 1975 116 
L 1975 0 
L 159 0 
L 159 116 
L 309 116 
Q 572 116 691 269 
Q 766 369 766 750 
L 766 3488 
Q 766 3809 725 3913 
Q 694 3991 597 4047 
Q 459 4122 309 4122 
L 159 4122 
L 159 4238 
L 1975 4238 
L 1975 4122 
L 1822 4122 
Q 1563 4122 1444 3969 
Q 1366 3869 1366 3488 
L 1366 750 
Q 1366 428 1406 325 
Q 1438 247 1538 191 
Q 1672 116 1822 116 
L 1975 116 
z
" transform="scale(0.015625)"/>
      </defs>
      <use xlink:href="#TimesNewRomanPSMT-43"/>
      <use xlink:href="#TimesNewRomanPSMT-53" x="66.699219"/>
      <use xlink:href="#TimesNewRomanPSMT-44" x="122.314453"/>
      <use xlink:href="#TimesNewRomanPSMT-49" x="194.53125"/>
     </g>
    </g>
    <g id="line2d_29">
     <path d="M 854.945 247.75 
L 886.945 247.75 
L 918.945 247.75 
" style="fill: none; stroke-dasharray: 11.1,4.8; stroke-dashoffset: 0; stroke: #f24c3d; stroke-width: 3"/>
    </g>
    <g id="text_16">
     <!-- MTSCI -->
     <g transform="translate(944.545 258.95) scale(0.32 -0.32)">
      <defs>
       <path id="TimesNewRomanPSMT-4d" d="M 2619 0 
L 981 3566 
L 981 734 
Q 981 344 1066 247 
Q 1181 116 1431 116 
L 1581 116 
L 1581 0 
L 106 0 
L 106 116 
L 256 116 
Q 525 116 638 278 
Q 706 378 706 734 
L 706 3503 
Q 706 3784 644 3909 
Q 600 4000 483 4061 
Q 366 4122 106 4122 
L 106 4238 
L 1306 4238 
L 2844 922 
L 4356 4238 
L 5556 4238 
L 5556 4122 
L 5409 4122 
Q 5138 4122 5025 3959 
Q 4956 3859 4956 3503 
L 4956 734 
Q 4956 344 5044 247 
Q 5159 116 5409 116 
L 5556 116 
L 5556 0 
L 3756 0 
L 3756 116 
L 3906 116 
Q 4178 116 4288 278 
Q 4356 378 4356 734 
L 4356 3566 
L 2722 0 
L 2619 0 
z
" transform="scale(0.015625)"/>
      </defs>
      <use xlink:href="#TimesNewRomanPSMT-4d"/>
      <use xlink:href="#TimesNewRomanPSMT-54" x="88.916016"/>
      <use xlink:href="#TimesNewRomanPSMT-53" x="150"/>
      <use xlink:href="#TimesNewRomanPSMT-43" x="205.615234"/>
      <use xlink:href="#TimesNewRomanPSMT-49" x="272.314453"/>
     </g>
    </g>
    <g id="line2d_30">
     <path d="M 854.945 292.995 
L 886.945 292.995 
L 918.945 292.995 
" style="fill: none; stroke-dasharray: 11.1,4.8; stroke-dashoffset: 0; stroke: #068ff8; stroke-width: 3"/>
    </g>
    <g id="text_17">
     <!-- Ground-truth -->
     <g transform="translate(944.545 304.195) scale(0.32 -0.32)">
      <defs>
       <path id="TimesNewRomanPSMT-47" d="M 3928 4334 
L 4038 2997 
L 3928 2997 
Q 3763 3497 3500 3750 
Q 3122 4116 2528 4116 
Q 1719 4116 1297 3475 
Q 944 2934 944 2188 
Q 944 1581 1178 1081 
Q 1413 581 1792 348 
Q 2172 116 2572 116 
Q 2806 116 3025 175 
Q 3244 234 3447 350 
L 3447 1575 
Q 3447 1894 3398 1992 
Q 3350 2091 3248 2142 
Q 3147 2194 2891 2194 
L 2891 2313 
L 4531 2313 
L 4531 2194 
L 4453 2194 
Q 4209 2194 4119 2031 
Q 4056 1916 4056 1575 
L 4056 278 
Q 3697 84 3347 -6 
Q 2997 -97 2569 -97 
Q 1341 -97 703 691 
Q 225 1281 225 2053 
Q 225 2613 494 3125 
Q 813 3734 1369 4063 
Q 1834 4334 2469 4334 
Q 2700 4334 2889 4296 
Q 3078 4259 3425 4131 
Q 3600 4066 3659 4066 
Q 3719 4066 3761 4120 
Q 3803 4175 3813 4334 
L 3928 4334 
z
" transform="scale(0.015625)"/>
       <path id="TimesNewRomanPSMT-6f" d="M 1600 2947 
Q 2250 2947 2644 2453 
Q 2978 2031 2978 1484 
Q 2978 1100 2793 706 
Q 2609 313 2286 112 
Q 1963 -88 1566 -88 
Q 919 -88 538 428 
Q 216 863 216 1403 
Q 216 1797 411 2186 
Q 606 2575 925 2761 
Q 1244 2947 1600 2947 
z
M 1503 2744 
Q 1338 2744 1170 2645 
Q 1003 2547 900 2300 
Q 797 2053 797 1666 
Q 797 1041 1045 587 
Q 1294 134 1700 134 
Q 2003 134 2200 384 
Q 2397 634 2397 1244 
Q 2397 2006 2069 2444 
Q 1847 2744 1503 2744 
z
" transform="scale(0.015625)"/>
       <path id="TimesNewRomanPSMT-75" d="M 2709 2863 
L 2709 1128 
Q 2709 631 2732 520 
Q 2756 409 2807 365 
Q 2859 322 2928 322 
Q 3025 322 3147 375 
L 3191 266 
L 2334 -88 
L 2194 -88 
L 2194 519 
Q 1825 119 1631 15 
Q 1438 -88 1222 -88 
Q 981 -88 804 51 
Q 628 191 559 409 
Q 491 628 491 1028 
L 491 2306 
Q 491 2509 447 2587 
Q 403 2666 317 2708 
Q 231 2750 6 2747 
L 6 2863 
L 1009 2863 
L 1009 947 
Q 1009 547 1148 422 
Q 1288 297 1484 297 
Q 1619 297 1789 381 
Q 1959 466 2194 703 
L 2194 2325 
Q 2194 2569 2105 2655 
Q 2016 2741 1734 2747 
L 1734 2863 
L 2709 2863 
z
" transform="scale(0.015625)"/>
       <path id="TimesNewRomanPSMT-6e" d="M 1034 2341 
Q 1538 2947 1994 2947 
Q 2228 2947 2397 2830 
Q 2566 2713 2666 2444 
Q 2734 2256 2734 1869 
L 2734 647 
Q 2734 375 2778 278 
Q 2813 200 2889 156 
Q 2966 113 3172 113 
L 3172 0 
L 1756 0 
L 1756 113 
L 1816 113 
Q 2016 113 2095 173 
Q 2175 234 2206 353 
Q 2219 400 2219 647 
L 2219 1819 
Q 2219 2209 2117 2386 
Q 2016 2563 1775 2563 
Q 1403 2563 1034 2156 
L 1034 647 
Q 1034 356 1069 288 
Q 1113 197 1189 155 
Q 1266 113 1500 113 
L 1500 0 
L 84 0 
L 84 113 
L 147 113 
Q 366 113 442 223 
Q 519 334 519 647 
L 519 1709 
Q 519 2225 495 2337 
Q 472 2450 423 2490 
Q 375 2531 294 2531 
Q 206 2531 84 2484 
L 38 2597 
L 900 2947 
L 1034 2947 
L 1034 2341 
z
" transform="scale(0.015625)"/>
       <path id="TimesNewRomanPSMT-2d" d="M 259 1672 
L 1875 1672 
L 1875 1200 
L 259 1200 
L 259 1672 
z
" transform="scale(0.015625)"/>
       <path id="TimesNewRomanPSMT-68" d="M 1041 4444 
L 1041 2350 
Q 1388 2731 1591 2839 
Q 1794 2947 1997 2947 
Q 2241 2947 2416 2812 
Q 2591 2678 2675 2391 
Q 2734 2191 2734 1659 
L 2734 647 
Q 2734 375 2778 275 
Q 2809 200 2884 156 
Q 2959 113 3159 113 
L 3159 0 
L 1753 0 
L 1753 113 
L 1819 113 
Q 2019 113 2097 173 
Q 2175 234 2206 353 
Q 2216 403 2216 647 
L 2216 1659 
Q 2216 2128 2167 2275 
Q 2119 2422 2012 2495 
Q 1906 2569 1756 2569 
Q 1603 2569 1437 2487 
Q 1272 2406 1041 2159 
L 1041 647 
Q 1041 353 1073 281 
Q 1106 209 1195 161 
Q 1284 113 1503 113 
L 1503 0 
L 84 0 
L 84 113 
Q 275 113 384 172 
Q 447 203 484 290 
Q 522 378 522 647 
L 522 3238 
Q 522 3728 498 3840 
Q 475 3953 426 3993 
Q 378 4034 297 4034 
Q 231 4034 84 3984 
L 41 4094 
L 897 4444 
L 1041 4444 
z
" transform="scale(0.015625)"/>
      </defs>
      <use xlink:href="#TimesNewRomanPSMT-47"/>
      <use xlink:href="#TimesNewRomanPSMT-72" x="72.216797"/>
      <use xlink:href="#TimesNewRomanPSMT-6f" x="105.517578"/>
      <use xlink:href="#TimesNewRomanPSMT-75" x="155.517578"/>
      <use xlink:href="#TimesNewRomanPSMT-6e" x="205.517578"/>
      <use xlink:href="#TimesNewRomanPSMT-64" x="255.517578"/>
      <use xlink:href="#TimesNewRomanPSMT-2d" x="305.517578"/>
      <use xlink:href="#TimesNewRomanPSMT-74" x="338.818359"/>
      <use xlink:href="#TimesNewRomanPSMT-72" x="366.601562"/>
      <use xlink:href="#TimesNewRomanPSMT-75" x="399.902344"/>
      <use xlink:href="#TimesNewRomanPSMT-74" x="449.902344"/>
      <use xlink:href="#TimesNewRomanPSMT-68" x="477.685547"/>
     </g>
    </g>
   </g>
  </g>
 </g>
 <defs>
  <clipPath id="p7242141f53">
   <rect x="26.2" y="7.2" width="1116" height="332.64"/>
  </clipPath>
 </defs>
</svg>
