<?xml version="1.0" encoding="utf-8" standalone="no"?>
<!DOCTYPE svg PUBLIC "-//W3C//DTD SVG 1.1//EN"
  "http://www.w3.org/Graphics/SVG/1.1/DTD/svg11.dtd">
<svg xmlns:xlink="http://www.w3.org/1999/xlink" width="1173.4pt" height="408.90375pt" viewBox="0 0 1173.4 408.90375" xmlns="http://www.w3.org/2000/svg" version="1.1">
 <metadata>
  <rdf:RDF xmlns:dc="http://purl.org/dc/elements/1.1/" xmlns:cc="http://creativecommons.org/ns#" xmlns:rdf="http://www.w3.org/1999/02/22-rdf-syntax-ns#">
   <cc:Work>
    <dc:type rdf:resource="http://purl.org/dc/dcmitype/StillImage"/>
    <dc:date>2024-05-19T22:20:32.374923</dc:date>
    <dc:format>image/svg+xml</dc:format>
    <dc:creator>
     <cc:Agent>
      <dc:title>Matplotlib v3.6.2, https://matplotlib.org/</dc:title>
     </cc:Agent>
    </dc:creator>
   </cc:Work>
  </rdf:RDF>
 </metadata>
 <defs>
  <style type="text/css">*{stroke-linejoin: round; stroke-linecap: butt}</style>
 </defs>
 <g id="figure_1">
  <g id="patch_1">
   <path d="M 0 408.90375 
L 1173.4 408.90375 
L 1173.4 0 
L 0 0 
z
" style="fill: #ffffff"/>
  </g>
  <g id="axes_1">
   <g id="patch_2">
    <path d="M 50.2 339.84 
L 1166.2 339.84 
L 1166.2 7.2 
L 50.2 7.2 
z
" style="fill: #ffffff"/>
   </g>
   <g id="PolyCollection_1">
    <defs>
     <path id="m7d2c347285" d="M 100.927273 -251.224682 
L 100.927273 -251.224682 
L 107.736303 -250.116808 
L 114.545333 -248.902838 
L 121.354362 -252.423141 
L 128.163392 -255.868468 
L 134.972422 -250.471672 
L 141.781452 -247.011934 
L 148.590482 -257.876575 
L 155.399512 -273.000118 
L 162.208542 -283.668223 
L 169.017572 -286.178321 
L 175.826602 -314.249251 
L 182.635631 -329.478172 
L 189.444661 -315.04492 
L 196.253691 -323.830357 
L 203.062721 -326.968026 
L 209.871751 -340.02467 
L 216.680781 -348.931714 
L 223.489811 -340.87262 
L 230.298841 -345.794044 
L 237.107871 -343.283947 
L 243.916901 -351.441859 
L 250.72593 -357.089674 
L 257.53496 -348.343736 
L 264.34399 -344.666157 
L 271.15302 -348.094488 
L 277.96205 -346.421617 
L 284.77108 -343.283947 
L 291.58011 -349.559286 
L 298.38914 -357.623791 
L 305.19817 -372.778023 
L 312.0072 -373.244249 
L 318.816229 -375.288168 
L 325.625259 -377.798313 
L 332.434289 -365.247635 
L 339.243319 -363.992538 
L 346.052349 -365.443452 
L 352.861379 -374.956763 
L 359.670409 -373.405547 
L 366.479439 -367.757732 
L 373.288469 -382.818556 
L 380.097498 -386.58375 
L 386.906528 -384.073653 
L 393.715558 -384.701177 
L 400.524588 -377.170741 
L 407.333618 -375.511419 
L 414.142648 -372.778023 
L 420.951678 -386.58375 
L 427.760708 -379.053362 
L 434.569738 -349.559286 
L 441.378768 -345.16652 
L 448.187797 -361.482393 
L 454.996827 -360.929844 
L 461.805857 -354.238453 
L 468.614887 -350.186811 
L 475.423917 -343.283947 
L 482.232947 -342.02885 
L 489.041977 -331.988317 
L 495.851007 -322.575308 
L 502.660037 -318.18259 
L 509.469067 -318.810114 
L 516.278096 -321.947784 
L 523.087126 -318.18259 
L 529.896156 -305.631911 
L 536.705186 -290.571087 
L 543.514216 -285.646311 
L 550.323246 -284.113958 
L 557.132276 -291.238349 
L 563.941306 -297.776821 
L 570.750336 -287.973566 
L 577.559365 -287.817439 
L 584.368395 -293.619274 
L 591.177425 -283.779585 
L 597.986455 -279.550846 
L 604.795485 -283.437552 
L 611.604515 -283.050801 
L 618.413545 -283.345293 
L 625.222575 -285.995478 
L 632.031605 -290.855764 
L 638.840635 -301.269547 
L 645.649664 -294.458703 
L 652.458694 -294.037289 
L 659.267724 -280.151559 
L 666.076754 -263.344085 
L 672.885784 -260.377288 
L 679.694814 -252.674351 
L 686.503844 -242.173959 
L 693.312874 -239.334132 
L 700.121904 -241.721713 
L 706.930933 -244.225299 
L 713.739963 -239.423998 
L 720.548993 -230.373322 
L 727.358023 -224.161611 
L 734.167053 -219.20562 
L 740.976083 -207.32881 
L 747.785113 -205.88527 
L 754.594143 -217.838682 
L 761.403173 -216.595986 
L 768.212203 -210.119467 
L 775.021232 -209.489645 
L 781.830262 -204.705436 
L 788.639292 -185.620116 
L 795.448322 -178.399444 
L 802.257352 -173.003462 
L 809.066382 -155.187315 
L 815.875412 -124.05503 
L 822.684442 -105.640803 
L 829.493472 -105.220035 
L 836.302502 -105.087057 
L 843.111531 -103.199122 
L 849.920561 -91.4827 
L 856.729591 -88.160848 
L 863.538621 -89.937062 
L 870.347651 -85.825382 
L 877.156681 -86.936321 
L 883.965711 -90.262243 
L 890.774741 -92.584112 
L 897.583771 -94.527082 
L 904.3928 -97.541636 
L 911.20183 -105.258888 
L 918.01086 -108.146974 
L 924.81989 -114.108528 
L 931.62892 -120.070105 
L 938.43795 -125.090371 
L 945.24698 -134.566147 
L 952.05601 -145.444768 
L 958.86504 -145.736244 
L 965.67407 -148.183622 
L 972.483099 -151.572311 
L 979.292129 -157.393178 
L 986.101159 -167.311074 
L 992.910189 -175.41862 
L 999.719219 -180.022141 
L 1006.528249 -182.572503 
L 1013.337279 -181.254687 
L 1020.146309 -194.621143 
L 1026.955339 -199.12642 
L 1033.764369 -194.251771 
L 1040.573398 -211.729045 
L 1047.382428 -221.454883 
L 1054.191458 -232.084926 
L 1061.000488 -252.796151 
L 1067.809518 -267.352303 
L 1074.618548 -257.939294 
L 1081.427578 -260.19842 
L 1088.236608 -253.261084 
L 1095.045638 -258.31058 
L 1101.854667 -249.409472 
L 1108.663697 -250.936702 
L 1115.472727 -261.244246 
L 1115.472727 -275.510263 
L 1115.472727 -275.510263 
L 1108.663697 -260.763225 
L 1101.854667 -256.30774 
L 1095.045638 -264.842205 
L 1088.236608 -257.751041 
L 1081.427578 -260.19842 
L 1074.618548 -257.939294 
L 1067.809518 -267.352303 
L 1061.000488 -252.479779 
L 1054.191458 -232.084926 
L 1047.382428 -221.416821 
L 1040.573398 -211.439054 
L 1033.764369 -194.934929 
L 1026.955339 -198.449104 
L 1020.146309 -194.621143 
L 1013.337279 -181.254687 
L 1006.528249 -182.572503 
L 999.719219 -179.623086 
L 992.910189 -175.41862 
L 986.101159 -167.637164 
L 979.292129 -157.722141 
L 972.483099 -151.572311 
L 965.67407 -148.183622 
L 958.86504 -145.736244 
L 952.05601 -144.8577 
L 945.24698 -134.566147 
L 938.43795 -125.090371 
L 931.62892 -120.070105 
L 924.81989 -114.108528 
L 918.01086 -108.146974 
L 911.20183 -105.072048 
L 904.3928 -97.541636 
L 897.583771 -93.713675 
L 890.774741 -92.584112 
L 883.965711 -90.262243 
L 877.156681 -86.936321 
L 870.347651 -84.865447 
L 863.538621 -89.25819 
L 856.729591 -87.250083 
L 849.920561 -89.571952 
L 843.111531 -101.557849 
L 836.302502 -103.942485 
L 829.493472 -103.31496 
L 822.684442 -102.561902 
L 815.875412 -122.140978 
L 809.066382 -150.944787 
L 802.257352 -168.139203 
L 795.448322 -172.218183 
L 788.639292 -181.693959 
L 781.830262 -200.833715 
L 775.021232 -204.096919 
L 768.212203 -205.602987 
L 761.403173 -213.509928 
L 754.594143 -214.200219 
L 747.785113 -222.671917 
L 740.976083 -226.750897 
L 734.167053 -239.9291 
L 727.358023 -244.133566 
L 720.548993 -250.910944 
L 713.739963 -261.327983 
L 706.930933 -266.097254 
L 700.121904 -261.704536 
L 693.312874 -258.441332 
L 686.503844 -260.135701 
L 679.694814 -271.117545 
L 672.885784 -276.765312 
L 666.076754 -278.647933 
L 659.267724 -296.218902 
L 652.458694 -307.514484 
L 645.649664 -306.88696 
L 638.840635 -313.789823 
L 632.031605 -303.74929 
L 625.222575 -296.846426 
L 618.413545 -294.336281 
L 611.604515 -293.708757 
L 604.795485 -294.963805 
L 597.986455 -289.31599 
L 591.177425 -294.336281 
L 584.368395 -294.963805 
L 577.559365 -289.31599 
L 570.750336 -289.31599 
L 563.941306 -299.356572 
L 557.132276 -292.45366 
L 550.323246 -284.295748 
L 543.514216 -285.550796 
L 536.705186 -290.571087 
L 529.896156 -305.631911 
L 523.087126 -318.18259 
L 516.278096 -321.947784 
L 509.469067 -318.810114 
L 502.660037 -318.18259 
L 495.851007 -322.575308 
L 489.041977 -331.988317 
L 482.232947 -342.02885 
L 475.423917 -343.283947 
L 468.614887 -350.186811 
L 461.805857 -355.207053 
L 454.996827 -362.737489 
L 448.187797 -361.482393 
L 441.378768 -345.16652 
L 434.569738 -349.559286 
L 427.760708 -379.053362 
L 420.951678 -386.58375 
L 414.142648 -372.778023 
L 407.333618 -374.660644 
L 400.524588 -377.170741 
L 393.715558 -384.701177 
L 386.906528 -384.073653 
L 380.097498 -386.58375 
L 373.288469 -382.818556 
L 366.479439 -367.757732 
L 359.670409 -373.405547 
L 352.861379 -376.543217 
L 346.052349 -365.875159 
L 339.243319 -363.992538 
L 332.434289 -365.247635 
L 325.625259 -377.798313 
L 318.816229 -375.288168 
L 312.0072 -374.033071 
L 305.19817 -372.778023 
L 298.38914 -357.717199 
L 291.58011 -349.559286 
L 284.77108 -343.283947 
L 277.96205 -346.421617 
L 271.15302 -350.814335 
L 264.34399 -345.794044 
L 257.53496 -348.30419 
L 250.72593 -357.089674 
L 243.916901 -351.441859 
L 237.107871 -343.283947 
L 230.298841 -345.794044 
L 223.489811 -340.146277 
L 216.680781 -348.931714 
L 209.871751 -341.401326 
L 203.062721 -326.968026 
L 196.253691 -323.830357 
L 189.444661 -315.04492 
L 182.635631 -329.478172 
L 175.826602 -314.417348 
L 169.017572 -286.178321 
L 162.208542 -283.668223 
L 155.399512 -273.000118 
L 148.590482 -257.876575 
L 141.781452 -244.572838 
L 134.972422 -250.471672 
L 128.163392 -255.868468 
L 121.354362 -252.919051 
L 114.545333 -248.902838 
L 107.736303 -250.848177 
L 100.927273 -251.224682 
z
" style="stroke: #808080; stroke-opacity: 0.3"/>
    </defs>
    <g clip-path="url(#p2d4c111f80)">
     <use xlink:href="#m7d2c347285" x="0" y="408.90375" style="fill: #808080; fill-opacity: 0.3; stroke: #808080; stroke-opacity: 0.3"/>
    </g>
   </g>
   <g id="matplotlib.axis_1">
    <g id="xtick_1">
     <g id="line2d_1">
      <path d="M 100.927273 339.84 
L 100.927273 7.2 
" clip-path="url(#p2d4c111f80)" style="fill: none; stroke-dasharray: 2.96,1.28; stroke-dashoffset: 0; stroke: #b0b0b0; stroke-width: 0.8"/>
     </g>
     <g id="line2d_2">
      <defs>
       <path id="mfeb5f6e2a2" d="M 0 0 
L 0 3.5 
" style="stroke: #000000; stroke-width: 0.8"/>
      </defs>
      <g>
       <use xlink:href="#mfeb5f6e2a2" x="100.927273" y="339.84" style="stroke: #000000; stroke-width: 0.8"/>
      </g>
     </g>
     <g id="text_1">
      <!-- 0 -->
      <g transform="translate(94.927273 363.505) scale(0.24 -0.24)">
       <defs>
        <path id="TimesNewRomanPSMT-30" d="M 231 2094 
Q 231 2819 450 3342 
Q 669 3866 1031 4122 
Q 1313 4325 1613 4325 
Q 2100 4325 2488 3828 
Q 2972 3213 2972 2159 
Q 2972 1422 2759 906 
Q 2547 391 2217 158 
Q 1888 -75 1581 -75 
Q 975 -75 572 641 
Q 231 1244 231 2094 
z
M 844 2016 
Q 844 1141 1059 588 
Q 1238 122 1591 122 
Q 1759 122 1940 273 
Q 2122 425 2216 781 
Q 2359 1319 2359 2297 
Q 2359 3022 2209 3506 
Q 2097 3866 1919 4016 
Q 1791 4119 1609 4119 
Q 1397 4119 1231 3928 
Q 1006 3669 925 3112 
Q 844 2556 844 2016 
z
" transform="scale(0.015625)"/>
       </defs>
       <use xlink:href="#TimesNewRomanPSMT-30"/>
      </g>
     </g>
    </g>
    <g id="xtick_2">
     <g id="line2d_3">
      <path d="M 237.107871 339.84 
L 237.107871 7.2 
" clip-path="url(#p2d4c111f80)" style="fill: none; stroke-dasharray: 2.96,1.28; stroke-dashoffset: 0; stroke: #b0b0b0; stroke-width: 0.8"/>
     </g>
     <g id="line2d_4">
      <g>
       <use xlink:href="#mfeb5f6e2a2" x="237.107871" y="339.84" style="stroke: #000000; stroke-width: 0.8"/>
      </g>
     </g>
     <g id="text_2">
      <!-- 20 -->
      <g transform="translate(225.107871 363.505) scale(0.24 -0.24)">
       <defs>
        <path id="TimesNewRomanPSMT-32" d="M 2934 816 
L 2638 0 
L 138 0 
L 138 116 
Q 1241 1122 1691 1759 
Q 2141 2397 2141 2925 
Q 2141 3328 1894 3587 
Q 1647 3847 1303 3847 
Q 991 3847 742 3664 
Q 494 3481 375 3128 
L 259 3128 
Q 338 3706 661 4015 
Q 984 4325 1469 4325 
Q 1984 4325 2329 3994 
Q 2675 3663 2675 3213 
Q 2675 2891 2525 2569 
Q 2294 2063 1775 1497 
Q 997 647 803 472 
L 1909 472 
Q 2247 472 2383 497 
Q 2519 522 2628 598 
Q 2738 675 2819 816 
L 2934 816 
z
" transform="scale(0.015625)"/>
       </defs>
       <use xlink:href="#TimesNewRomanPSMT-32"/>
       <use xlink:href="#TimesNewRomanPSMT-30" x="50"/>
      </g>
     </g>
    </g>
    <g id="xtick_3">
     <g id="line2d_5">
      <path d="M 373.288469 339.84 
L 373.288469 7.2 
" clip-path="url(#p2d4c111f80)" style="fill: none; stroke-dasharray: 2.96,1.28; stroke-dashoffset: 0; stroke: #b0b0b0; stroke-width: 0.8"/>
     </g>
     <g id="line2d_6">
      <g>
       <use xlink:href="#mfeb5f6e2a2" x="373.288469" y="339.84" style="stroke: #000000; stroke-width: 0.8"/>
      </g>
     </g>
     <g id="text_3">
      <!-- 40 -->
      <g transform="translate(361.288469 363.505) scale(0.24 -0.24)">
       <defs>
        <path id="TimesNewRomanPSMT-34" d="M 2978 1563 
L 2978 1119 
L 2409 1119 
L 2409 0 
L 1894 0 
L 1894 1119 
L 100 1119 
L 100 1519 
L 2066 4325 
L 2409 4325 
L 2409 1563 
L 2978 1563 
z
M 1894 1563 
L 1894 3666 
L 406 1563 
L 1894 1563 
z
" transform="scale(0.015625)"/>
       </defs>
       <use xlink:href="#TimesNewRomanPSMT-34"/>
       <use xlink:href="#TimesNewRomanPSMT-30" x="50"/>
      </g>
     </g>
    </g>
    <g id="xtick_4">
     <g id="line2d_7">
      <path d="M 509.469067 339.84 
L 509.469067 7.2 
" clip-path="url(#p2d4c111f80)" style="fill: none; stroke-dasharray: 2.96,1.28; stroke-dashoffset: 0; stroke: #b0b0b0; stroke-width: 0.8"/>
     </g>
     <g id="line2d_8">
      <g>
       <use xlink:href="#mfeb5f6e2a2" x="509.469067" y="339.84" style="stroke: #000000; stroke-width: 0.8"/>
      </g>
     </g>
     <g id="text_4">
      <!-- 60 -->
      <g transform="translate(497.469067 363.505) scale(0.24 -0.24)">
       <defs>
        <path id="TimesNewRomanPSMT-36" d="M 2869 4325 
L 2869 4209 
Q 2456 4169 2195 4045 
Q 1934 3922 1679 3669 
Q 1425 3416 1258 3105 
Q 1091 2794 978 2366 
Q 1428 2675 1881 2675 
Q 2316 2675 2634 2325 
Q 2953 1975 2953 1425 
Q 2953 894 2631 456 
Q 2244 -75 1606 -75 
Q 1172 -75 869 213 
Q 275 772 275 1663 
Q 275 2231 503 2743 
Q 731 3256 1154 3653 
Q 1578 4050 1965 4187 
Q 2353 4325 2688 4325 
L 2869 4325 
z
M 925 2138 
Q 869 1716 869 1456 
Q 869 1156 980 804 
Q 1091 453 1309 247 
Q 1469 100 1697 100 
Q 1969 100 2183 356 
Q 2397 613 2397 1088 
Q 2397 1622 2184 2012 
Q 1972 2403 1581 2403 
Q 1463 2403 1327 2353 
Q 1191 2303 925 2138 
z
" transform="scale(0.015625)"/>
       </defs>
       <use xlink:href="#TimesNewRomanPSMT-36"/>
       <use xlink:href="#TimesNewRomanPSMT-30" x="50"/>
      </g>
     </g>
    </g>
    <g id="xtick_5">
     <g id="line2d_9">
      <path d="M 645.649664 339.84 
L 645.649664 7.2 
" clip-path="url(#p2d4c111f80)" style="fill: none; stroke-dasharray: 2.96,1.28; stroke-dashoffset: 0; stroke: #b0b0b0; stroke-width: 0.8"/>
     </g>
     <g id="line2d_10">
      <g>
       <use xlink:href="#mfeb5f6e2a2" x="645.649664" y="339.84" style="stroke: #000000; stroke-width: 0.8"/>
      </g>
     </g>
     <g id="text_5">
      <!-- 80 -->
      <g transform="translate(633.649664 363.505) scale(0.24 -0.24)">
       <defs>
        <path id="TimesNewRomanPSMT-38" d="M 1228 2134 
Q 725 2547 579 2797 
Q 434 3047 434 3316 
Q 434 3728 753 4026 
Q 1072 4325 1600 4325 
Q 2113 4325 2425 4047 
Q 2738 3769 2738 3413 
Q 2738 3175 2569 2928 
Q 2400 2681 1866 2347 
Q 2416 1922 2594 1678 
Q 2831 1359 2831 1006 
Q 2831 559 2490 242 
Q 2150 -75 1597 -75 
Q 994 -75 656 303 
Q 388 606 388 966 
Q 388 1247 577 1523 
Q 766 1800 1228 2134 
z
M 1719 2469 
Q 2094 2806 2194 3001 
Q 2294 3197 2294 3444 
Q 2294 3772 2109 3958 
Q 1925 4144 1606 4144 
Q 1288 4144 1088 3959 
Q 888 3775 888 3528 
Q 888 3366 970 3203 
Q 1053 3041 1206 2894 
L 1719 2469 
z
M 1375 2016 
Q 1116 1797 991 1539 
Q 866 1281 866 981 
Q 866 578 1086 336 
Q 1306 94 1647 94 
Q 1984 94 2187 284 
Q 2391 475 2391 747 
Q 2391 972 2272 1150 
Q 2050 1481 1375 2016 
z
" transform="scale(0.015625)"/>
       </defs>
       <use xlink:href="#TimesNewRomanPSMT-38"/>
       <use xlink:href="#TimesNewRomanPSMT-30" x="50"/>
      </g>
     </g>
    </g>
    <g id="xtick_6">
     <g id="line2d_11">
      <path d="M 781.830262 339.84 
L 781.830262 7.2 
" clip-path="url(#p2d4c111f80)" style="fill: none; stroke-dasharray: 2.96,1.28; stroke-dashoffset: 0; stroke: #b0b0b0; stroke-width: 0.8"/>
     </g>
     <g id="line2d_12">
      <g>
       <use xlink:href="#mfeb5f6e2a2" x="781.830262" y="339.84" style="stroke: #000000; stroke-width: 0.8"/>
      </g>
     </g>
     <g id="text_6">
      <!-- 100 -->
      <g transform="translate(763.830262 363.505) scale(0.24 -0.24)">
       <defs>
        <path id="TimesNewRomanPSMT-31" d="M 750 3822 
L 1781 4325 
L 1884 4325 
L 1884 747 
Q 1884 391 1914 303 
Q 1944 216 2037 169 
Q 2131 122 2419 116 
L 2419 0 
L 825 0 
L 825 116 
Q 1125 122 1212 167 
Q 1300 213 1334 289 
Q 1369 366 1369 747 
L 1369 3034 
Q 1369 3497 1338 3628 
Q 1316 3728 1258 3775 
Q 1200 3822 1119 3822 
Q 1003 3822 797 3725 
L 750 3822 
z
" transform="scale(0.015625)"/>
       </defs>
       <use xlink:href="#TimesNewRomanPSMT-31"/>
       <use xlink:href="#TimesNewRomanPSMT-30" x="50"/>
       <use xlink:href="#TimesNewRomanPSMT-30" x="100"/>
      </g>
     </g>
    </g>
    <g id="xtick_7">
     <g id="line2d_13">
      <path d="M 918.01086 339.84 
L 918.01086 7.2 
" clip-path="url(#p2d4c111f80)" style="fill: none; stroke-dasharray: 2.96,1.28; stroke-dashoffset: 0; stroke: #b0b0b0; stroke-width: 0.8"/>
     </g>
     <g id="line2d_14">
      <g>
       <use xlink:href="#mfeb5f6e2a2" x="918.01086" y="339.84" style="stroke: #000000; stroke-width: 0.8"/>
      </g>
     </g>
     <g id="text_7">
      <!-- 120 -->
      <g transform="translate(900.01086 363.505) scale(0.24 -0.24)">
       <use xlink:href="#TimesNewRomanPSMT-31"/>
       <use xlink:href="#TimesNewRomanPSMT-32" x="50"/>
       <use xlink:href="#TimesNewRomanPSMT-30" x="100"/>
      </g>
     </g>
    </g>
    <g id="xtick_8">
     <g id="line2d_15">
      <path d="M 1054.191458 339.84 
L 1054.191458 7.2 
" clip-path="url(#p2d4c111f80)" style="fill: none; stroke-dasharray: 2.96,1.28; stroke-dashoffset: 0; stroke: #b0b0b0; stroke-width: 0.8"/>
     </g>
     <g id="line2d_16">
      <g>
       <use xlink:href="#mfeb5f6e2a2" x="1054.191458" y="339.84" style="stroke: #000000; stroke-width: 0.8"/>
      </g>
     </g>
     <g id="text_8">
      <!-- 140 -->
      <g transform="translate(1036.191458 363.505) scale(0.24 -0.24)">
       <use xlink:href="#TimesNewRomanPSMT-31"/>
       <use xlink:href="#TimesNewRomanPSMT-34" x="50"/>
       <use xlink:href="#TimesNewRomanPSMT-30" x="100"/>
      </g>
     </g>
    </g>
    <g id="text_9">
     <!-- Time step -->
     <g transform="translate(545.22 394.85875) scale(0.32 -0.32)">
      <defs>
       <path id="TimesNewRomanPSMT-54" d="M 3703 4238 
L 3750 3244 
L 3631 3244 
Q 3597 3506 3538 3619 
Q 3441 3800 3280 3886 
Q 3119 3972 2856 3972 
L 2259 3972 
L 2259 734 
Q 2259 344 2344 247 
Q 2463 116 2709 116 
L 2856 116 
L 2856 0 
L 1059 0 
L 1059 116 
L 1209 116 
Q 1478 116 1591 278 
Q 1659 378 1659 734 
L 1659 3972 
L 1150 3972 
Q 853 3972 728 3928 
Q 566 3869 450 3700 
Q 334 3531 313 3244 
L 194 3244 
L 244 4238 
L 3703 4238 
z
" transform="scale(0.015625)"/>
       <path id="TimesNewRomanPSMT-69" d="M 928 4444 
Q 1059 4444 1151 4351 
Q 1244 4259 1244 4128 
Q 1244 3997 1151 3903 
Q 1059 3809 928 3809 
Q 797 3809 703 3903 
Q 609 3997 609 4128 
Q 609 4259 701 4351 
Q 794 4444 928 4444 
z
M 1188 2947 
L 1188 647 
Q 1188 378 1227 289 
Q 1266 200 1342 156 
Q 1419 113 1622 113 
L 1622 0 
L 231 0 
L 231 113 
Q 441 113 512 153 
Q 584 194 626 287 
Q 669 381 669 647 
L 669 1750 
Q 669 2216 641 2353 
Q 619 2453 572 2492 
Q 525 2531 444 2531 
Q 356 2531 231 2484 
L 188 2597 
L 1050 2947 
L 1188 2947 
z
" transform="scale(0.015625)"/>
       <path id="TimesNewRomanPSMT-6d" d="M 1050 2338 
Q 1363 2650 1419 2697 
Q 1559 2816 1721 2881 
Q 1884 2947 2044 2947 
Q 2313 2947 2506 2790 
Q 2700 2634 2766 2338 
Q 3088 2713 3309 2830 
Q 3531 2947 3766 2947 
Q 3994 2947 4170 2830 
Q 4347 2713 4450 2447 
Q 4519 2266 4519 1878 
L 4519 647 
Q 4519 378 4559 278 
Q 4591 209 4675 161 
Q 4759 113 4950 113 
L 4950 0 
L 3538 0 
L 3538 113 
L 3597 113 
Q 3781 113 3884 184 
Q 3956 234 3988 344 
Q 4000 397 4000 647 
L 4000 1878 
Q 4000 2228 3916 2372 
Q 3794 2572 3525 2572 
Q 3359 2572 3192 2489 
Q 3025 2406 2788 2181 
L 2781 2147 
L 2788 2013 
L 2788 647 
Q 2788 353 2820 281 
Q 2853 209 2943 161 
Q 3034 113 3253 113 
L 3253 0 
L 1806 0 
L 1806 113 
Q 2044 113 2133 169 
Q 2222 225 2256 338 
Q 2272 391 2272 647 
L 2272 1878 
Q 2272 2228 2169 2381 
Q 2031 2581 1784 2581 
Q 1616 2581 1450 2491 
Q 1191 2353 1050 2181 
L 1050 647 
Q 1050 366 1089 281 
Q 1128 197 1204 155 
Q 1281 113 1516 113 
L 1516 0 
L 100 0 
L 100 113 
Q 297 113 375 155 
Q 453 197 493 289 
Q 534 381 534 647 
L 534 1741 
Q 534 2213 506 2350 
Q 484 2453 437 2492 
Q 391 2531 309 2531 
Q 222 2531 100 2484 
L 53 2597 
L 916 2947 
L 1050 2947 
L 1050 2338 
z
" transform="scale(0.015625)"/>
       <path id="TimesNewRomanPSMT-65" d="M 681 1784 
Q 678 1147 991 784 
Q 1303 422 1725 422 
Q 2006 422 2214 576 
Q 2422 731 2563 1106 
L 2659 1044 
Q 2594 616 2278 264 
Q 1963 -88 1488 -88 
Q 972 -88 605 314 
Q 238 716 238 1394 
Q 238 2128 614 2539 
Q 991 2950 1559 2950 
Q 2041 2950 2350 2633 
Q 2659 2316 2659 1784 
L 681 1784 
z
M 681 1966 
L 2006 1966 
Q 1991 2241 1941 2353 
Q 1863 2528 1708 2628 
Q 1553 2728 1384 2728 
Q 1125 2728 920 2526 
Q 716 2325 681 1966 
z
" transform="scale(0.015625)"/>
       <path id="TimesNewRomanPSMT-20" transform="scale(0.015625)"/>
       <path id="TimesNewRomanPSMT-73" d="M 2050 2947 
L 2050 1972 
L 1947 1972 
Q 1828 2431 1642 2597 
Q 1456 2763 1169 2763 
Q 950 2763 815 2647 
Q 681 2531 681 2391 
Q 681 2216 781 2091 
Q 878 1963 1175 1819 
L 1631 1597 
Q 2266 1288 2266 781 
Q 2266 391 1970 151 
Q 1675 -88 1309 -88 
Q 1047 -88 709 6 
Q 606 38 541 38 
Q 469 38 428 -44 
L 325 -44 
L 325 978 
L 428 978 
Q 516 541 762 319 
Q 1009 97 1316 97 
Q 1531 97 1667 223 
Q 1803 350 1803 528 
Q 1803 744 1651 891 
Q 1500 1038 1047 1263 
Q 594 1488 453 1669 
Q 313 1847 313 2119 
Q 313 2472 555 2709 
Q 797 2947 1181 2947 
Q 1350 2947 1591 2875 
Q 1750 2828 1803 2828 
Q 1853 2828 1881 2850 
Q 1909 2872 1947 2947 
L 2050 2947 
z
" transform="scale(0.015625)"/>
       <path id="TimesNewRomanPSMT-74" d="M 1031 3803 
L 1031 2863 
L 1700 2863 
L 1700 2644 
L 1031 2644 
L 1031 788 
Q 1031 509 1111 412 
Q 1191 316 1316 316 
Q 1419 316 1516 380 
Q 1613 444 1666 569 
L 1788 569 
Q 1678 263 1478 108 
Q 1278 -47 1066 -47 
Q 922 -47 784 33 
Q 647 113 581 261 
Q 516 409 516 719 
L 516 2644 
L 63 2644 
L 63 2747 
Q 234 2816 414 2980 
Q 594 3144 734 3369 
Q 806 3488 934 3803 
L 1031 3803 
z
" transform="scale(0.015625)"/>
       <path id="TimesNewRomanPSMT-70" d="M -6 2578 
L 875 2934 
L 994 2934 
L 994 2266 
Q 1216 2644 1439 2795 
Q 1663 2947 1909 2947 
Q 2341 2947 2628 2609 
Q 2981 2197 2981 1534 
Q 2981 794 2556 309 
Q 2206 -88 1675 -88 
Q 1444 -88 1275 -22 
Q 1150 25 994 166 
L 994 -706 
Q 994 -1000 1030 -1079 
Q 1066 -1159 1155 -1206 
Q 1244 -1253 1478 -1253 
L 1478 -1369 
L -22 -1369 
L -22 -1253 
L 56 -1253 
Q 228 -1256 350 -1188 
Q 409 -1153 442 -1076 
Q 475 -1000 475 -688 
L 475 2019 
Q 475 2297 450 2372 
Q 425 2447 370 2484 
Q 316 2522 222 2522 
Q 147 2522 31 2478 
L -6 2578 
z
M 994 2081 
L 994 1013 
Q 994 666 1022 556 
Q 1066 375 1236 237 
Q 1406 100 1666 100 
Q 1978 100 2172 344 
Q 2425 663 2425 1241 
Q 2425 1897 2138 2250 
Q 1938 2494 1663 2494 
Q 1513 2494 1366 2419 
Q 1253 2363 994 2081 
z
" transform="scale(0.015625)"/>
      </defs>
      <use xlink:href="#TimesNewRomanPSMT-54"/>
      <use xlink:href="#TimesNewRomanPSMT-69" x="57.583984"/>
      <use xlink:href="#TimesNewRomanPSMT-6d" x="85.367188"/>
      <use xlink:href="#TimesNewRomanPSMT-65" x="163.150391"/>
      <use xlink:href="#TimesNewRomanPSMT-20" x="207.535156"/>
      <use xlink:href="#TimesNewRomanPSMT-73" x="232.535156"/>
      <use xlink:href="#TimesNewRomanPSMT-74" x="271.451172"/>
      <use xlink:href="#TimesNewRomanPSMT-65" x="299.234375"/>
      <use xlink:href="#TimesNewRomanPSMT-70" x="343.619141"/>
     </g>
    </g>
   </g>
   <g id="matplotlib.axis_2">
    <g id="ytick_1">
     <g id="line2d_17">
      <path d="M 50.2 334.204346 
L 1166.2 334.204346 
" clip-path="url(#p2d4c111f80)" style="fill: none; stroke-dasharray: 2.96,1.28; stroke-dashoffset: 0; stroke: #b0b0b0; stroke-width: 0.8"/>
     </g>
     <g id="line2d_18">
      <defs>
       <path id="m8c8b16a37d" d="M 0 0 
L -3.5 0 
" style="stroke: #000000; stroke-width: 0.8"/>
      </defs>
      <g>
       <use xlink:href="#m8c8b16a37d" x="50.2" y="334.204346" style="stroke: #000000; stroke-width: 0.8"/>
      </g>
     </g>
     <g id="text_10">
      <!-- 50 -->
      <g transform="translate(19.2 342.536846) scale(0.24 -0.24)">
       <defs>
        <path id="TimesNewRomanPSMT-35" d="M 2778 4238 
L 2534 3706 
L 1259 3706 
L 981 3138 
Q 1809 3016 2294 2522 
Q 2709 2097 2709 1522 
Q 2709 1188 2573 903 
Q 2438 619 2231 419 
Q 2025 219 1772 97 
Q 1413 -75 1034 -75 
Q 653 -75 479 54 
Q 306 184 306 341 
Q 306 428 378 495 
Q 450 563 559 563 
Q 641 563 702 538 
Q 763 513 909 409 
Q 1144 247 1384 247 
Q 1750 247 2026 523 
Q 2303 800 2303 1197 
Q 2303 1581 2056 1914 
Q 1809 2247 1375 2428 
Q 1034 2569 447 2591 
L 1259 4238 
L 2778 4238 
z
" transform="scale(0.015625)"/>
       </defs>
       <use xlink:href="#TimesNewRomanPSMT-35"/>
       <use xlink:href="#TimesNewRomanPSMT-30" x="50"/>
      </g>
     </g>
    </g>
    <g id="ytick_2">
     <g id="line2d_19">
      <path d="M 50.2 271.450952 
L 1166.2 271.450952 
" clip-path="url(#p2d4c111f80)" style="fill: none; stroke-dasharray: 2.96,1.28; stroke-dashoffset: 0; stroke: #b0b0b0; stroke-width: 0.8"/>
     </g>
     <g id="line2d_20">
      <g>
       <use xlink:href="#m8c8b16a37d" x="50.2" y="271.450952" style="stroke: #000000; stroke-width: 0.8"/>
      </g>
     </g>
     <g id="text_11">
      <!-- 60 -->
      <g transform="translate(19.2 279.783452) scale(0.24 -0.24)">
       <use xlink:href="#TimesNewRomanPSMT-36"/>
       <use xlink:href="#TimesNewRomanPSMT-30" x="50"/>
      </g>
     </g>
    </g>
    <g id="ytick_3">
     <g id="line2d_21">
      <path d="M 50.2 208.697559 
L 1166.2 208.697559 
" clip-path="url(#p2d4c111f80)" style="fill: none; stroke-dasharray: 2.96,1.28; stroke-dashoffset: 0; stroke: #b0b0b0; stroke-width: 0.8"/>
     </g>
     <g id="line2d_22">
      <g>
       <use xlink:href="#m8c8b16a37d" x="50.2" y="208.697559" style="stroke: #000000; stroke-width: 0.8"/>
      </g>
     </g>
     <g id="text_12">
      <!-- 70 -->
      <g transform="translate(19.2 217.030059) scale(0.24 -0.24)">
       <defs>
        <path id="TimesNewRomanPSMT-37" d="M 644 4238 
L 2916 4238 
L 2916 4119 
L 1503 -88 
L 1153 -88 
L 2419 3728 
L 1253 3728 
Q 900 3728 750 3644 
Q 488 3500 328 3200 
L 238 3234 
L 644 4238 
z
" transform="scale(0.015625)"/>
       </defs>
       <use xlink:href="#TimesNewRomanPSMT-37"/>
       <use xlink:href="#TimesNewRomanPSMT-30" x="50"/>
      </g>
     </g>
    </g>
    <g id="ytick_4">
     <g id="line2d_23">
      <path d="M 50.2 145.944166 
L 1166.2 145.944166 
" clip-path="url(#p2d4c111f80)" style="fill: none; stroke-dasharray: 2.96,1.28; stroke-dashoffset: 0; stroke: #b0b0b0; stroke-width: 0.8"/>
     </g>
     <g id="line2d_24">
      <g>
       <use xlink:href="#m8c8b16a37d" x="50.2" y="145.944166" style="stroke: #000000; stroke-width: 0.8"/>
      </g>
     </g>
     <g id="text_13">
      <!-- 80 -->
      <g transform="translate(19.2 154.276666) scale(0.24 -0.24)">
       <use xlink:href="#TimesNewRomanPSMT-38"/>
       <use xlink:href="#TimesNewRomanPSMT-30" x="50"/>
      </g>
     </g>
    </g>
    <g id="ytick_5">
     <g id="line2d_25">
      <path d="M 50.2 83.190772 
L 1166.2 83.190772 
" clip-path="url(#p2d4c111f80)" style="fill: none; stroke-dasharray: 2.96,1.28; stroke-dashoffset: 0; stroke: #b0b0b0; stroke-width: 0.8"/>
     </g>
     <g id="line2d_26">
      <g>
       <use xlink:href="#m8c8b16a37d" x="50.2" y="83.190772" style="stroke: #000000; stroke-width: 0.8"/>
      </g>
     </g>
     <g id="text_14">
      <!-- 90 -->
      <g transform="translate(19.2 91.523272) scale(0.24 -0.24)">
       <defs>
        <path id="TimesNewRomanPSMT-39" d="M 338 -88 
L 338 28 
Q 744 34 1094 217 
Q 1444 400 1770 856 
Q 2097 1313 2225 1859 
Q 1734 1544 1338 1544 
Q 891 1544 572 1889 
Q 253 2234 253 2806 
Q 253 3363 572 3797 
Q 956 4325 1575 4325 
Q 2097 4325 2469 3894 
Q 2925 3359 2925 2575 
Q 2925 1869 2578 1258 
Q 2231 647 1613 244 
Q 1109 -88 516 -88 
L 338 -88 
z
M 2275 2091 
Q 2331 2497 2331 2741 
Q 2331 3044 2228 3395 
Q 2125 3747 1936 3934 
Q 1747 4122 1506 4122 
Q 1228 4122 1018 3872 
Q 809 3622 809 3128 
Q 809 2469 1088 2097 
Q 1291 1828 1588 1828 
Q 1731 1828 1928 1897 
Q 2125 1966 2275 2091 
z
" transform="scale(0.015625)"/>
       </defs>
       <use xlink:href="#TimesNewRomanPSMT-39"/>
       <use xlink:href="#TimesNewRomanPSMT-30" x="50"/>
      </g>
     </g>
    </g>
    <g id="ytick_6">
     <g id="line2d_27">
      <path d="M 50.2 20.437379 
L 1166.2 20.437379 
" clip-path="url(#p2d4c111f80)" style="fill: none; stroke-dasharray: 2.96,1.28; stroke-dashoffset: 0; stroke: #b0b0b0; stroke-width: 0.8"/>
     </g>
     <g id="line2d_28">
      <g>
       <use xlink:href="#m8c8b16a37d" x="50.2" y="20.437379" style="stroke: #000000; stroke-width: 0.8"/>
      </g>
     </g>
     <g id="text_15">
      <!-- 100 -->
      <g transform="translate(7.2 28.769879) scale(0.24 -0.24)">
       <use xlink:href="#TimesNewRomanPSMT-31"/>
       <use xlink:href="#TimesNewRomanPSMT-30" x="50"/>
       <use xlink:href="#TimesNewRomanPSMT-30" x="100"/>
      </g>
     </g>
    </g>
   </g>
   <g id="line2d_29">
    <path d="M 100.927273 157.679068 
L 107.736303 158.170813 
L 114.545333 160.000912 
L 121.354362 155.708449 
L 128.163392 153.035282 
L 134.972422 158.432078 
L 141.781452 160.252698 
L 148.590482 151.027175 
L 155.399512 135.903632 
L 162.208542 125.235527 
L 169.017572 122.725429 
L 175.826602 92.866866 
L 182.635631 79.425578 
L 189.444661 93.85883 
L 196.253691 85.073393 
L 203.062721 81.935724 
L 209.871751 68.453262 
L 216.680781 59.972036 
L 223.489811 67.811997 
L 230.298841 63.109706 
L 237.107871 65.619803 
L 243.916901 57.461891 
L 250.72593 51.814076 
L 257.53496 58.41608 
L 264.34399 64.08228 
L 271.15302 59.972419 
L 277.96205 62.482133 
L 284.77108 65.619803 
L 291.58011 59.344464 
L 298.38914 51.84759 
L 305.19817 36.125727 
L 312.0072 35.826352 
L 318.816229 33.615582 
L 325.625259 31.105437 
L 332.434289 43.656115 
L 339.243319 44.911212 
L 346.052349 42.342657 
L 352.861379 34.090762 
L 359.670409 35.498203 
L 366.479439 41.146018 
L 373.288469 26.085194 
L 380.097498 22.32 
L 386.906528 24.830097 
L 393.715558 24.202573 
L 400.524588 31.733009 
L 407.333618 33.660874 
L 414.142648 36.125727 
L 420.951678 22.32 
L 427.760708 29.850388 
L 434.569738 59.344464 
L 441.378768 63.73723 
L 448.187797 47.421357 
L 454.996827 49.227375 
L 461.805857 55.183614 
L 468.614887 58.716939 
L 475.423917 65.619803 
L 482.232947 66.8749 
L 489.041977 76.915433 
L 495.851007 86.328442 
L 502.660037 90.72116 
L 509.469067 90.093636 
L 516.278096 86.955966 
L 523.087126 90.72116 
L 529.896156 103.271839 
L 536.705186 118.332663 
L 543.514216 123.228426 
L 550.323246 123.890948 
L 557.132276 115.842195 
L 563.941306 109.255607 
L 570.750336 118.957746 
L 577.559365 118.131915 
L 584.368395 112.345879 
L 591.177425 163.216861 
L 597.986455 167.450005 
L 604.795485 165.091917 
L 611.604515 164.059258 
L 618.413545 163.999172 
L 625.222575 160.721558 
L 632.031605 157.225768 
L 638.840635 149.012126 
L 645.649664 155.227907 
L 652.458694 158.623634 
L 659.267724 166.22962 
L 666.076754 181.074039 
L 672.885784 184.936663 
L 679.694814 191.66377 
L 686.503844 200.642295 
L 693.312874 203.50539 
L 700.121904 200.108993 
L 706.930933 195.97639 
L 713.739963 199.590341 
L 720.548993 207.909072 
L 727.358023 213.841468 
L 734.167053 217.988721 
L 740.976083 227.649829 
L 747.785113 230.869368 
L 754.594143 203.808547 
L 761.403173 205.800855 
L 768.212203 213.403537 
L 775.021232 214.099142 
L 781.830262 219.381608 
L 788.639292 234.367648 
L 795.448322 243.423925 
L 802.257352 247.134826 
L 809.066382 262.989715 
L 815.875412 294.206431 
L 822.684442 313.905008 
L 829.493472 311.354167 
L 836.302502 309.523708 
L 843.111531 310.059165 
L 849.920561 321.828634 
L 856.729591 323.656699 
L 863.538621 321.120652 
L 870.347651 324.72 
L 877.156681 321.967429 
L 883.965711 318.641507 
L 890.774741 316.319638 
L 897.583771 315.296769 
L 904.3928 311.362114 
L 911.20183 303.290812 
L 918.01086 300.756776 
L 931.62892 288.833645 
L 938.43795 283.813379 
L 945.24698 274.337603 
L 952.05601 264.325867 
L 958.86504 263.167506 
L 965.67407 260.720128 
L 972.483099 257.331439 
L 979.292129 250.9952 
L 986.101159 240.82808 
L 992.910189 233.48513 
L 999.719219 228.119024 
L 1006.528249 226.331247 
L 1013.337279 227.649063 
L 1020.146309 214.282607 
L 1026.955339 211.007626 
L 1033.764369 215.123376 
L 1040.573398 196.880117 
L 1047.382428 185.512911 
L 1054.191458 176.818824 
L 1061.000488 155.495013 
L 1067.809518 141.551447 
L 1074.618548 150.964456 
L 1081.427578 148.70533 
L 1088.236608 157.135663 
L 1095.045638 151.668153 
L 1101.854667 162.073605 
L 1108.663697 159.949062 
L 1115.472727 148.043622 
L 1115.472727 148.043622 
" clip-path="url(#p2d4c111f80)" style="fill: none; stroke-dasharray: 11.1,4.8; stroke-dashoffset: 0; stroke: #f47721; stroke-width: 3"/>
   </g>
   <g id="line2d_30">
    <path d="M 100.927273 157.679068 
L 114.545333 160.000912 
L 128.163392 153.035282 
L 134.972422 158.432078 
L 141.781452 161.891816 
L 148.590482 151.027175 
L 155.399512 135.903632 
L 162.208542 125.235527 
L 169.017572 122.725429 
L 175.826602 94.654499 
L 182.635631 79.425578 
L 189.444661 93.85883 
L 196.253691 85.073393 
L 203.062721 81.935724 
L 209.871751 68.87908 
L 216.680781 59.972036 
L 223.489811 68.03113 
L 230.298841 63.109706 
L 237.107871 65.619803 
L 243.916901 57.461891 
L 250.72593 51.814076 
L 257.53496 60.560014 
L 264.34399 64.237593 
L 271.15302 60.809262 
L 277.96205 62.482133 
L 284.77108 65.619803 
L 291.58011 59.344464 
L 298.38914 51.279959 
L 305.19817 36.125727 
L 312.0072 35.659501 
L 318.816229 33.615582 
L 325.625259 31.105437 
L 332.434289 43.656115 
L 339.243319 44.911212 
L 346.052349 43.460298 
L 352.861379 33.946987 
L 359.670409 35.498203 
L 366.479439 41.146018 
L 373.288469 26.085194 
L 380.097498 22.32 
L 386.906528 24.830097 
L 393.715558 24.202573 
L 400.524588 31.733009 
L 407.333618 33.392331 
L 414.142648 36.125727 
L 420.951678 22.32 
L 427.760708 29.850388 
L 434.569738 59.344464 
L 441.378768 63.73723 
L 448.187797 47.421357 
L 454.996827 47.973906 
L 461.805857 54.665297 
L 468.614887 58.716939 
L 475.423917 65.619803 
L 482.232947 66.8749 
L 489.041977 76.915433 
L 495.851007 86.328442 
L 502.660037 90.72116 
L 509.469067 90.093636 
L 516.278096 86.955966 
L 523.087126 90.72116 
L 529.896156 103.271839 
L 536.705186 118.332663 
L 543.514216 123.257439 
L 550.323246 124.789792 
L 557.132276 117.665401 
L 563.941306 111.126929 
L 570.750336 120.930184 
L 577.559365 121.086311 
L 584.368395 115.284476 
L 591.177425 125.124165 
L 597.986455 129.352904 
L 604.795485 125.466198 
L 611.604515 125.852949 
L 618.413545 125.558457 
L 625.222575 122.908272 
L 632.031605 118.047986 
L 638.840635 107.634203 
L 645.649664 114.445047 
L 652.458694 114.866461 
L 659.267724 128.752191 
L 666.076754 145.559665 
L 672.885784 148.526462 
L 679.694814 156.229399 
L 686.503844 166.729791 
L 693.312874 169.569618 
L 706.930933 164.678451 
L 713.739963 169.479752 
L 720.548993 178.530428 
L 727.358023 184.742139 
L 734.167053 189.69813 
L 740.976083 201.57494 
L 747.785113 203.01848 
L 754.594143 191.065068 
L 761.403173 192.307764 
L 768.212203 198.784283 
L 775.021232 199.414105 
L 781.830262 204.198314 
L 788.639292 223.283634 
L 795.448322 230.504306 
L 802.257352 235.900288 
L 809.066382 253.716435 
L 815.875412 284.84872 
L 822.684442 303.262947 
L 829.493472 303.683715 
L 836.302502 303.816693 
L 843.111531 305.704628 
L 849.920561 317.42105 
L 856.729591 320.742902 
L 863.538621 318.966688 
L 870.347651 323.078368 
L 877.156681 321.967429 
L 883.965711 318.641507 
L 890.774741 316.319638 
L 897.583771 314.376668 
L 904.3928 311.362114 
L 911.20183 303.644862 
L 918.01086 300.756776 
L 931.62892 288.833645 
L 938.43795 283.813379 
L 945.24698 274.337603 
L 952.05601 263.458982 
L 958.86504 263.167506 
L 965.67407 260.720128 
L 972.483099 257.331439 
L 979.292129 251.510572 
L 986.101159 241.592676 
L 992.910189 233.48513 
L 999.719219 228.881609 
L 1006.528249 226.331247 
L 1013.337279 227.649063 
L 1020.146309 214.282607 
L 1026.955339 209.77733 
L 1033.764369 214.651979 
L 1040.573398 197.174705 
L 1047.382428 187.448867 
L 1054.191458 176.818824 
L 1061.000488 156.107599 
L 1067.809518 141.551447 
L 1074.618548 150.964456 
L 1081.427578 148.70533 
L 1088.236608 155.642666 
L 1095.045638 150.59317 
L 1101.854667 159.494278 
L 1108.663697 157.967048 
L 1115.472727 147.659504 
L 1115.472727 147.659504 
" clip-path="url(#p2d4c111f80)" style="fill: none; stroke-dasharray: 11.1,4.8; stroke-dashoffset: 0; stroke: #f24c3d; stroke-width: 3"/>
   </g>
   <g id="line2d_31">
    <path d="M 100.927273 157.679068 
L 107.736303 158.055573 
L 114.545333 160.000912 
L 121.354362 155.984699 
L 128.163392 153.035282 
L 134.972422 158.432078 
L 141.781452 164.330912 
L 148.590482 151.027175 
L 155.399512 135.903632 
L 162.208542 125.235527 
L 169.017572 122.725429 
L 175.826602 94.486402 
L 182.635631 79.425578 
L 189.444661 93.85883 
L 196.253691 85.073393 
L 203.062721 81.935724 
L 209.871751 67.502424 
L 216.680781 59.972036 
L 223.489811 68.757473 
L 230.298841 63.109706 
L 237.107871 65.619803 
L 243.916901 57.461891 
L 250.72593 51.814076 
L 257.53496 60.59956 
L 264.34399 63.109706 
L 271.15302 58.089415 
L 277.96205 62.482133 
L 284.77108 65.619803 
L 291.58011 59.344464 
L 298.38914 51.186551 
L 305.19817 36.125727 
L 318.816229 33.615582 
L 325.625259 31.105437 
L 332.434289 43.656115 
L 339.243319 44.911212 
L 346.052349 43.028591 
L 352.861379 32.360533 
L 359.670409 35.498203 
L 366.479439 41.146018 
L 373.288469 26.085194 
L 380.097498 22.32 
L 386.906528 24.830097 
L 393.715558 24.202573 
L 400.524588 31.733009 
L 407.333618 34.243106 
L 414.142648 36.125727 
L 420.951678 22.32 
L 427.760708 29.850388 
L 434.569738 59.344464 
L 441.378768 63.73723 
L 448.187797 47.421357 
L 454.996827 46.166261 
L 461.805857 53.696697 
L 468.614887 58.716939 
L 475.423917 65.619803 
L 482.232947 66.8749 
L 489.041977 76.915433 
L 495.851007 86.328442 
L 502.660037 90.72116 
L 509.469067 90.093636 
L 516.278096 86.955966 
L 523.087126 90.72116 
L 529.896156 103.271839 
L 536.705186 118.332663 
L 543.514216 123.352954 
L 550.323246 124.608002 
L 557.132276 116.45009 
L 563.941306 109.547178 
L 570.750336 119.58776 
L 577.559365 119.58776 
L 584.368395 113.939945 
L 591.177425 114.567469 
L 597.986455 119.58776 
L 604.795485 113.939945 
L 611.604515 115.194993 
L 618.413545 114.567469 
L 625.222575 112.057324 
L 632.031605 105.15446 
L 638.840635 95.113927 
L 645.649664 102.01679 
L 652.458694 101.389266 
L 659.267724 112.684848 
L 666.076754 130.255817 
L 672.885784 132.138438 
L 679.694814 137.786205 
L 686.503844 148.768049 
L 693.312874 150.462418 
L 700.121904 147.199214 
L 706.930933 142.806496 
L 713.739963 147.575767 
L 720.548993 157.992806 
L 727.358023 164.770184 
L 734.167053 168.97465 
L 740.976083 182.152853 
L 747.785113 186.231833 
L 754.594143 194.703531 
L 761.403173 195.393822 
L 768.212203 203.300763 
L 775.021232 204.806831 
L 781.830262 208.070035 
L 788.639292 227.209791 
L 795.448322 236.685567 
L 802.257352 240.764547 
L 809.066382 257.958963 
L 815.875412 286.762772 
L 822.684442 306.341848 
L 829.493472 305.58879 
L 836.302502 304.961265 
L 843.111531 307.345901 
L 849.920561 319.331798 
L 856.729591 321.653667 
L 863.538621 319.64556 
L 870.347651 324.038303 
L 877.156681 321.967429 
L 883.965711 318.641507 
L 890.774741 316.319638 
L 897.583771 315.190075 
L 904.3928 311.362114 
L 911.20183 303.831702 
L 918.01086 300.756776 
L 931.62892 288.833645 
L 938.43795 283.813379 
L 945.24698 274.337603 
L 952.05601 264.04605 
L 958.86504 263.167506 
L 965.67407 260.720128 
L 972.483099 257.331439 
L 979.292129 251.181609 
L 986.101159 241.266586 
L 992.910189 233.48513 
L 999.719219 229.280664 
L 1006.528249 226.331247 
L 1013.337279 227.649063 
L 1020.146309 214.282607 
L 1026.955339 210.454646 
L 1033.764369 213.968821 
L 1040.573398 197.464696 
L 1047.382428 187.486929 
L 1054.191458 176.818824 
L 1061.000488 156.423971 
L 1067.809518 141.551447 
L 1074.618548 150.964456 
L 1081.427578 148.70533 
L 1088.236608 151.152709 
L 1095.045638 144.061545 
L 1101.854667 152.59601 
L 1108.663697 148.140525 
L 1115.472727 133.393487 
L 1115.472727 133.393487 
" clip-path="url(#p2d4c111f80)" style="fill: none; stroke-dasharray: 11.1,4.8; stroke-dashoffset: 0; stroke: #068ff8; stroke-width: 3"/>
   </g>
   <g id="patch_3">
    <path d="M 50.2 339.84 
L 50.2 7.2 
" style="fill: none; stroke: #000000; stroke-width: 0.8; stroke-linejoin: miter; stroke-linecap: square"/>
   </g>
   <g id="patch_4">
    <path d="M 1166.2 339.84 
L 1166.2 7.2 
" style="fill: none; stroke: #000000; stroke-width: 0.8; stroke-linejoin: miter; stroke-linecap: square"/>
   </g>
   <g id="patch_5">
    <path d="M 50.2 339.84 
L 1166.2 339.84 
" style="fill: none; stroke: #000000; stroke-width: 0.8; stroke-linejoin: miter; stroke-linecap: square"/>
   </g>
   <g id="patch_6">
    <path d="M 50.2 7.2 
L 1166.2 7.2 
" style="fill: none; stroke: #000000; stroke-width: 0.8; stroke-linejoin: miter; stroke-linecap: square"/>
   </g>
   <g id="PathCollection_1">
    <defs>
     <path id="mbcca28cb62" d="M 0 3.535534 
C 0.937635 3.535534 1.836992 3.163008 2.5 2.5 
C 3.163008 1.836992 3.535534 0.937635 3.535534 0 
C 3.535534 -0.937635 3.163008 -1.836992 2.5 -2.5 
C 1.836992 -3.163008 0.937635 -3.535534 0 -3.535534 
C -0.937635 -3.535534 -1.836992 -3.163008 -2.5 -2.5 
C -3.163008 -1.836992 -3.535534 -0.937635 -3.535534 0 
C -3.535534 0.937635 -3.163008 1.836992 -2.5 2.5 
C -1.836992 3.163008 -0.937635 3.535534 0 3.535534 
z
" style="stroke: #22a699"/>
    </defs>
    <g clip-path="url(#p2d4c111f80)">
     <use xlink:href="#mbcca28cb62" x="100.927273" y="157.679068" style="fill: #22a699; stroke: #22a699"/>
     <use xlink:href="#mbcca28cb62" x="114.545333" y="160.000912" style="fill: #22a699; stroke: #22a699"/>
     <use xlink:href="#mbcca28cb62" x="128.163392" y="153.035282" style="fill: #22a699; stroke: #22a699"/>
     <use xlink:href="#mbcca28cb62" x="134.972422" y="158.432078" style="fill: #22a699; stroke: #22a699"/>
     <use xlink:href="#mbcca28cb62" x="148.590482" y="151.027175" style="fill: #22a699; stroke: #22a699"/>
     <use xlink:href="#mbcca28cb62" x="155.399512" y="135.903632" style="fill: #22a699; stroke: #22a699"/>
     <use xlink:href="#mbcca28cb62" x="162.208542" y="125.235527" style="fill: #22a699; stroke: #22a699"/>
     <use xlink:href="#mbcca28cb62" x="169.017572" y="122.725429" style="fill: #22a699; stroke: #22a699"/>
     <use xlink:href="#mbcca28cb62" x="182.635631" y="79.425578" style="fill: #22a699; stroke: #22a699"/>
     <use xlink:href="#mbcca28cb62" x="189.444661" y="93.85883" style="fill: #22a699; stroke: #22a699"/>
     <use xlink:href="#mbcca28cb62" x="196.253691" y="85.073393" style="fill: #22a699; stroke: #22a699"/>
     <use xlink:href="#mbcca28cb62" x="203.062721" y="81.935724" style="fill: #22a699; stroke: #22a699"/>
     <use xlink:href="#mbcca28cb62" x="216.680781" y="59.972036" style="fill: #22a699; stroke: #22a699"/>
     <use xlink:href="#mbcca28cb62" x="230.298841" y="63.109706" style="fill: #22a699; stroke: #22a699"/>
     <use xlink:href="#mbcca28cb62" x="237.107871" y="65.619803" style="fill: #22a699; stroke: #22a699"/>
     <use xlink:href="#mbcca28cb62" x="243.916901" y="57.461891" style="fill: #22a699; stroke: #22a699"/>
     <use xlink:href="#mbcca28cb62" x="250.72593" y="51.814076" style="fill: #22a699; stroke: #22a699"/>
     <use xlink:href="#mbcca28cb62" x="277.96205" y="62.482133" style="fill: #22a699; stroke: #22a699"/>
     <use xlink:href="#mbcca28cb62" x="284.77108" y="65.619803" style="fill: #22a699; stroke: #22a699"/>
     <use xlink:href="#mbcca28cb62" x="291.58011" y="59.344464" style="fill: #22a699; stroke: #22a699"/>
     <use xlink:href="#mbcca28cb62" x="305.19817" y="36.125727" style="fill: #22a699; stroke: #22a699"/>
     <use xlink:href="#mbcca28cb62" x="318.816229" y="33.615582" style="fill: #22a699; stroke: #22a699"/>
     <use xlink:href="#mbcca28cb62" x="325.625259" y="31.105437" style="fill: #22a699; stroke: #22a699"/>
     <use xlink:href="#mbcca28cb62" x="332.434289" y="43.656115" style="fill: #22a699; stroke: #22a699"/>
     <use xlink:href="#mbcca28cb62" x="339.243319" y="44.911212" style="fill: #22a699; stroke: #22a699"/>
     <use xlink:href="#mbcca28cb62" x="359.670409" y="35.498203" style="fill: #22a699; stroke: #22a699"/>
     <use xlink:href="#mbcca28cb62" x="366.479439" y="41.146018" style="fill: #22a699; stroke: #22a699"/>
     <use xlink:href="#mbcca28cb62" x="373.288469" y="26.085194" style="fill: #22a699; stroke: #22a699"/>
     <use xlink:href="#mbcca28cb62" x="380.097498" y="22.32" style="fill: #22a699; stroke: #22a699"/>
     <use xlink:href="#mbcca28cb62" x="386.906528" y="24.830097" style="fill: #22a699; stroke: #22a699"/>
     <use xlink:href="#mbcca28cb62" x="393.715558" y="24.202573" style="fill: #22a699; stroke: #22a699"/>
     <use xlink:href="#mbcca28cb62" x="400.524588" y="31.733009" style="fill: #22a699; stroke: #22a699"/>
     <use xlink:href="#mbcca28cb62" x="414.142648" y="36.125727" style="fill: #22a699; stroke: #22a699"/>
     <use xlink:href="#mbcca28cb62" x="420.951678" y="22.32" style="fill: #22a699; stroke: #22a699"/>
     <use xlink:href="#mbcca28cb62" x="427.760708" y="29.850388" style="fill: #22a699; stroke: #22a699"/>
     <use xlink:href="#mbcca28cb62" x="434.569738" y="59.344464" style="fill: #22a699; stroke: #22a699"/>
     <use xlink:href="#mbcca28cb62" x="441.378768" y="63.73723" style="fill: #22a699; stroke: #22a699"/>
     <use xlink:href="#mbcca28cb62" x="448.187797" y="47.421357" style="fill: #22a699; stroke: #22a699"/>
     <use xlink:href="#mbcca28cb62" x="468.614887" y="58.716939" style="fill: #22a699; stroke: #22a699"/>
     <use xlink:href="#mbcca28cb62" x="475.423917" y="65.619803" style="fill: #22a699; stroke: #22a699"/>
     <use xlink:href="#mbcca28cb62" x="482.232947" y="66.8749" style="fill: #22a699; stroke: #22a699"/>
     <use xlink:href="#mbcca28cb62" x="489.041977" y="76.915433" style="fill: #22a699; stroke: #22a699"/>
     <use xlink:href="#mbcca28cb62" x="495.851007" y="86.328442" style="fill: #22a699; stroke: #22a699"/>
     <use xlink:href="#mbcca28cb62" x="502.660037" y="90.72116" style="fill: #22a699; stroke: #22a699"/>
     <use xlink:href="#mbcca28cb62" x="509.469067" y="90.093636" style="fill: #22a699; stroke: #22a699"/>
     <use xlink:href="#mbcca28cb62" x="516.278096" y="86.955966" style="fill: #22a699; stroke: #22a699"/>
     <use xlink:href="#mbcca28cb62" x="523.087126" y="90.72116" style="fill: #22a699; stroke: #22a699"/>
     <use xlink:href="#mbcca28cb62" x="529.896156" y="103.271839" style="fill: #22a699; stroke: #22a699"/>
     <use xlink:href="#mbcca28cb62" x="536.705186" y="118.332663" style="fill: #22a699; stroke: #22a699"/>
     <use xlink:href="#mbcca28cb62" x="877.156681" y="321.967429" style="fill: #22a699; stroke: #22a699"/>
     <use xlink:href="#mbcca28cb62" x="883.965711" y="318.641507" style="fill: #22a699; stroke: #22a699"/>
     <use xlink:href="#mbcca28cb62" x="890.774741" y="316.319638" style="fill: #22a699; stroke: #22a699"/>
     <use xlink:href="#mbcca28cb62" x="904.3928" y="311.362114" style="fill: #22a699; stroke: #22a699"/>
     <use xlink:href="#mbcca28cb62" x="918.01086" y="300.756776" style="fill: #22a699; stroke: #22a699"/>
     <use xlink:href="#mbcca28cb62" x="924.81989" y="294.795222" style="fill: #22a699; stroke: #22a699"/>
     <use xlink:href="#mbcca28cb62" x="931.62892" y="288.833645" style="fill: #22a699; stroke: #22a699"/>
     <use xlink:href="#mbcca28cb62" x="938.43795" y="283.813379" style="fill: #22a699; stroke: #22a699"/>
     <use xlink:href="#mbcca28cb62" x="945.24698" y="274.337603" style="fill: #22a699; stroke: #22a699"/>
     <use xlink:href="#mbcca28cb62" x="958.86504" y="263.167506" style="fill: #22a699; stroke: #22a699"/>
     <use xlink:href="#mbcca28cb62" x="965.67407" y="260.720128" style="fill: #22a699; stroke: #22a699"/>
     <use xlink:href="#mbcca28cb62" x="972.483099" y="257.331439" style="fill: #22a699; stroke: #22a699"/>
     <use xlink:href="#mbcca28cb62" x="992.910189" y="233.48513" style="fill: #22a699; stroke: #22a699"/>
     <use xlink:href="#mbcca28cb62" x="1006.528249" y="226.331247" style="fill: #22a699; stroke: #22a699"/>
     <use xlink:href="#mbcca28cb62" x="1013.337279" y="227.649063" style="fill: #22a699; stroke: #22a699"/>
     <use xlink:href="#mbcca28cb62" x="1020.146309" y="214.282607" style="fill: #22a699; stroke: #22a699"/>
     <use xlink:href="#mbcca28cb62" x="1054.191458" y="176.818824" style="fill: #22a699; stroke: #22a699"/>
     <use xlink:href="#mbcca28cb62" x="1067.809518" y="141.551447" style="fill: #22a699; stroke: #22a699"/>
     <use xlink:href="#mbcca28cb62" x="1074.618548" y="150.964456" style="fill: #22a699; stroke: #22a699"/>
     <use xlink:href="#mbcca28cb62" x="1081.427578" y="148.70533" style="fill: #22a699; stroke: #22a699"/>
    </g>
   </g>
   <g id="legend_1">
    <g id="patch_7">
     <path d="M 872.545 323.84 
L 1143.8 323.84 
Q 1150.2 323.84 1150.2 317.44 
L 1150.2 139.66 
Q 1150.2 133.26 1143.8 133.26 
L 872.545 133.26 
Q 866.145 133.26 866.145 139.66 
L 866.145 317.44 
Q 866.145 323.84 872.545 323.84 
z
" style="fill: #ffffff; opacity: 0.8; stroke: #cccccc; stroke-linejoin: miter"/>
    </g>
    <g id="PathCollection_2">
     <g>
      <use xlink:href="#mbcca28cb62" x="910.945" y="160.06" style="fill: #22a699; stroke: #22a699"/>
     </g>
    </g>
    <g id="text_16">
     <!-- Observed -->
     <g transform="translate(968.545 168.46) scale(0.32 -0.32)">
      <defs>
       <path id="TimesNewRomanPSMT-4f" d="M 2341 4334 
Q 3166 4334 3770 3707 
Q 4375 3081 4375 2144 
Q 4375 1178 3765 540 
Q 3156 -97 2291 -97 
Q 1416 -97 820 525 
Q 225 1147 225 2134 
Q 225 3144 913 3781 
Q 1509 4334 2341 4334 
z
M 2281 4106 
Q 1713 4106 1369 3684 
Q 941 3159 941 2147 
Q 941 1109 1384 550 
Q 1725 125 2284 125 
Q 2881 125 3270 590 
Q 3659 1056 3659 2059 
Q 3659 3147 3231 3681 
Q 2888 4106 2281 4106 
z
" transform="scale(0.015625)"/>
       <path id="TimesNewRomanPSMT-62" d="M 984 2369 
Q 1400 2947 1881 2947 
Q 2322 2947 2650 2570 
Q 2978 2194 2978 1541 
Q 2978 778 2472 313 
Q 2038 -88 1503 -88 
Q 1253 -88 995 3 
Q 738 94 469 275 
L 469 3241 
Q 469 3728 445 3840 
Q 422 3953 372 3993 
Q 322 4034 247 4034 
Q 159 4034 28 3984 
L -16 4094 
L 844 4444 
L 984 4444 
L 984 2369 
z
M 984 2169 
L 984 456 
Q 1144 300 1314 220 
Q 1484 141 1663 141 
Q 1947 141 2192 453 
Q 2438 766 2438 1363 
Q 2438 1913 2192 2208 
Q 1947 2503 1634 2503 
Q 1469 2503 1303 2419 
Q 1178 2356 984 2169 
z
" transform="scale(0.015625)"/>
       <path id="TimesNewRomanPSMT-72" d="M 1038 2947 
L 1038 2303 
Q 1397 2947 1775 2947 
Q 1947 2947 2059 2842 
Q 2172 2738 2172 2600 
Q 2172 2478 2090 2393 
Q 2009 2309 1897 2309 
Q 1788 2309 1652 2417 
Q 1516 2525 1450 2525 
Q 1394 2525 1328 2463 
Q 1188 2334 1038 2041 
L 1038 669 
Q 1038 431 1097 309 
Q 1138 225 1241 169 
Q 1344 113 1538 113 
L 1538 0 
L 72 0 
L 72 113 
Q 291 113 397 181 
Q 475 231 506 341 
Q 522 394 522 644 
L 522 1753 
Q 522 2253 501 2348 
Q 481 2444 426 2487 
Q 372 2531 291 2531 
Q 194 2531 72 2484 
L 41 2597 
L 906 2947 
L 1038 2947 
z
" transform="scale(0.015625)"/>
       <path id="TimesNewRomanPSMT-76" d="M 53 2863 
L 1400 2863 
L 1400 2747 
L 1313 2747 
Q 1191 2747 1127 2687 
Q 1063 2628 1063 2528 
Q 1063 2419 1128 2269 
L 1794 688 
L 2463 2328 
Q 2534 2503 2534 2594 
Q 2534 2638 2509 2666 
Q 2475 2713 2422 2730 
Q 2369 2747 2206 2747 
L 2206 2863 
L 3141 2863 
L 3141 2747 
Q 2978 2734 2916 2681 
Q 2806 2588 2719 2369 
L 1703 -88 
L 1575 -88 
L 553 2328 
Q 484 2497 421 2570 
Q 359 2644 263 2694 
Q 209 2722 53 2747 
L 53 2863 
z
" transform="scale(0.015625)"/>
       <path id="TimesNewRomanPSMT-64" d="M 2222 322 
Q 2013 103 1813 7 
Q 1613 -88 1381 -88 
Q 913 -88 563 304 
Q 213 697 213 1313 
Q 213 1928 600 2439 
Q 988 2950 1597 2950 
Q 1975 2950 2222 2709 
L 2222 3238 
Q 2222 3728 2198 3840 
Q 2175 3953 2125 3993 
Q 2075 4034 2000 4034 
Q 1919 4034 1784 3984 
L 1744 4094 
L 2597 4444 
L 2738 4444 
L 2738 1134 
Q 2738 631 2761 520 
Q 2784 409 2836 365 
Q 2888 322 2956 322 
Q 3041 322 3181 375 
L 3216 266 
L 2366 -88 
L 2222 -88 
L 2222 322 
z
M 2222 541 
L 2222 2016 
Q 2203 2228 2109 2403 
Q 2016 2578 1861 2667 
Q 1706 2756 1559 2756 
Q 1284 2756 1069 2509 
Q 784 2184 784 1559 
Q 784 928 1059 592 
Q 1334 256 1672 256 
Q 1956 256 2222 541 
z
" transform="scale(0.015625)"/>
      </defs>
      <use xlink:href="#TimesNewRomanPSMT-4f"/>
      <use xlink:href="#TimesNewRomanPSMT-62" x="72.216797"/>
      <use xlink:href="#TimesNewRomanPSMT-73" x="122.216797"/>
      <use xlink:href="#TimesNewRomanPSMT-65" x="161.132812"/>
      <use xlink:href="#TimesNewRomanPSMT-72" x="205.517578"/>
      <use xlink:href="#TimesNewRomanPSMT-76" x="238.818359"/>
      <use xlink:href="#TimesNewRomanPSMT-65" x="288.818359"/>
      <use xlink:href="#TimesNewRomanPSMT-64" x="333.203125"/>
     </g>
    </g>
    <g id="line2d_32">
     <path d="M 878.945 202.505 
L 910.945 202.505 
L 942.945 202.505 
" style="fill: none; stroke-dasharray: 11.1,4.8; stroke-dashoffset: 0; stroke: #f47721; stroke-width: 3"/>
    </g>
    <g id="text_17">
     <!-- CSDI -->
     <g transform="translate(968.545 213.705) scale(0.32 -0.32)">
      <defs>
       <path id="TimesNewRomanPSMT-43" d="M 3853 4334 
L 3950 2894 
L 3853 2894 
Q 3659 3541 3300 3825 
Q 2941 4109 2438 4109 
Q 2016 4109 1675 3895 
Q 1334 3681 1139 3212 
Q 944 2744 944 2047 
Q 944 1472 1128 1050 
Q 1313 628 1683 403 
Q 2053 178 2528 178 
Q 2941 178 3256 354 
Q 3572 531 3950 1056 
L 4047 994 
Q 3728 428 3303 165 
Q 2878 -97 2294 -97 
Q 1241 -97 663 684 
Q 231 1266 231 2053 
Q 231 2688 515 3219 
Q 800 3750 1298 4042 
Q 1797 4334 2388 4334 
Q 2847 4334 3294 4109 
Q 3425 4041 3481 4041 
Q 3566 4041 3628 4100 
Q 3709 4184 3744 4334 
L 3853 4334 
z
" transform="scale(0.015625)"/>
       <path id="TimesNewRomanPSMT-53" d="M 2934 4334 
L 2934 2869 
L 2819 2869 
Q 2763 3291 2617 3541 
Q 2472 3791 2203 3937 
Q 1934 4084 1647 4084 
Q 1322 4084 1109 3886 
Q 897 3688 897 3434 
Q 897 3241 1031 3081 
Q 1225 2847 1953 2456 
Q 2547 2138 2764 1967 
Q 2981 1797 3098 1565 
Q 3216 1334 3216 1081 
Q 3216 600 2842 251 
Q 2469 -97 1881 -97 
Q 1697 -97 1534 -69 
Q 1438 -53 1133 45 
Q 828 144 747 144 
Q 669 144 623 97 
Q 578 50 556 -97 
L 441 -97 
L 441 1356 
L 556 1356 
Q 638 900 775 673 
Q 913 447 1195 297 
Q 1478 147 1816 147 
Q 2206 147 2432 353 
Q 2659 559 2659 841 
Q 2659 997 2573 1156 
Q 2488 1316 2306 1453 
Q 2184 1547 1640 1851 
Q 1097 2156 867 2337 
Q 638 2519 519 2737 
Q 400 2956 400 3219 
Q 400 3675 750 4004 
Q 1100 4334 1641 4334 
Q 1978 4334 2356 4169 
Q 2531 4091 2603 4091 
Q 2684 4091 2736 4139 
Q 2788 4188 2819 4334 
L 2934 4334 
z
" transform="scale(0.015625)"/>
       <path id="TimesNewRomanPSMT-44" d="M 109 0 
L 109 116 
L 269 116 
Q 538 116 650 288 
Q 719 391 719 750 
L 719 3488 
Q 719 3884 631 3984 
Q 509 4122 269 4122 
L 109 4122 
L 109 4238 
L 1834 4238 
Q 2784 4238 3279 4022 
Q 3775 3806 4076 3303 
Q 4378 2800 4378 2141 
Q 4378 1256 3841 663 
Q 3238 0 2003 0 
L 109 0 
z
M 1319 306 
Q 1716 219 1984 219 
Q 2709 219 3187 728 
Q 3666 1238 3666 2109 
Q 3666 2988 3187 3494 
Q 2709 4000 1959 4000 
Q 1678 4000 1319 3909 
L 1319 306 
z
" transform="scale(0.015625)"/>
       <path id="TimesNewRomanPSMT-49" d="M 1975 116 
L 1975 0 
L 159 0 
L 159 116 
L 309 116 
Q 572 116 691 269 
Q 766 369 766 750 
L 766 3488 
Q 766 3809 725 3913 
Q 694 3991 597 4047 
Q 459 4122 309 4122 
L 159 4122 
L 159 4238 
L 1975 4238 
L 1975 4122 
L 1822 4122 
Q 1563 4122 1444 3969 
Q 1366 3869 1366 3488 
L 1366 750 
Q 1366 428 1406 325 
Q 1438 247 1538 191 
Q 1672 116 1822 116 
L 1975 116 
z
" transform="scale(0.015625)"/>
      </defs>
      <use xlink:href="#TimesNewRomanPSMT-43"/>
      <use xlink:href="#TimesNewRomanPSMT-53" x="66.699219"/>
      <use xlink:href="#TimesNewRomanPSMT-44" x="122.314453"/>
      <use xlink:href="#TimesNewRomanPSMT-49" x="194.53125"/>
     </g>
    </g>
    <g id="line2d_33">
     <path d="M 878.945 247.75 
L 910.945 247.75 
L 942.945 247.75 
" style="fill: none; stroke-dasharray: 11.1,4.8; stroke-dashoffset: 0; stroke: #f24c3d; stroke-width: 3"/>
    </g>
    <g id="text_18">
     <!-- MTSCI -->
     <g transform="translate(968.545 258.95) scale(0.32 -0.32)">
      <defs>
       <path id="TimesNewRomanPSMT-4d" d="M 2619 0 
L 981 3566 
L 981 734 
Q 981 344 1066 247 
Q 1181 116 1431 116 
L 1581 116 
L 1581 0 
L 106 0 
L 106 116 
L 256 116 
Q 525 116 638 278 
Q 706 378 706 734 
L 706 3503 
Q 706 3784 644 3909 
Q 600 4000 483 4061 
Q 366 4122 106 4122 
L 106 4238 
L 1306 4238 
L 2844 922 
L 4356 4238 
L 5556 4238 
L 5556 4122 
L 5409 4122 
Q 5138 4122 5025 3959 
Q 4956 3859 4956 3503 
L 4956 734 
Q 4956 344 5044 247 
Q 5159 116 5409 116 
L 5556 116 
L 5556 0 
L 3756 0 
L 3756 116 
L 3906 116 
Q 4178 116 4288 278 
Q 4356 378 4356 734 
L 4356 3566 
L 2722 0 
L 2619 0 
z
" transform="scale(0.015625)"/>
      </defs>
      <use xlink:href="#TimesNewRomanPSMT-4d"/>
      <use xlink:href="#TimesNewRomanPSMT-54" x="88.916016"/>
      <use xlink:href="#TimesNewRomanPSMT-53" x="150"/>
      <use xlink:href="#TimesNewRomanPSMT-43" x="205.615234"/>
      <use xlink:href="#TimesNewRomanPSMT-49" x="272.314453"/>
     </g>
    </g>
    <g id="line2d_34">
     <path d="M 878.945 292.995 
L 910.945 292.995 
L 942.945 292.995 
" style="fill: none; stroke-dasharray: 11.1,4.8; stroke-dashoffset: 0; stroke: #068ff8; stroke-width: 3"/>
    </g>
    <g id="text_19">
     <!-- Ground-truth -->
     <g transform="translate(968.545 304.195) scale(0.32 -0.32)">
      <defs>
       <path id="TimesNewRomanPSMT-47" d="M 3928 4334 
L 4038 2997 
L 3928 2997 
Q 3763 3497 3500 3750 
Q 3122 4116 2528 4116 
Q 1719 4116 1297 3475 
Q 944 2934 944 2188 
Q 944 1581 1178 1081 
Q 1413 581 1792 348 
Q 2172 116 2572 116 
Q 2806 116 3025 175 
Q 3244 234 3447 350 
L 3447 1575 
Q 3447 1894 3398 1992 
Q 3350 2091 3248 2142 
Q 3147 2194 2891 2194 
L 2891 2313 
L 4531 2313 
L 4531 2194 
L 4453 2194 
Q 4209 2194 4119 2031 
Q 4056 1916 4056 1575 
L 4056 278 
Q 3697 84 3347 -6 
Q 2997 -97 2569 -97 
Q 1341 -97 703 691 
Q 225 1281 225 2053 
Q 225 2613 494 3125 
Q 813 3734 1369 4063 
Q 1834 4334 2469 4334 
Q 2700 4334 2889 4296 
Q 3078 4259 3425 4131 
Q 3600 4066 3659 4066 
Q 3719 4066 3761 4120 
Q 3803 4175 3813 4334 
L 3928 4334 
z
" transform="scale(0.015625)"/>
       <path id="TimesNewRomanPSMT-6f" d="M 1600 2947 
Q 2250 2947 2644 2453 
Q 2978 2031 2978 1484 
Q 2978 1100 2793 706 
Q 2609 313 2286 112 
Q 1963 -88 1566 -88 
Q 919 -88 538 428 
Q 216 863 216 1403 
Q 216 1797 411 2186 
Q 606 2575 925 2761 
Q 1244 2947 1600 2947 
z
M 1503 2744 
Q 1338 2744 1170 2645 
Q 1003 2547 900 2300 
Q 797 2053 797 1666 
Q 797 1041 1045 587 
Q 1294 134 1700 134 
Q 2003 134 2200 384 
Q 2397 634 2397 1244 
Q 2397 2006 2069 2444 
Q 1847 2744 1503 2744 
z
" transform="scale(0.015625)"/>
       <path id="TimesNewRomanPSMT-75" d="M 2709 2863 
L 2709 1128 
Q 2709 631 2732 520 
Q 2756 409 2807 365 
Q 2859 322 2928 322 
Q 3025 322 3147 375 
L 3191 266 
L 2334 -88 
L 2194 -88 
L 2194 519 
Q 1825 119 1631 15 
Q 1438 -88 1222 -88 
Q 981 -88 804 51 
Q 628 191 559 409 
Q 491 628 491 1028 
L 491 2306 
Q 491 2509 447 2587 
Q 403 2666 317 2708 
Q 231 2750 6 2747 
L 6 2863 
L 1009 2863 
L 1009 947 
Q 1009 547 1148 422 
Q 1288 297 1484 297 
Q 1619 297 1789 381 
Q 1959 466 2194 703 
L 2194 2325 
Q 2194 2569 2105 2655 
Q 2016 2741 1734 2747 
L 1734 2863 
L 2709 2863 
z
" transform="scale(0.015625)"/>
       <path id="TimesNewRomanPSMT-6e" d="M 1034 2341 
Q 1538 2947 1994 2947 
Q 2228 2947 2397 2830 
Q 2566 2713 2666 2444 
Q 2734 2256 2734 1869 
L 2734 647 
Q 2734 375 2778 278 
Q 2813 200 2889 156 
Q 2966 113 3172 113 
L 3172 0 
L 1756 0 
L 1756 113 
L 1816 113 
Q 2016 113 2095 173 
Q 2175 234 2206 353 
Q 2219 400 2219 647 
L 2219 1819 
Q 2219 2209 2117 2386 
Q 2016 2563 1775 2563 
Q 1403 2563 1034 2156 
L 1034 647 
Q 1034 356 1069 288 
Q 1113 197 1189 155 
Q 1266 113 1500 113 
L 1500 0 
L 84 0 
L 84 113 
L 147 113 
Q 366 113 442 223 
Q 519 334 519 647 
L 519 1709 
Q 519 2225 495 2337 
Q 472 2450 423 2490 
Q 375 2531 294 2531 
Q 206 2531 84 2484 
L 38 2597 
L 900 2947 
L 1034 2947 
L 1034 2341 
z
" transform="scale(0.015625)"/>
       <path id="TimesNewRomanPSMT-2d" d="M 259 1672 
L 1875 1672 
L 1875 1200 
L 259 1200 
L 259 1672 
z
" transform="scale(0.015625)"/>
       <path id="TimesNewRomanPSMT-68" d="M 1041 4444 
L 1041 2350 
Q 1388 2731 1591 2839 
Q 1794 2947 1997 2947 
Q 2241 2947 2416 2812 
Q 2591 2678 2675 2391 
Q 2734 2191 2734 1659 
L 2734 647 
Q 2734 375 2778 275 
Q 2809 200 2884 156 
Q 2959 113 3159 113 
L 3159 0 
L 1753 0 
L 1753 113 
L 1819 113 
Q 2019 113 2097 173 
Q 2175 234 2206 353 
Q 2216 403 2216 647 
L 2216 1659 
Q 2216 2128 2167 2275 
Q 2119 2422 2012 2495 
Q 1906 2569 1756 2569 
Q 1603 2569 1437 2487 
Q 1272 2406 1041 2159 
L 1041 647 
Q 1041 353 1073 281 
Q 1106 209 1195 161 
Q 1284 113 1503 113 
L 1503 0 
L 84 0 
L 84 113 
Q 275 113 384 172 
Q 447 203 484 290 
Q 522 378 522 647 
L 522 3238 
Q 522 3728 498 3840 
Q 475 3953 426 3993 
Q 378 4034 297 4034 
Q 231 4034 84 3984 
L 41 4094 
L 897 4444 
L 1041 4444 
z
" transform="scale(0.015625)"/>
      </defs>
      <use xlink:href="#TimesNewRomanPSMT-47"/>
      <use xlink:href="#TimesNewRomanPSMT-72" x="72.216797"/>
      <use xlink:href="#TimesNewRomanPSMT-6f" x="105.517578"/>
      <use xlink:href="#TimesNewRomanPSMT-75" x="155.517578"/>
      <use xlink:href="#TimesNewRomanPSMT-6e" x="205.517578"/>
      <use xlink:href="#TimesNewRomanPSMT-64" x="255.517578"/>
      <use xlink:href="#TimesNewRomanPSMT-2d" x="305.517578"/>
      <use xlink:href="#TimesNewRomanPSMT-74" x="338.818359"/>
      <use xlink:href="#TimesNewRomanPSMT-72" x="366.601562"/>
      <use xlink:href="#TimesNewRomanPSMT-75" x="399.902344"/>
      <use xlink:href="#TimesNewRomanPSMT-74" x="449.902344"/>
      <use xlink:href="#TimesNewRomanPSMT-68" x="477.685547"/>
     </g>
    </g>
   </g>
  </g>
 </g>
 <defs>
  <clipPath id="p2d4c111f80">
   <rect x="50.2" y="7.2" width="1116" height="332.64"/>
  </clipPath>
 </defs>
</svg>
