<?xml version="1.0" encoding="utf-8" standalone="no"?>
<!DOCTYPE svg PUBLIC "-//W3C//DTD SVG 1.1//EN"
  "http://www.w3.org/Graphics/SVG/1.1/DTD/svg11.dtd">
<svg xmlns:xlink="http://www.w3.org/1999/xlink" width="360pt" height="72pt" viewBox="0 0 360 72" xmlns="http://www.w3.org/2000/svg" version="1.1">
 <metadata>
  <rdf:RDF xmlns:dc="http://purl.org/dc/elements/1.1/" xmlns:cc="http://creativecommons.org/ns#" xmlns:rdf="http://www.w3.org/1999/02/22-rdf-syntax-ns#">
   <cc:Work>
    <dc:type rdf:resource="http://purl.org/dc/dcmitype/StillImage"/>
    <dc:date>2024-05-19T15:56:09.112413</dc:date>
    <dc:format>image/svg+xml</dc:format>
    <dc:creator>
     <cc:Agent>
      <dc:title>Matplotlib v3.8.4, https://matplotlib.org/</dc:title>
     </cc:Agent>
    </dc:creator>
   </cc:Work>
  </rdf:RDF>
 </metadata>
 <defs>
  <style type="text/css">*{stroke-linejoin: round; stroke-linecap: butt}</style>
 </defs>
 <g id="figure_1">
  <g id="patch_1">
   <path d="M 0 72 
L 360 72 
L 360 0 
L 0 0 
z
" style="fill: #ffffff"/>
  </g>
  <g id="axes_1">
   <g id="line2d_1">
    <path d="M 57.681818 31.179795 
L 60.243802 33.548999 
L 62.805785 35.594497 
L 65.367769 39.74988 
L 67.929752 36.398337 
L 70.491736 45.311714 
L 73.053719 38.554424 
L 75.615702 41.502419 
L 78.177686 40.266847 
L 80.739669 41.232606 
L 83.301653 35.570169 
L 85.863636 43.548662 
L 88.42562 44.797316 
L 90.987603 46.284678 
L 93.549587 41.893827 
L 96.11157 46.153475 
L 98.673554 46.821253 
L 101.235537 50.221015 
L 103.797521 50.05753 
L 106.359504 47.800409 
L 108.921488 52.062876 
L 111.483471 47.629601 
L 114.045455 44.137929 
L 116.607438 42.191874 
L 119.169421 38.703048 
L 121.731405 41.350983 
L 124.293388 41.826911 
L 126.855372 45.450949 
L 129.417355 46.488424 
L 131.979339 44.434468 
L 134.541322 47.113125 
L 137.103306 48.649669 
L 139.665289 51.310944 
L 142.227273 54.584249 
L 144.789256 57.183844 
L 147.35124 57.232891 
L 149.913223 61.56 
L 152.475207 60.652157 
L 155.03719 54.224091 
L 157.599174 51.35031 
L 160.161157 52.093249 
L 162.72314 55.53085 
L 165.285124 58.424437 
L 167.847107 51.869915 
L 170.409091 51.673148 
L 172.971074 54.140098 
L 175.533058 53.400722 
L 178.095041 45.266875 
L 180.657025 44.801524 
L 183.219008 42.411226 
L 185.780992 41.24873 
L 188.342975 42.612919 
L 190.904959 47.037653 
L 193.466942 48.390584 
L 196.028926 49.199587 
L 198.590909 46.927719 
L 201.152893 43.678512 
L 203.714876 40.072549 
L 206.27686 38.966529 
L 208.838843 35.538563 
L 211.400826 38.460188 
L 213.96281 33.608092 
L 216.524793 31.621623 
L 219.086777 32.776074 
L 221.64876 30.884145 
L 224.210744 31.176819 
L 226.772727 26.794256 
L 229.334711 20.908324 
L 231.896694 12.444049 
L 234.458678 17.852386 
L 237.020661 23.445136 
L 239.582645 25.398826 
L 242.144628 24.779036 
L 244.706612 21.385818 
L 247.268595 20.16343 
L 249.830579 27.994991 
L 252.392562 29.180855 
L 254.954545 25.974283 
L 257.516529 25.083174 
L 260.078512 22.132065 
L 262.640496 22.993095 
L 265.202479 23.770589 
L 267.764463 23.048076 
L 270.326446 21.460032 
L 272.88843 20.692059 
L 275.450413 20.231163 
L 278.012397 22.828497 
L 280.57438 21.366272 
L 283.136364 20.894484 
L 285.698347 16.520229 
L 288.260331 11.877072 
L 290.822314 11.16 
L 293.384298 12.6134 
L 295.946281 15.087069 
L 298.508264 13.446964 
L 301.070248 13.147442 
L 303.632231 14.479115 
L 306.194215 14.310274 
L 308.756198 16.711407 
L 311.318182 14.008075 
" clip-path="url(#pc127e2a7b8)" style="fill: none; stroke: #0000ff; stroke-width: 1.5; stroke-linecap: square"/>
   </g>
  </g>
 </g>
 <defs>
  <clipPath id="pc127e2a7b8">
   <rect x="45" y="8.64" width="279" height="55.44"/>
  </clipPath>
 </defs>
</svg>
