<?xml version="1.0" encoding="utf-8" standalone="no"?>
<!DOCTYPE svg PUBLIC "-//W3C//DTD SVG 1.1//EN"
  "http://www.w3.org/Graphics/SVG/1.1/DTD/svg11.dtd">
<svg xmlns:xlink="http://www.w3.org/1999/xlink" width="360pt" height="72pt" viewBox="0 0 360 72" xmlns="http://www.w3.org/2000/svg" version="1.1">
 <metadata>
  <rdf:RDF xmlns:dc="http://purl.org/dc/elements/1.1/" xmlns:cc="http://creativecommons.org/ns#" xmlns:rdf="http://www.w3.org/1999/02/22-rdf-syntax-ns#">
   <cc:Work>
    <dc:type rdf:resource="http://purl.org/dc/dcmitype/StillImage"/>
    <dc:date>2024-05-19T15:56:06.811577</dc:date>
    <dc:format>image/svg+xml</dc:format>
    <dc:creator>
     <cc:Agent>
      <dc:title>Matplotlib v3.8.4, https://matplotlib.org/</dc:title>
     </cc:Agent>
    </dc:creator>
   </cc:Work>
  </rdf:RDF>
 </metadata>
 <defs>
  <style type="text/css">*{stroke-linejoin: round; stroke-linecap: butt}</style>
 </defs>
 <g id="figure_1">
  <g id="patch_1">
   <path d="M 0 72 
L 360 72 
L 360 0 
L 0 0 
z
" style="fill: #ffffff"/>
  </g>
  <g id="axes_1">
   <g id="line2d_1">
    <path d="M 57.681818 45.686131 
L 60.243802 44.540036 
L 62.805785 41.736823 
L 65.367769 35.318659 
L 67.929752 29.969768 
L 70.491736 32.768799 
L 73.053719 30.047642 
L 75.615702 30.481145 
L 78.177686 30.776775 
L 80.739669 29.600776 
L 83.301653 29.18822 
L 85.863636 25.023021 
L 88.42562 22.843325 
L 90.987603 22.494834 
L 93.549587 21.223561 
L 96.11157 20.267881 
L 98.673554 15.988675 
L 101.235537 16.576271 
L 103.797521 15.67961 
L 106.359504 18.125834 
L 108.921488 25.437878 
L 111.483471 23.565842 
L 114.045455 21.090002 
L 116.607438 23.215644 
L 119.169421 16.714818 
L 121.731405 20.880281 
L 124.293388 20.749223 
L 126.855372 21.285338 
L 129.417355 16.89529 
L 131.979339 12.686885 
L 134.541322 12.243099 
L 137.103306 11.16 
L 139.665289 13.702716 
L 142.227273 19.375934 
L 144.789256 20.372393 
L 147.35124 19.924592 
L 149.913223 16.400905 
L 152.475207 12.957157 
L 155.03719 14.066503 
L 157.599174 14.932332 
L 160.161157 17.935503 
L 162.72314 22.00259 
L 165.285124 26.889535 
L 167.847107 21.3023 
L 170.409091 22.762 
L 172.971074 24.016693 
L 175.533058 27.604836 
L 178.095041 25.378019 
L 180.657025 30.000399 
L 183.219008 30.609711 
L 185.780992 33.174425 
L 188.342975 32.066294 
L 190.904959 33.529296 
L 193.466942 36.910756 
L 196.028926 36.991473 
L 198.590909 35.764684 
L 201.152893 35.574171 
L 203.714876 34.707858 
L 206.27686 36.524627 
L 208.838843 37.563557 
L 211.400826 39.489558 
L 213.96281 40.519357 
L 216.524793 42.848298 
L 219.086777 47.79256 
L 221.64876 47.284393 
L 224.210744 48.435137 
L 226.772727 53.104204 
L 229.334711 51.778745 
L 231.896694 54.377347 
L 234.458678 54.22857 
L 237.020661 52.140375 
L 239.582645 51.770953 
L 242.144628 48.507585 
L 244.706612 52.044261 
L 247.268595 50.891911 
L 249.830579 52.853282 
L 252.392562 55.347341 
L 254.954545 57.00523 
L 257.516529 57.89755 
L 260.078512 57.736687 
L 262.640496 61.073804 
L 265.202479 58.493738 
L 267.764463 57.160029 
L 270.326446 61.56 
L 272.88843 57.297482 
L 275.450413 51.867448 
L 278.012397 48.491293 
L 280.57438 49.006618 
L 283.136364 52.073371 
L 285.698347 49.053305 
L 288.260331 50.208048 
L 290.822314 46.706832 
L 293.384298 46.110309 
L 295.946281 43.313108 
L 298.508264 42.292435 
L 301.070248 40.268732 
L 303.632231 40.238659 
L 306.194215 35.12373 
L 308.756198 34.76024 
L 311.318182 33.608898 
" clip-path="url(#p166601b538)" style="fill: none; stroke: #0000ff; stroke-width: 1.5; stroke-linecap: square"/>
   </g>
  </g>
 </g>
 <defs>
  <clipPath id="p166601b538">
   <rect x="45" y="8.64" width="279" height="55.44"/>
  </clipPath>
 </defs>
</svg>
