<?xml version="1.0" encoding="utf-8" standalone="no"?>
<!DOCTYPE svg PUBLIC "-//W3C//DTD SVG 1.1//EN"
  "http://www.w3.org/Graphics/SVG/1.1/DTD/svg11.dtd">
<svg xmlns:xlink="http://www.w3.org/1999/xlink" width="360pt" height="72pt" viewBox="0 0 360 72" xmlns="http://www.w3.org/2000/svg" version="1.1">
 <metadata>
  <rdf:RDF xmlns:dc="http://purl.org/dc/elements/1.1/" xmlns:cc="http://creativecommons.org/ns#" xmlns:rdf="http://www.w3.org/1999/02/22-rdf-syntax-ns#">
   <cc:Work>
    <dc:type rdf:resource="http://purl.org/dc/dcmitype/StillImage"/>
    <dc:date>2024-05-20T15:03:05.052555</dc:date>
    <dc:format>image/svg+xml</dc:format>
    <dc:creator>
     <cc:Agent>
      <dc:title>Matplotlib v3.6.2, https://matplotlib.org/</dc:title>
     </cc:Agent>
    </dc:creator>
   </cc:Work>
  </rdf:RDF>
 </metadata>
 <defs>
  <style type="text/css">*{stroke-linejoin: round; stroke-linecap: butt}</style>
 </defs>
 <g id="figure_1">
  <g id="patch_1">
   <path d="M 0 72 
L 360 72 
L 360 0 
L 0 0 
z
" style="fill: #ffffff"/>
  </g>
  <g id="axes_1">
   <g id="patch_2">
    <path d="M 45 64.08 
L 324 64.08 
L 324 8.64 
L 45 8.64 
z
" style="fill: #ffffff"/>
   </g>
   <g id="line2d_1">
    <path d="M 57.681818 12.738541 
L 60.243802 11.445784 
L 62.805785 11.16 
L 65.367769 16.678872 
L 67.929752 17.500378 
L 70.491736 18.551023 
L 73.053719 18.796068 
L 75.615702 20.652977 
L 78.177686 20.782747 
L 80.739669 22.196064 
L 83.301653 26.087172 
L 85.863636 23.467297 
L 88.42562 20.857208 
L 90.987603 15.794181 
L 93.549587 15.646003 
L 96.11157 16.844485 
L 98.673554 18.459609 
L 101.235537 23.039616 
L 103.797521 20.130262 
L 106.359504 23.391155 
L 108.921488 26.900758 
L 111.483471 27.509806 
L 114.045455 23.108467 
L 116.607438 22.407415 
L 119.169421 25.43943 
L 121.731405 27.551012 
L 124.293388 25.699303 
L 126.855372 26.174675 
L 129.417355 28.451641 
L 131.979339 29.132894 
L 134.541322 26.926355 
L 137.103306 21.073956 
L 139.665289 24.75852 
L 142.227273 26.6137 
L 144.789256 28.994113 
L 147.35124 36.158407 
L 149.913223 38.894285 
L 152.475207 41.926569 
L 155.03719 38.597825 
L 157.599174 38.988499 
L 160.161157 43.795979 
L 162.72314 41.880802 
L 165.285124 42.935924 
L 167.847107 48.098366 
L 170.409091 49.865388 
L 172.971074 51.608554 
L 175.533058 54.196621 
L 178.095041 54.108621 
L 180.657025 60.767003 
L 183.219008 61.56 
L 185.780992 58.559382 
L 188.342975 56.033758 
L 190.904959 52.751779 
L 193.466942 49.43662 
L 196.028926 45.031151 
L 198.590909 48.343081 
L 201.152893 45.838083 
L 203.714876 51.349245 
L 206.27686 53.134734 
L 208.838843 58.804585 
L 211.400826 55.700419 
L 213.96281 51.750455 
L 216.524793 52.335113 
L 219.086777 47.079371 
L 221.64876 49.077626 
L 224.210744 48.631563 
L 226.772727 48.178603 
L 229.334711 51.330296 
L 231.896694 50.033285 
L 234.458678 44.290856 
L 237.020661 47.326265 
L 239.582645 44.662808 
L 242.144628 45.120391 
L 244.706612 39.879509 
L 247.268595 38.446734 
L 249.830579 36.444069 
L 252.392562 34.539293 
L 254.954545 33.801604 
L 257.516529 37.935261 
L 260.078512 33.813748 
L 262.640496 37.873086 
L 265.202479 37.166564 
L 267.764463 35.347929 
L 270.326446 37.829468 
L 272.88843 37.399853 
L 275.450413 33.941083 
L 278.012397 34.01247 
L 280.57438 36.644295 
L 283.136364 45.279468 
L 285.698347 48.157646 
L 288.260331 49.908169 
L 290.822314 51.437578 
L 293.384298 54.280678 
L 295.946281 53.16329 
L 298.508264 54.865331 
L 301.070248 55.189489 
L 303.632231 53.178368 
L 306.194215 55.711808 
L 308.756198 56.600891 
L 311.318182 50.209372 
" clip-path="url(#p5a79509fe4)" style="fill: none; stroke: #0000ff; stroke-width: 1.5; stroke-linecap: square"/>
   </g>
   <g id="patch_3">
    <path d="M 45 64.08 
L 45 8.64 
" style="fill: none; stroke: #000000; stroke-width: 0.8; stroke-linejoin: miter; stroke-linecap: square"/>
   </g>
   <g id="patch_4">
    <path d="M 324 64.08 
L 324 8.64 
" style="fill: none; stroke: #000000; stroke-width: 0.8; stroke-linejoin: miter; stroke-linecap: square"/>
   </g>
   <g id="patch_5">
    <path d="M 45 64.08 
L 324 64.08 
" style="fill: none; stroke: #000000; stroke-width: 0.8; stroke-linejoin: miter; stroke-linecap: square"/>
   </g>
   <g id="patch_6">
    <path d="M 45 8.64 
L 324 8.64 
" style="fill: none; stroke: #000000; stroke-width: 0.8; stroke-linejoin: miter; stroke-linecap: square"/>
   </g>
  </g>
 </g>
 <defs>
  <clipPath id="p5a79509fe4">
   <rect x="45" y="8.64" width="279" height="55.44"/>
  </clipPath>
 </defs>
</svg>
