<?xml version="1.0" encoding="utf-8" standalone="no"?>
<!DOCTYPE svg PUBLIC "-//W3C//DTD SVG 1.1//EN"
  "http://www.w3.org/Graphics/SVG/1.1/DTD/svg11.dtd">
<svg xmlns:xlink="http://www.w3.org/1999/xlink" width="720pt" height="432pt" viewBox="0 0 720 432" xmlns="http://www.w3.org/2000/svg" version="1.1">
 <metadata>
  <rdf:RDF xmlns:dc="http://purl.org/dc/elements/1.1/" xmlns:cc="http://creativecommons.org/ns#" xmlns:rdf="http://www.w3.org/1999/02/22-rdf-syntax-ns#">
   <cc:Work>
    <dc:type rdf:resource="http://purl.org/dc/dcmitype/StillImage"/>
    <dc:date>2024-05-14T21:09:58.584005</dc:date>
    <dc:format>image/svg+xml</dc:format>
    <dc:creator>
     <cc:Agent>
      <dc:title>Matplotlib v3.6.2, https://matplotlib.org/</dc:title>
     </cc:Agent>
    </dc:creator>
   </cc:Work>
  </rdf:RDF>
 </metadata>
 <defs>
  <style type="text/css">*{stroke-linejoin: round; stroke-linecap: butt}</style>
 </defs>
 <g id="figure_1">
  <g id="patch_1">
   <path d="M 0 432 
L 720 432 
L 720 0 
L 0 0 
z
" style="fill: #ffffff"/>
  </g>
  <g id="axes_1">
   <g id="line2d_1">
    <path d="M 115.363636 194.176304 
L 124.93482 192.540526 
L 134.506003 82.047575 
L 144.077187 170.603041 
L 153.64837 279.574013 
L 163.219554 253.363816 
L 172.790738 165.257517 
M 211.075472 329.991972 
L 220.646655 357.531615 
L 230.217839 294.476919 
L 239.789022 278.15306 
L 249.360206 208.341969 
L 258.931389 252.833162 
L 268.502573 66.96 
L 278.073756 366.620008 
L 287.64494 330.501072 
L 297.216123 346.583134 
L 306.787307 180.310306 
L 316.358491 315.484805 
L 325.929674 243.464907 
L 335.500858 318.482325 
L 345.072041 347.374245 
L 354.643225 363.803597 
L 364.214408 179.221225 
M 450.35506 242.673628 
L 459.926244 70.886168 
M 593.922813 224.214915 
L 603.493997 369.36 
L 613.06518 206.398038 
L 622.636364 86.933628 
" clip-path="url(#p57d3b94f6e)" style="fill: none; stroke: #000000; stroke-width: 4; stroke-linecap: square"/>
    <defs>
     <path id="md83ef4c1d4" d="M 0 5 
C 1.326016 5 2.597899 4.473168 3.535534 3.535534 
C 4.473168 2.597899 5 1.326016 5 0 
C 5 -1.326016 4.473168 -2.597899 3.535534 -3.535534 
C 2.597899 -4.473168 1.326016 -5 0 -5 
C -1.326016 -5 -2.597899 -4.473168 -3.535534 -3.535534 
C -4.473168 -2.597899 -5 -1.326016 -5 0 
C -5 1.326016 -4.473168 2.597899 -3.535534 3.535534 
C -2.597899 4.473168 -1.326016 5 0 5 
z
" style="stroke: #000000"/>
    </defs>
    <g clip-path="url(#p57d3b94f6e)">
     <use xlink:href="#md83ef4c1d4" x="115.363636" y="194.176304" style="stroke: #000000"/>
     <use xlink:href="#md83ef4c1d4" x="124.93482" y="192.540526" style="stroke: #000000"/>
     <use xlink:href="#md83ef4c1d4" x="134.506003" y="82.047575" style="stroke: #000000"/>
     <use xlink:href="#md83ef4c1d4" x="144.077187" y="170.603041" style="stroke: #000000"/>
     <use xlink:href="#md83ef4c1d4" x="153.64837" y="279.574013" style="stroke: #000000"/>
     <use xlink:href="#md83ef4c1d4" x="163.219554" y="253.363816" style="stroke: #000000"/>
     <use xlink:href="#md83ef4c1d4" x="172.790738" y="165.257517" style="stroke: #000000"/>
     <use xlink:href="#md83ef4c1d4" x="211.075472" y="329.991972" style="stroke: #000000"/>
     <use xlink:href="#md83ef4c1d4" x="220.646655" y="357.531615" style="stroke: #000000"/>
     <use xlink:href="#md83ef4c1d4" x="230.217839" y="294.476919" style="stroke: #000000"/>
     <use xlink:href="#md83ef4c1d4" x="239.789022" y="278.15306" style="stroke: #000000"/>
     <use xlink:href="#md83ef4c1d4" x="249.360206" y="208.341969" style="stroke: #000000"/>
     <use xlink:href="#md83ef4c1d4" x="258.931389" y="252.833162" style="stroke: #000000"/>
     <use xlink:href="#md83ef4c1d4" x="268.502573" y="66.96" style="stroke: #000000"/>
     <use xlink:href="#md83ef4c1d4" x="278.073756" y="366.620008" style="stroke: #000000"/>
     <use xlink:href="#md83ef4c1d4" x="287.64494" y="330.501072" style="stroke: #000000"/>
     <use xlink:href="#md83ef4c1d4" x="297.216123" y="346.583134" style="stroke: #000000"/>
     <use xlink:href="#md83ef4c1d4" x="306.787307" y="180.310306" style="stroke: #000000"/>
     <use xlink:href="#md83ef4c1d4" x="316.358491" y="315.484805" style="stroke: #000000"/>
     <use xlink:href="#md83ef4c1d4" x="325.929674" y="243.464907" style="stroke: #000000"/>
     <use xlink:href="#md83ef4c1d4" x="335.500858" y="318.482325" style="stroke: #000000"/>
     <use xlink:href="#md83ef4c1d4" x="345.072041" y="347.374245" style="stroke: #000000"/>
     <use xlink:href="#md83ef4c1d4" x="354.643225" y="363.803597" style="stroke: #000000"/>
     <use xlink:href="#md83ef4c1d4" x="364.214408" y="179.221225" style="stroke: #000000"/>
     <use xlink:href="#md83ef4c1d4" x="450.35506" y="242.673628" style="stroke: #000000"/>
     <use xlink:href="#md83ef4c1d4" x="459.926244" y="70.886168" style="stroke: #000000"/>
     <use xlink:href="#md83ef4c1d4" x="593.922813" y="224.214915" style="stroke: #000000"/>
     <use xlink:href="#md83ef4c1d4" x="603.493997" y="369.36" style="stroke: #000000"/>
     <use xlink:href="#md83ef4c1d4" x="613.06518" y="206.398038" style="stroke: #000000"/>
     <use xlink:href="#md83ef4c1d4" x="622.636364" y="86.933628" style="stroke: #000000"/>
    </g>
   </g>
  </g>
 </g>
 <defs>
  <clipPath id="p57d3b94f6e">
   <rect x="90" y="51.84" width="558" height="332.64"/>
  </clipPath>
 </defs>
</svg>
