<?xml version="1.0" encoding="utf-8" standalone="no"?>
<!DOCTYPE svg PUBLIC "-//W3C//DTD SVG 1.1//EN"
  "http://www.w3.org/Graphics/SVG/1.1/DTD/svg11.dtd">
<svg xmlns:xlink="http://www.w3.org/1999/xlink" width="360pt" height="72pt" viewBox="0 0 360 72" xmlns="http://www.w3.org/2000/svg" version="1.1">
 <metadata>
  <rdf:RDF xmlns:dc="http://purl.org/dc/elements/1.1/" xmlns:cc="http://creativecommons.org/ns#" xmlns:rdf="http://www.w3.org/1999/02/22-rdf-syntax-ns#">
   <cc:Work>
    <dc:type rdf:resource="http://purl.org/dc/dcmitype/StillImage"/>
    <dc:date>2024-05-19T15:56:12.717403</dc:date>
    <dc:format>image/svg+xml</dc:format>
    <dc:creator>
     <cc:Agent>
      <dc:title>Matplotlib v3.8.4, https://matplotlib.org/</dc:title>
     </cc:Agent>
    </dc:creator>
   </cc:Work>
  </rdf:RDF>
 </metadata>
 <defs>
  <style type="text/css">*{stroke-linejoin: round; stroke-linecap: butt}</style>
 </defs>
 <g id="figure_1">
  <g id="patch_1">
   <path d="M 0 72 
L 360 72 
L 360 0 
L 0 0 
z
" style="fill: #ffffff"/>
  </g>
  <g id="axes_1">
   <g id="line2d_1">
    <path d="M 57.681818 11.16 
L 60.243802 11.368963 
L 62.805785 19.302348 
L 65.367769 13.210726 
L 67.929752 19.87117 
L 70.491736 22.997243 
L 73.053719 21.129647 
L 75.615702 25.754386 
L 78.177686 29.683399 
L 80.739669 33.059263 
L 83.301653 31.011278 
L 85.863636 22.498498 
L 88.42562 22.344229 
L 90.987603 26.49597 
L 93.549587 24.49402 
L 96.11157 26.708033 
L 98.673554 26.779079 
L 101.235537 22.415371 
L 103.797521 25.192807 
L 106.359504 25.159289 
L 108.921488 28.420398 
L 111.483471 29.001362 
L 114.045455 28.048513 
L 116.607438 31.720631 
L 119.169421 32.978945 
L 121.731405 33.856083 
L 124.293388 36.2242 
L 126.855372 40.634743 
L 129.417355 45.912846 
L 131.979339 46.482895 
L 134.541322 47.482116 
L 137.103306 39.195288 
L 139.665289 48.237504 
L 142.227273 47.818862 
L 144.789256 46.443108 
L 147.35124 41.393713 
L 149.913223 39.52992 
L 152.475207 42.665153 
L 155.03719 42.665117 
L 157.599174 40.650933 
L 160.161157 41.815237 
L 162.72314 38.951861 
L 165.285124 45.889558 
L 167.847107 39.460301 
L 170.409091 34.009652 
L 172.971074 35.256288 
L 175.533058 32.985896 
L 178.095041 32.807743 
L 180.657025 35.886978 
L 183.219008 35.561241 
L 185.780992 31.846091 
L 188.342975 33.261389 
L 190.904959 34.656547 
L 193.466942 34.933115 
L 196.028926 33.323201 
L 198.590909 28.575568 
L 201.152893 30.932634 
L 203.714876 29.044557 
L 206.27686 28.241947 
L 208.838843 35.144445 
L 211.400826 36.701698 
L 213.96281 37.19314 
L 216.524793 37.340096 
L 219.086777 36.129387 
L 221.64876 43.706719 
L 224.210744 43.534936 
L 226.772727 46.051681 
L 229.334711 51.397456 
L 231.896694 49.450329 
L 234.458678 46.719655 
L 237.020661 49.145689 
L 239.582645 46.016983 
L 242.144628 47.433856 
L 244.706612 47.186929 
L 247.268595 51.267416 
L 249.830579 45.382963 
L 252.392562 55.259601 
L 254.954545 55.599237 
L 257.516529 53.017708 
L 260.078512 60.569577 
L 262.640496 61.273226 
L 265.202479 61.56 
L 267.764463 58.497226 
L 270.326446 53.861624 
L 272.88843 55.361596 
L 275.450413 60.503408 
L 278.012397 55.425782 
L 280.57438 50.90281 
L 283.136364 52.618601 
L 285.698347 51.315475 
L 288.260331 49.897304 
L 290.822314 47.794275 
L 293.384298 47.035889 
L 295.946281 41.811714 
L 298.508264 48.266132 
L 301.070248 44.40073 
L 303.632231 42.987737 
L 306.194215 43.794131 
L 308.756198 39.435881 
L 311.318182 48.139533 
" clip-path="url(#p6e187952a0)" style="fill: none; stroke: #0000ff; stroke-width: 1.5; stroke-linecap: square"/>
   </g>
  </g>
 </g>
 <defs>
  <clipPath id="p6e187952a0">
   <rect x="45" y="8.64" width="279" height="55.44"/>
  </clipPath>
 </defs>
</svg>
