<?xml version="1.0" encoding="utf-8" standalone="no"?>
<!DOCTYPE svg PUBLIC "-//W3C//DTD SVG 1.1//EN"
  "http://www.w3.org/Graphics/SVG/1.1/DTD/svg11.dtd">
<svg xmlns:xlink="http://www.w3.org/1999/xlink" width="1825.969473pt" height="666.740625pt" viewBox="0 0 1825.969473 666.740625" xmlns="http://www.w3.org/2000/svg" version="1.1">
 <metadata>
  <rdf:RDF xmlns:dc="http://purl.org/dc/elements/1.1/" xmlns:cc="http://creativecommons.org/ns#" xmlns:rdf="http://www.w3.org/1999/02/22-rdf-syntax-ns#">
   <cc:Work>
    <dc:type rdf:resource="http://purl.org/dc/dcmitype/StillImage"/>
    <dc:date>2024-05-10T20:43:23.704776</dc:date>
    <dc:format>image/svg+xml</dc:format>
    <dc:creator>
     <cc:Agent>
      <dc:title>Matplotlib v3.6.2, https://matplotlib.org/</dc:title>
     </cc:Agent>
    </dc:creator>
   </cc:Work>
  </rdf:RDF>
 </metadata>
 <defs>
  <style type="text/css">*{stroke-linejoin: round; stroke-linecap: butt}</style>
 </defs>
 <g id="figure_1">
  <g id="patch_1">
   <path d="M 0 666.740625 
L 1825.969473 666.740625 
L 1825.969473 0 
L 0 0 
z
" style="fill: #ffffff"/>
  </g>
  <g id="axes_1">
   <g id="patch_2">
    <path d="M 142.696875 616.209375 
L 903.605966 616.209375 
L 903.605966 61.809375 
L 142.696875 61.809375 
z
" style="fill: #ffffff"/>
   </g>
   <g id="matplotlib.axis_1">
    <g id="xtick_1">
     <g id="line2d_1">
      <path d="M 177.283652 616.209375 
L 177.283652 61.809375 
" clip-path="url(#pfbd82cd335)" style="fill: none; stroke-dasharray: 2.96,1.28; stroke-dashoffset: 0; stroke: #b0b0b0; stroke-width: 0.8"/>
     </g>
     <g id="line2d_2">
      <defs>
       <path id="mde8f26f270" d="M 0 0 
L 0 3.5 
" style="stroke: #000000; stroke-width: 0.8"/>
      </defs>
      <g>
       <use xlink:href="#mde8f26f270" x="177.283652" y="616.209375" style="stroke: #000000; stroke-width: 0.8"/>
      </g>
     </g>
     <g id="text_1">
      <!-- 10% -->
      <g transform="translate(140.624277 650.984375) scale(0.4 -0.4)">
       <defs>
        <path id="TimesNewRomanPSMT-31" d="M 750 3822 
L 1781 4325 
L 1884 4325 
L 1884 747 
Q 1884 391 1914 303 
Q 1944 216 2037 169 
Q 2131 122 2419 116 
L 2419 0 
L 825 0 
L 825 116 
Q 1125 122 1212 167 
Q 1300 213 1334 289 
Q 1369 366 1369 747 
L 1369 3034 
Q 1369 3497 1338 3628 
Q 1316 3728 1258 3775 
Q 1200 3822 1119 3822 
Q 1003 3822 797 3725 
L 750 3822 
z
" transform="scale(0.015625)"/>
        <path id="TimesNewRomanPSMT-30" d="M 231 2094 
Q 231 2819 450 3342 
Q 669 3866 1031 4122 
Q 1313 4325 1613 4325 
Q 2100 4325 2488 3828 
Q 2972 3213 2972 2159 
Q 2972 1422 2759 906 
Q 2547 391 2217 158 
Q 1888 -75 1581 -75 
Q 975 -75 572 641 
Q 231 1244 231 2094 
z
M 844 2016 
Q 844 1141 1059 588 
Q 1238 122 1591 122 
Q 1759 122 1940 273 
Q 2122 425 2216 781 
Q 2359 1319 2359 2297 
Q 2359 3022 2209 3506 
Q 2097 3866 1919 4016 
Q 1791 4119 1609 4119 
Q 1397 4119 1231 3928 
Q 1006 3669 925 3112 
Q 844 2556 844 2016 
z
" transform="scale(0.015625)"/>
        <path id="TimesNewRomanPSMT-25" d="M 4350 4334 
L 1263 -175 
L 984 -175 
L 4072 4334 
L 4350 4334 
z
M 1138 4334 
Q 1559 4334 1792 3984 
Q 2025 3634 2025 3181 
Q 2025 2638 1762 2341 
Q 1500 2044 1131 2044 
Q 884 2044 678 2180 
Q 472 2316 348 2584 
Q 225 2853 225 3181 
Q 225 3509 350 3786 
Q 475 4063 692 4198 
Q 909 4334 1138 4334 
z
M 1128 4159 
Q 969 4159 845 3971 
Q 722 3784 722 3184 
Q 722 2750 791 2522 
Q 844 2350 956 2256 
Q 1022 2200 1119 2200 
Q 1269 2200 1375 2363 
Q 1531 2603 1531 3166 
Q 1531 3759 1378 4000 
Q 1278 4159 1128 4159 
z
M 4206 2103 
Q 4428 2103 4648 1962 
Q 4869 1822 4989 1553 
Q 5109 1284 5109 963 
Q 5109 409 4843 117 
Q 4578 -175 4216 -175 
Q 3988 -175 3773 -34 
Q 3559 106 3436 367 
Q 3313 628 3313 963 
Q 3313 1291 3436 1562 
Q 3559 1834 3773 1968 
Q 3988 2103 4206 2103 
z
M 4209 1938 
Q 4059 1938 3950 1769 
Q 3809 1550 3809 941 
Q 3809 381 3953 159 
Q 4059 0 4209 0 
Q 4353 0 4466 172 
Q 4616 400 4616 956 
Q 4616 1544 4466 1778 
Q 4363 1938 4209 1938 
z
" transform="scale(0.015625)"/>
       </defs>
       <use xlink:href="#TimesNewRomanPSMT-31"/>
       <use xlink:href="#TimesNewRomanPSMT-30" x="50"/>
       <use xlink:href="#TimesNewRomanPSMT-25" x="100"/>
      </g>
     </g>
    </g>
    <g id="xtick_2">
     <g id="line2d_3">
      <path d="M 263.750594 616.209375 
L 263.750594 61.809375 
" clip-path="url(#pfbd82cd335)" style="fill: none; stroke-dasharray: 2.96,1.28; stroke-dashoffset: 0; stroke: #b0b0b0; stroke-width: 0.8"/>
     </g>
     <g id="line2d_4">
      <g>
       <use xlink:href="#mde8f26f270" x="263.750594" y="616.209375" style="stroke: #000000; stroke-width: 0.8"/>
      </g>
     </g>
     <g id="text_2">
      <!-- 20% -->
      <g transform="translate(227.091219 650.984375) scale(0.4 -0.4)">
       <defs>
        <path id="TimesNewRomanPSMT-32" d="M 2934 816 
L 2638 0 
L 138 0 
L 138 116 
Q 1241 1122 1691 1759 
Q 2141 2397 2141 2925 
Q 2141 3328 1894 3587 
Q 1647 3847 1303 3847 
Q 991 3847 742 3664 
Q 494 3481 375 3128 
L 259 3128 
Q 338 3706 661 4015 
Q 984 4325 1469 4325 
Q 1984 4325 2329 3994 
Q 2675 3663 2675 3213 
Q 2675 2891 2525 2569 
Q 2294 2063 1775 1497 
Q 997 647 803 472 
L 1909 472 
Q 2247 472 2383 497 
Q 2519 522 2628 598 
Q 2738 675 2819 816 
L 2934 816 
z
" transform="scale(0.015625)"/>
       </defs>
       <use xlink:href="#TimesNewRomanPSMT-32"/>
       <use xlink:href="#TimesNewRomanPSMT-30" x="50"/>
       <use xlink:href="#TimesNewRomanPSMT-25" x="100"/>
      </g>
     </g>
    </g>
    <g id="xtick_3">
     <g id="line2d_5">
      <path d="M 350.217536 616.209375 
L 350.217536 61.809375 
" clip-path="url(#pfbd82cd335)" style="fill: none; stroke-dasharray: 2.96,1.28; stroke-dashoffset: 0; stroke: #b0b0b0; stroke-width: 0.8"/>
     </g>
     <g id="line2d_6">
      <g>
       <use xlink:href="#mde8f26f270" x="350.217536" y="616.209375" style="stroke: #000000; stroke-width: 0.8"/>
      </g>
     </g>
     <g id="text_3">
      <!-- 30% -->
      <g transform="translate(313.558161 650.984375) scale(0.4 -0.4)">
       <defs>
        <path id="TimesNewRomanPSMT-33" d="M 325 3431 
Q 506 3859 782 4092 
Q 1059 4325 1472 4325 
Q 1981 4325 2253 3994 
Q 2459 3747 2459 3466 
Q 2459 3003 1878 2509 
Q 2269 2356 2469 2072 
Q 2669 1788 2669 1403 
Q 2669 853 2319 450 
Q 1863 -75 997 -75 
Q 569 -75 414 31 
Q 259 138 259 259 
Q 259 350 332 419 
Q 406 488 509 488 
Q 588 488 669 463 
Q 722 447 909 348 
Q 1097 250 1169 231 
Q 1284 197 1416 197 
Q 1734 197 1970 444 
Q 2206 691 2206 1028 
Q 2206 1275 2097 1509 
Q 2016 1684 1919 1775 
Q 1784 1900 1550 2001 
Q 1316 2103 1072 2103 
L 972 2103 
L 972 2197 
Q 1219 2228 1467 2375 
Q 1716 2522 1828 2728 
Q 1941 2934 1941 3181 
Q 1941 3503 1739 3701 
Q 1538 3900 1238 3900 
Q 753 3900 428 3381 
L 325 3431 
z
" transform="scale(0.015625)"/>
       </defs>
       <use xlink:href="#TimesNewRomanPSMT-33"/>
       <use xlink:href="#TimesNewRomanPSMT-30" x="50"/>
       <use xlink:href="#TimesNewRomanPSMT-25" x="100"/>
      </g>
     </g>
    </g>
    <g id="xtick_4">
     <g id="line2d_7">
      <path d="M 436.684478 616.209375 
L 436.684478 61.809375 
" clip-path="url(#pfbd82cd335)" style="fill: none; stroke-dasharray: 2.96,1.28; stroke-dashoffset: 0; stroke: #b0b0b0; stroke-width: 0.8"/>
     </g>
     <g id="line2d_8">
      <g>
       <use xlink:href="#mde8f26f270" x="436.684478" y="616.209375" style="stroke: #000000; stroke-width: 0.8"/>
      </g>
     </g>
     <g id="text_4">
      <!-- 40% -->
      <g transform="translate(400.025103 650.984375) scale(0.4 -0.4)">
       <defs>
        <path id="TimesNewRomanPSMT-34" d="M 2978 1563 
L 2978 1119 
L 2409 1119 
L 2409 0 
L 1894 0 
L 1894 1119 
L 100 1119 
L 100 1519 
L 2066 4325 
L 2409 4325 
L 2409 1563 
L 2978 1563 
z
M 1894 1563 
L 1894 3666 
L 406 1563 
L 1894 1563 
z
" transform="scale(0.015625)"/>
       </defs>
       <use xlink:href="#TimesNewRomanPSMT-34"/>
       <use xlink:href="#TimesNewRomanPSMT-30" x="50"/>
       <use xlink:href="#TimesNewRomanPSMT-25" x="100"/>
      </g>
     </g>
    </g>
    <g id="xtick_5">
     <g id="line2d_9">
      <path d="M 523.15142 616.209375 
L 523.15142 61.809375 
" clip-path="url(#pfbd82cd335)" style="fill: none; stroke-dasharray: 2.96,1.28; stroke-dashoffset: 0; stroke: #b0b0b0; stroke-width: 0.8"/>
     </g>
     <g id="line2d_10">
      <g>
       <use xlink:href="#mde8f26f270" x="523.15142" y="616.209375" style="stroke: #000000; stroke-width: 0.8"/>
      </g>
     </g>
     <g id="text_5">
      <!-- 50% -->
      <g transform="translate(486.492045 650.984375) scale(0.4 -0.4)">
       <defs>
        <path id="TimesNewRomanPSMT-35" d="M 2778 4238 
L 2534 3706 
L 1259 3706 
L 981 3138 
Q 1809 3016 2294 2522 
Q 2709 2097 2709 1522 
Q 2709 1188 2573 903 
Q 2438 619 2231 419 
Q 2025 219 1772 97 
Q 1413 -75 1034 -75 
Q 653 -75 479 54 
Q 306 184 306 341 
Q 306 428 378 495 
Q 450 563 559 563 
Q 641 563 702 538 
Q 763 513 909 409 
Q 1144 247 1384 247 
Q 1750 247 2026 523 
Q 2303 800 2303 1197 
Q 2303 1581 2056 1914 
Q 1809 2247 1375 2428 
Q 1034 2569 447 2591 
L 1259 4238 
L 2778 4238 
z
" transform="scale(0.015625)"/>
       </defs>
       <use xlink:href="#TimesNewRomanPSMT-35"/>
       <use xlink:href="#TimesNewRomanPSMT-30" x="50"/>
       <use xlink:href="#TimesNewRomanPSMT-25" x="100"/>
      </g>
     </g>
    </g>
    <g id="xtick_6">
     <g id="line2d_11">
      <path d="M 609.618363 616.209375 
L 609.618363 61.809375 
" clip-path="url(#pfbd82cd335)" style="fill: none; stroke-dasharray: 2.96,1.28; stroke-dashoffset: 0; stroke: #b0b0b0; stroke-width: 0.8"/>
     </g>
     <g id="line2d_12">
      <g>
       <use xlink:href="#mde8f26f270" x="609.618363" y="616.209375" style="stroke: #000000; stroke-width: 0.8"/>
      </g>
     </g>
     <g id="text_6">
      <!-- 60% -->
      <g transform="translate(572.958988 650.984375) scale(0.4 -0.4)">
       <defs>
        <path id="TimesNewRomanPSMT-36" d="M 2869 4325 
L 2869 4209 
Q 2456 4169 2195 4045 
Q 1934 3922 1679 3669 
Q 1425 3416 1258 3105 
Q 1091 2794 978 2366 
Q 1428 2675 1881 2675 
Q 2316 2675 2634 2325 
Q 2953 1975 2953 1425 
Q 2953 894 2631 456 
Q 2244 -75 1606 -75 
Q 1172 -75 869 213 
Q 275 772 275 1663 
Q 275 2231 503 2743 
Q 731 3256 1154 3653 
Q 1578 4050 1965 4187 
Q 2353 4325 2688 4325 
L 2869 4325 
z
M 925 2138 
Q 869 1716 869 1456 
Q 869 1156 980 804 
Q 1091 453 1309 247 
Q 1469 100 1697 100 
Q 1969 100 2183 356 
Q 2397 613 2397 1088 
Q 2397 1622 2184 2012 
Q 1972 2403 1581 2403 
Q 1463 2403 1327 2353 
Q 1191 2303 925 2138 
z
" transform="scale(0.015625)"/>
       </defs>
       <use xlink:href="#TimesNewRomanPSMT-36"/>
       <use xlink:href="#TimesNewRomanPSMT-30" x="50"/>
       <use xlink:href="#TimesNewRomanPSMT-25" x="100"/>
      </g>
     </g>
    </g>
    <g id="xtick_7">
     <g id="line2d_13">
      <path d="M 696.085305 616.209375 
L 696.085305 61.809375 
" clip-path="url(#pfbd82cd335)" style="fill: none; stroke-dasharray: 2.96,1.28; stroke-dashoffset: 0; stroke: #b0b0b0; stroke-width: 0.8"/>
     </g>
     <g id="line2d_14">
      <g>
       <use xlink:href="#mde8f26f270" x="696.085305" y="616.209375" style="stroke: #000000; stroke-width: 0.8"/>
      </g>
     </g>
     <g id="text_7">
      <!-- 70% -->
      <g transform="translate(659.42593 650.984375) scale(0.4 -0.4)">
       <defs>
        <path id="TimesNewRomanPSMT-37" d="M 644 4238 
L 2916 4238 
L 2916 4119 
L 1503 -88 
L 1153 -88 
L 2419 3728 
L 1253 3728 
Q 900 3728 750 3644 
Q 488 3500 328 3200 
L 238 3234 
L 644 4238 
z
" transform="scale(0.015625)"/>
       </defs>
       <use xlink:href="#TimesNewRomanPSMT-37"/>
       <use xlink:href="#TimesNewRomanPSMT-30" x="50"/>
       <use xlink:href="#TimesNewRomanPSMT-25" x="100"/>
      </g>
     </g>
    </g>
    <g id="xtick_8">
     <g id="line2d_15">
      <path d="M 782.552247 616.209375 
L 782.552247 61.809375 
" clip-path="url(#pfbd82cd335)" style="fill: none; stroke-dasharray: 2.96,1.28; stroke-dashoffset: 0; stroke: #b0b0b0; stroke-width: 0.8"/>
     </g>
     <g id="line2d_16">
      <g>
       <use xlink:href="#mde8f26f270" x="782.552247" y="616.209375" style="stroke: #000000; stroke-width: 0.8"/>
      </g>
     </g>
     <g id="text_8">
      <!-- 80% -->
      <g transform="translate(745.892872 650.984375) scale(0.4 -0.4)">
       <defs>
        <path id="TimesNewRomanPSMT-38" d="M 1228 2134 
Q 725 2547 579 2797 
Q 434 3047 434 3316 
Q 434 3728 753 4026 
Q 1072 4325 1600 4325 
Q 2113 4325 2425 4047 
Q 2738 3769 2738 3413 
Q 2738 3175 2569 2928 
Q 2400 2681 1866 2347 
Q 2416 1922 2594 1678 
Q 2831 1359 2831 1006 
Q 2831 559 2490 242 
Q 2150 -75 1597 -75 
Q 994 -75 656 303 
Q 388 606 388 966 
Q 388 1247 577 1523 
Q 766 1800 1228 2134 
z
M 1719 2469 
Q 2094 2806 2194 3001 
Q 2294 3197 2294 3444 
Q 2294 3772 2109 3958 
Q 1925 4144 1606 4144 
Q 1288 4144 1088 3959 
Q 888 3775 888 3528 
Q 888 3366 970 3203 
Q 1053 3041 1206 2894 
L 1719 2469 
z
M 1375 2016 
Q 1116 1797 991 1539 
Q 866 1281 866 981 
Q 866 578 1086 336 
Q 1306 94 1647 94 
Q 1984 94 2187 284 
Q 2391 475 2391 747 
Q 2391 972 2272 1150 
Q 2050 1481 1375 2016 
z
" transform="scale(0.015625)"/>
       </defs>
       <use xlink:href="#TimesNewRomanPSMT-38"/>
       <use xlink:href="#TimesNewRomanPSMT-30" x="50"/>
       <use xlink:href="#TimesNewRomanPSMT-25" x="100"/>
      </g>
     </g>
    </g>
    <g id="xtick_9">
     <g id="line2d_17">
      <path d="M 869.019189 616.209375 
L 869.019189 61.809375 
" clip-path="url(#pfbd82cd335)" style="fill: none; stroke-dasharray: 2.96,1.28; stroke-dashoffset: 0; stroke: #b0b0b0; stroke-width: 0.8"/>
     </g>
     <g id="line2d_18">
      <g>
       <use xlink:href="#mde8f26f270" x="869.019189" y="616.209375" style="stroke: #000000; stroke-width: 0.8"/>
      </g>
     </g>
     <g id="text_9">
      <!-- 90% -->
      <g transform="translate(832.359814 650.984375) scale(0.4 -0.4)">
       <defs>
        <path id="TimesNewRomanPSMT-39" d="M 338 -88 
L 338 28 
Q 744 34 1094 217 
Q 1444 400 1770 856 
Q 2097 1313 2225 1859 
Q 1734 1544 1338 1544 
Q 891 1544 572 1889 
Q 253 2234 253 2806 
Q 253 3363 572 3797 
Q 956 4325 1575 4325 
Q 2097 4325 2469 3894 
Q 2925 3359 2925 2575 
Q 2925 1869 2578 1258 
Q 2231 647 1613 244 
Q 1109 -88 516 -88 
L 338 -88 
z
M 2275 2091 
Q 2331 2497 2331 2741 
Q 2331 3044 2228 3395 
Q 2125 3747 1936 3934 
Q 1747 4122 1506 4122 
Q 1228 4122 1018 3872 
Q 809 3622 809 3128 
Q 809 2469 1088 2097 
Q 1291 1828 1588 1828 
Q 1731 1828 1928 1897 
Q 2125 1966 2275 2091 
z
" transform="scale(0.015625)"/>
       </defs>
       <use xlink:href="#TimesNewRomanPSMT-39"/>
       <use xlink:href="#TimesNewRomanPSMT-30" x="50"/>
       <use xlink:href="#TimesNewRomanPSMT-25" x="100"/>
      </g>
     </g>
    </g>
   </g>
   <g id="matplotlib.axis_2">
    <g id="ytick_1">
     <g id="line2d_19">
      <path d="M 142.696875 590.817009 
L 903.605966 590.817009 
" clip-path="url(#pfbd82cd335)" style="fill: none; stroke-dasharray: 2.96,1.28; stroke-dashoffset: 0; stroke: #b0b0b0; stroke-width: 0.8"/>
     </g>
     <g id="line2d_20">
      <defs>
       <path id="m66fd44c008" d="M 0 0 
L -3.5 0 
" style="stroke: #000000; stroke-width: 0.8"/>
      </defs>
      <g>
       <use xlink:href="#m66fd44c008" x="142.696875" y="590.817009" style="stroke: #000000; stroke-width: 0.8"/>
      </g>
     </g>
     <g id="text_10">
      <!-- 2.5 -->
      <g transform="translate(85.696875 604.704509) scale(0.4 -0.4)">
       <defs>
        <path id="TimesNewRomanPSMT-2e" d="M 800 606 
Q 947 606 1047 504 
Q 1147 403 1147 259 
Q 1147 116 1045 14 
Q 944 -88 800 -88 
Q 656 -88 554 14 
Q 453 116 453 259 
Q 453 406 554 506 
Q 656 606 800 606 
z
" transform="scale(0.015625)"/>
       </defs>
       <use xlink:href="#TimesNewRomanPSMT-32"/>
       <use xlink:href="#TimesNewRomanPSMT-2e" x="50"/>
       <use xlink:href="#TimesNewRomanPSMT-35" x="75"/>
      </g>
     </g>
    </g>
    <g id="ytick_2">
     <g id="line2d_21">
      <path d="M 142.696875 485.015482 
L 903.605966 485.015482 
" clip-path="url(#pfbd82cd335)" style="fill: none; stroke-dasharray: 2.96,1.28; stroke-dashoffset: 0; stroke: #b0b0b0; stroke-width: 0.8"/>
     </g>
     <g id="line2d_22">
      <g>
       <use xlink:href="#m66fd44c008" x="142.696875" y="485.015482" style="stroke: #000000; stroke-width: 0.8"/>
      </g>
     </g>
     <g id="text_11">
      <!-- 5.0 -->
      <g transform="translate(85.696875 498.902982) scale(0.4 -0.4)">
       <use xlink:href="#TimesNewRomanPSMT-35"/>
       <use xlink:href="#TimesNewRomanPSMT-2e" x="50"/>
       <use xlink:href="#TimesNewRomanPSMT-30" x="75"/>
      </g>
     </g>
    </g>
    <g id="ytick_3">
     <g id="line2d_23">
      <path d="M 142.696875 379.213955 
L 903.605966 379.213955 
" clip-path="url(#pfbd82cd335)" style="fill: none; stroke-dasharray: 2.96,1.28; stroke-dashoffset: 0; stroke: #b0b0b0; stroke-width: 0.8"/>
     </g>
     <g id="line2d_24">
      <g>
       <use xlink:href="#m66fd44c008" x="142.696875" y="379.213955" style="stroke: #000000; stroke-width: 0.8"/>
      </g>
     </g>
     <g id="text_12">
      <!-- 7.5 -->
      <g transform="translate(85.696875 393.101455) scale(0.4 -0.4)">
       <use xlink:href="#TimesNewRomanPSMT-37"/>
       <use xlink:href="#TimesNewRomanPSMT-2e" x="50"/>
       <use xlink:href="#TimesNewRomanPSMT-35" x="75"/>
      </g>
     </g>
    </g>
    <g id="ytick_4">
     <g id="line2d_25">
      <path d="M 142.696875 273.412428 
L 903.605966 273.412428 
" clip-path="url(#pfbd82cd335)" style="fill: none; stroke-dasharray: 2.96,1.28; stroke-dashoffset: 0; stroke: #b0b0b0; stroke-width: 0.8"/>
     </g>
     <g id="line2d_26">
      <g>
       <use xlink:href="#m66fd44c008" x="142.696875" y="273.412428" style="stroke: #000000; stroke-width: 0.8"/>
      </g>
     </g>
     <g id="text_13">
      <!-- 10.0 -->
      <g transform="translate(65.696875 287.299928) scale(0.4 -0.4)">
       <use xlink:href="#TimesNewRomanPSMT-31"/>
       <use xlink:href="#TimesNewRomanPSMT-30" x="50"/>
       <use xlink:href="#TimesNewRomanPSMT-2e" x="100"/>
       <use xlink:href="#TimesNewRomanPSMT-30" x="125"/>
      </g>
     </g>
    </g>
    <g id="ytick_5">
     <g id="line2d_27">
      <path d="M 142.696875 167.610902 
L 903.605966 167.610902 
" clip-path="url(#pfbd82cd335)" style="fill: none; stroke-dasharray: 2.96,1.28; stroke-dashoffset: 0; stroke: #b0b0b0; stroke-width: 0.8"/>
     </g>
     <g id="line2d_28">
      <g>
       <use xlink:href="#m66fd44c008" x="142.696875" y="167.610902" style="stroke: #000000; stroke-width: 0.8"/>
      </g>
     </g>
     <g id="text_14">
      <!-- 12.5 -->
      <g transform="translate(65.696875 181.498402) scale(0.4 -0.4)">
       <use xlink:href="#TimesNewRomanPSMT-31"/>
       <use xlink:href="#TimesNewRomanPSMT-32" x="50"/>
       <use xlink:href="#TimesNewRomanPSMT-2e" x="100"/>
       <use xlink:href="#TimesNewRomanPSMT-35" x="125"/>
      </g>
     </g>
    </g>
    <g id="ytick_6">
     <g id="line2d_29">
      <path d="M 142.696875 61.809375 
L 903.605966 61.809375 
" clip-path="url(#pfbd82cd335)" style="fill: none; stroke-dasharray: 2.96,1.28; stroke-dashoffset: 0; stroke: #b0b0b0; stroke-width: 0.8"/>
     </g>
     <g id="line2d_30">
      <g>
       <use xlink:href="#m66fd44c008" x="142.696875" y="61.809375" style="stroke: #000000; stroke-width: 0.8"/>
      </g>
     </g>
     <g id="text_15">
      <!-- 15.0 -->
      <g transform="translate(65.696875 75.696875) scale(0.4 -0.4)">
       <use xlink:href="#TimesNewRomanPSMT-31"/>
       <use xlink:href="#TimesNewRomanPSMT-35" x="50"/>
       <use xlink:href="#TimesNewRomanPSMT-2e" x="100"/>
       <use xlink:href="#TimesNewRomanPSMT-30" x="125"/>
      </g>
     </g>
    </g>
    <g id="text_16">
     <!-- MAE -->
     <g transform="translate(48.8625 405.675) rotate(-90) scale(0.6 -0.6)">
      <defs>
       <path id="TimesNewRomanPSMT-4d" d="M 2619 0 
L 981 3566 
L 981 734 
Q 981 344 1066 247 
Q 1181 116 1431 116 
L 1581 116 
L 1581 0 
L 106 0 
L 106 116 
L 256 116 
Q 525 116 638 278 
Q 706 378 706 734 
L 706 3503 
Q 706 3784 644 3909 
Q 600 4000 483 4061 
Q 366 4122 106 4122 
L 106 4238 
L 1306 4238 
L 2844 922 
L 4356 4238 
L 5556 4238 
L 5556 4122 
L 5409 4122 
Q 5138 4122 5025 3959 
Q 4956 3859 4956 3503 
L 4956 734 
Q 4956 344 5044 247 
Q 5159 116 5409 116 
L 5556 116 
L 5556 0 
L 3756 0 
L 3756 116 
L 3906 116 
Q 4178 116 4288 278 
Q 4356 378 4356 734 
L 4356 3566 
L 2722 0 
L 2619 0 
z
" transform="scale(0.015625)"/>
       <path id="TimesNewRomanPSMT-41" d="M 2928 1419 
L 1288 1419 
L 1000 750 
Q 894 503 894 381 
Q 894 284 986 211 
Q 1078 138 1384 116 
L 1384 0 
L 50 0 
L 50 116 
Q 316 163 394 238 
Q 553 388 747 847 
L 2238 4334 
L 2347 4334 
L 3822 809 
Q 4000 384 4145 257 
Q 4291 131 4550 116 
L 4550 0 
L 2878 0 
L 2878 116 
Q 3131 128 3220 200 
Q 3309 272 3309 375 
Q 3309 513 3184 809 
L 2928 1419 
z
M 2841 1650 
L 2122 3363 
L 1384 1650 
L 2841 1650 
z
" transform="scale(0.015625)"/>
       <path id="TimesNewRomanPSMT-45" d="M 1338 4006 
L 1338 2331 
L 2269 2331 
Q 2631 2331 2753 2441 
Q 2916 2584 2934 2947 
L 3050 2947 
L 3050 1472 
L 2934 1472 
Q 2891 1781 2847 1869 
Q 2791 1978 2662 2040 
Q 2534 2103 2269 2103 
L 1338 2103 
L 1338 706 
Q 1338 425 1363 364 
Q 1388 303 1450 267 
Q 1513 231 1688 231 
L 2406 231 
Q 2766 231 2928 281 
Q 3091 331 3241 478 
Q 3434 672 3638 1063 
L 3763 1063 
L 3397 0 
L 131 0 
L 131 116 
L 281 116 
Q 431 116 566 188 
Q 666 238 702 338 
Q 738 438 738 747 
L 738 3500 
Q 738 3903 656 3997 
Q 544 4122 281 4122 
L 131 4122 
L 131 4238 
L 3397 4238 
L 3444 3309 
L 3322 3309 
Q 3256 3644 3176 3769 
Q 3097 3894 2941 3959 
Q 2816 4006 2500 4006 
L 1338 4006 
z
" transform="scale(0.015625)"/>
      </defs>
      <use xlink:href="#TimesNewRomanPSMT-4d"/>
      <use xlink:href="#TimesNewRomanPSMT-41" x="88.916016"/>
      <use xlink:href="#TimesNewRomanPSMT-45" x="161.132812"/>
     </g>
    </g>
   </g>
   <g id="line2d_31">
    <path d="M 177.283652 610.369131 
L 263.750594 614.728154 
L 350.217536 614.558871 
L 436.684478 608.972551 
L 523.15142 599.704337 
L 609.618363 592.679115 
L 696.085305 580.194535 
L 782.552247 554.632886 
L 869.019189 503.382627 
" clip-path="url(#pfbd82cd335)" style="fill: none; stroke: #1f77b4; stroke-width: 8; stroke-linecap: square"/>
    <defs>
     <path id="md6f85636f1" d="M 0 10 
C 2.652031 10 5.195799 8.946337 7.071068 7.071068 
C 8.946337 5.195799 10 2.652031 10 0 
C 10 -2.652031 8.946337 -5.195799 7.071068 -7.071068 
C 5.195799 -8.946337 2.652031 -10 0 -10 
C -2.652031 -10 -5.195799 -8.946337 -7.071068 -7.071068 
C -8.946337 -5.195799 -10 -2.652031 -10 0 
C -10 2.652031 -8.946337 5.195799 -7.071068 7.071068 
C -5.195799 8.946337 -2.652031 10 0 10 
z
" style="stroke: #1f77b4"/>
    </defs>
    <g clip-path="url(#pfbd82cd335)">
     <use xlink:href="#md6f85636f1" x="177.283652" y="610.369131" style="fill: #1f77b4; stroke: #1f77b4"/>
     <use xlink:href="#md6f85636f1" x="263.750594" y="614.728154" style="fill: #1f77b4; stroke: #1f77b4"/>
     <use xlink:href="#md6f85636f1" x="350.217536" y="614.558871" style="fill: #1f77b4; stroke: #1f77b4"/>
     <use xlink:href="#md6f85636f1" x="436.684478" y="608.972551" style="fill: #1f77b4; stroke: #1f77b4"/>
     <use xlink:href="#md6f85636f1" x="523.15142" y="599.704337" style="fill: #1f77b4; stroke: #1f77b4"/>
     <use xlink:href="#md6f85636f1" x="609.618363" y="592.679115" style="fill: #1f77b4; stroke: #1f77b4"/>
     <use xlink:href="#md6f85636f1" x="696.085305" y="580.194535" style="fill: #1f77b4; stroke: #1f77b4"/>
     <use xlink:href="#md6f85636f1" x="782.552247" y="554.632886" style="fill: #1f77b4; stroke: #1f77b4"/>
     <use xlink:href="#md6f85636f1" x="869.019189" y="503.382627" style="fill: #1f77b4; stroke: #1f77b4"/>
    </g>
   </g>
   <g id="line2d_32">
    <path d="M 177.283652 604.06336 
L 263.750594 609.311115 
L 350.217536 610.453772 
L 436.684478 606.390993 
L 523.15142 598.857925 
L 609.618363 590.690047 
L 696.085305 579.094199 
L 782.552247 553.109344 
L 869.019189 502.409253 
" clip-path="url(#pfbd82cd335)" style="fill: none; stroke: #ff7f0e; stroke-width: 8; stroke-linecap: square"/>
    <defs>
     <path id="ma5ee9ef047" d="M 0 10 
C 2.652031 10 5.195799 8.946337 7.071068 7.071068 
C 8.946337 5.195799 10 2.652031 10 0 
C 10 -2.652031 8.946337 -5.195799 7.071068 -7.071068 
C 5.195799 -8.946337 2.652031 -10 0 -10 
C -2.652031 -10 -5.195799 -8.946337 -7.071068 -7.071068 
C -8.946337 -5.195799 -10 -2.652031 -10 0 
C -10 2.652031 -8.946337 5.195799 -7.071068 7.071068 
C -5.195799 8.946337 -2.652031 10 0 10 
z
" style="stroke: #ff7f0e"/>
    </defs>
    <g clip-path="url(#pfbd82cd335)">
     <use xlink:href="#ma5ee9ef047" x="177.283652" y="604.06336" style="fill: #ff7f0e; stroke: #ff7f0e"/>
     <use xlink:href="#ma5ee9ef047" x="263.750594" y="609.311115" style="fill: #ff7f0e; stroke: #ff7f0e"/>
     <use xlink:href="#ma5ee9ef047" x="350.217536" y="610.453772" style="fill: #ff7f0e; stroke: #ff7f0e"/>
     <use xlink:href="#ma5ee9ef047" x="436.684478" y="606.390993" style="fill: #ff7f0e; stroke: #ff7f0e"/>
     <use xlink:href="#ma5ee9ef047" x="523.15142" y="598.857925" style="fill: #ff7f0e; stroke: #ff7f0e"/>
     <use xlink:href="#ma5ee9ef047" x="609.618363" y="590.690047" style="fill: #ff7f0e; stroke: #ff7f0e"/>
     <use xlink:href="#ma5ee9ef047" x="696.085305" y="579.094199" style="fill: #ff7f0e; stroke: #ff7f0e"/>
     <use xlink:href="#ma5ee9ef047" x="782.552247" y="553.109344" style="fill: #ff7f0e; stroke: #ff7f0e"/>
     <use xlink:href="#ma5ee9ef047" x="869.019189" y="502.409253" style="fill: #ff7f0e; stroke: #ff7f0e"/>
    </g>
   </g>
   <g id="line2d_33">
    <path d="M 177.283652 487.68168 
L 263.750594 565.509283 
L 350.217536 511.465864 
L 436.684478 496.780612 
L 523.15142 484.507635 
L 609.618363 458.141894 
L 696.085305 430.16797 
L 782.552247 350.308978 
L 869.019189 86.905497 
" clip-path="url(#pfbd82cd335)" style="fill: none; stroke: #2ca02c; stroke-width: 8; stroke-linecap: square"/>
    <defs>
     <path id="m6cc18fe52b" d="M 0 10 
C 2.652031 10 5.195799 8.946337 7.071068 7.071068 
C 8.946337 5.195799 10 2.652031 10 0 
C 10 -2.652031 8.946337 -5.195799 7.071068 -7.071068 
C 5.195799 -8.946337 2.652031 -10 0 -10 
C -2.652031 -10 -5.195799 -8.946337 -7.071068 -7.071068 
C -8.946337 -5.195799 -10 -2.652031 -10 0 
C -10 2.652031 -8.946337 5.195799 -7.071068 7.071068 
C -5.195799 8.946337 -2.652031 10 0 10 
z
" style="stroke: #2ca02c"/>
    </defs>
    <g clip-path="url(#pfbd82cd335)">
     <use xlink:href="#m6cc18fe52b" x="177.283652" y="487.68168" style="fill: #2ca02c; stroke: #2ca02c"/>
     <use xlink:href="#m6cc18fe52b" x="263.750594" y="565.509283" style="fill: #2ca02c; stroke: #2ca02c"/>
     <use xlink:href="#m6cc18fe52b" x="350.217536" y="511.465864" style="fill: #2ca02c; stroke: #2ca02c"/>
     <use xlink:href="#m6cc18fe52b" x="436.684478" y="496.780612" style="fill: #2ca02c; stroke: #2ca02c"/>
     <use xlink:href="#m6cc18fe52b" x="523.15142" y="484.507635" style="fill: #2ca02c; stroke: #2ca02c"/>
     <use xlink:href="#m6cc18fe52b" x="609.618363" y="458.141894" style="fill: #2ca02c; stroke: #2ca02c"/>
     <use xlink:href="#m6cc18fe52b" x="696.085305" y="430.16797" style="fill: #2ca02c; stroke: #2ca02c"/>
     <use xlink:href="#m6cc18fe52b" x="782.552247" y="350.308978" style="fill: #2ca02c; stroke: #2ca02c"/>
     <use xlink:href="#m6cc18fe52b" x="869.019189" y="86.905497" style="fill: #2ca02c; stroke: #2ca02c"/>
    </g>
   </g>
   <g id="line2d_34">
    <path d="M 177.283652 519.718383 
L 263.750594 515.020795 
L 350.217536 504.482963 
L 436.684478 507.614688 
L 523.15142 492.209986 
L 609.618363 471.00736 
L 696.085305 468.849009 
L 782.552247 398.385192 
L 869.019189 304.094871 
" clip-path="url(#pfbd82cd335)" style="fill: none; stroke: #d62728; stroke-width: 8; stroke-linecap: square"/>
    <defs>
     <path id="m83ac60c806" d="M 0 10 
C 2.652031 10 5.195799 8.946337 7.071068 7.071068 
C 8.946337 5.195799 10 2.652031 10 0 
C 10 -2.652031 8.946337 -5.195799 7.071068 -7.071068 
C 5.195799 -8.946337 2.652031 -10 0 -10 
C -2.652031 -10 -5.195799 -8.946337 -7.071068 -7.071068 
C -8.946337 -5.195799 -10 -2.652031 -10 0 
C -10 2.652031 -8.946337 5.195799 -7.071068 7.071068 
C -5.195799 8.946337 -2.652031 10 0 10 
z
" style="stroke: #d62728"/>
    </defs>
    <g clip-path="url(#pfbd82cd335)">
     <use xlink:href="#m83ac60c806" x="177.283652" y="519.718383" style="fill: #d62728; stroke: #d62728"/>
     <use xlink:href="#m83ac60c806" x="263.750594" y="515.020795" style="fill: #d62728; stroke: #d62728"/>
     <use xlink:href="#m83ac60c806" x="350.217536" y="504.482963" style="fill: #d62728; stroke: #d62728"/>
     <use xlink:href="#m83ac60c806" x="436.684478" y="507.614688" style="fill: #d62728; stroke: #d62728"/>
     <use xlink:href="#m83ac60c806" x="523.15142" y="492.209986" style="fill: #d62728; stroke: #d62728"/>
     <use xlink:href="#m83ac60c806" x="609.618363" y="471.00736" style="fill: #d62728; stroke: #d62728"/>
     <use xlink:href="#m83ac60c806" x="696.085305" y="468.849009" style="fill: #d62728; stroke: #d62728"/>
     <use xlink:href="#m83ac60c806" x="782.552247" y="398.385192" style="fill: #d62728; stroke: #d62728"/>
     <use xlink:href="#m83ac60c806" x="869.019189" y="304.094871" style="fill: #d62728; stroke: #d62728"/>
    </g>
   </g>
   <g id="line2d_35">
    <path d="M 177.283652 541.00565 
L 263.750594 522.680825 
L 350.217536 522.638505 
L 436.684478 506.38739 
L 523.15142 489.966993 
L 609.618363 413.53597 
L 696.085305 462.077711 
L 782.552247 353.017497 
L 869.019189 204.048948 
" clip-path="url(#pfbd82cd335)" style="fill: none; stroke: #9467bd; stroke-width: 8; stroke-linecap: square"/>
    <defs>
     <path id="mccb9f1953c" d="M 0 10 
C 2.652031 10 5.195799 8.946337 7.071068 7.071068 
C 8.946337 5.195799 10 2.652031 10 0 
C 10 -2.652031 8.946337 -5.195799 7.071068 -7.071068 
C 5.195799 -8.946337 2.652031 -10 0 -10 
C -2.652031 -10 -5.195799 -8.946337 -7.071068 -7.071068 
C -8.946337 -5.195799 -10 -2.652031 -10 0 
C -10 2.652031 -8.946337 5.195799 -7.071068 7.071068 
C -5.195799 8.946337 -2.652031 10 0 10 
z
" style="stroke: #9467bd"/>
    </defs>
    <g clip-path="url(#pfbd82cd335)">
     <use xlink:href="#mccb9f1953c" x="177.283652" y="541.00565" style="fill: #9467bd; stroke: #9467bd"/>
     <use xlink:href="#mccb9f1953c" x="263.750594" y="522.680825" style="fill: #9467bd; stroke: #9467bd"/>
     <use xlink:href="#mccb9f1953c" x="350.217536" y="522.638505" style="fill: #9467bd; stroke: #9467bd"/>
     <use xlink:href="#mccb9f1953c" x="436.684478" y="506.38739" style="fill: #9467bd; stroke: #9467bd"/>
     <use xlink:href="#mccb9f1953c" x="523.15142" y="489.966993" style="fill: #9467bd; stroke: #9467bd"/>
     <use xlink:href="#mccb9f1953c" x="609.618363" y="413.53597" style="fill: #9467bd; stroke: #9467bd"/>
     <use xlink:href="#mccb9f1953c" x="696.085305" y="462.077711" style="fill: #9467bd; stroke: #9467bd"/>
     <use xlink:href="#mccb9f1953c" x="782.552247" y="353.017497" style="fill: #9467bd; stroke: #9467bd"/>
     <use xlink:href="#mccb9f1953c" x="869.019189" y="204.048948" style="fill: #9467bd; stroke: #9467bd"/>
    </g>
   </g>
   <g id="line2d_36">
    <path d="M 177.283652 531.864398 
L 263.750594 520.734077 
L 350.217536 509.392154 
L 436.684478 463.643573 
L 523.15142 493.691207 
L 609.618363 481.41823 
L 696.085305 444.937864 
L 782.552247 382.726566 
L 869.019189 231.853589 
" clip-path="url(#pfbd82cd335)" style="fill: none; stroke: #8c564b; stroke-width: 8; stroke-linecap: square"/>
    <defs>
     <path id="m2f725e93b0" d="M 0 10 
C 2.652031 10 5.195799 8.946337 7.071068 7.071068 
C 8.946337 5.195799 10 2.652031 10 0 
C 10 -2.652031 8.946337 -5.195799 7.071068 -7.071068 
C 5.195799 -8.946337 2.652031 -10 0 -10 
C -2.652031 -10 -5.195799 -8.946337 -7.071068 -7.071068 
C -8.946337 -5.195799 -10 -2.652031 -10 0 
C -10 2.652031 -8.946337 5.195799 -7.071068 7.071068 
C -5.195799 8.946337 -2.652031 10 0 10 
z
" style="stroke: #8c564b"/>
    </defs>
    <g clip-path="url(#pfbd82cd335)">
     <use xlink:href="#m2f725e93b0" x="177.283652" y="531.864398" style="fill: #8c564b; stroke: #8c564b"/>
     <use xlink:href="#m2f725e93b0" x="263.750594" y="520.734077" style="fill: #8c564b; stroke: #8c564b"/>
     <use xlink:href="#m2f725e93b0" x="350.217536" y="509.392154" style="fill: #8c564b; stroke: #8c564b"/>
     <use xlink:href="#m2f725e93b0" x="436.684478" y="463.643573" style="fill: #8c564b; stroke: #8c564b"/>
     <use xlink:href="#m2f725e93b0" x="523.15142" y="493.691207" style="fill: #8c564b; stroke: #8c564b"/>
     <use xlink:href="#m2f725e93b0" x="609.618363" y="481.41823" style="fill: #8c564b; stroke: #8c564b"/>
     <use xlink:href="#m2f725e93b0" x="696.085305" y="444.937864" style="fill: #8c564b; stroke: #8c564b"/>
     <use xlink:href="#m2f725e93b0" x="782.552247" y="382.726566" style="fill: #8c564b; stroke: #8c564b"/>
     <use xlink:href="#m2f725e93b0" x="869.019189" y="231.853589" style="fill: #8c564b; stroke: #8c564b"/>
    </g>
   </g>
   <g id="patch_3">
    <path d="M 142.696875 616.209375 
L 142.696875 61.809375 
" style="fill: none; stroke: #000000; stroke-width: 0.8; stroke-linejoin: miter; stroke-linecap: square"/>
   </g>
   <g id="patch_4">
    <path d="M 903.605966 616.209375 
L 903.605966 61.809375 
" style="fill: none; stroke: #000000; stroke-width: 0.8; stroke-linejoin: miter; stroke-linecap: square"/>
   </g>
   <g id="patch_5">
    <path d="M 142.696875 616.209375 
L 903.605966 616.209375 
" style="fill: none; stroke: #000000; stroke-width: 0.8; stroke-linejoin: miter; stroke-linecap: square"/>
   </g>
   <g id="patch_6">
    <path d="M 142.696875 61.809375 
L 903.605966 61.809375 
" style="fill: none; stroke: #000000; stroke-width: 0.8; stroke-linejoin: miter; stroke-linecap: square"/>
   </g>
   <g id="text_17">
    <!-- Point Missing -->
    <g transform="translate(355.60142 48.8625) scale(0.6 -0.6)">
     <defs>
      <path id="TimesNewRomanPSMT-50" d="M 1313 1984 
L 1313 750 
Q 1313 350 1400 253 
Q 1519 116 1759 116 
L 1922 116 
L 1922 0 
L 106 0 
L 106 116 
L 266 116 
Q 534 116 650 291 
Q 713 388 713 750 
L 713 3488 
Q 713 3888 628 3984 
Q 506 4122 266 4122 
L 106 4122 
L 106 4238 
L 1659 4238 
Q 2228 4238 2556 4120 
Q 2884 4003 3109 3725 
Q 3334 3447 3334 3066 
Q 3334 2547 2992 2222 
Q 2650 1897 2025 1897 
Q 1872 1897 1694 1919 
Q 1516 1941 1313 1984 
z
M 1313 2163 
Q 1478 2131 1606 2115 
Q 1734 2100 1825 2100 
Q 2150 2100 2386 2351 
Q 2622 2603 2622 3003 
Q 2622 3278 2509 3514 
Q 2397 3750 2190 3867 
Q 1984 3984 1722 3984 
Q 1563 3984 1313 3925 
L 1313 2163 
z
" transform="scale(0.015625)"/>
      <path id="TimesNewRomanPSMT-6f" d="M 1600 2947 
Q 2250 2947 2644 2453 
Q 2978 2031 2978 1484 
Q 2978 1100 2793 706 
Q 2609 313 2286 112 
Q 1963 -88 1566 -88 
Q 919 -88 538 428 
Q 216 863 216 1403 
Q 216 1797 411 2186 
Q 606 2575 925 2761 
Q 1244 2947 1600 2947 
z
M 1503 2744 
Q 1338 2744 1170 2645 
Q 1003 2547 900 2300 
Q 797 2053 797 1666 
Q 797 1041 1045 587 
Q 1294 134 1700 134 
Q 2003 134 2200 384 
Q 2397 634 2397 1244 
Q 2397 2006 2069 2444 
Q 1847 2744 1503 2744 
z
" transform="scale(0.015625)"/>
      <path id="TimesNewRomanPSMT-69" d="M 928 4444 
Q 1059 4444 1151 4351 
Q 1244 4259 1244 4128 
Q 1244 3997 1151 3903 
Q 1059 3809 928 3809 
Q 797 3809 703 3903 
Q 609 3997 609 4128 
Q 609 4259 701 4351 
Q 794 4444 928 4444 
z
M 1188 2947 
L 1188 647 
Q 1188 378 1227 289 
Q 1266 200 1342 156 
Q 1419 113 1622 113 
L 1622 0 
L 231 0 
L 231 113 
Q 441 113 512 153 
Q 584 194 626 287 
Q 669 381 669 647 
L 669 1750 
Q 669 2216 641 2353 
Q 619 2453 572 2492 
Q 525 2531 444 2531 
Q 356 2531 231 2484 
L 188 2597 
L 1050 2947 
L 1188 2947 
z
" transform="scale(0.015625)"/>
      <path id="TimesNewRomanPSMT-6e" d="M 1034 2341 
Q 1538 2947 1994 2947 
Q 2228 2947 2397 2830 
Q 2566 2713 2666 2444 
Q 2734 2256 2734 1869 
L 2734 647 
Q 2734 375 2778 278 
Q 2813 200 2889 156 
Q 2966 113 3172 113 
L 3172 0 
L 1756 0 
L 1756 113 
L 1816 113 
Q 2016 113 2095 173 
Q 2175 234 2206 353 
Q 2219 400 2219 647 
L 2219 1819 
Q 2219 2209 2117 2386 
Q 2016 2563 1775 2563 
Q 1403 2563 1034 2156 
L 1034 647 
Q 1034 356 1069 288 
Q 1113 197 1189 155 
Q 1266 113 1500 113 
L 1500 0 
L 84 0 
L 84 113 
L 147 113 
Q 366 113 442 223 
Q 519 334 519 647 
L 519 1709 
Q 519 2225 495 2337 
Q 472 2450 423 2490 
Q 375 2531 294 2531 
Q 206 2531 84 2484 
L 38 2597 
L 900 2947 
L 1034 2947 
L 1034 2341 
z
" transform="scale(0.015625)"/>
      <path id="TimesNewRomanPSMT-74" d="M 1031 3803 
L 1031 2863 
L 1700 2863 
L 1700 2644 
L 1031 2644 
L 1031 788 
Q 1031 509 1111 412 
Q 1191 316 1316 316 
Q 1419 316 1516 380 
Q 1613 444 1666 569 
L 1788 569 
Q 1678 263 1478 108 
Q 1278 -47 1066 -47 
Q 922 -47 784 33 
Q 647 113 581 261 
Q 516 409 516 719 
L 516 2644 
L 63 2644 
L 63 2747 
Q 234 2816 414 2980 
Q 594 3144 734 3369 
Q 806 3488 934 3803 
L 1031 3803 
z
" transform="scale(0.015625)"/>
      <path id="TimesNewRomanPSMT-20" transform="scale(0.015625)"/>
      <path id="TimesNewRomanPSMT-73" d="M 2050 2947 
L 2050 1972 
L 1947 1972 
Q 1828 2431 1642 2597 
Q 1456 2763 1169 2763 
Q 950 2763 815 2647 
Q 681 2531 681 2391 
Q 681 2216 781 2091 
Q 878 1963 1175 1819 
L 1631 1597 
Q 2266 1288 2266 781 
Q 2266 391 1970 151 
Q 1675 -88 1309 -88 
Q 1047 -88 709 6 
Q 606 38 541 38 
Q 469 38 428 -44 
L 325 -44 
L 325 978 
L 428 978 
Q 516 541 762 319 
Q 1009 97 1316 97 
Q 1531 97 1667 223 
Q 1803 350 1803 528 
Q 1803 744 1651 891 
Q 1500 1038 1047 1263 
Q 594 1488 453 1669 
Q 313 1847 313 2119 
Q 313 2472 555 2709 
Q 797 2947 1181 2947 
Q 1350 2947 1591 2875 
Q 1750 2828 1803 2828 
Q 1853 2828 1881 2850 
Q 1909 2872 1947 2947 
L 2050 2947 
z
" transform="scale(0.015625)"/>
      <path id="TimesNewRomanPSMT-67" d="M 966 1044 
Q 703 1172 562 1401 
Q 422 1631 422 1909 
Q 422 2334 742 2640 
Q 1063 2947 1563 2947 
Q 1972 2947 2272 2747 
L 2878 2747 
Q 3013 2747 3034 2739 
Q 3056 2731 3066 2713 
Q 3084 2684 3084 2613 
Q 3084 2531 3069 2500 
Q 3059 2484 3036 2475 
Q 3013 2466 2878 2466 
L 2506 2466 
Q 2681 2241 2681 1891 
Q 2681 1491 2375 1206 
Q 2069 922 1553 922 
Q 1341 922 1119 984 
Q 981 866 932 777 
Q 884 688 884 625 
Q 884 572 936 522 
Q 988 472 1138 450 
Q 1225 438 1575 428 
Q 2219 413 2409 384 
Q 2700 344 2873 169 
Q 3047 -6 3047 -263 
Q 3047 -616 2716 -925 
Q 2228 -1381 1444 -1381 
Q 841 -1381 425 -1109 
Q 191 -953 191 -784 
Q 191 -709 225 -634 
Q 278 -519 444 -313 
Q 466 -284 763 25 
Q 600 122 533 198 
Q 466 275 466 372 
Q 466 481 555 628 
Q 644 775 966 1044 
z
M 1509 2797 
Q 1278 2797 1122 2612 
Q 966 2428 966 2047 
Q 966 1553 1178 1281 
Q 1341 1075 1591 1075 
Q 1828 1075 1981 1253 
Q 2134 1431 2134 1813 
Q 2134 2309 1919 2591 
Q 1759 2797 1509 2797 
z
M 934 0 
Q 788 -159 713 -296 
Q 638 -434 638 -550 
Q 638 -700 819 -813 
Q 1131 -1006 1722 -1006 
Q 2284 -1006 2551 -807 
Q 2819 -609 2819 -384 
Q 2819 -222 2659 -153 
Q 2497 -84 2016 -72 
Q 1313 -53 934 0 
z
" transform="scale(0.015625)"/>
     </defs>
     <use xlink:href="#TimesNewRomanPSMT-50"/>
     <use xlink:href="#TimesNewRomanPSMT-6f" x="55.615234"/>
     <use xlink:href="#TimesNewRomanPSMT-69" x="105.615234"/>
     <use xlink:href="#TimesNewRomanPSMT-6e" x="133.398438"/>
     <use xlink:href="#TimesNewRomanPSMT-74" x="183.398438"/>
     <use xlink:href="#TimesNewRomanPSMT-20" x="211.181641"/>
     <use xlink:href="#TimesNewRomanPSMT-4d" x="236.181641"/>
     <use xlink:href="#TimesNewRomanPSMT-69" x="325.097656"/>
     <use xlink:href="#TimesNewRomanPSMT-73" x="352.880859"/>
     <use xlink:href="#TimesNewRomanPSMT-73" x="391.796875"/>
     <use xlink:href="#TimesNewRomanPSMT-69" x="430.712891"/>
     <use xlink:href="#TimesNewRomanPSMT-6e" x="458.496094"/>
     <use xlink:href="#TimesNewRomanPSMT-67" x="508.496094"/>
    </g>
   </g>
   <g id="legend_1">
    <g id="patch_7">
     <path d="M 170.696875 433.221875 
L 498.640625 433.221875 
Q 506.640625 433.221875 506.640625 425.221875 
L 506.640625 89.809375 
Q 506.640625 81.809375 498.640625 81.809375 
L 170.696875 81.809375 
Q 162.696875 81.809375 162.696875 89.809375 
L 162.696875 425.221875 
Q 162.696875 433.221875 170.696875 433.221875 
z
" style="fill: #ffffff; opacity: 0.8; stroke: #000000; stroke-linejoin: miter"/>
    </g>
    <g id="line2d_37">
     <path d="M 178.696875 111.809375 
L 198.696875 111.809375 
L 218.696875 111.809375 
" style="fill: none; stroke: #1f77b4; stroke-width: 8; stroke-linecap: square"/>
     <g>
      <use xlink:href="#md6f85636f1" x="198.696875" y="111.809375" style="fill: #1f77b4; stroke: #1f77b4"/>
     </g>
    </g>
    <g id="text_18">
     <!-- ours -->
     <g transform="translate(250.696875 125.809375) scale(0.4 -0.4)">
      <defs>
       <path id="TimesNewRomanPSMT-75" d="M 2709 2863 
L 2709 1128 
Q 2709 631 2732 520 
Q 2756 409 2807 365 
Q 2859 322 2928 322 
Q 3025 322 3147 375 
L 3191 266 
L 2334 -88 
L 2194 -88 
L 2194 519 
Q 1825 119 1631 15 
Q 1438 -88 1222 -88 
Q 981 -88 804 51 
Q 628 191 559 409 
Q 491 628 491 1028 
L 491 2306 
Q 491 2509 447 2587 
Q 403 2666 317 2708 
Q 231 2750 6 2747 
L 6 2863 
L 1009 2863 
L 1009 947 
Q 1009 547 1148 422 
Q 1288 297 1484 297 
Q 1619 297 1789 381 
Q 1959 466 2194 703 
L 2194 2325 
Q 2194 2569 2105 2655 
Q 2016 2741 1734 2747 
L 1734 2863 
L 2709 2863 
z
" transform="scale(0.015625)"/>
       <path id="TimesNewRomanPSMT-72" d="M 1038 2947 
L 1038 2303 
Q 1397 2947 1775 2947 
Q 1947 2947 2059 2842 
Q 2172 2738 2172 2600 
Q 2172 2478 2090 2393 
Q 2009 2309 1897 2309 
Q 1788 2309 1652 2417 
Q 1516 2525 1450 2525 
Q 1394 2525 1328 2463 
Q 1188 2334 1038 2041 
L 1038 669 
Q 1038 431 1097 309 
Q 1138 225 1241 169 
Q 1344 113 1538 113 
L 1538 0 
L 72 0 
L 72 113 
Q 291 113 397 181 
Q 475 231 506 341 
Q 522 394 522 644 
L 522 1753 
Q 522 2253 501 2348 
Q 481 2444 426 2487 
Q 372 2531 291 2531 
Q 194 2531 72 2484 
L 41 2597 
L 906 2947 
L 1038 2947 
z
" transform="scale(0.015625)"/>
      </defs>
      <use xlink:href="#TimesNewRomanPSMT-6f"/>
      <use xlink:href="#TimesNewRomanPSMT-75" x="50"/>
      <use xlink:href="#TimesNewRomanPSMT-72" x="100"/>
      <use xlink:href="#TimesNewRomanPSMT-73" x="133.300781"/>
     </g>
    </g>
    <g id="line2d_38">
     <path d="M 178.696875 168.365625 
L 198.696875 168.365625 
L 218.696875 168.365625 
" style="fill: none; stroke: #ff7f0e; stroke-width: 8; stroke-linecap: square"/>
     <g>
      <use xlink:href="#ma5ee9ef047" x="198.696875" y="168.365625" style="fill: #ff7f0e; stroke: #ff7f0e"/>
     </g>
    </g>
    <g id="text_19">
     <!-- CSDI -->
     <g transform="translate(250.696875 182.365625) scale(0.4 -0.4)">
      <defs>
       <path id="TimesNewRomanPSMT-43" d="M 3853 4334 
L 3950 2894 
L 3853 2894 
Q 3659 3541 3300 3825 
Q 2941 4109 2438 4109 
Q 2016 4109 1675 3895 
Q 1334 3681 1139 3212 
Q 944 2744 944 2047 
Q 944 1472 1128 1050 
Q 1313 628 1683 403 
Q 2053 178 2528 178 
Q 2941 178 3256 354 
Q 3572 531 3950 1056 
L 4047 994 
Q 3728 428 3303 165 
Q 2878 -97 2294 -97 
Q 1241 -97 663 684 
Q 231 1266 231 2053 
Q 231 2688 515 3219 
Q 800 3750 1298 4042 
Q 1797 4334 2388 4334 
Q 2847 4334 3294 4109 
Q 3425 4041 3481 4041 
Q 3566 4041 3628 4100 
Q 3709 4184 3744 4334 
L 3853 4334 
z
" transform="scale(0.015625)"/>
       <path id="TimesNewRomanPSMT-53" d="M 2934 4334 
L 2934 2869 
L 2819 2869 
Q 2763 3291 2617 3541 
Q 2472 3791 2203 3937 
Q 1934 4084 1647 4084 
Q 1322 4084 1109 3886 
Q 897 3688 897 3434 
Q 897 3241 1031 3081 
Q 1225 2847 1953 2456 
Q 2547 2138 2764 1967 
Q 2981 1797 3098 1565 
Q 3216 1334 3216 1081 
Q 3216 600 2842 251 
Q 2469 -97 1881 -97 
Q 1697 -97 1534 -69 
Q 1438 -53 1133 45 
Q 828 144 747 144 
Q 669 144 623 97 
Q 578 50 556 -97 
L 441 -97 
L 441 1356 
L 556 1356 
Q 638 900 775 673 
Q 913 447 1195 297 
Q 1478 147 1816 147 
Q 2206 147 2432 353 
Q 2659 559 2659 841 
Q 2659 997 2573 1156 
Q 2488 1316 2306 1453 
Q 2184 1547 1640 1851 
Q 1097 2156 867 2337 
Q 638 2519 519 2737 
Q 400 2956 400 3219 
Q 400 3675 750 4004 
Q 1100 4334 1641 4334 
Q 1978 4334 2356 4169 
Q 2531 4091 2603 4091 
Q 2684 4091 2736 4139 
Q 2788 4188 2819 4334 
L 2934 4334 
z
" transform="scale(0.015625)"/>
       <path id="TimesNewRomanPSMT-44" d="M 109 0 
L 109 116 
L 269 116 
Q 538 116 650 288 
Q 719 391 719 750 
L 719 3488 
Q 719 3884 631 3984 
Q 509 4122 269 4122 
L 109 4122 
L 109 4238 
L 1834 4238 
Q 2784 4238 3279 4022 
Q 3775 3806 4076 3303 
Q 4378 2800 4378 2141 
Q 4378 1256 3841 663 
Q 3238 0 2003 0 
L 109 0 
z
M 1319 306 
Q 1716 219 1984 219 
Q 2709 219 3187 728 
Q 3666 1238 3666 2109 
Q 3666 2988 3187 3494 
Q 2709 4000 1959 4000 
Q 1678 4000 1319 3909 
L 1319 306 
z
" transform="scale(0.015625)"/>
       <path id="TimesNewRomanPSMT-49" d="M 1975 116 
L 1975 0 
L 159 0 
L 159 116 
L 309 116 
Q 572 116 691 269 
Q 766 369 766 750 
L 766 3488 
Q 766 3809 725 3913 
Q 694 3991 597 4047 
Q 459 4122 309 4122 
L 159 4122 
L 159 4238 
L 1975 4238 
L 1975 4122 
L 1822 4122 
Q 1563 4122 1444 3969 
Q 1366 3869 1366 3488 
L 1366 750 
Q 1366 428 1406 325 
Q 1438 247 1538 191 
Q 1672 116 1822 116 
L 1975 116 
z
" transform="scale(0.015625)"/>
      </defs>
      <use xlink:href="#TimesNewRomanPSMT-43"/>
      <use xlink:href="#TimesNewRomanPSMT-53" x="66.699219"/>
      <use xlink:href="#TimesNewRomanPSMT-44" x="122.314453"/>
      <use xlink:href="#TimesNewRomanPSMT-49" x="194.53125"/>
     </g>
    </g>
    <g id="line2d_39">
     <path d="M 178.696875 224.921875 
L 198.696875 224.921875 
L 218.696875 224.921875 
" style="fill: none; stroke: #2ca02c; stroke-width: 8; stroke-linecap: square"/>
     <g>
      <use xlink:href="#m6cc18fe52b" x="198.696875" y="224.921875" style="fill: #2ca02c; stroke: #2ca02c"/>
     </g>
    </g>
    <g id="text_20">
     <!-- CSBI -->
     <g transform="translate(250.696875 238.921875) scale(0.4 -0.4)">
      <defs>
       <path id="TimesNewRomanPSMT-42" d="M 2956 2163 
Q 3397 2069 3616 1863 
Q 3919 1575 3919 1159 
Q 3919 844 3719 555 
Q 3519 266 3170 133 
Q 2822 0 2106 0 
L 106 0 
L 106 116 
L 266 116 
Q 531 116 647 284 
Q 719 394 719 750 
L 719 3488 
Q 719 3881 628 3984 
Q 506 4122 266 4122 
L 106 4122 
L 106 4238 
L 1938 4238 
Q 2450 4238 2759 4163 
Q 3228 4050 3475 3764 
Q 3722 3478 3722 3106 
Q 3722 2788 3528 2536 
Q 3334 2284 2956 2163 
z
M 1319 2331 
Q 1434 2309 1582 2298 
Q 1731 2288 1909 2288 
Q 2366 2288 2595 2386 
Q 2825 2484 2947 2687 
Q 3069 2891 3069 3131 
Q 3069 3503 2766 3765 
Q 2463 4028 1881 4028 
Q 1569 4028 1319 3959 
L 1319 2331 
z
M 1319 306 
Q 1681 222 2034 222 
Q 2600 222 2897 476 
Q 3194 731 3194 1106 
Q 3194 1353 3059 1581 
Q 2925 1809 2622 1940 
Q 2319 2072 1872 2072 
Q 1678 2072 1540 2065 
Q 1403 2059 1319 2044 
L 1319 306 
z
" transform="scale(0.015625)"/>
      </defs>
      <use xlink:href="#TimesNewRomanPSMT-43"/>
      <use xlink:href="#TimesNewRomanPSMT-53" x="66.699219"/>
      <use xlink:href="#TimesNewRomanPSMT-42" x="122.314453"/>
      <use xlink:href="#TimesNewRomanPSMT-49" x="189.013672"/>
     </g>
    </g>
    <g id="line2d_40">
     <path d="M 178.696875 281.478125 
L 198.696875 281.478125 
L 218.696875 281.478125 
" style="fill: none; stroke: #d62728; stroke-width: 8; stroke-linecap: square"/>
     <g>
      <use xlink:href="#m83ac60c806" x="198.696875" y="281.478125" style="fill: #d62728; stroke: #d62728"/>
     </g>
    </g>
    <g id="text_21">
     <!-- SAITS -->
     <g transform="translate(250.696875 295.478125) scale(0.4 -0.4)">
      <defs>
       <path id="TimesNewRomanPSMT-54" d="M 3703 4238 
L 3750 3244 
L 3631 3244 
Q 3597 3506 3538 3619 
Q 3441 3800 3280 3886 
Q 3119 3972 2856 3972 
L 2259 3972 
L 2259 734 
Q 2259 344 2344 247 
Q 2463 116 2709 116 
L 2856 116 
L 2856 0 
L 1059 0 
L 1059 116 
L 1209 116 
Q 1478 116 1591 278 
Q 1659 378 1659 734 
L 1659 3972 
L 1150 3972 
Q 853 3972 728 3928 
Q 566 3869 450 3700 
Q 334 3531 313 3244 
L 194 3244 
L 244 4238 
L 3703 4238 
z
" transform="scale(0.015625)"/>
      </defs>
      <use xlink:href="#TimesNewRomanPSMT-53"/>
      <use xlink:href="#TimesNewRomanPSMT-41" x="55.615234"/>
      <use xlink:href="#TimesNewRomanPSMT-49" x="127.832031"/>
      <use xlink:href="#TimesNewRomanPSMT-54" x="161.132812"/>
      <use xlink:href="#TimesNewRomanPSMT-53" x="222.216797"/>
     </g>
    </g>
    <g id="line2d_41">
     <path d="M 178.696875 338.034375 
L 198.696875 338.034375 
L 218.696875 338.034375 
" style="fill: none; stroke: #9467bd; stroke-width: 8; stroke-linecap: square"/>
     <g>
      <use xlink:href="#mccb9f1953c" x="198.696875" y="338.034375" style="fill: #9467bd; stroke: #9467bd"/>
     </g>
    </g>
    <g id="text_22">
     <!-- Non-stationary -->
     <g transform="translate(250.696875 352.034375) scale(0.4 -0.4)">
      <defs>
       <path id="TimesNewRomanPSMT-4e" d="M -84 4238 
L 1066 4238 
L 3656 1059 
L 3656 3503 
Q 3656 3894 3569 3991 
Q 3453 4122 3203 4122 
L 3056 4122 
L 3056 4238 
L 4531 4238 
L 4531 4122 
L 4381 4122 
Q 4113 4122 4000 3959 
Q 3931 3859 3931 3503 
L 3931 -69 
L 3819 -69 
L 1025 3344 
L 1025 734 
Q 1025 344 1109 247 
Q 1228 116 1475 116 
L 1625 116 
L 1625 0 
L 150 0 
L 150 116 
L 297 116 
Q 569 116 681 278 
Q 750 378 750 734 
L 750 3681 
Q 566 3897 470 3965 
Q 375 4034 191 4094 
Q 100 4122 -84 4122 
L -84 4238 
z
" transform="scale(0.015625)"/>
       <path id="TimesNewRomanPSMT-2d" d="M 259 1672 
L 1875 1672 
L 1875 1200 
L 259 1200 
L 259 1672 
z
" transform="scale(0.015625)"/>
       <path id="TimesNewRomanPSMT-61" d="M 1822 413 
Q 1381 72 1269 19 
Q 1100 -59 909 -59 
Q 613 -59 420 144 
Q 228 347 228 678 
Q 228 888 322 1041 
Q 450 1253 767 1440 
Q 1084 1628 1822 1897 
L 1822 2009 
Q 1822 2438 1686 2597 
Q 1550 2756 1291 2756 
Q 1094 2756 978 2650 
Q 859 2544 859 2406 
L 866 2225 
Q 866 2081 792 2003 
Q 719 1925 600 1925 
Q 484 1925 411 2006 
Q 338 2088 338 2228 
Q 338 2497 613 2722 
Q 888 2947 1384 2947 
Q 1766 2947 2009 2819 
Q 2194 2722 2281 2516 
Q 2338 2381 2338 1966 
L 2338 994 
Q 2338 584 2353 492 
Q 2369 400 2405 369 
Q 2441 338 2488 338 
Q 2538 338 2575 359 
Q 2641 400 2828 588 
L 2828 413 
Q 2478 -56 2159 -56 
Q 2006 -56 1915 50 
Q 1825 156 1822 413 
z
M 1822 616 
L 1822 1706 
Q 1350 1519 1213 1441 
Q 966 1303 859 1153 
Q 753 1003 753 825 
Q 753 600 887 451 
Q 1022 303 1197 303 
Q 1434 303 1822 616 
z
" transform="scale(0.015625)"/>
       <path id="TimesNewRomanPSMT-79" d="M 38 2863 
L 1372 2863 
L 1372 2747 
L 1306 2747 
Q 1166 2747 1095 2686 
Q 1025 2625 1025 2534 
Q 1025 2413 1128 2197 
L 1825 753 
L 2466 2334 
Q 2519 2463 2519 2588 
Q 2519 2644 2497 2672 
Q 2472 2706 2419 2726 
Q 2366 2747 2231 2747 
L 2231 2863 
L 3163 2863 
L 3163 2747 
Q 3047 2734 2984 2696 
Q 2922 2659 2847 2556 
Q 2819 2513 2741 2316 
L 1575 -541 
Q 1406 -956 1132 -1168 
Q 859 -1381 606 -1381 
Q 422 -1381 303 -1275 
Q 184 -1169 184 -1031 
Q 184 -900 270 -820 
Q 356 -741 506 -741 
Q 609 -741 788 -809 
Q 913 -856 944 -856 
Q 1038 -856 1148 -759 
Q 1259 -663 1372 -384 
L 1575 113 
L 547 2272 
Q 500 2369 397 2513 
Q 319 2622 269 2659 
Q 197 2709 38 2747 
L 38 2863 
z
" transform="scale(0.015625)"/>
      </defs>
      <use xlink:href="#TimesNewRomanPSMT-4e"/>
      <use xlink:href="#TimesNewRomanPSMT-6f" x="72.216797"/>
      <use xlink:href="#TimesNewRomanPSMT-6e" x="122.216797"/>
      <use xlink:href="#TimesNewRomanPSMT-2d" x="172.216797"/>
      <use xlink:href="#TimesNewRomanPSMT-73" x="205.517578"/>
      <use xlink:href="#TimesNewRomanPSMT-74" x="244.433594"/>
      <use xlink:href="#TimesNewRomanPSMT-61" x="272.216797"/>
      <use xlink:href="#TimesNewRomanPSMT-74" x="316.601562"/>
      <use xlink:href="#TimesNewRomanPSMT-69" x="344.384766"/>
      <use xlink:href="#TimesNewRomanPSMT-6f" x="372.167969"/>
      <use xlink:href="#TimesNewRomanPSMT-6e" x="422.167969"/>
      <use xlink:href="#TimesNewRomanPSMT-61" x="472.167969"/>
      <use xlink:href="#TimesNewRomanPSMT-72" x="516.552734"/>
      <use xlink:href="#TimesNewRomanPSMT-79" x="549.853516"/>
     </g>
    </g>
    <g id="line2d_42">
     <path d="M 178.696875 394.665625 
L 198.696875 394.665625 
L 218.696875 394.665625 
" style="fill: none; stroke: #8c564b; stroke-width: 8; stroke-linecap: square"/>
     <g>
      <use xlink:href="#m2f725e93b0" x="198.696875" y="394.665625" style="fill: #8c564b; stroke: #8c564b"/>
     </g>
    </g>
    <g id="text_23">
     <!-- TimesNet -->
     <g transform="translate(250.696875 408.665625) scale(0.4 -0.4)">
      <defs>
       <path id="TimesNewRomanPSMT-6d" d="M 1050 2338 
Q 1363 2650 1419 2697 
Q 1559 2816 1721 2881 
Q 1884 2947 2044 2947 
Q 2313 2947 2506 2790 
Q 2700 2634 2766 2338 
Q 3088 2713 3309 2830 
Q 3531 2947 3766 2947 
Q 3994 2947 4170 2830 
Q 4347 2713 4450 2447 
Q 4519 2266 4519 1878 
L 4519 647 
Q 4519 378 4559 278 
Q 4591 209 4675 161 
Q 4759 113 4950 113 
L 4950 0 
L 3538 0 
L 3538 113 
L 3597 113 
Q 3781 113 3884 184 
Q 3956 234 3988 344 
Q 4000 397 4000 647 
L 4000 1878 
Q 4000 2228 3916 2372 
Q 3794 2572 3525 2572 
Q 3359 2572 3192 2489 
Q 3025 2406 2788 2181 
L 2781 2147 
L 2788 2013 
L 2788 647 
Q 2788 353 2820 281 
Q 2853 209 2943 161 
Q 3034 113 3253 113 
L 3253 0 
L 1806 0 
L 1806 113 
Q 2044 113 2133 169 
Q 2222 225 2256 338 
Q 2272 391 2272 647 
L 2272 1878 
Q 2272 2228 2169 2381 
Q 2031 2581 1784 2581 
Q 1616 2581 1450 2491 
Q 1191 2353 1050 2181 
L 1050 647 
Q 1050 366 1089 281 
Q 1128 197 1204 155 
Q 1281 113 1516 113 
L 1516 0 
L 100 0 
L 100 113 
Q 297 113 375 155 
Q 453 197 493 289 
Q 534 381 534 647 
L 534 1741 
Q 534 2213 506 2350 
Q 484 2453 437 2492 
Q 391 2531 309 2531 
Q 222 2531 100 2484 
L 53 2597 
L 916 2947 
L 1050 2947 
L 1050 2338 
z
" transform="scale(0.015625)"/>
       <path id="TimesNewRomanPSMT-65" d="M 681 1784 
Q 678 1147 991 784 
Q 1303 422 1725 422 
Q 2006 422 2214 576 
Q 2422 731 2563 1106 
L 2659 1044 
Q 2594 616 2278 264 
Q 1963 -88 1488 -88 
Q 972 -88 605 314 
Q 238 716 238 1394 
Q 238 2128 614 2539 
Q 991 2950 1559 2950 
Q 2041 2950 2350 2633 
Q 2659 2316 2659 1784 
L 681 1784 
z
M 681 1966 
L 2006 1966 
Q 1991 2241 1941 2353 
Q 1863 2528 1708 2628 
Q 1553 2728 1384 2728 
Q 1125 2728 920 2526 
Q 716 2325 681 1966 
z
" transform="scale(0.015625)"/>
      </defs>
      <use xlink:href="#TimesNewRomanPSMT-54"/>
      <use xlink:href="#TimesNewRomanPSMT-69" x="57.583984"/>
      <use xlink:href="#TimesNewRomanPSMT-6d" x="85.367188"/>
      <use xlink:href="#TimesNewRomanPSMT-65" x="163.150391"/>
      <use xlink:href="#TimesNewRomanPSMT-73" x="207.535156"/>
      <use xlink:href="#TimesNewRomanPSMT-4e" x="246.451172"/>
      <use xlink:href="#TimesNewRomanPSMT-65" x="318.667969"/>
      <use xlink:href="#TimesNewRomanPSMT-74" x="363.052734"/>
     </g>
    </g>
   </g>
  </g>
  <g id="axes_2">
   <g id="patch_8">
    <path d="M 1055.787784 616.209375 
L 1816.696875 616.209375 
L 1816.696875 61.809375 
L 1055.787784 61.809375 
z
" style="fill: #ffffff"/>
   </g>
   <g id="matplotlib.axis_3">
    <g id="xtick_10">
     <g id="line2d_43">
      <path d="M 1090.374561 616.209375 
L 1090.374561 61.809375 
" clip-path="url(#p3999d7fb40)" style="fill: none; stroke-dasharray: 2.96,1.28; stroke-dashoffset: 0; stroke: #b0b0b0; stroke-width: 0.8"/>
     </g>
     <g id="line2d_44">
      <g>
       <use xlink:href="#mde8f26f270" x="1090.374561" y="616.209375" style="stroke: #000000; stroke-width: 0.8"/>
      </g>
     </g>
     <g id="text_24">
      <!-- 10% -->
      <g transform="translate(1053.715186 650.984375) scale(0.4 -0.4)">
       <use xlink:href="#TimesNewRomanPSMT-31"/>
       <use xlink:href="#TimesNewRomanPSMT-30" x="50"/>
       <use xlink:href="#TimesNewRomanPSMT-25" x="100"/>
      </g>
     </g>
    </g>
    <g id="xtick_11">
     <g id="line2d_45">
      <path d="M 1176.841503 616.209375 
L 1176.841503 61.809375 
" clip-path="url(#p3999d7fb40)" style="fill: none; stroke-dasharray: 2.96,1.28; stroke-dashoffset: 0; stroke: #b0b0b0; stroke-width: 0.8"/>
     </g>
     <g id="line2d_46">
      <g>
       <use xlink:href="#mde8f26f270" x="1176.841503" y="616.209375" style="stroke: #000000; stroke-width: 0.8"/>
      </g>
     </g>
     <g id="text_25">
      <!-- 20% -->
      <g transform="translate(1140.182128 650.984375) scale(0.4 -0.4)">
       <use xlink:href="#TimesNewRomanPSMT-32"/>
       <use xlink:href="#TimesNewRomanPSMT-30" x="50"/>
       <use xlink:href="#TimesNewRomanPSMT-25" x="100"/>
      </g>
     </g>
    </g>
    <g id="xtick_12">
     <g id="line2d_47">
      <path d="M 1263.308445 616.209375 
L 1263.308445 61.809375 
" clip-path="url(#p3999d7fb40)" style="fill: none; stroke-dasharray: 2.96,1.28; stroke-dashoffset: 0; stroke: #b0b0b0; stroke-width: 0.8"/>
     </g>
     <g id="line2d_48">
      <g>
       <use xlink:href="#mde8f26f270" x="1263.308445" y="616.209375" style="stroke: #000000; stroke-width: 0.8"/>
      </g>
     </g>
     <g id="text_26">
      <!-- 30% -->
      <g transform="translate(1226.64907 650.984375) scale(0.4 -0.4)">
       <use xlink:href="#TimesNewRomanPSMT-33"/>
       <use xlink:href="#TimesNewRomanPSMT-30" x="50"/>
       <use xlink:href="#TimesNewRomanPSMT-25" x="100"/>
      </g>
     </g>
    </g>
    <g id="xtick_13">
     <g id="line2d_49">
      <path d="M 1349.775387 616.209375 
L 1349.775387 61.809375 
" clip-path="url(#p3999d7fb40)" style="fill: none; stroke-dasharray: 2.96,1.28; stroke-dashoffset: 0; stroke: #b0b0b0; stroke-width: 0.8"/>
     </g>
     <g id="line2d_50">
      <g>
       <use xlink:href="#mde8f26f270" x="1349.775387" y="616.209375" style="stroke: #000000; stroke-width: 0.8"/>
      </g>
     </g>
     <g id="text_27">
      <!-- 40% -->
      <g transform="translate(1313.116012 650.984375) scale(0.4 -0.4)">
       <use xlink:href="#TimesNewRomanPSMT-34"/>
       <use xlink:href="#TimesNewRomanPSMT-30" x="50"/>
       <use xlink:href="#TimesNewRomanPSMT-25" x="100"/>
      </g>
     </g>
    </g>
    <g id="xtick_14">
     <g id="line2d_51">
      <path d="M 1436.24233 616.209375 
L 1436.24233 61.809375 
" clip-path="url(#p3999d7fb40)" style="fill: none; stroke-dasharray: 2.96,1.28; stroke-dashoffset: 0; stroke: #b0b0b0; stroke-width: 0.8"/>
     </g>
     <g id="line2d_52">
      <g>
       <use xlink:href="#mde8f26f270" x="1436.24233" y="616.209375" style="stroke: #000000; stroke-width: 0.8"/>
      </g>
     </g>
     <g id="text_28">
      <!-- 50% -->
      <g transform="translate(1399.582955 650.984375) scale(0.4 -0.4)">
       <use xlink:href="#TimesNewRomanPSMT-35"/>
       <use xlink:href="#TimesNewRomanPSMT-30" x="50"/>
       <use xlink:href="#TimesNewRomanPSMT-25" x="100"/>
      </g>
     </g>
    </g>
    <g id="xtick_15">
     <g id="line2d_53">
      <path d="M 1522.709272 616.209375 
L 1522.709272 61.809375 
" clip-path="url(#p3999d7fb40)" style="fill: none; stroke-dasharray: 2.96,1.28; stroke-dashoffset: 0; stroke: #b0b0b0; stroke-width: 0.8"/>
     </g>
     <g id="line2d_54">
      <g>
       <use xlink:href="#mde8f26f270" x="1522.709272" y="616.209375" style="stroke: #000000; stroke-width: 0.8"/>
      </g>
     </g>
     <g id="text_29">
      <!-- 60% -->
      <g transform="translate(1486.049897 650.984375) scale(0.4 -0.4)">
       <use xlink:href="#TimesNewRomanPSMT-36"/>
       <use xlink:href="#TimesNewRomanPSMT-30" x="50"/>
       <use xlink:href="#TimesNewRomanPSMT-25" x="100"/>
      </g>
     </g>
    </g>
    <g id="xtick_16">
     <g id="line2d_55">
      <path d="M 1609.176214 616.209375 
L 1609.176214 61.809375 
" clip-path="url(#p3999d7fb40)" style="fill: none; stroke-dasharray: 2.96,1.28; stroke-dashoffset: 0; stroke: #b0b0b0; stroke-width: 0.8"/>
     </g>
     <g id="line2d_56">
      <g>
       <use xlink:href="#mde8f26f270" x="1609.176214" y="616.209375" style="stroke: #000000; stroke-width: 0.8"/>
      </g>
     </g>
     <g id="text_30">
      <!-- 70% -->
      <g transform="translate(1572.516839 650.984375) scale(0.4 -0.4)">
       <use xlink:href="#TimesNewRomanPSMT-37"/>
       <use xlink:href="#TimesNewRomanPSMT-30" x="50"/>
       <use xlink:href="#TimesNewRomanPSMT-25" x="100"/>
      </g>
     </g>
    </g>
    <g id="xtick_17">
     <g id="line2d_57">
      <path d="M 1695.643156 616.209375 
L 1695.643156 61.809375 
" clip-path="url(#p3999d7fb40)" style="fill: none; stroke-dasharray: 2.96,1.28; stroke-dashoffset: 0; stroke: #b0b0b0; stroke-width: 0.8"/>
     </g>
     <g id="line2d_58">
      <g>
       <use xlink:href="#mde8f26f270" x="1695.643156" y="616.209375" style="stroke: #000000; stroke-width: 0.8"/>
      </g>
     </g>
     <g id="text_31">
      <!-- 80% -->
      <g transform="translate(1658.983781 650.984375) scale(0.4 -0.4)">
       <use xlink:href="#TimesNewRomanPSMT-38"/>
       <use xlink:href="#TimesNewRomanPSMT-30" x="50"/>
       <use xlink:href="#TimesNewRomanPSMT-25" x="100"/>
      </g>
     </g>
    </g>
    <g id="xtick_18">
     <g id="line2d_59">
      <path d="M 1782.110098 616.209375 
L 1782.110098 61.809375 
" clip-path="url(#p3999d7fb40)" style="fill: none; stroke-dasharray: 2.96,1.28; stroke-dashoffset: 0; stroke: #b0b0b0; stroke-width: 0.8"/>
     </g>
     <g id="line2d_60">
      <g>
       <use xlink:href="#mde8f26f270" x="1782.110098" y="616.209375" style="stroke: #000000; stroke-width: 0.8"/>
      </g>
     </g>
     <g id="text_32">
      <!-- 90% -->
      <g transform="translate(1745.450723 650.984375) scale(0.4 -0.4)">
       <use xlink:href="#TimesNewRomanPSMT-39"/>
       <use xlink:href="#TimesNewRomanPSMT-30" x="50"/>
       <use xlink:href="#TimesNewRomanPSMT-25" x="100"/>
      </g>
     </g>
    </g>
   </g>
   <g id="matplotlib.axis_4">
    <g id="ytick_7">
     <g id="line2d_61">
      <path d="M 1055.787784 522.848876 
L 1816.696875 522.848876 
" clip-path="url(#p3999d7fb40)" style="fill: none; stroke-dasharray: 2.96,1.28; stroke-dashoffset: 0; stroke: #b0b0b0; stroke-width: 0.8"/>
     </g>
     <g id="line2d_62">
      <g>
       <use xlink:href="#m66fd44c008" x="1055.787784" y="522.848876" style="stroke: #000000; stroke-width: 0.8"/>
      </g>
     </g>
     <g id="text_33">
      <!-- 10 -->
      <g transform="translate(1008.787784 536.736376) scale(0.4 -0.4)">
       <use xlink:href="#TimesNewRomanPSMT-31"/>
       <use xlink:href="#TimesNewRomanPSMT-30" x="50"/>
      </g>
     </g>
    </g>
    <g id="ytick_8">
     <g id="line2d_63">
      <path d="M 1055.787784 407.589001 
L 1816.696875 407.589001 
" clip-path="url(#p3999d7fb40)" style="fill: none; stroke-dasharray: 2.96,1.28; stroke-dashoffset: 0; stroke: #b0b0b0; stroke-width: 0.8"/>
     </g>
     <g id="line2d_64">
      <g>
       <use xlink:href="#m66fd44c008" x="1055.787784" y="407.589001" style="stroke: #000000; stroke-width: 0.8"/>
      </g>
     </g>
     <g id="text_34">
      <!-- 20 -->
      <g transform="translate(1008.787784 421.476501) scale(0.4 -0.4)">
       <use xlink:href="#TimesNewRomanPSMT-32"/>
       <use xlink:href="#TimesNewRomanPSMT-30" x="50"/>
      </g>
     </g>
    </g>
    <g id="ytick_9">
     <g id="line2d_65">
      <path d="M 1055.787784 292.329126 
L 1816.696875 292.329126 
" clip-path="url(#p3999d7fb40)" style="fill: none; stroke-dasharray: 2.96,1.28; stroke-dashoffset: 0; stroke: #b0b0b0; stroke-width: 0.8"/>
     </g>
     <g id="line2d_66">
      <g>
       <use xlink:href="#m66fd44c008" x="1055.787784" y="292.329126" style="stroke: #000000; stroke-width: 0.8"/>
      </g>
     </g>
     <g id="text_35">
      <!-- 30 -->
      <g transform="translate(1008.787784 306.216626) scale(0.4 -0.4)">
       <use xlink:href="#TimesNewRomanPSMT-33"/>
       <use xlink:href="#TimesNewRomanPSMT-30" x="50"/>
      </g>
     </g>
    </g>
    <g id="ytick_10">
     <g id="line2d_67">
      <path d="M 1055.787784 177.06925 
L 1816.696875 177.06925 
" clip-path="url(#p3999d7fb40)" style="fill: none; stroke-dasharray: 2.96,1.28; stroke-dashoffset: 0; stroke: #b0b0b0; stroke-width: 0.8"/>
     </g>
     <g id="line2d_68">
      <g>
       <use xlink:href="#m66fd44c008" x="1055.787784" y="177.06925" style="stroke: #000000; stroke-width: 0.8"/>
      </g>
     </g>
     <g id="text_36">
      <!-- 40 -->
      <g transform="translate(1008.787784 190.95675) scale(0.4 -0.4)">
       <use xlink:href="#TimesNewRomanPSMT-34"/>
       <use xlink:href="#TimesNewRomanPSMT-30" x="50"/>
      </g>
     </g>
    </g>
    <g id="ytick_11">
     <g id="line2d_69">
      <path d="M 1055.787784 61.809375 
L 1816.696875 61.809375 
" clip-path="url(#p3999d7fb40)" style="fill: none; stroke-dasharray: 2.96,1.28; stroke-dashoffset: 0; stroke: #b0b0b0; stroke-width: 0.8"/>
     </g>
     <g id="line2d_70">
      <g>
       <use xlink:href="#m66fd44c008" x="1055.787784" y="61.809375" style="stroke: #000000; stroke-width: 0.8"/>
      </g>
     </g>
     <g id="text_37">
      <!-- 50 -->
      <g transform="translate(1008.787784 75.696875) scale(0.4 -0.4)">
       <use xlink:href="#TimesNewRomanPSMT-35"/>
       <use xlink:href="#TimesNewRomanPSMT-30" x="50"/>
      </g>
     </g>
    </g>
    <g id="text_38">
     <!-- MAE -->
     <g transform="translate(991.953409 405.675) rotate(-90) scale(0.6 -0.6)">
      <use xlink:href="#TimesNewRomanPSMT-4d"/>
      <use xlink:href="#TimesNewRomanPSMT-41" x="88.916016"/>
      <use xlink:href="#TimesNewRomanPSMT-45" x="161.132812"/>
     </g>
    </g>
   </g>
   <g id="line2d_71">
    <path d="M 1090.374561 615.114406 
L 1176.841503 615.725284 
L 1263.308445 615.494764 
L 1349.775387 612.982098 
L 1436.24233 609.593458 
L 1522.709272 605.351895 
L 1609.176214 597.2376 
L 1695.643156 571.719063 
L 1782.110098 562.117916 
" clip-path="url(#p3999d7fb40)" style="fill: none; stroke: #1f77b4; stroke-width: 8; stroke-linecap: square"/>
    <g clip-path="url(#p3999d7fb40)">
     <use xlink:href="#md6f85636f1" x="1090.374561" y="615.114406" style="fill: #1f77b4; stroke: #1f77b4"/>
     <use xlink:href="#md6f85636f1" x="1176.841503" y="615.725284" style="fill: #1f77b4; stroke: #1f77b4"/>
     <use xlink:href="#md6f85636f1" x="1263.308445" y="615.494764" style="fill: #1f77b4; stroke: #1f77b4"/>
     <use xlink:href="#md6f85636f1" x="1349.775387" y="612.982098" style="fill: #1f77b4; stroke: #1f77b4"/>
     <use xlink:href="#md6f85636f1" x="1436.24233" y="609.593458" style="fill: #1f77b4; stroke: #1f77b4"/>
     <use xlink:href="#md6f85636f1" x="1522.709272" y="605.351895" style="fill: #1f77b4; stroke: #1f77b4"/>
     <use xlink:href="#md6f85636f1" x="1609.176214" y="597.2376" style="fill: #1f77b4; stroke: #1f77b4"/>
     <use xlink:href="#md6f85636f1" x="1695.643156" y="571.719063" style="fill: #1f77b4; stroke: #1f77b4"/>
     <use xlink:href="#md6f85636f1" x="1782.110098" y="562.117916" style="fill: #1f77b4; stroke: #1f77b4"/>
    </g>
   </g>
   <g id="line2d_72">
    <path d="M 1090.374561 613.63908 
L 1176.841503 614.284535 
L 1263.308445 614.169275 
L 1349.775387 611.77187 
L 1436.24233 608.498489 
L 1522.709272 603.150431 
L 1609.176214 586.702847 
L 1695.643156 506.781649 
L 1782.110098 236.658606 
" clip-path="url(#p3999d7fb40)" style="fill: none; stroke: #ff7f0e; stroke-width: 8; stroke-linecap: square"/>
    <g clip-path="url(#p3999d7fb40)">
     <use xlink:href="#ma5ee9ef047" x="1090.374561" y="613.63908" style="fill: #ff7f0e; stroke: #ff7f0e"/>
     <use xlink:href="#ma5ee9ef047" x="1176.841503" y="614.284535" style="fill: #ff7f0e; stroke: #ff7f0e"/>
     <use xlink:href="#ma5ee9ef047" x="1263.308445" y="614.169275" style="fill: #ff7f0e; stroke: #ff7f0e"/>
     <use xlink:href="#ma5ee9ef047" x="1349.775387" y="611.77187" style="fill: #ff7f0e; stroke: #ff7f0e"/>
     <use xlink:href="#ma5ee9ef047" x="1436.24233" y="608.498489" style="fill: #ff7f0e; stroke: #ff7f0e"/>
     <use xlink:href="#ma5ee9ef047" x="1522.709272" y="603.150431" style="fill: #ff7f0e; stroke: #ff7f0e"/>
     <use xlink:href="#ma5ee9ef047" x="1609.176214" y="586.702847" style="fill: #ff7f0e; stroke: #ff7f0e"/>
     <use xlink:href="#ma5ee9ef047" x="1695.643156" y="506.781649" style="fill: #ff7f0e; stroke: #ff7f0e"/>
     <use xlink:href="#ma5ee9ef047" x="1782.110098" y="236.658606" style="fill: #ff7f0e; stroke: #ff7f0e"/>
    </g>
   </g>
   <g id="line2d_73">
    <path d="M 1090.374561 589.088726 
L 1176.841503 594.114057 
L 1263.308445 593.44555 
L 1349.775387 589.261616 
L 1436.24233 583.775246 
L 1522.709272 577.263063 
L 1609.176214 570.416627 
L 1695.643156 553.277483 
L 1782.110098 497.111346 
" clip-path="url(#p3999d7fb40)" style="fill: none; stroke: #2ca02c; stroke-width: 8; stroke-linecap: square"/>
    <g clip-path="url(#p3999d7fb40)">
     <use xlink:href="#m6cc18fe52b" x="1090.374561" y="589.088726" style="fill: #2ca02c; stroke: #2ca02c"/>
     <use xlink:href="#m6cc18fe52b" x="1176.841503" y="594.114057" style="fill: #2ca02c; stroke: #2ca02c"/>
     <use xlink:href="#m6cc18fe52b" x="1263.308445" y="593.44555" style="fill: #2ca02c; stroke: #2ca02c"/>
     <use xlink:href="#m6cc18fe52b" x="1349.775387" y="589.261616" style="fill: #2ca02c; stroke: #2ca02c"/>
     <use xlink:href="#m6cc18fe52b" x="1436.24233" y="583.775246" style="fill: #2ca02c; stroke: #2ca02c"/>
     <use xlink:href="#m6cc18fe52b" x="1522.709272" y="577.263063" style="fill: #2ca02c; stroke: #2ca02c"/>
     <use xlink:href="#m6cc18fe52b" x="1609.176214" y="570.416627" style="fill: #2ca02c; stroke: #2ca02c"/>
     <use xlink:href="#m6cc18fe52b" x="1695.643156" y="553.277483" style="fill: #2ca02c; stroke: #2ca02c"/>
     <use xlink:href="#m6cc18fe52b" x="1782.110098" y="497.111346" style="fill: #2ca02c; stroke: #2ca02c"/>
    </g>
   </g>
   <g id="line2d_74">
    <path d="M 1090.374561 595.670065 
L 1176.841503 591.094248 
L 1263.308445 583.037583 
L 1349.775387 569.782697 
L 1436.24233 547.249392 
L 1522.709272 511.887662 
L 1609.176214 449.347654 
L 1695.643156 337.580153 
L 1782.110098 75.121891 
" clip-path="url(#p3999d7fb40)" style="fill: none; stroke: #d62728; stroke-width: 8; stroke-linecap: square"/>
    <g clip-path="url(#p3999d7fb40)">
     <use xlink:href="#m83ac60c806" x="1090.374561" y="595.670065" style="fill: #d62728; stroke: #d62728"/>
     <use xlink:href="#m83ac60c806" x="1176.841503" y="591.094248" style="fill: #d62728; stroke: #d62728"/>
     <use xlink:href="#m83ac60c806" x="1263.308445" y="583.037583" style="fill: #d62728; stroke: #d62728"/>
     <use xlink:href="#m83ac60c806" x="1349.775387" y="569.782697" style="fill: #d62728; stroke: #d62728"/>
     <use xlink:href="#m83ac60c806" x="1436.24233" y="547.249392" style="fill: #d62728; stroke: #d62728"/>
     <use xlink:href="#m83ac60c806" x="1522.709272" y="511.887662" style="fill: #d62728; stroke: #d62728"/>
     <use xlink:href="#m83ac60c806" x="1609.176214" y="449.347654" style="fill: #d62728; stroke: #d62728"/>
     <use xlink:href="#m83ac60c806" x="1695.643156" y="337.580153" style="fill: #d62728; stroke: #d62728"/>
     <use xlink:href="#m83ac60c806" x="1782.110098" y="75.121891" style="fill: #d62728; stroke: #d62728"/>
    </g>
   </g>
   <g id="line2d_75">
    <path d="M 1090.374561 594.85172 
L 1176.841503 593.019088 
L 1263.308445 590.921358 
L 1349.775387 586.080444 
L 1436.24233 580.651703 
L 1522.709272 573.321175 
L 1609.176214 565.748602 
L 1695.643156 551.617741 
L 1782.110098 507.150481 
" clip-path="url(#p3999d7fb40)" style="fill: none; stroke: #9467bd; stroke-width: 8; stroke-linecap: square"/>
    <g clip-path="url(#p3999d7fb40)">
     <use xlink:href="#mccb9f1953c" x="1090.374561" y="594.85172" style="fill: #9467bd; stroke: #9467bd"/>
     <use xlink:href="#mccb9f1953c" x="1176.841503" y="593.019088" style="fill: #9467bd; stroke: #9467bd"/>
     <use xlink:href="#mccb9f1953c" x="1263.308445" y="590.921358" style="fill: #9467bd; stroke: #9467bd"/>
     <use xlink:href="#mccb9f1953c" x="1349.775387" y="586.080444" style="fill: #9467bd; stroke: #9467bd"/>
     <use xlink:href="#mccb9f1953c" x="1436.24233" y="580.651703" style="fill: #9467bd; stroke: #9467bd"/>
     <use xlink:href="#mccb9f1953c" x="1522.709272" y="573.321175" style="fill: #9467bd; stroke: #9467bd"/>
     <use xlink:href="#mccb9f1953c" x="1609.176214" y="565.748602" style="fill: #9467bd; stroke: #9467bd"/>
     <use xlink:href="#mccb9f1953c" x="1695.643156" y="551.617741" style="fill: #9467bd; stroke: #9467bd"/>
     <use xlink:href="#mccb9f1953c" x="1782.110098" y="507.150481" style="fill: #9467bd; stroke: #9467bd"/>
    </g>
   </g>
   <g id="line2d_76">
    <path d="M 1090.374561 570.704776 
L 1176.841503 570.52036 
L 1263.308445 570.393575 
L 1349.775387 567.903961 
L 1436.24233 564.791945 
L 1522.709272 560.204602 
L 1609.176214 555.92846 
L 1695.643156 545.555071 
L 1782.110098 504.833758 
" clip-path="url(#p3999d7fb40)" style="fill: none; stroke: #8c564b; stroke-width: 8; stroke-linecap: square"/>
    <g clip-path="url(#p3999d7fb40)">
     <use xlink:href="#m2f725e93b0" x="1090.374561" y="570.704776" style="fill: #8c564b; stroke: #8c564b"/>
     <use xlink:href="#m2f725e93b0" x="1176.841503" y="570.52036" style="fill: #8c564b; stroke: #8c564b"/>
     <use xlink:href="#m2f725e93b0" x="1263.308445" y="570.393575" style="fill: #8c564b; stroke: #8c564b"/>
     <use xlink:href="#m2f725e93b0" x="1349.775387" y="567.903961" style="fill: #8c564b; stroke: #8c564b"/>
     <use xlink:href="#m2f725e93b0" x="1436.24233" y="564.791945" style="fill: #8c564b; stroke: #8c564b"/>
     <use xlink:href="#m2f725e93b0" x="1522.709272" y="560.204602" style="fill: #8c564b; stroke: #8c564b"/>
     <use xlink:href="#m2f725e93b0" x="1609.176214" y="555.92846" style="fill: #8c564b; stroke: #8c564b"/>
     <use xlink:href="#m2f725e93b0" x="1695.643156" y="545.555071" style="fill: #8c564b; stroke: #8c564b"/>
     <use xlink:href="#m2f725e93b0" x="1782.110098" y="504.833758" style="fill: #8c564b; stroke: #8c564b"/>
    </g>
   </g>
   <g id="patch_9">
    <path d="M 1055.787784 616.209375 
L 1055.787784 61.809375 
" style="fill: none; stroke: #000000; stroke-width: 0.8; stroke-linejoin: miter; stroke-linecap: square"/>
   </g>
   <g id="patch_10">
    <path d="M 1816.696875 616.209375 
L 1816.696875 61.809375 
" style="fill: none; stroke: #000000; stroke-width: 0.8; stroke-linejoin: miter; stroke-linecap: square"/>
   </g>
   <g id="patch_11">
    <path d="M 1055.787784 616.209375 
L 1816.696875 616.209375 
" style="fill: none; stroke: #000000; stroke-width: 0.8; stroke-linejoin: miter; stroke-linecap: square"/>
   </g>
   <g id="patch_12">
    <path d="M 1055.787784 61.809375 
L 1816.696875 61.809375 
" style="fill: none; stroke: #000000; stroke-width: 0.8; stroke-linejoin: miter; stroke-linecap: square"/>
   </g>
   <g id="text_39">
    <!-- Block Missing -->
    <g transform="translate(1260.381392 48.8625) scale(0.6 -0.6)">
     <defs>
      <path id="TimesNewRomanPSMT-6c" d="M 1184 4444 
L 1184 647 
Q 1184 378 1223 290 
Q 1263 203 1344 158 
Q 1425 113 1647 113 
L 1647 0 
L 244 0 
L 244 113 
Q 441 113 512 153 
Q 584 194 625 287 
Q 666 381 666 647 
L 666 3247 
Q 666 3731 644 3842 
Q 622 3953 573 3993 
Q 525 4034 450 4034 
Q 369 4034 244 3984 
L 191 4094 
L 1044 4444 
L 1184 4444 
z
" transform="scale(0.015625)"/>
      <path id="TimesNewRomanPSMT-63" d="M 2631 1088 
Q 2516 522 2178 217 
Q 1841 -88 1431 -88 
Q 944 -88 581 321 
Q 219 731 219 1428 
Q 219 2103 620 2525 
Q 1022 2947 1584 2947 
Q 2006 2947 2278 2723 
Q 2550 2500 2550 2259 
Q 2550 2141 2473 2067 
Q 2397 1994 2259 1994 
Q 2075 1994 1981 2113 
Q 1928 2178 1911 2362 
Q 1894 2547 1784 2644 
Q 1675 2738 1481 2738 
Q 1169 2738 978 2506 
Q 725 2200 725 1697 
Q 725 1184 976 792 
Q 1228 400 1656 400 
Q 1963 400 2206 609 
Q 2378 753 2541 1131 
L 2631 1088 
z
" transform="scale(0.015625)"/>
      <path id="TimesNewRomanPSMT-6b" d="M 1047 4444 
L 1047 1597 
L 1775 2259 
Q 2006 2472 2044 2528 
Q 2069 2566 2069 2603 
Q 2069 2666 2017 2711 
Q 1966 2756 1847 2763 
L 1847 2863 
L 3091 2863 
L 3091 2763 
Q 2834 2756 2664 2684 
Q 2494 2613 2291 2428 
L 1556 1750 
L 2291 822 
Q 2597 438 2703 334 
Q 2853 188 2966 144 
Q 3044 113 3238 113 
L 3238 0 
L 1847 0 
L 1847 113 
Q 1966 116 2008 148 
Q 2050 181 2050 241 
Q 2050 313 1925 472 
L 1047 1594 
L 1047 644 
Q 1047 366 1086 278 
Q 1125 191 1197 153 
Q 1269 116 1509 113 
L 1509 0 
L 53 0 
L 53 113 
Q 272 113 381 166 
Q 447 200 481 272 
Q 528 375 528 628 
L 528 3234 
Q 528 3731 506 3842 
Q 484 3953 434 3995 
Q 384 4038 303 4038 
Q 238 4038 106 3984 
L 53 4094 
L 903 4444 
L 1047 4444 
z
" transform="scale(0.015625)"/>
     </defs>
     <use xlink:href="#TimesNewRomanPSMT-42"/>
     <use xlink:href="#TimesNewRomanPSMT-6c" x="66.699219"/>
     <use xlink:href="#TimesNewRomanPSMT-6f" x="94.482422"/>
     <use xlink:href="#TimesNewRomanPSMT-63" x="144.482422"/>
     <use xlink:href="#TimesNewRomanPSMT-6b" x="188.867188"/>
     <use xlink:href="#TimesNewRomanPSMT-20" x="238.867188"/>
     <use xlink:href="#TimesNewRomanPSMT-4d" x="263.867188"/>
     <use xlink:href="#TimesNewRomanPSMT-69" x="352.783203"/>
     <use xlink:href="#TimesNewRomanPSMT-73" x="380.566406"/>
     <use xlink:href="#TimesNewRomanPSMT-73" x="419.482422"/>
     <use xlink:href="#TimesNewRomanPSMT-69" x="458.398438"/>
     <use xlink:href="#TimesNewRomanPSMT-6e" x="486.181641"/>
     <use xlink:href="#TimesNewRomanPSMT-67" x="536.181641"/>
    </g>
   </g>
   <g id="legend_2">
    <g id="patch_13">
     <path d="M 1083.787784 433.221875 
L 1411.731534 433.221875 
Q 1419.731534 433.221875 1419.731534 425.221875 
L 1419.731534 89.809375 
Q 1419.731534 81.809375 1411.731534 81.809375 
L 1083.787784 81.809375 
Q 1075.787784 81.809375 1075.787784 89.809375 
L 1075.787784 425.221875 
Q 1075.787784 433.221875 1083.787784 433.221875 
z
" style="fill: #ffffff; opacity: 0.8; stroke: #000000; stroke-linejoin: miter"/>
    </g>
    <g id="line2d_77">
     <path d="M 1091.787784 111.809375 
L 1111.787784 111.809375 
L 1131.787784 111.809375 
" style="fill: none; stroke: #1f77b4; stroke-width: 8; stroke-linecap: square"/>
     <g>
      <use xlink:href="#md6f85636f1" x="1111.787784" y="111.809375" style="fill: #1f77b4; stroke: #1f77b4"/>
     </g>
    </g>
    <g id="text_40">
     <!-- ours -->
     <g transform="translate(1163.787784 125.809375) scale(0.4 -0.4)">
      <use xlink:href="#TimesNewRomanPSMT-6f"/>
      <use xlink:href="#TimesNewRomanPSMT-75" x="50"/>
      <use xlink:href="#TimesNewRomanPSMT-72" x="100"/>
      <use xlink:href="#TimesNewRomanPSMT-73" x="133.300781"/>
     </g>
    </g>
    <g id="line2d_78">
     <path d="M 1091.787784 168.365625 
L 1111.787784 168.365625 
L 1131.787784 168.365625 
" style="fill: none; stroke: #ff7f0e; stroke-width: 8; stroke-linecap: square"/>
     <g>
      <use xlink:href="#ma5ee9ef047" x="1111.787784" y="168.365625" style="fill: #ff7f0e; stroke: #ff7f0e"/>
     </g>
    </g>
    <g id="text_41">
     <!-- CSDI -->
     <g transform="translate(1163.787784 182.365625) scale(0.4 -0.4)">
      <use xlink:href="#TimesNewRomanPSMT-43"/>
      <use xlink:href="#TimesNewRomanPSMT-53" x="66.699219"/>
      <use xlink:href="#TimesNewRomanPSMT-44" x="122.314453"/>
      <use xlink:href="#TimesNewRomanPSMT-49" x="194.53125"/>
     </g>
    </g>
    <g id="line2d_79">
     <path d="M 1091.787784 224.921875 
L 1111.787784 224.921875 
L 1131.787784 224.921875 
" style="fill: none; stroke: #2ca02c; stroke-width: 8; stroke-linecap: square"/>
     <g>
      <use xlink:href="#m6cc18fe52b" x="1111.787784" y="224.921875" style="fill: #2ca02c; stroke: #2ca02c"/>
     </g>
    </g>
    <g id="text_42">
     <!-- CSBI -->
     <g transform="translate(1163.787784 238.921875) scale(0.4 -0.4)">
      <use xlink:href="#TimesNewRomanPSMT-43"/>
      <use xlink:href="#TimesNewRomanPSMT-53" x="66.699219"/>
      <use xlink:href="#TimesNewRomanPSMT-42" x="122.314453"/>
      <use xlink:href="#TimesNewRomanPSMT-49" x="189.013672"/>
     </g>
    </g>
    <g id="line2d_80">
     <path d="M 1091.787784 281.478125 
L 1111.787784 281.478125 
L 1131.787784 281.478125 
" style="fill: none; stroke: #d62728; stroke-width: 8; stroke-linecap: square"/>
     <g>
      <use xlink:href="#m83ac60c806" x="1111.787784" y="281.478125" style="fill: #d62728; stroke: #d62728"/>
     </g>
    </g>
    <g id="text_43">
     <!-- SAITS -->
     <g transform="translate(1163.787784 295.478125) scale(0.4 -0.4)">
      <use xlink:href="#TimesNewRomanPSMT-53"/>
      <use xlink:href="#TimesNewRomanPSMT-41" x="55.615234"/>
      <use xlink:href="#TimesNewRomanPSMT-49" x="127.832031"/>
      <use xlink:href="#TimesNewRomanPSMT-54" x="161.132812"/>
      <use xlink:href="#TimesNewRomanPSMT-53" x="222.216797"/>
     </g>
    </g>
    <g id="line2d_81">
     <path d="M 1091.787784 338.034375 
L 1111.787784 338.034375 
L 1131.787784 338.034375 
" style="fill: none; stroke: #9467bd; stroke-width: 8; stroke-linecap: square"/>
     <g>
      <use xlink:href="#mccb9f1953c" x="1111.787784" y="338.034375" style="fill: #9467bd; stroke: #9467bd"/>
     </g>
    </g>
    <g id="text_44">
     <!-- Non-stationary -->
     <g transform="translate(1163.787784 352.034375) scale(0.4 -0.4)">
      <use xlink:href="#TimesNewRomanPSMT-4e"/>
      <use xlink:href="#TimesNewRomanPSMT-6f" x="72.216797"/>
      <use xlink:href="#TimesNewRomanPSMT-6e" x="122.216797"/>
      <use xlink:href="#TimesNewRomanPSMT-2d" x="172.216797"/>
      <use xlink:href="#TimesNewRomanPSMT-73" x="205.517578"/>
      <use xlink:href="#TimesNewRomanPSMT-74" x="244.433594"/>
      <use xlink:href="#TimesNewRomanPSMT-61" x="272.216797"/>
      <use xlink:href="#TimesNewRomanPSMT-74" x="316.601562"/>
      <use xlink:href="#TimesNewRomanPSMT-69" x="344.384766"/>
      <use xlink:href="#TimesNewRomanPSMT-6f" x="372.167969"/>
      <use xlink:href="#TimesNewRomanPSMT-6e" x="422.167969"/>
      <use xlink:href="#TimesNewRomanPSMT-61" x="472.167969"/>
      <use xlink:href="#TimesNewRomanPSMT-72" x="516.552734"/>
      <use xlink:href="#TimesNewRomanPSMT-79" x="549.853516"/>
     </g>
    </g>
    <g id="line2d_82">
     <path d="M 1091.787784 394.665625 
L 1111.787784 394.665625 
L 1131.787784 394.665625 
" style="fill: none; stroke: #8c564b; stroke-width: 8; stroke-linecap: square"/>
     <g>
      <use xlink:href="#m2f725e93b0" x="1111.787784" y="394.665625" style="fill: #8c564b; stroke: #8c564b"/>
     </g>
    </g>
    <g id="text_45">
     <!-- TimesNet -->
     <g transform="translate(1163.787784 408.665625) scale(0.4 -0.4)">
      <use xlink:href="#TimesNewRomanPSMT-54"/>
      <use xlink:href="#TimesNewRomanPSMT-69" x="57.583984"/>
      <use xlink:href="#TimesNewRomanPSMT-6d" x="85.367188"/>
      <use xlink:href="#TimesNewRomanPSMT-65" x="163.150391"/>
      <use xlink:href="#TimesNewRomanPSMT-73" x="207.535156"/>
      <use xlink:href="#TimesNewRomanPSMT-4e" x="246.451172"/>
      <use xlink:href="#TimesNewRomanPSMT-65" x="318.667969"/>
      <use xlink:href="#TimesNewRomanPSMT-74" x="363.052734"/>
     </g>
    </g>
   </g>
  </g>
 </g>
 <defs>
  <clipPath id="pfbd82cd335">
   <rect x="142.696875" y="61.809375" width="760.909091" height="554.4"/>
  </clipPath>
  <clipPath id="p3999d7fb40">
   <rect x="1055.787784" y="61.809375" width="760.909091" height="554.4"/>
  </clipPath>
 </defs>
</svg>
